<svg xmlns="http://www.w3.org/2000/svg" width="290.765" height="221.978" viewBox="0 0 290.765 221.978">
  <g id="Grupo_877048" data-name="Grupo 877048" transform="translate(10206.53 9005.42)">
    <g id="Grupo_877047" data-name="Grupo 877047">
      <ellipse id="Floor" cx="145.382" cy="18.057" rx="145.382" ry="18.057" transform="translate(-10206.53 -8819.558)" fill="#b0c0d2"/>
      <g id="Grupo_875785" data-name="Grupo 875785" transform="translate(-12839.611 -9267.227)">
        <g id="Grupo_875777" data-name="Grupo 875777" transform="translate(2672.672 261.807)">
          <path id="Trazado_586768" data-name="Trazado 586768" d="M3429.322,1001.523c.142,1.321,2.011,1.273,4.124.957s1.567.239,4.538.182,3.962-1.073,4.092-1.5c.116-.381-1.325-.65-2.868-.972-.194-.04-.388-.082-.583-.124-1.74-.381-2.925-1.635-4.439-2.713-1.434-1.022-2.4-5.7-2.4-5.7l-4.224-.025s1.327,4.234,2.018,5.706c.406.866-.027,1.978-.163,2.812A5.206,5.206,0,0,0,3429.322,1001.523Z" transform="translate(-3389.375 -875.528)" fill="#ffb07b"/>
          <path id="Trazado_586769" data-name="Trazado 586769" d="M3442.664,1047.513c2.113-.317,1.567.239,4.538.182s3.962-1.073,4.092-1.5c.116-.381-1.325-.65-2.868-.972l-.017.029a8.328,8.328,0,0,1-4.332.925c-2-.133-4.062-.9-5.442-1a5.206,5.206,0,0,0-.095,1.383C3438.682,1047.877,3440.551,1047.829,3442.664,1047.513Z" transform="translate(-3398.593 -920.561)" fill="#636363"/>
          <path id="Trazado_586770" data-name="Trazado 586770" d="M3231.01,994.219c.092,1.326,1.961,1.349,4.085,1.112s1.557.3,4.528.352,4-.923,4.146-1.347c.13-.376-1.3-.7-2.829-1.079-.192-.047-.385-.1-.578-.146-1.724-.447-2.862-1.744-4.334-2.878-1.394-1.075-.247-5.534-.247-5.534l-3.2-1.514s-.441,4.6-.679,6.92a26.751,26.751,0,0,1-.739,2.736A5.2,5.2,0,0,0,3231.01,994.219Z" transform="translate(-3224.083 -868.433)" fill="#ffb07b"/>
          <path id="Trazado_586771" data-name="Trazado 586771" d="M3235.095,1046.375c2.124-.237,1.557.3,4.528.352s4-.923,4.146-1.347c.13-.376-1.3-.7-2.829-1.079l-.018.028a8.326,8.326,0,0,1-4.364.761c-1.994-.209-4.025-1.05-5.4-1.206a5.2,5.2,0,0,0-.147,1.378C3231.1,1046.589,3232.971,1046.612,3235.095,1046.375Z" transform="translate(-3224.083 -919.478)" fill="#636363"/>
          <path id="Trazado_586772" data-name="Trazado 586772" d="M3241.084,626.283s-.888,4.3-1.777,26.1a70.342,70.342,0,0,0-2.845,8.972c-1.2,4.935-2.04,25.528-2.04,25.528a2.488,2.488,0,0,0,1.925.774,4.189,4.189,0,0,0,2.1-.447s8.315-26.972,12.363-37.443,6.419-25.423,6.419-25.423Z" transform="translate(-3226.958 -566.671)" fill="#042950"/>
          <path id="Trazado_586773" data-name="Trazado 586773" d="M3339.171,608.932s.656,4.34,7.369,25.1a70.3,70.3,0,0,0,.438,9.4c.586,5.044,7.381,24.9,7.381,24.9a4.173,4.173,0,0,0,2.256-.044,7.125,7.125,0,0,0,2.245-1.089s-2.6-28.386-2.433-39.611-2.781-26.073-2.781-26.073Z" transform="translate(-3315.044 -547.48)" fill="#042950"/>
          <path id="Trazado_586774" data-name="Trazado 586774" d="M3297.315,263.138a6.084,6.084,0,0,0-3.257-.793,1.539,1.539,0,0,1,.71-.295,5.1,5.1,0,0,0-1.843.384c-7.679-3.408-9.486,8.059-9.456,10.746s-.1,5.77-4.134,7.977c-7.927,4.342-1.851,12.918-1.851,12.918-1.427,4.094,3.856,9.111,3.856,9.111-.09-2.174,9.891-16.027,15.272-19.187a15.085,15.085,0,0,0,2.024-5.338,14.26,14.26,0,0,1-1.312,4.856C3301.941,279.675,3300.1,264.913,3297.315,263.138Z" transform="translate(-3261.299 -261.807)" fill="#0c5e46"/>
          <path id="Trazado_586775" data-name="Trazado 586775" d="M3364.352,351.156c.027.012-2.518,1.333-4.432.81-1.8-.491-2.978-2.826-2.953-2.831.763-.152.983-1.2.967-5.7l.345.068,5.588,1.107.208.041s-.133,1.824-.137,3.543c0,.364,0,.722.018,1.057C3363.994,350.246,3364.1,351.04,3364.352,351.156Z" transform="translate(-3330.009 -330.448)" fill="#ffb07b"/>
          <path id="Trazado_586776" data-name="Trazado 586776" d="M3370.059,349.971c0,.364,0,.722.018,1.057-3.25-.131-5.125-3.848-5.832-5.479l5.742.839.208.041S3370.063,348.252,3370.059,349.971Z" transform="translate(-3336.13 -332.228)" fill="#ea8e50"/>
          <path id="Trazado_586777" data-name="Trazado 586777" d="M3350.043,276.931a17.037,17.037,0,0,1-2.108-4.982c-.291-1.64.544-7.717,6.651-6.842a8.3,8.3,0,0,1,3.441,1.3c1.326.9,3.24,2.829,1.1,8.132l-.556,1.792Z" transform="translate(-3322.373 -264.51)" fill="#0c5e46"/>
          <path id="Trazado_586778" data-name="Trazado 586778" d="M3367.033,297.339s-7.609-1.006-6.91-5.735.188-8.044,5.076-7.6,5.563,2.386,5.713,4.021S3369.03,297.479,3367.033,297.339Z" transform="translate(-3332.625 -280.439)" fill="#ffb07b"/>
          <path id="Trazado_586779" data-name="Trazado 586779" d="M3357.1,279.93s-2.9,5.237-6.217,5.582-4.568-.716-4.568-.716a9.132,9.132,0,0,0,3.75-4.9S3355.929,277.056,3357.1,279.93Z" transform="translate(-3321.055 -275.966)" fill="#0c5e46"/>
          <path id="Trazado_586780" data-name="Trazado 586780" d="M3410.455,285.276a6.78,6.78,0,0,1,1.567,2.73c.2,1.26,0,3.764.735,3.788,0,0,2.128-3.537.686-5.932C3411.913,283.323,3410.455,285.276,3410.455,285.276Z" transform="translate(-3374.989 -280.939)" fill="#0c5e46"/>
          <path id="Trazado_586781" data-name="Trazado 586781" d="M3283.384,570.262a11.887,11.887,0,0,0-9.773-6.181,11.1,11.1,0,0,0-7.081,2.477,1.864,1.864,0,0,1-3-1.06l-3.272-15.206a4.107,4.107,0,0,0-4.879-3.151l-52.957,11.4a4.012,4.012,0,0,0-3.078,4.767l11.385,52.9a4.162,4.162,0,0,0,2.811,3.093l-.7.2h2.056l.017,0a4.2,4.2,0,0,0,.761-.091l1.153-.248h0l13.591-2.925a2.565,2.565,0,0,0,1.4-4.189,11.014,11.014,0,1,1,18.448-2.92,1.752,1.752,0,0,0,.517,2.064l-.793.387h1.837a1.8,1.8,0,0,0,.424-.04l16.229-3.493a4.109,4.109,0,0,0,3.152-4.881l-3.253-15.112a1.924,1.924,0,0,1,2.36-2.268,11.025,11.025,0,0,0,12.638-15.514Z" transform="translate(-3197.386 -501.674)" fill="#0c5e46"/>
          <path id="Trazado_586782" data-name="Trazado 586782" d="M3261.855,564.081a11.1,11.1,0,0,0-7.081,2.477,1.864,1.864,0,0,1-3-1.06l-3.273-15.206a4.107,4.107,0,0,0-4.879-3.151l-52.957,11.4a4.012,4.012,0,0,0-3.078,4.767l11.385,52.9a4.166,4.166,0,0,0,4.949,3.2l14.744-3.173a2.565,2.565,0,0,0,1.4-4.189,11.014,11.014,0,1,1,18.448-2.92,1.757,1.757,0,0,0,1.984,2.41l16.229-3.493a4.109,4.109,0,0,0,3.152-4.881l-3.252-15.112a1.924,1.924,0,0,1,2.36-2.268,11.026,11.026,0,0,0,12.638-15.514A11.888,11.888,0,0,0,3261.855,564.081Z" transform="translate(-3187.5 -501.674)" fill="#2b7e3b"/>
          <path id="Trazado_586783" data-name="Trazado 586783" d="M3533.118,527.7s3.3.541,4.169,2.689-.343,3.6-.808,3.6a2.075,2.075,0,0,1-1.774-1.463C3534.287,531.408,3533.118,527.7,3533.118,527.7Z" transform="translate(-3478.14 -485.401)" fill="#ffb07b"/>
          <path id="Trazado_586784" data-name="Trazado 586784" d="M3247.248,587.954s3.708,0,5.042,2.187.275,4-.234,4.078a2.3,2.3,0,0,1-2.2-1.279C3249.2,591.8,3247.248,587.954,3247.248,587.954Z" transform="translate(-3237.744 -536.073)" fill="#ffb07b"/>
          <path id="Trazado_586785" data-name="Trazado 586785" d="M3268.927,405.311c-.329-.07-1.766-.239-3.594-.527-3.366-.528-8.06-1.458-9.635-2.911a26.242,26.242,0,0,1-2.452-5.052,47.182,47.182,0,0,0-.826,12.948l-22.754,4.9c1.951-3.944,4.971-8.835,4.4-12.793-.21-1.467-1.014-3.481-1.314-5.743-.025-.195-.047-.389-.064-.586-3.191,2.627-6.878,5.525-6.966,6.105-.147.971,2.337,11.729,2.337,11.729-.617,1.42-3.3,1.121-3.3,1.121-2.511-1.793-6.2-11.954-5.908-14.205s9.451-15.08,11.667-18.146c2.189-3.03,10.181-2.954,10.373-2.952h0c6.355,3.816,6.928.644,6.928.644s5.734,1.091,6.72,2.784,5.307,14.539,5.613,14.992c.64.946,11.086,4.731,11.273,5.827S3269.863,405.51,3268.927,405.311Z" transform="translate(-3213.856 -360.522)" fill="#3ae3fe"/>
          <path id="Trazado_586786" data-name="Trazado 586786" d="M3294.815,499.394l-7.934,1.7c1.975-3.933,4.573-8.832,4-12.765-.212-1.469-.689-3.206-.918-5.478-.022-.219-.06-.878-.06-.878s5.618,4.422,5.717,9.207A47.768,47.768,0,0,1,3294.815,499.394Z" transform="translate(-3271.072 -446.95)" fill="#1fbcd5"/>
          <path id="Trazado_586787" data-name="Trazado 586787" d="M3447.412,477.712c-3.407-.529-8.159-1.459-9.753-2.912a26.123,26.123,0,0,1-2.483-5.058s-.366-4,.68-3.854,2.587,7.251,3.685,7.7C3440.525,473.989,3445.963,476.076,3447.412,477.712Z" transform="translate(-3395.725 -433.42)" fill="#1fbcd5"/>
        </g>
        <g id="man" transform="translate(2759.779 303.588)">
          <g id="Grupo_875778" data-name="Grupo 875778" transform="translate(86.326 79.286)">
            <path id="Trazado_586788" data-name="Trazado 586788" d="M4510.25,1472.867c-.48,1.619-2.7,2.7-3,4.676a4.3,4.3,0,0,1-.963,2.231h-6.9c.069-.38.372-.79,1.27-.986,1.917-.419,2.64-2.744,2.521-4.9a28.013,28.013,0,0,1,.018-2.829c.061-1.236.162-2.207.162-2.207l4.076-.958.429.55.411.528S4510.729,1471.249,4510.25,1472.867Z" transform="translate(-4464.134 -1397.105)" fill="#636363"/>
            <path id="Trazado_586789" data-name="Trazado 586789" d="M4291.742,1507.7h-13.968a2.8,2.8,0,0,1,1.76-.876c2.15-.349,5.872-1.6,6.7-4.344q.041-.132.071-.271c.659-2.937,5.455.9,5.455.9s.015.118.037.318A14.973,14.973,0,0,1,4291.742,1507.7Z" transform="translate(-4277.774 -1425.034)" fill="#636363"/>
            <path id="Trazado_586790" data-name="Trazado 586790" d="M4292.429,1046.754s.728,9.086,1.584,20.008c1.164,14.837,2.562,33.061,2.7,36.514.239,5.995,1.2,15.585,1.2,15.585s2.276,2.278,6.833,1.318a156.909,156.909,0,0,0,5.22-28.174c.018-.238.036-.477.054-.716,1.079-14.745,2.756-45.794,2.756-45.794Z" transform="translate(-4290.098 -1041.899)" fill="#042950"/>
            <path id="Trazado_586791" data-name="Trazado 586791" d="M4292.429,1046.754s.728,9.086,1.584,20.008L4309.967,1092c.018-.238.036-.477.054-.716,1.079-14.745,2.756-45.794,2.756-45.794Z" transform="translate(-4290.098 -1041.899)" fill="#011427"/>
            <path id="Trazado_586792" data-name="Trazado 586792" d="M4313.337,1028.821s13.127,32.906,21.758,48.371,11.328,19.78,11.328,19.78,4.945-1.978,5.4-3.327c0,0-3.3-29.854-9.081-37.132-3.266-4.113-7.1-16.453-7.283-20.769s-1.168-12.857-1.168-12.857Z" transform="translate(-4307.68 -1022.887)" fill="#042950"/>
          </g>
          <path id="Trazado_586793" data-name="Trazado 586793" d="M4337.343,683.484a38.485,38.485,0,0,1-.6-5.489l6.66-5.367a13.356,13.356,0,0,0,4.482,10.929s-8.875,4.369-14.005,2.751A12.279,12.279,0,0,1,4337.343,683.484Z" transform="translate(-4238.627 -649.059)" fill="#935c2f"/>
          <path id="Trazado_586794" data-name="Trazado 586794" d="M4333.277,631.5s8.473,1.407,9.268-3.882,2.425-8.671-2.952-9.793-6.733.738-7.428,2.439S4331.093,631,4333.277,631.5Z" transform="translate(-4236.731 -602.688)" fill="#a16d3c"/>
          <g id="Grupo_875779" data-name="Grupo 875779" transform="translate(58.04 36.478)">
            <path id="Trazado_586795" data-name="Trazado 586795" d="M4108.7,758.036l-1.8-1.117a4.56,4.56,0,0,0-6.091-1.257s-1.522.97-.5,1.783.747.353,2.162,1.53,3.246,1.6,4.426.948l1.514-.143Z" transform="translate(-4099.952 -754.794)" fill="#a16d3c"/>
            <path id="Trazado_586796" data-name="Trazado 586796" d="M4140.451,757.368c.464-1.454.686-1.582.686-1.582s14.588,1.724,15.963,1.825,20.474-3.833,20.474-3.833l9.018,10.951s-26.588,1-30.068.677c-5.75-.539-16.177-5.893-16.177-5.893A4.249,4.249,0,0,1,4140.451,757.368Z" transform="translate(-4133.845 -753.778)" fill="#d3782f"/>
          </g>
          <path id="Trazado_586797" data-name="Trazado 586797" d="M4313.811,777.012c.026.565-1.139,1.186-1.645,1.413a35.415,35.415,0,0,1-11.361,3.279c-4.753.488-10.37-.581-12.3-.556a.826.826,0,0,1-.54-.2c-.128-.1-.231-5.909-.128-13.229,0-.283,0-.592.025-.875v-.1c.007-.762.02-1.537.036-2.319.047-2.139.128-4.336.221-6.518.14-3.218.331-6.38.6-9.182a53.113,53.113,0,0,1,1.075-7.257,17.707,17.707,0,0,1,5.548-8.863l1.771-1.565a8.407,8.407,0,0,0,5.523-.668c2.029-1,4.239-2.081,4.6-1.824,2.739,2.047,4.583,6.694,5.527,12.6a65.247,65.247,0,0,1,.743,10.419c-.006,1.419-.05,2.859-.131,4.312a141.724,141.724,0,0,0,.281,18.493C4313.731,775.495,4313.793,776.393,4313.811,777.012Z" transform="translate(-4199.877 -696.045)" fill="#e69d43"/>
          <path id="Trazado_586798" data-name="Trazado 586798" d="M3814.452,534.9l-53.583-8.51a4.177,4.177,0,0,0-4.781,3.47l-2.372,14.935a17.583,17.583,0,0,0,.065,2.636l1.932.287a2.48,2.48,0,0,0,.334.05h0a2.554,2.554,0,0,0,1.078-.147,11.043,11.043,0,1,1-3.95,18.306,1.741,1.741,0,0,0-1.045-.493h0l-2.021-.3-2.517,18.218a4.119,4.119,0,0,0,3.422,4.714l15.307,2.431a1.929,1.929,0,0,1,1.266,3.028,11.055,11.055,0,0,0,9.93,17.434,11.918,11.918,0,0,0,9.317-6.9,11.132,11.132,0,0,0,.249-7.518,1.869,1.869,0,0,1,2.076-2.417l15.4,2.446a4.117,4.117,0,0,0,4.712-3.421l8.519-53.642A4.023,4.023,0,0,0,3814.452,534.9Z" transform="translate(-3745.561 -526.042)" fill="#011427"/>
          <path id="Trazado_586799" data-name="Trazado 586799" d="M4307.977,806.952s-4.107,19.167-19.528,23.437c.047-2.139.128-4.336.221-6.518.139-3.218.331-6.38.595-9.182a5.384,5.384,0,0,1,.77-.331C4295.269,812.633,4307.977,806.952,4307.977,806.952Z" transform="translate(-4200.424 -762.015)" fill="#d3782f"/>
          <path id="Trazado_586800" data-name="Trazado 586800" d="M3774.382,602.179a11.127,11.127,0,0,0,.249-7.518,1.87,1.87,0,0,1,2.076-2.417l15.4,2.446a4.117,4.117,0,0,0,4.712-3.421l8.52-53.642a4.023,4.023,0,0,0-3.342-4.6l-53.583-8.51a4.177,4.177,0,0,0-4.78,3.47l-2.372,14.935a2.572,2.572,0,0,0,3.41,2.826,11.043,11.043,0,1,1-3.95,18.306,1.762,1.762,0,0,0-2.972.983l-2.611,16.439a4.119,4.119,0,0,0,3.422,4.714l15.307,2.431a1.929,1.929,0,0,1,1.267,3.028,11.055,11.055,0,0,0,9.929,17.434A11.918,11.918,0,0,0,3774.382,602.179Z" transform="translate(-3735.089 -524.461)" fill="#03386e"/>
          <g id="Grupo_875780" data-name="Grupo 875780" transform="translate(56.777 35.346)">
            <path id="Trazado_586801" data-name="Trazado 586801" d="M4102.083,838.2l-2.2-.364a5.44,5.44,0,0,0-6.889-1.6s-1.736.971-.588,1.88.843.408,2.433,1.722,3.66,1.839,5.005,1.2l1.718-.089Z" transform="translate(-4092.011 -821.468)" fill="#a16d3c"/>
            <path id="Trazado_586802" data-name="Trazado 586802" d="M4144.725,764.511c.071-1.621.935-1.794.935-1.794s16.688-1.1,18.128-1.383,14.732-11.292,14.732-11.292,5.14-4.62,8.742-3.061a7.056,7.056,0,0,1,4.267,6.485,7.141,7.141,0,0,1-4.123,6.909c-5.97,2.788-17.908,8.261-20.627,8.733-6.051,1.051-21.6-2.318-21.6-2.318A5.109,5.109,0,0,1,4144.725,764.511Z" transform="translate(-4136.336 -746.66)" fill="#e69d43"/>
          </g>
          <path id="Trazado_586803" data-name="Trazado 586803" d="M4324.692,598.95a4.944,4.944,0,0,1-1.2-6.512,13.1,13.1,0,0,0,6.548,0c3.843-.9,7.282.374,7.73,1.719a3.126,3.126,0,0,1,1.645,2.841c.149,2.243-4.348,9.307-4.348,9.307s-.96-1.2-.7-2.018,1.084-2.654.075-2.654-1.346,1.5-1.757.9.336-3.1-.859-3.514S4326.038,599.706,4324.692,598.95Z" transform="translate(-4229.258 -581.372)" fill="#03386e"/>
        </g>
        <path id="Trazado_586804" data-name="Trazado 586804" d="M3210.713,1135.743l-15.147-68.772h4.17a1.8,1.8,0,0,0,1.8-1.8v-2.323a1.8,1.8,0,0,0-1.8-1.8h-52.89a1.8,1.8,0,0,0-1.8,1.8v2.323a1.8,1.8,0,0,0,1.8,1.8h5.367l-15.147,68.772a1.717,1.717,0,1,0,3.352.743l15.311-69.515h36.322l15.311,69.515a1.721,1.721,0,0,0,2.046,1.31h0A1.726,1.726,0,0,0,3210.713,1135.743Z" transform="translate(-472.382 -672.11)" fill="#c3e0f4"/>
        <g id="Grupo_875781" data-name="Grupo 875781" transform="translate(2738.371 403.086)">
          <path id="Trazado_586805" data-name="Trazado 586805" d="M3736.658,1150.247h-15.122a2.572,2.572,0,0,0-2.256,3.811c.914,1.654-2.3,15.984-9.075,16.358a11.043,11.043,0,0,1-9.624-17.388,1.762,1.762,0,0,0-1.437-2.781H3682.5a4.119,4.119,0,0,0-4.119,4.119s-1.509,17.865-2.792,17.224a10.982,10.982,0,0,0-4.353-1.143h-.014c-.186-.009-.373-.015-.561-.015s-2.929-.047-2.929-.047l-.415,22.077,2.379.025a13.762,13.762,0,0,0,5.973-1.169,1.869,1.869,0,0,1,2.712,1.671v15.6a4.117,4.117,0,0,0,4.117,4.117h54.314a4.023,4.023,0,0,0,4.023-4.023v-54.255A4.177,4.177,0,0,0,3736.658,1150.247Z" transform="translate(-3656.689 -1150.2)" fill="#d86713"/>
          <path id="Trazado_586806" data-name="Trazado 586806" d="M3609.1,1191.958a11.132,11.132,0,0,0,7.464-.934,1.869,1.869,0,0,1,2.713,1.671v15.6a4.118,4.118,0,0,0,4.118,4.118H3677.7a4.023,4.023,0,0,0,4.023-4.023V1154.13a4.177,4.177,0,0,0-4.177-4.177h-15.122a2.572,2.572,0,0,0-2.256,3.811,11.043,11.043,0,1,1-18.7-1.03,1.762,1.762,0,0,0-1.437-2.781h-16.644a4.119,4.119,0,0,0-4.119,4.119v15.5a1.929,1.929,0,0,1-2.792,1.725,11.055,11.055,0,0,0-15.661,12.541A11.919,11.919,0,0,0,3609.1,1191.958Z" transform="translate(-3600.51 -1149.953)" fill="#f1a34f"/>
        </g>
      </g>
    </g>
  </g>
</svg>
