<svg xmlns="http://www.w3.org/2000/svg" width="216.295" height="205.167" viewBox="0 0 216.295 205.167">
  <g id="Grupo_875577" data-name="Grupo 875577" transform="translate(3341.173 -344.009)">
    <g id="Grupo_875566" data-name="Grupo 875566" transform="translate(-3312.233 348.368)">
      <path id="Rectángulo_295846" data-name="Rectángulo 295846" d="M12.9,0H37.355a12.9,12.9,0,0,1,12.9,12.9v0a12.9,12.9,0,0,1-12.9,12.9H12.9A12.9,12.9,0,0,1,0,12.9v0A12.9,12.9,0,0,1,12.9,0Z" transform="translate(50.252 25.793) rotate(180)" fill="#0c5e46"/>
      <path id="Trazado_585928" data-name="Trazado 585928" d="M-2937.146,553.114l-15.288,13.555,3.34-13.983Z" transform="translate(2973.297 -530.312)" fill="#0c5e46"/>
    </g>
    <g id="Grupo_875568" data-name="Grupo 875568" transform="translate(-3225.392 382.686)">
      <path id="Trazado_585929" data-name="Trazado 585929" d="M-2432.895,1002.892a5.868,5.868,0,0,1,2.934-.382,45.851,45.851,0,0,0,3.458-4.289s9.157-12.214,9.626-12.893l2.888-15.805,8.675-.069s-3.624,17.068-3.979,17.913-14.866,15.764-16.1,17.122c0,0-.795,2.205-1.343,3.569a11.157,11.157,0,0,1-1.938,2.717,11.786,11.786,0,0,1-2.23,2.293c-1.2.953-.568-.53-.568-.53s1.864-2.186,1.645-2.316c-.168-.1-1.107,1.159-2.427,2.228-.339.275-.675.545-.986.79-.816.644-1.508.3-.778-.515a9.375,9.375,0,0,1,1.066-1.042,7.735,7.735,0,0,0,.934-1.04,10.128,10.128,0,0,0,.955-1.078c-.054-.015-.039-.225-.409.055a23.72,23.72,0,0,1-1.908,1.713c-.4.25-1.188.826-1.188.826a8.9,8.9,0,0,1-1.46.566c-.4-.379.394-1.086.987-1.353a6.359,6.359,0,0,1,1.12-.948s1.414-1.578,1.166-1.8a22.045,22.045,0,0,0-2.231,1.437c-1.048.628-2.23,1.085-2.411.89-.306-.331.769-1.156.769-1.156s.789-.536,1.035-.734c.288-.233,1.09-1,1.09-1s2.648-2.809,2.4-3a2.14,2.14,0,0,0-1.3-.335c-.232.113-.523.547-.756.66a.729.729,0,0,1-.848-.224c-.193-.281.67-1.265.67-1.265A3.843,3.843,0,0,1-2432.895,1002.892Z" transform="translate(2437.444 -928.003)" fill="#f48c7f"/>
      <path id="Trazado_585930" data-name="Trazado 585930" d="M-2341.469,1849.354s.309,5.453.311,5.464c.113.692.56,2.4.56,3.032,0,2.364-10.52-2.007-8.162-3.055.213-.095,1.331-.812,1.4-1.617.108-1.24.382-3.748.382-3.748Z" transform="translate(2360.422 -1695.175)" fill="#f7a491"/>
      <path id="Trazado_585931" data-name="Trazado 585931" d="M-2405.613,1890.993a37.906,37.906,0,0,0,3.735.9c1.265.181,2.933-1.342,3.828-.931.985.453.885,4.91.885,4.91s-13.184.777-16.909-.423C-2415.55,1894.978-2410.663,1892.677-2405.613,1890.993Z" transform="translate(2417.301 -1731.394)" fill="#184655"/>
      <path id="Trazado_585932" data-name="Trazado 585932" d="M-2160.555,1853.438s.309,5.453.31,5.464c.114.692.56,2.4.56,3.032,0,2.365-10.52-2.007-8.162-3.055.214-.095,1.663-1.348,1.733-2.152.108-1.24.051-3.213.051-3.213Z" transform="translate(2202.686 -1698.735)" fill="#f7a491"/>
      <path id="Trazado_585933" data-name="Trazado 585933" d="M-2227.086,1895.077a37.932,37.932,0,0,0,3.735.9c1.265.181,2.933-1.342,3.828-.931.985.453,1.024,4.527,1.024,4.527s-14.1,1.022-17.409.062C-2237.4,1899.209-2232.135,1896.761-2227.086,1895.077Z" transform="translate(2261.952 -1734.955)" fill="#184655"/>
      <path id="Trazado_585934" data-name="Trazado 585934" d="M-2332.656,1239l-4.448,1.919-9.356,44.68.379,33.495,7.5.174s3.489-29.3,3.489-31.57,16.158-39.736,16.158-39.736Z" transform="translate(2358.116 -1163.014)" fill="#355389"/>
      <path id="Trazado_585935" data-name="Trazado 585935" d="M-2211.92,1248s3.277,34.424,3.277,40.227,2.657,38.28,2.657,38.28l7.518-.044s.542-9.9,1.348-24.463c.126-2.281-.162-6.883,0-9.244,1.169-16.983,3.483-32.971,2.378-39.308-.177-1.02-.512-3.687-1.163-4.361C-2200.828,1244-2211.92,1248-2211.92,1248Z" transform="translate(2240.813 -1169.559)" fill="#466eb6"/>
      <path id="Trazado_585936" data-name="Trazado 585936" d="M-2283.5,881.878l9.1-.609s.449-8.132.449-12.01c0-4.706,1.434-11.644.874-11.514a11.074,11.074,0,0,0-5.552,3.572C-2283,867.4-2283.5,881.878-2283.5,881.878Z" transform="translate(2303.222 -830.603)" fill="#3c8f7c"/>
      <path id="Trazado_585937" data-name="Trazado 585937" d="M-2263.226,854.651s5.188.721,6.553,1.724a18.335,18.335,0,0,1,3.244,3.656s-6.369,30.107-6.381,35.173c-.009,3.92,1.379,13.543,1.379,13.543s-19.247,1.215-26.537-1.663c0,0,2.3-11.446,2.3-14.451s2.753-30.335,3.38-32.244c.569-1.732,1.608-4.844,5.125-5.611S-2263.226,854.651-2263.226,854.651Z" transform="translate(2304.502 -827.69)" fill="#0c5e46"/>
      <path id="Trazado_585938" data-name="Trazado 585938" d="M-2177.7,789.691l1.284,8.407s-4.689,10.01-7.489,9.142c-2.349-.728-.9-9.586-.9-9.586s1.28-4.757.9-7.137S-2177.7,789.691-2177.7,789.691Z" transform="translate(2217.554 -770.836)" fill="#f7a491"/>
      <path id="Trazado_585939" data-name="Trazado 585939" d="M-2175.932,790.518c-.384-2.38,6.212-.827,6.212-.827l.107.7a3.867,3.867,0,0,1-.716,1.172,8.709,8.709,0,0,1-5.767,2.593A12.9,12.9,0,0,0-2175.932,790.518Z" transform="translate(2209.579 -770.836)" fill="#f47458"/>
      <g id="Grupo_875567" data-name="Grupo 875567" transform="translate(29.678 0)">
        <path id="Trazado_585940" data-name="Trazado 585940" d="M-2194.532,682.37c.187-.067,1.494,9.575-.988,12.228s-7.318,3.521-9.052,1.432c-1.918-2.311-1.822-12.675,2.037-15.4S-2194.532,682.37-2194.532,682.37Z" transform="translate(2205.796 -675.409)" fill="#f7a491"/>
        <path id="Trazado_585941" data-name="Trazado 585941" d="M-2191.688,645.965a10.73,10.73,0,0,1,5.624,3.187c1.354.159,3.2.9,5.1,4.029a7.786,7.786,0,0,1-2.11,10.193,6.116,6.116,0,0,0-2.69,4.516l-.423-1.261a6.936,6.936,0,0,1-.341-2.941,5.715,5.715,0,0,1,.44-1.768c.654-1.4-1.406-2.323-1.983-3.484-.445-.894-.466-2.939-1.167-4.417l-.837-1.128a5.344,5.344,0,0,0-3.82-1.071C-2195.787,652.241-2195.516,645.19-2191.688,645.965Z" transform="translate(2196.418 -645.906)" fill="#03386e"/>
        <path id="Trazado_585942" data-name="Trazado 585942" d="M-2139.687,742.749c-.02,1.176.519,2.139,1.2,2.151s1.254-.933,1.274-2.109-.519-2.14-1.2-2.151S-2139.667,741.572-2139.687,742.749Z" transform="translate(2148.157 -728.502)" fill="#f7a491"/>
      </g>
      <path id="Trazado_585943" data-name="Trazado 585943" d="M-2329.791,1072.45l-.125.718a.679.679,0,0,1-.784.553l-14.877-2.577a.679.679,0,0,1-.553-.785l.125-.718a.679.679,0,0,1,.784-.553l14.877,2.577A.679.679,0,0,1-2329.791,1072.45Z" transform="translate(2357.837 -1014.865)" fill="#13375b"/>
      <path id="Trazado_585944" data-name="Trazado 585944" d="M-2276.795,886.611c-1.745-.051-3.289,11.462-2.183,12.6s1.318,15.316,1.318,15.316l-16.466-.409,0,.005c-.321-.215-3.771-2.532-4.264-3.039-.518-.531-3.031-.266-3.7.465s1.479.133,2.07.531-.444,1.394-.444,1.394-4.173.606-4.986-.258-2.987-2.324-3.282-1.461c-.152.445.969,1.8,1.6,2.361-.788-.59-1.731-1.216-2.055-1.107-.592.2-.345.952-.025,1.173s3.633,2.751,4.151,2.928,8.211.363,9.542.658c0,0,21.714,4.945,22.948,4.636,1.083-.271,2.166-7.221,2.166-12.545S-2271.341,886.769-2276.795,886.611Z" transform="translate(2325.931 -855.773)" fill="#f7a491"/>
      <path id="Trazado_585945" data-name="Trazado 585945" d="M-2088.227,866.11a13.267,13.267,0,0,1,6.175,4.225c2.854,3.206,4.651,21.163,4.651,21.163l-9.853,1.593-.787-8.686-2.633-3.973Z" transform="translate(2135.1 -837.899)" fill="#0c5e46"/>
    </g>
    <g id="Grupo_875573" data-name="Grupo 875573" transform="translate(-3341.173 385.605)">
      <g id="Grupo_875569" data-name="Grupo 875569" transform="translate(44.741 4.481)">
        <path id="Trazado_585946" data-name="Trazado 585946" d="M-2956.042,707.219s-8.06-2.07-9.021,6.507,3.4,9.909,1.035,14.05-5.028,1.035-5.546,12.793,26.448,26.04,33.549,19.06c23.09-22.693-4.31-31.937-3.2-38.888s-2.059-12.852-6.274-15.366S-2955.08,702.856-2956.042,707.219Z" transform="translate(2972.446 -703.671)" fill="#12263f"/>
        <path id="Trazado_585947" data-name="Trazado 585947" d="M-2691.98,1868.2a5.49,5.49,0,0,0,.993,3.508c1.139,1.271,5.379,1.946,5.948,3.392s-4.271,1.536-5.9,1.093a51.522,51.522,0,0,0-6.913-.85c-1.059-.058,1.361-7.091,1.578-7.286A30.457,30.457,0,0,1-2691.98,1868.2Z" transform="translate(2735.761 -1718.825)" fill="#ff7446"/>
        <path id="Trazado_585948" data-name="Trazado 585948" d="M-2883.275,1858.766a38.855,38.855,0,0,1,.95,6.545c-.1,1.823-2.318,4.651-4.024,4.557a2.7,2.7,0,0,1-2.7-3.45c.416-2.219,1.707-7.492,1.707-7.492Z" transform="translate(2902.297 -1710.781)" fill="#ff7446"/>
        <path id="Trazado_585949" data-name="Trazado 585949" d="M-2965.593,954.239s-1.088-35.971.62-37.679c.684-.684,6.274-2.53,10.095-3.158a44.9,44.9,0,0,1,10.2-.537s5.826,6.982,5.826,9.573.372,32.078.372,32.078c4.509,1.662,11.487,31.533,12.01,39.228s-.608,43.492-.608,43.492l-6.567-.713c-3.585-5.622-5.2-35.228-6.248-38.913-1.446-5.086-8.235-20.658-8.235-20.658l-3.5-1.525s.81,23.474.514,28.884.041,31.615.041,31.615l-6.586-.36c-5.156-9.246-8.84-51.912-8.718-54.147s-2.155-5.9-2.631-12.294C-2969.384,964.079-2965.593,954.239-2965.593,954.239Z" transform="translate(2971.969 -885.99)" fill="#466eb6"/>
        <rect id="Rectángulo_295847" data-name="Rectángulo 295847" width="11.682" height="1.237" transform="translate(29.584 68.562) rotate(180)" fill="#fff"/>
        <rect id="Rectángulo_295848" data-name="Rectángulo 295848" width="3.752" height="2.04" rx="1.02" transform="translate(25.689 69.058) rotate(180)" fill="#271798"/>
        <path id="Trazado_585950" data-name="Trazado 585950" d="M-2961.218,961.8s-.966-31.944.352-37.054a32.927,32.927,0,0,1,8.481-3.295c-.243,2.626,2.14,17.4,4.586,24.985,1.544,4.79,1.315,10.664.733,15.229h0a62.293,62.293,0,0,1-1.561,7.978,23.222,23.222,0,0,1-10.067,1.989c-.269-.015-2.629-.172-5.326-.592A73.317,73.317,0,0,1-2961.218,961.8Z" transform="translate(2967.595 -893.546)" fill="#001c41" opacity="0.38"/>
        <path id="Trazado_585951" data-name="Trazado 585951" d="M-2791.145,962.976c-.138-.455.933-5.649,1.268-8.335h.007c2.215-17.989.221-40.9.19-41.246h0c.134.132.514.56,1.021,1.174,1.564,1.993,4.56,6.033,4.862,8.091.005.062.009.122.009.18v.055c0,.325.006.971.014,1.865,0,.174.009.356.021.544.074,7.586.354,29.749.354,29.749,1.457.537,3.17,4.017,4.841,8.742C-2783.981,964.134-2790.761,964.233-2791.145,962.976Z" transform="translate(2816.881 -886.525)" fill="#001c41" opacity="0.38"/>
        <path id="Trazado_585952" data-name="Trazado 585952" d="M-2991.946,965.689c-.01,4.51,12.132,4.829,17.9,2.238l-.628-19.552-1.98-27.847s-7.295,1.447-9.778,3.135c0,0-.805,28.952-1.512,34.841S-2991.941,963.633-2991.946,965.689Z" transform="translate(2991.946 -892.745)" fill="#25bfd8"/>
        <path id="Trazado_585953" data-name="Trazado 585953" d="M-2773.127,914.92s2.849,23.054,2.849,29.061,1.137,16.371,1.137,16.371-6.145,2.356-10.434,1.3c0,0,4.073-23.127,4.073-24.637s-4.129-23.685-4.129-23.685A18.579,18.579,0,0,1-2773.127,914.92Z" transform="translate(2806.831 -886.465)" fill="#25bfd8"/>
        <path id="Trazado_585954" data-name="Trazado 585954" d="M-2701.293,1868.518l7.968.518.01-2.061-8.3-.453Z" transform="translate(2738.807 -1717.543)" fill="#271798"/>
        <path id="Trazado_585955" data-name="Trazado 585955" d="M-2889.592,1858.213l7.9.518.045-2.052-8.3-.454Z" transform="translate(2903.008 -1708.566)" fill="#271798"/>
        <path id="Trazado_585956" data-name="Trazado 585956" d="M-2697.4,1893.541c.628.794,2.678,2.421,8.679,1.7,1.562.63,3.33,1.231,3.683,2.128.57,1.447-4.271,1.536-5.9,1.093a51.54,51.54,0,0,0-6.913-.85C-2698.427,1897.583-2697.971,1895.48-2697.4,1893.541Z" transform="translate(2735.761 -1741.101)" fill="#001653"/>
        <path id="Trazado_585957" data-name="Trazado 585957" d="M-2882.325,1891.769c-.1,1.823-2.318,4.651-4.024,4.557a2.7,2.7,0,0,1-2.7-3.451c.14-.747.379-1.839.635-2.961.217,1.384.86,3.74,2.68,2.925a6.821,6.821,0,0,0,3.185-3.728A15.155,15.155,0,0,1-2882.325,1891.769Z" transform="translate(2902.297 -1737.24)" fill="#001653"/>
        <path id="Trazado_585958" data-name="Trazado 585958" d="M-2758.516,1197.879c-2.305-.117-5.237-.265-8.124-.407.172-1,.348-2.028.523-3.057l7.382.392C-2758.671,1195.828-2758.6,1196.872-2758.516,1197.879Z" transform="translate(2795.505 -1131.544)" fill="#001653" opacity="0.18" style="mix-blend-mode: multiply;isolation: isolate"/>
        <path id="Trazado_585959" data-name="Trazado 585959" d="M-2948.09,1194.254h-.04c-1.791,0-8.762,1.9-11.294,1.9a4.913,4.913,0,0,1-2.4-.623c0-.021.008-.043.011-.065.051-.275.1-.567.133-.878.018-.151.036-.318.054-.5.091-.872.159-1.859.22-2.789h13.215Z" transform="translate(2965.679 -1128.832)" fill="#001653" opacity="0.18" style="mix-blend-mode: multiply;isolation: isolate"/>
        <path id="Trazado_585960" data-name="Trazado 585960" d="M-2854.819,926.165s2.156.453,5.2,10.647,1.021,23.29-1.079,24.65-22.489.856-22.489.856l-.079-7.344s15.436-2.412,16.964-4.286c.375-.46-.269-2.433-.135-4.677C-2856.026,939.121-2854.819,926.165-2854.819,926.165Z" transform="translate(2888.472 -897.66)" fill="#3ae3fe"/>
        <path id="Trazado_585961" data-name="Trazado 585961" d="M-2735.158,1080.509a18.906,18.906,0,0,0,2.9-2.424c.792-.972,2.378-2.279,2.448-1.586a3.306,3.306,0,0,1-.655,1.692s2.883-2.014,3.264-1.7.76,2.469.494,4.851-7.024,4.117-7.024,4.117Z" transform="translate(2768.056 -1028.564)" fill="#dc7a63"/>
        <path id="Trazado_585962" data-name="Trazado 585962" d="M-2976.289,979.882c7.352,1.227,22.868-4.237,29.159-6.214l-2.358-8.163s-18.531,5.127-20.959,4.037c-1.2-.539-4.276-6.246-5.4-12.05a61.705,61.705,0,0,1-.868-12.491s-5.323,6.964-3.823,21.707C-2979.4,977.958-2979.524,979.342-2976.289,979.882Z" transform="translate(2982.235 -914.083)" fill="#3ae3fe"/>
        <path id="Trazado_585963" data-name="Trazado 585963" d="M-2955.02,1075.649s1.736,1.469,3.089,2.572a28.817,28.817,0,0,1,3.475,4.069s-2.517.6-3.4.688-3.784-1.525-4.792-1.422-.714-1.391.521-1.135,2.458.386,2.458.386-2.9-1.9-4.252-3-.258-1.938.849-1.036a10.856,10.856,0,0,0,2.308,1.414s-3.9-3.3-3.334-3.989S-2955.02,1075.649-2955.02,1075.649Z" transform="translate(2962.826 -1026.602)" fill="#dc7a63"/>
        <path id="Trazado_585964" data-name="Trazado 585964" d="M-2857.387,832.62s.416,5.826.957,7.1a1.908,1.908,0,0,0,.714.832c1.533,1.03-1.2,14-2.6,13.714-1.5-.309-5.224-8.353-6.423-10.963a1.547,1.547,0,0,1,.739-2.056l.009,0c1.293-.574.34-11.253.34-11.253Z" transform="translate(2881.161 -813.804)" fill="#f26e5a"/>
        <path id="Trazado_585965" data-name="Trazado 585965" d="M-2850.446,826.7a.642.642,0,0,0-.274.622,8.59,8.59,0,0,0,.939,2.818c1.859,3.718,4.543,5.515,6.392,5.769a60.366,60.366,0,0,1-.795-6.576Z" transform="translate(2868.815 -810.94)" fill="#f26e5a" opacity="0.65" style="mix-blend-mode: multiply;isolation: isolate"/>
        <path id="Trazado_585966" data-name="Trazado 585966" d="M-2856.856,753.613s.952-4.208,4.108-5.456,6.041-.31,7.136,3.808-.489,10.651-2.406,12.656S-2856.618,763.266-2856.856,753.613Z" transform="translate(2874.163 -742.01)" fill="#fc7e72"/>
        <path id="Trazado_585967" data-name="Trazado 585967" d="M-2869.594,794.588s-1.581-2.45-2.552-1.033-.11,4.8,1.725,4.976S-2869.594,794.588-2869.594,794.588Z" transform="translate(2887.846 -781.655)" fill="#fc7e72"/>
      </g>
      <g id="Grupo_875572" data-name="Grupo 875572" transform="translate(0 0)">
        <path id="Trazado_585968" data-name="Trazado 585968" d="M-3234.773,1794.825s-.018.184-.018.491a7.09,7.09,0,0,0,1.427,4.449c1.692,2,1.7,4.481-.085,4.906s-6.051-.136-6.051-.136-.964-1.9-.306-6.975,1.04-10.641,1.04-10.641l4.858-.86Z" transform="translate(3252.993 -1642.908)" fill="#ff7446"/>
        <path id="Trazado_585969" data-name="Trazado 585969" d="M-3238.291,1869.455a32.2,32.2,0,0,1,2.224,3.931c.422,1.157.331,4.036,0,4.332-2.914,2.61-8.438.261-8.438.261a41.982,41.982,0,0,1-.572-4.262c-.192-2.349-.084-4.537.572-4.537s.771,1.232,2.266.884S-3239.824,1869.107-3238.291,1869.455Z" transform="translate(3257.463 -1715.38)" fill="#03386e"/>
        <path id="Trazado_585970" data-name="Trazado 585970" d="M-3243.615,1913.726a17.65,17.65,0,0,0,4.066,1.309c1.513.245,3.551-.519,5.089-1.287a6.306,6.306,0,0,1-.258,2.809c-2.914,2.61-8.438.261-8.438.261S-3243.417,1915.509-3243.615,1913.726Z" transform="translate(3256.114 -1754.219)" fill="#fff"/>
        <path id="Trazado_585971" data-name="Trazado 585971" d="M-3139.81,1804.394a6.239,6.239,0,0,0,1.609,6.211,8.419,8.419,0,0,0,1.939,1.357c2.83,1.4,6.5,1.088,7.006,3.97s-17.944-.809-17.944-.809,1.28-7.011,1.363-8.185-.113-5.487-.113-5.487l7.127-.58Z" transform="translate(3172.051 -1655.823)" fill="#ff7446"/>
        <path id="Trazado_585972" data-name="Trazado 585972" d="M-3148.4,1863.742s-.226,1.113-.742,3a9.253,9.253,0,0,0-.194,3.665s17.285.929,17.985.308.34-2.882.164-3.082a38.492,38.492,0,0,1-3.5-1.66c-1.125-.787-4.967-3.766-6.265-3.646s-1.9,1.208-4.363,1.333S-3147.79,1863.2-3148.4,1863.742Z" transform="translate(3174.002 -1709.403)" fill="#03386e"/>
        <path id="Trazado_585973" data-name="Trazado 585973" d="M-3131.353,1906.849c-.7.621-17.985-.308-17.985-.308a9.3,9.3,0,0,1-.017-2.613,48.458,48.458,0,0,0,18.166-.161C-3131.013,1903.967-3130.654,1906.228-3131.353,1906.849Z" transform="translate(3174.001 -1745.536)" fill="#fff"/>
        <path id="Trazado_585974" data-name="Trazado 585974" d="M-3148.832,1903.928a41.693,41.693,0,0,0,18.166-.161,55.815,55.815,0,0,1-16.47.423Z" transform="translate(3173.478 -1745.536)" fill="#9cb9bd"/>
        <path id="Trazado_585975" data-name="Trazado 585975" d="M-3254.686,1290.374l1.624,70.992,7.77-1.115s2.462-56.969,3.9-58.657,2.017.106,2.017.106,6.2,23.7,5.044,28.429-6.3,30.055-6.3,30.055l7.45.338s8.5-19.418,8.5-32.925-5.253-35.965-5.253-35.965Z" transform="translate(3265.766 -1210.728)" fill="#03386e"/>
        <rect id="Rectángulo_295849" data-name="Rectángulo 295849" width="8.972" height="2.089" transform="translate(33.814 149.752) rotate(180)" fill="#021753"/>
        <rect id="Rectángulo_295850" data-name="Rectángulo 295850" width="9.058" height="2.639" transform="translate(21.075 150.639) rotate(180)" fill="#021753"/>
        <g id="Grupo_875570" data-name="Grupo 875570" transform="translate(12.611 91.579)">
          <path id="Trazado_585976" data-name="Trazado 585976" d="M-3240.977,1440.971a.19.19,0,0,0,.051-.007.273.273,0,0,0,.174-.322c-1.435-7.518-1.527-56.368-1.528-56.861a.252.252,0,0,0-.23-.269h0a.252.252,0,0,0-.23.27c0,2.013.094,49.4,1.539,56.977A.241.241,0,0,0-3240.977,1440.971Z" transform="translate(3242.74 -1383.513)" fill="#021753"/>
        </g>
        <g id="Grupo_875571" data-name="Grupo 875571" transform="translate(26.174 90.703)">
          <path id="Trazado_585977" data-name="Trazado 585977" d="M-3136.643,1435.013a.234.234,0,0,0,.216-.177c.349-1.115,8.537-27.335,8.073-30.955-.457-3.569-5.688-26.048-5.91-27a.229.229,0,0,0-.283-.189.278.278,0,0,0-.161.331c.054.233,5.446,23.4,5.9,26.941.446,3.485-7.965,30.418-8.05,30.689a.284.284,0,0,0,.137.346A.2.2,0,0,0-3136.643,1435.013Z" transform="translate(3136.874 -1376.679)" fill="#021753"/>
        </g>
        <path id="Trazado_585978" data-name="Trazado 585978" d="M-3085.334,902.336l10.845,14.307-12.778,4.661Z" transform="translate(3119.796 -872.403)" fill="#ebce9a"/>
        <path id="Trazado_585979" data-name="Trazado 585979" d="M-3296.758,839.932c1.648-1.648,5.484-2.858,7.984-3.507a11.415,11.415,0,0,1,4.4-.259l5.628.763s7.31,4.7,10.051,7.44,5.221,19.906,5.221,19.906l-1.242,6.541,1.429,28.8c-.629,0-19.5,2.307-29.99-.839,0,0,0-15.359-.289-24.687C-3294.8,867-3298.939,842.113-3296.758,839.932Z" transform="translate(3302.992 -814.62)" fill="#fae0b2"/>
        <path id="Trazado_585980" data-name="Trazado 585980" d="M-3296.428,852.047a11.5,11.5,0,0,1,3.283-1.905v0s2.078-1.139,3.964,6.636-.509,17.234.327,18.07,19.2-.111,19.2-.111-10.728,6.166-15.964,10.661c-2.1,1.8-7.668,2.75-7.679,2.69-.016-.61-.032-1.2-.05-1.774C-3293.944,882.9-3298.955,854.4-3296.428,852.047Z" transform="translate(3302.777 -826.846)" fill="#ebc98d"/>
        <path id="Trazado_585981" data-name="Trazado 585981" d="M-3082.407,981.324l-9.22,17.421a1.174,1.174,0,0,1-1.106.627l-10.953-.646a1.191,1.191,0,0,1-1.039-1.594l5.649-15.9a1.179,1.179,0,0,1,1.038-.787l14.524-.872A1.191,1.191,0,0,1-3082.407,981.324Z" transform="translate(3135.079 -939.741)" fill="#f7cc7f"/>
        <path id="Trazado_585982" data-name="Trazado 585982" d="M-3111.5,1003.231l5.72-15.755a1.191,1.191,0,0,1,1.051-.779l.567-.033a1.192,1.192,0,0,0-.72.719l-5.721,15.9a1.193,1.193,0,0,0,.85,1.565l-.7-.04A1.182,1.182,0,0,1-3111.5,1003.231Z" transform="translate(3140.986 -945.927)" fill="#db9044"/>
        <path id="Trazado_585983" data-name="Trazado 585983" d="M-3329.2,995.977l.87,3.13s18.536-4.783,20.711-5.827c1.76-.845,8.756-2.716,11.362-2.534a.369.369,0,0,1,.066.727c-1.64.395-4.9,1.22-4.9,1.546,0,.435,3.283,1.076,3.046,1.61-.479,1.077-2.089,1.7-2.393,2.7s-3.637.217-4.777.217-22.287,12.836-28.683,9.79-2.524-16.556-2.524-16.556Z" transform="translate(3338.042 -949.475)" fill="#f99662"/>
        <path id="Trazado_585984" data-name="Trazado 585984" d="M-3008.088,1047.823c.424-.424.4-1.469.892-1.958s1.022.5,1.153-.609-.653-2.828.109-2.741,1.806,3.22,1.806,3.22c.548,1.278-1.915,6.048-3.218,5.723a2.792,2.792,0,0,1-1.808-2.59C-3009.154,1048.149-3008.512,1048.247-3008.088,1047.823Z" transform="translate(3051.69 -994.62)" fill="#f99662"/>
        <path id="Trazado_585985" data-name="Trazado 585985" d="M-3222.164,836.932h0l.027.018.012.008.021.014.015.01.044.028.018.012.053.034.009.006.014.01.012.008.029.019.015.009.117.076.023.015c.694.454,2.18,1.436,3.828,2.595h0a13.569,13.569,0,0,1,.359,4.511c-.326,1.762-1.012,2.317-1.991,1.925s-2.817-3-3.236-2.855-3.258,3.7-4.628,3.148c-.922-.373-3.686-6.424-5.07-10.021l.295-.077a11.415,11.415,0,0,1,4.4-.259l5.628.763h0Z" transform="translate(3246.416 -814.62)" fill="#fff"/>
        <path id="Trazado_585986" data-name="Trazado 585986" d="M-3197.108,781.826a16.259,16.259,0,0,0-.251,6.25s-.913,3.953-3.189,4.145-6.589-6.805-6.589-6.805l4.735-7.448Z" transform="translate(3224.308 -763.968)" fill="#f99662"/>
        <path id="Trazado_585987" data-name="Trazado 585987" d="M-3173.176,785.453a7.5,7.5,0,0,1-6-5.672l1.153-1.814,5.293,3.858A25.823,25.823,0,0,0-3173.176,785.453Z" transform="translate(3199.929 -763.968)" fill="#f26e5a" opacity="0.4" style="mix-blend-mode: multiply;isolation: isolate"/>
        <path id="Trazado_585988" data-name="Trazado 585988" d="M-3170.049,690.88s2.23,13.992-1.76,15.607-9.384-.975-9.785-5.723S-3180.979,686.335-3170.049,690.88Z" transform="translate(3202.099 -687.006)" fill="#f99662"/>
        <path id="Trazado_585989" data-name="Trazado 585989" d="M-3204.334,669.7s7.6-2.247,8.054-.026-2.055,3.874-3.8,4.022-6.2-.082-7.555,1.523-3.78,9.021-3.78,9.021l-1.37,2.147a14.821,14.821,0,0,0-2.528-6.295c-1.97-2.388-.863-6.5,1.028-9.312S-3206.057,669.846-3204.334,669.7Z" transform="translate(3232.342 -668.694)" fill="#03386e"/>
        <path id="Trazado_585990" data-name="Trazado 585990" d="M-3181.011,738.2s-.724-1.96-1.8-1.682c-2.434.632-.648,4.963.152,5.082C-3181.031,741.844-3180.374,740.562-3181.011,738.2Z" transform="translate(3204.17 -727.808)" fill="#f99662"/>
        <path id="Trazado_585991" data-name="Trazado 585991" d="M-3328.069,858.563c.081,4.642-2.432,18.338-2.432,18.338s-9.746-.2-10.53-.979,1.727-21.451,6.031-24.347C-3329.858,848.116-3328.146,854.084-3328.069,858.563Z" transform="translate(3341.173 -827.245)" fill="#fae0b2"/>
      </g>
    </g>
    <g id="Grupo_875574" data-name="Grupo 875574" transform="translate(-3242.161 344.009)">
      <path id="Rectángulo_295851" data-name="Rectángulo 295851" d="M12.9,0H37.355a12.9,12.9,0,0,1,12.9,12.9v0a12.9,12.9,0,0,1-12.9,12.9H12.9A12.9,12.9,0,0,1,0,12.9v0A12.9,12.9,0,0,1,12.9,0Z" transform="translate(50.252 25.793) rotate(180)" fill="#3ae3fe"/>
      <path id="Trazado_585992" data-name="Trazado 585992" d="M-2380.925,478.344l.948,18.275-12.9-18.7Z" transform="translate(2415.353 -460.761)" fill="#3ae3fe"/>
    </g>
    <g id="Grupo_875575" data-name="Grupo 875575" transform="translate(-3182.227 386.533)">
      <path id="Trazado_585993" data-name="Trazado 585993" d="M-2072.506,873.931l-.829-3.771a16.036,16.036,0,0,0-4.3,4.181c-1.583,2.46-2.337,9.019-2.789,9.265s-5.46-7.47-6.336-8.686c-1.083-1.5-1.488-3.231-2.166-4.543s-3.067-1.758-3.971-1.594,1.242,4,1.242,4,5.427,9.429,7.236,14.594,7.462,7.625,8.366,6.887S-2072.506,873.931-2072.506,873.931Z" transform="translate(2094.063 -844.047)" fill="#f48c7f"/>
      <path id="Trazado_585994" data-name="Trazado 585994" d="M-2086.8,874.8s-.226-.993-.835-1.2a4.263,4.263,0,0,0-1.737,0,12.722,12.722,0,0,1-1.241-.609l.97,1.805s1.9,2.234,2.527,1.4S-2086.8,874.8-2086.8,874.8Z" transform="translate(2091.884 -847.748)" fill="#f7a491"/>
      <path id="Trazado_585995" data-name="Trazado 585995" d="M-2096.928,873.641a22.788,22.788,0,0,0-.511,4.212c.174.732.61.339.692.18a13.8,13.8,0,0,0,.572-2.888Z" transform="translate(2097.858 -848.312)" fill="#f48c7f"/>
      <path id="Trazado_585996" data-name="Trazado 585996" d="M-2090.318,889.076a8.114,8.114,0,0,1-.662,2.414c-.218.165-.5.068-.586-.368a21.529,21.529,0,0,1,.436-3.1Z" transform="translate(2092.723 -860.851)" fill="#f48c7f"/>
      <path id="Trazado_585997" data-name="Trazado 585997" d="M-2096.117,872.949l1.136-.554-4.824-9.9h0a1.264,1.264,0,0,0-.582,1.689Z" transform="translate(2100.516 -838.596)" fill="#184655"/>
      <path id="Trazado_585998" data-name="Trazado 585998" d="M-1976.366,690.307c-.681-3.095-1.348-6.21.447-9.61a8.729,8.729,0,0,1,6.87-4.68c8.235-.977,6.475,6.711,17.984,8.375,3.576.517,6.9,1.014,9.885,2.793,5.392,3.212,7.427,8.364,3.851,16.757-8.756,20.552-30.247,3.1-32.9-.942C-1972.2,699.989-1975.928,692.3-1976.366,690.307Z" transform="translate(1992.888 -675.932)" fill="#03386e"/>
      <path id="Trazado_585999" data-name="Trazado 585999" d="M-1749.151,1801.455s.586,5.954,2.094,7.047,3.517,5.138,2.512,7.324a2.529,2.529,0,0,1-1.657,1.3,4.4,4.4,0,0,1-5.272-2.47,12.522,12.522,0,0,1-1.034-4.54,16.417,16.417,0,0,0-1.734-7.3Z" transform="translate(1798.606 -1657.259)" fill="#f7a491"/>
      <path id="Trazado_586000" data-name="Trazado 586000" d="M-1993.585,1820.475s-.475,6.007-.089,7.96c.207,1.045,1.357,3.2.829,4.181a2.646,2.646,0,0,1-1.13,1.23l-13.674.22c-.745.012-.253-.466.348-.907a27.589,27.589,0,0,1,4.916-2.714c.2-.1.95-.572,1.219-.736a9.454,9.454,0,0,0,1.956-1.724c.982-1.091,1.068-6.381,1.068-6.381Z" transform="translate(2019.875 -1673.842)" fill="#f7a491"/>
      <path id="Trazado_586001" data-name="Trazado 586001" d="M-1985.368,1186.922s-1.722,9.754-.591,16.149,6.557,65.668,6.557,65.668l6.03.339s1.264-24.76,1.038-28.2a53.288,53.288,0,0,0-2.016-9.206l.6-19.991-7.61-26.262Z" transform="translate(2000.971 -1120.144)" fill="#09503b"/>
      <path id="Trazado_586002" data-name="Trazado 586002" d="M-1955.8,1166.09s4.748,7.132,5.879,13.035-.83,24.043,1.345,31.778c1.177,4.187,5.639,10.654,6.318,16.064s3.339,19.584,3.339,19.584l-6.027,1.192-14.008-35.4-10.988-31.994-2.815-16.478Z" transform="translate(1989.122 -1101.364)" fill="#0c5e46"/>
      <path id="Trazado_586003" data-name="Trazado 586003" d="M-1966.215,864.4s4.158.472,6.645,3.177-4.02,24.453-4.472,27.9,3.706,11.476,3.706,11.476-15.537,2.871-19.758.084c0,0-.452-24.76,0-27.219s4.221-12.462,5.125-13.446S-1966.215,864.4-1966.215,864.4Z" transform="translate(1995.697 -840.252)" fill="#fff"/>
      <path id="Trazado_586004" data-name="Trazado 586004" d="M-2052.682,895.116a2.184,2.184,0,0,0-2.946-1.289,9.5,9.5,0,0,0-4.9,4.269c-1.809,3.771-8.14,16.725-10.1,17.217s-9.949-13.446-9.949-13.446a9.142,9.142,0,0,0-.452-3.853c-.678-1.394-2.713-2.87-3.015-2.378s1.131,1.722,1.131,1.968-.6.41-1.432-.082a3.725,3.725,0,0,1-1.278-1.487,4.9,4.9,0,0,0,.072,4.684c1.432,2.214,2.035,3.115,2.035,3.115s9.271,20.579,12.663,20.825C-2067.7,924.889-2049.508,904.712-2052.682,895.116Z" transform="translate(2088.044 -865.753)" fill="#f7a491"/>
      <path id="Trazado_586005" data-name="Trazado 586005" d="M-1924.99,798.006s.033.185.091.5c.28,1.508,1.36,6.512,2.089,7.888.881,1.662-3.017,6.965-6.769,6.317-1.117-.193.944-4.872.845-5.367-.189-.949-.447-2.243-.71-3.57-.149-.749-.3-1.508-.44-2.221-.4-2.028-.729-3.686-.729-3.686Z" transform="translate(1952.379 -782.244)" fill="#f7a491"/>
      <path id="Trazado_586006" data-name="Trazado 586006" d="M-1924.9,798.505c-.058-.314-.091-.5-.091-.5l-5.622-.14s.327,1.658.729,3.686c.14.71.29,1.464.437,2.209a5.271,5.271,0,0,0,2.684-1.343,7.079,7.079,0,0,0,2.033-3.018C-1924.8,799.045-1924.855,798.739-1924.9,798.505Z" transform="translate(1952.379 -782.244)" fill="#f47458"/>
      <path id="Trazado_586007" data-name="Trazado 586007" d="M-1952.378,694.639a6.635,6.635,0,0,1,3.954,2.462c1.661,2.144,3.451,8.774-.675,12.379s-8.2-.476-8.808-4.8S-1958.389,694.483-1952.378,694.639Z" transform="translate(1976.386 -692.24)" fill="#f7a491"/>
      <path id="Trazado_586008" data-name="Trazado 586008" d="M-1968.982,745.394c.492.956,1.319,1.485,1.846,1.182s.555-1.323.063-2.279-1.319-1.485-1.847-1.182S-1969.474,744.438-1968.982,745.394Z" transform="translate(1986.14 -734.434)" fill="#f7a491"/>
      <path id="Trazado_586009" data-name="Trazado 586009" d="M-1918.577,693.422s3.54,6.305,6.073,6.6,2.865,3.642,2.865,3.642-.905-7.72-3.413-9.209A9.33,9.33,0,0,0-1918.577,693.422Z" transform="translate(1941.886 -691.123)" fill="#03386e"/>
      <path id="Trazado_586010" data-name="Trazado 586010" d="M-1878,744.985c-.206,1.12.208,2.147.925,2.294s1.465-.642,1.671-1.761-.208-2.147-.925-2.294S-1877.794,743.866-1878,744.985Z" transform="translate(1906.554 -734.588)" fill="#f7a491"/>
      <path id="Trazado_586011" data-name="Trazado 586011" d="M-1735.844,1877.415a6.743,6.743,0,0,0,6.608-2.756c.835,1.626,1.347,3.656.733,4.992-.541,1.177-2.014,1.5-3.258,1.545a3.533,3.533,0,0,1-3.2-1.783A10.921,10.921,0,0,1-1735.844,1877.415Z" transform="translate(1782.564 -1721.084)" fill="#3c8f7c"/>
      <path id="Trazado_586012" data-name="Trazado 586012" d="M-2007.867,1890.463a12.4,12.4,0,0,0,7.785-.305c.386,1.091.9,2.459.626,3.248-.332.966-.8,1.185-1.222,1.2-3.3.087-12.1.2-14.618.237a.411.411,0,0,1-.319-.675C-2014.992,1893.419-2008.137,1890.628-2007.867,1890.463Z" transform="translate(2026.578 -1734.598)" fill="#3c8f7c"/>
    </g>
    <g id="Grupo_875576" data-name="Grupo 875576" transform="translate(-3183.465 354.913)">
      <path id="Rectángulo_295852" data-name="Rectángulo 295852" d="M10.4,0H30.135a10.4,10.4,0,0,1,10.4,10.4v0a10.4,10.4,0,0,1-10.4,10.4H10.4A10.4,10.4,0,0,1,0,10.4v0A10.4,10.4,0,0,1,10.4,0Z" transform="translate(40.539 20.808) rotate(180)" fill="#03386e"/>
      <path id="Trazado_586013" data-name="Trazado 586013" d="M-1945.836,569.137l3.946,11.839-11.48-11.839Z" transform="translate(1973.46 -551.199)" fill="#03386e"/>
      <path id="Trazado_586014" data-name="Trazado 586014" d="M-1886.638,503.618a1.966,1.966,0,0,0,2.031,1.9,1.966,1.966,0,0,0,2.03-1.9,1.966,1.966,0,0,0-2.03-1.9A1.967,1.967,0,0,0-1886.638,503.618Z" transform="translate(1915.277 -492.422)" fill="#fff"/>
      <path id="Trazado_586015" data-name="Trazado 586015" d="M-1967.648,503.618a1.966,1.966,0,0,0,2.03,1.9,1.966,1.966,0,0,0,2.031-1.9,1.966,1.966,0,0,0-2.031-1.9A1.966,1.966,0,0,0-1967.648,503.618Z" transform="translate(1985.909 -492.422)" fill="#fff"/>
      <path id="Trazado_586016" data-name="Trazado 586016" d="M-2048.66,503.618a1.966,1.966,0,0,0,2.031,1.9,1.966,1.966,0,0,0,2.031-1.9,1.966,1.966,0,0,0-2.031-1.9A1.966,1.966,0,0,0-2048.66,503.618Z" transform="translate(2056.542 -492.422)" fill="#fff"/>
    </g>
  </g>
</svg>
