<svg xmlns="http://www.w3.org/2000/svg" width="290.765" height="238.881" viewBox="0 0 290.765 238.881">
  <g id="Grupo_877046" data-name="Grupo 877046" transform="translate(10206.53 8718.323)">
    <ellipse id="Floor" cx="145.382" cy="18.057" rx="145.382" ry="18.057" transform="translate(-10206.53 -8515.558)" fill="#b0c0d2"/>
    <g id="Grupo_875833" data-name="Grupo 875833" transform="translate(-13970.713 -9116.189)">
      <g id="Grupo_875825" data-name="Grupo 875825" transform="translate(3849.841 397.866)">
        <rect id="Rectángulo_295901" data-name="Rectángulo 295901" width="126.803" height="109.461" fill="#95c0f4"/>
        <g id="Grupo_875824" data-name="Grupo 875824" transform="translate(2.414 1.824)">
          <rect id="Rectángulo_295902" data-name="Rectángulo 295902" width="121.923" height="105.455" fill="#dfedfb"/>
          <g id="Grupo_875805" data-name="Grupo 875805" transform="translate(15.897 8.437)">
            <path id="Trazado_586864" data-name="Trazado 586864" d="M4140.766,490.218h-26.717V456.857l4.53-4.084h22.187Z" transform="translate(-4114.049 -452.773)" fill="#fff"/>
            <path id="Trazado_586865" data-name="Trazado 586865" d="M4114.049,456.857h4.385l.145-4.084Z" transform="translate(-4114.049 -452.773)" fill="#b0d4ff"/>
            <rect id="Rectángulo_295903" data-name="Rectángulo 295903" width="8.554" height="0.407" transform="translate(9.081 3.247)" fill="#b0d4ff"/>
            <rect id="Rectángulo_295904" data-name="Rectángulo 295904" width="12.582" height="0.407" transform="translate(7.067 4.469)" fill="#b0d4ff"/>
            <rect id="Rectángulo_295905" data-name="Rectángulo 295905" width="20.891" height="0.524" transform="translate(3.163 12.318)" fill="#b0d4ff"/>
            <rect id="Rectángulo_295906" data-name="Rectángulo 295906" width="20.891" height="0.524" transform="translate(3.163 13.909)" fill="#b0d4ff"/>
            <rect id="Rectángulo_295907" data-name="Rectángulo 295907" width="20.891" height="0.524" transform="translate(3.163 15.499)" fill="#b0d4ff"/>
            <rect id="Rectángulo_295908" data-name="Rectángulo 295908" width="20.891" height="0.524" transform="translate(3.163 17.09)" fill="#b0d4ff"/>
            <rect id="Rectángulo_295909" data-name="Rectángulo 295909" width="20.891" height="0.524" transform="translate(3.163 34.111)" fill="#b0d4ff"/>
          </g>
          <g id="Grupo_875806" data-name="Grupo 875806" transform="translate(46.746 54.723)">
            <path id="Trazado_586866" data-name="Trazado 586866" d="M4305.844,737.9h-26.717V704.536l4.53-4.084h22.187Z" transform="translate(-4279.127 -700.452)" fill="#fff"/>
            <path id="Trazado_586867" data-name="Trazado 586867" d="M4279.127,704.536h4.385l.146-4.084Z" transform="translate(-4279.127 -700.452)" fill="#b0d4ff"/>
            <rect id="Rectángulo_295910" data-name="Rectángulo 295910" width="8.554" height="0.407" transform="translate(9.081 3.247)" fill="#b0d4ff"/>
            <rect id="Rectángulo_295911" data-name="Rectángulo 295911" width="12.582" height="0.407" transform="translate(7.067 4.469)" fill="#b0d4ff"/>
            <rect id="Rectángulo_295912" data-name="Rectángulo 295912" width="20.891" height="0.524" transform="translate(3.163 12.318)" fill="#b0d4ff"/>
            <rect id="Rectángulo_295913" data-name="Rectángulo 295913" width="20.891" height="0.524" transform="translate(3.163 13.909)" fill="#b0d4ff"/>
            <rect id="Rectángulo_295914" data-name="Rectángulo 295914" width="20.891" height="0.524" transform="translate(3.163 15.499)" fill="#b0d4ff"/>
            <rect id="Rectángulo_295915" data-name="Rectángulo 295915" width="20.891" height="0.524" transform="translate(3.163 17.09)" fill="#b0d4ff"/>
            <rect id="Rectángulo_295916" data-name="Rectángulo 295916" width="20.891" height="0.524" transform="translate(3.163 21.984)" fill="#b0d4ff"/>
            <rect id="Rectángulo_295917" data-name="Rectángulo 295917" width="20.891" height="0.524" transform="translate(3.163 23.575)" fill="#b0d4ff"/>
            <rect id="Rectángulo_295918" data-name="Rectángulo 295918" width="20.891" height="0.524" transform="translate(3.163 25.419)" fill="#b0d4ff"/>
          </g>
          <g id="Grupo_875807" data-name="Grupo 875807" transform="translate(73.786 8.437)">
            <rect id="Rectángulo_295919" data-name="Rectángulo 295919" width="14.753" height="13.006" fill="#b0d4ff"/>
            <path id="Trazado_586868" data-name="Trazado 586868" d="M4459.839,458.248a.646.646,0,1,1,.646.646A.646.646,0,0,1,4459.839,458.248Z" transform="translate(-4453.108 -456.7)" fill="#ffa412"/>
          </g>
          <g id="Grupo_875808" data-name="Grupo 875808" transform="translate(73.352 25.53)">
            <rect id="Rectángulo_295920" data-name="Rectángulo 295920" width="14.753" height="13.006" transform="translate(0 1.027) rotate(-3.993)" fill="#fff"/>
            <path id="Trazado_586869" data-name="Trazado 586869" d="M4458.295,556.792a.646.646,0,1,1,.689.6A.645.645,0,0,1,4458.295,556.792Z" transform="translate(-4451.417 -553.884)" fill="#b0d4ff"/>
          </g>
          <g id="Grupo_875809" data-name="Grupo 875809" transform="translate(24.328 73.446)">
            <rect id="Rectángulo_295921" data-name="Rectángulo 295921" width="14.753" height="13.006" transform="translate(0 1.027) rotate(-3.993)" fill="#fff"/>
            <path id="Trazado_586870" data-name="Trazado 586870" d="M4195.965,813.192a.646.646,0,1,1,.689.6A.646.646,0,0,1,4195.965,813.192Z" transform="translate(-4189.087 -810.285)" fill="#b0d4ff"/>
          </g>
          <g id="Grupo_875810" data-name="Grupo 875810" transform="translate(5.776 82.78)">
            <rect id="Rectángulo_295922" data-name="Rectángulo 295922" width="14.753" height="13.006" transform="matrix(1, -0.01, 0.01, 1, 0, 0.151)" fill="#fff"/>
            <path id="Trazado_586871" data-name="Trazado 586871" d="M4096.038,860.788a.646.646,0,1,1,.652.639A.645.645,0,0,1,4096.038,860.788Z" transform="translate(-4089.284 -858.351)" fill="#b0d4ff"/>
          </g>
          <g id="Grupo_875811" data-name="Grupo 875811" transform="translate(93.593 33.386)">
            <rect id="Rectángulo_295923" data-name="Rectángulo 295923" width="14.753" height="13.006" transform="translate(2.288 0) rotate(10.133)" fill="#eef6ff"/>
            <path id="Trazado_586872" data-name="Trazado 586872" d="M4576.255,599.959a.561.561,0,1,1,.454.652A.561.561,0,0,1,4576.255,599.959Z" transform="translate(-4567.568 -597.025)" fill="#78acea"/>
          </g>
          <g id="Grupo_875812" data-name="Grupo 875812" transform="translate(50.419 25.272)">
            <rect id="Rectángulo_295924" data-name="Rectángulo 295924" width="14.753" height="13.006" transform="translate(0 1.587) rotate(-6.177)" fill="#eef6ff"/>
            <path id="Trazado_586873" data-name="Trazado 586873" d="M4336.034,554.094a.562.562,0,1,1,.619.5A.562.562,0,0,1,4336.034,554.094Z" transform="translate(-4329.069 -551.489)" fill="#78acea"/>
          </g>
          <g id="Grupo_875813" data-name="Grupo 875813" transform="translate(12.364 56.016)">
            <rect id="Rectángulo_295925" data-name="Rectángulo 295925" width="14.753" height="13.006" transform="translate(0 3.077) rotate(-12.037)" fill="#bae8e3"/>
            <path id="Trazado_586874" data-name="Trazado 586874" d="M4132.963,722.826a.562.562,0,1,1,.777-.166A.562.562,0,0,1,4132.963,722.826Z" transform="translate(-4125.688 -719.098)" fill="#ffa412"/>
          </g>
          <g id="Grupo_875815" data-name="Grupo 875815" transform="translate(51.356 8.437)">
            <g id="Grupo_875814" data-name="Grupo 875814">
              <path id="Trazado_586875" data-name="Trazado 586875" d="M4318.241,465.779H4304.2v-9.434l3.888-3.572h10.154Z" transform="translate(-4304.125 -452.773)" fill="#fff"/>
              <path id="Trazado_586876" data-name="Trazado 586876" d="M4303.8,456.345h3.835l.127-3.572Z" transform="translate(-4303.798 -452.773)" fill="#b0d4ff"/>
            </g>
            <path id="Trazado_586877" data-name="Trazado 586877" d="M4342.043,457.2a.462.462,0,1,1,.462.462A.462.462,0,0,1,4342.043,457.2Z" transform="translate(-4334.896 -455.999)" fill="#b0d4ff"/>
          </g>
          <g id="Grupo_875817" data-name="Grupo 875817" transform="translate(92.382 85.665)">
            <g id="Grupo_875816" data-name="Grupo 875816">
              <path id="Trazado_586878" data-name="Trazado 586878" d="M4537.774,879.033h-14.042V869.6l3.888-3.572h10.154Z" transform="translate(-4523.658 -866.027)" fill="#fff"/>
              <path id="Trazado_586879" data-name="Trazado 586879" d="M4523.332,869.6h3.835l.127-3.572Z" transform="translate(-4523.332 -866.027)" fill="#b0d4ff"/>
            </g>
            <path id="Trazado_586880" data-name="Trazado 586880" d="M4561.577,870.457a.462.462,0,1,1,.462.462A.462.462,0,0,1,4561.577,870.457Z" transform="translate(-4554.43 -869.253)" fill="#b0d4ff"/>
          </g>
          <g id="Grupo_875819" data-name="Grupo 875819" transform="translate(98.788 66.943)">
            <g id="Grupo_875818" data-name="Grupo 875818">
              <path id="Trazado_586881" data-name="Trazado 586881" d="M4572.049,778.846h-14.042v-9.434l3.888-3.572h10.154Z" transform="translate(-4557.933 -765.84)" fill="#fff"/>
              <path id="Trazado_586882" data-name="Trazado 586882" d="M4557.607,769.412h3.835l.127-3.572Z" transform="translate(-4557.607 -765.84)" fill="#b0d4ff"/>
            </g>
            <path id="Trazado_586883" data-name="Trazado 586883" d="M4595.853,770.27a.462.462,0,1,1,.461.462A.461.461,0,0,1,4595.853,770.27Z" transform="translate(-4588.706 -769.066)" fill="#b0d4ff"/>
          </g>
          <g id="Grupo_875821" data-name="Grupo 875821" transform="translate(80.258 66.943)">
            <g id="Grupo_875820" data-name="Grupo 875820">
              <path id="Trazado_586884" data-name="Trazado 586884" d="M4472.894,778.846h-14.042v-9.434l3.888-3.572h10.154Z" transform="translate(-4458.778 -765.84)" fill="#bae8e3"/>
              <path id="Trazado_586885" data-name="Trazado 586885" d="M4458.452,769.412h3.835l.127-3.572Z" transform="translate(-4458.452 -765.84)" fill="#a1d6ce"/>
            </g>
            <path id="Trazado_586886" data-name="Trazado 586886" d="M4496.7,770.27a.461.461,0,1,1,.461.462A.461.461,0,0,1,4496.7,770.27Z" transform="translate(-4489.55 -769.066)" fill="#f99746"/>
          </g>
          <g id="Grupo_875823" data-name="Grupo 875823" transform="translate(102.75 5.181)">
            <g id="Grupo_875822" data-name="Grupo 875822">
              <path id="Trazado_586887" data-name="Trazado 586887" d="M4593.252,448.357h-14.042v-9.434l3.888-3.572h10.154Z" transform="translate(-4579.136 -435.351)" fill="#bae8e3"/>
              <path id="Trazado_586888" data-name="Trazado 586888" d="M4578.811,438.923h3.835l.128-3.572Z" transform="translate(-4578.811 -435.351)" fill="#a1d6ce"/>
            </g>
            <path id="Trazado_586889" data-name="Trazado 586889" d="M4617.057,439.781a.461.461,0,1,1,.461.462A.461.461,0,0,1,4617.057,439.781Z" transform="translate(-4609.909 -438.577)" fill="#f99746"/>
          </g>
        </g>
      </g>
      <g id="Grupo_875829" data-name="Grupo 875829" transform="translate(3903.488 457.415)">
        <g id="Grupo_875826" data-name="Grupo 875826" transform="translate(0 142.308)">
          <path id="Trazado_586890" data-name="Trazado 586890" d="M4319.844,1489.96c-.127,1.734-2.575,1.753-5.352,1.431s-2.039.38-5.927.435-5.229-1.231-5.417-1.787c-.168-.493,1.705-.908,3.708-1.4.252-.061.5-.124.758-.188,2.259-.574,3.755-2.265,5.688-3.741,1.831-1.4,4.191-6.46,4.191-6.46l5.313-.24s-2.237,4.537-3.077,6.493a6.4,6.4,0,0,0-.069,3.649A6.8,6.8,0,0,1,4319.844,1489.96Z" transform="translate(-4303.138 -1478.014)" fill="#ffb27d"/>
          <path id="Trazado_586891" data-name="Trazado 586891" d="M4314.492,1535.517c-2.776-.322-2.039.381-5.927.435s-5.229-1.231-5.417-1.787c-.168-.493,1.705-.908,3.708-1.4l.024.037a10.9,10.9,0,0,0,5.706,1.022c2.61-.262,5.273-1.351,7.073-1.546a6.8,6.8,0,0,1,.184,1.8C4319.717,1535.821,4317.27,1535.839,4314.492,1535.517Z" transform="translate(-4303.138 -1522.141)" fill="#233862"/>
        </g>
        <g id="Grupo_875827" data-name="Grupo 875827" transform="translate(36.686 139.114)">
          <path id="Trazado_586892" data-name="Trazado 586892" d="M4516.155,1476.425c-.126,1.735-2.573,1.756-5.351,1.436s-2.038.383-5.927.441-5.23-1.226-5.419-1.781c-.168-.493,1.7-.91,3.708-1.4.251-.061.5-.125.757-.189,2.258-.576,3.753-2.269,5.684-3.747,1.83-1.4,0-9.691,0-9.691l5.843-.569s-.28,6.98-.276,10.154a17.827,17.827,0,0,0,.793,3.541A6.8,6.8,0,0,1,4516.155,1476.425Z" transform="translate(-4499.448 -1460.926)" fill="#ffb27d"/>
          <path id="Trazado_586893" data-name="Trazado 586893" d="M4510.8,1537.448c-2.777-.319-2.038.383-5.927.441s-5.23-1.225-5.419-1.781c-.168-.493,1.7-.91,3.708-1.4l.024.037a10.894,10.894,0,0,0,5.707,1.016c2.61-.264,5.272-1.356,7.072-1.553a6.8,6.8,0,0,1,.186,1.8C4516.029,1537.747,4513.582,1537.768,4510.8,1537.448Z" transform="translate(-4499.448 -1520.513)" fill="#233862"/>
        </g>
        <path id="Trazado_586894" data-name="Trazado 586894" d="M4496.142,727.842c-1.006-4.137.452-6.063,1.767-7.089a6.278,6.278,0,0,1,2.064-3.034,7.45,7.45,0,0,1,4.032-.771,1.882,1.882,0,0,0-.85-.4,6.25,6.25,0,0,1,2.23.582c9.6-3.7,11.109,10.436,10.907,13.721s-.173,7.151,4.821,9.739c9.53,4.937-3.167,23.542-3.167,23.542.243-2.654-12-16.659-18.391-20.853-1.555-2.29-2.108-6.334-2.149-6.653a17.466,17.466,0,0,0,1.308,6.019C4495.8,739.961,4495.371,733.526,4496.142,727.842Z" transform="translate(-4459.799 -716.514)" fill="#0c5e46"/>
        <path id="Trazado_586895" data-name="Trazado 586895" d="M4517.9,819.673c-.032.014,3.084,1.633,5.429.992,2.2-.6,3.646-3.46,3.616-3.467-.935-.185-1.2-1.469-1.184-6.983l-.422.083-7.1,1.406s.161,2.234.166,4.338C4518.411,817.809,4518.3,819.485,4517.9,819.673Z" transform="translate(-4477.764 -792.704)" fill="#ffb27d"/>
        <path id="Trazado_586896" data-name="Trazado 586896" d="M4519.723,812.066s.162,2.234.167,4.338c3.972-.112,6.071-3.735,6.932-5.744Z" transform="translate(-4479.248 -793.066)" fill="#ed975d"/>
        <path id="Trazado_586897" data-name="Trazado 586897" d="M4364.821,1150.045a1.742,1.742,0,0,0,1.579,2.269l2.773.13,2.934.09a2.353,2.353,0,0,0,1.9-.867,82.493,82.493,0,0,0,13.924-26.362q.185-.585.39-1.185c2.888-8.42,8.875-18.99,12.03-28.557.5-1.524.953-2.958,1.357-4.316.129-.435.256-.862.375-1.282a101.427,101.427,0,0,0,3.619-19.049l-22.781.182A501.858,501.858,0,0,1,4364.821,1150.045Z" transform="translate(-4353.226 -1004.685)" fill="#2a4e96"/>
        <path id="Trazado_586898" data-name="Trazado 586898" d="M4464.728,873.382c.058,10.841-1.59,15.492-1.59,15.492a30.611,30.611,0,0,0,21.347,1.308c.137-.043,9.6-2.2,9.6-2.2-.194-.439-1.919-7.745-2.108-8.147-2.447-5.256-4.306-7.561-4.6-9.177a34.34,34.34,0,0,1-.282-9.082,72.865,72.865,0,0,1,2.811-14.263,74.043,74.043,0,0,1-9.4-3.214,7.346,7.346,0,0,1-5.074,1.882c-2.31-.051-3.058-1.039-2.938-2.119-2.46,1.369-4.424,2.663-4.424,2.663-2.091,3.633-6.333,7.161-6.64,12.734C4461.351,860.625,4464.726,873.078,4464.728,873.382Z" transform="translate(-4431.845 -820.06)" fill="#fff"/>
        <path id="Trazado_586899" data-name="Trazado 586899" d="M4569.043,926.336c1,1.41,2.905,9.976,7.655,11.053-2.447-6.106-4.306-8.783-4.6-10.66a46.266,46.266,0,0,1-.282-10.55c-1.59-2.787-2.777-4.7-2.777-4.7-.125-.451-2.526-7.878-3.3-1.239S4567.931,924.759,4569.043,926.336Z" transform="translate(-4516.568 -871.806)" fill="#5f9aa8"/>
        <path id="Trazado_586900" data-name="Trazado 586900" d="M4499.006,759.847s9.4.155,9.4-5.7,1.224-9.776-4.776-10.123-7.168,1.886-7.646,3.839S4496.562,759.656,4499.006,759.847Z" transform="translate(-4459.857 -738.855)" fill="#ffb27d"/>
        <path id="Trazado_586901" data-name="Trazado 586901" d="M4514.486,738.237s2.572,6.868,6.521,7.883,5.662-.043,5.662-.043a11.183,11.183,0,0,1-3.658-6.606S4516.427,734.968,4514.486,738.237Z" transform="translate(-4474.99 -733.21)" fill="#0c5e46"/>
        <path id="Trazado_586902" data-name="Trazado 586902" d="M4497.194,741.524a8.293,8.293,0,0,0-2.39,3.024c-.469,1.491-.68,4.559-1.574,4.455,0,0-1.938-4.668.24-7.309C4495.781,738.895,4497.194,741.524,4497.194,741.524Z" transform="translate(-4457.06 -735.94)" fill="#0c5e46"/>
        <path id="Trazado_586903" data-name="Trazado 586903" d="M4414.185,1042.106l-4.438,13.533,2.532,1.015,7.339-11.956Z" transform="translate(-4389.823 -981.26)" fill="#ffb27d"/>
        <path id="Trazado_586904" data-name="Trazado 586904" d="M4440.667,853.843s-5.234,2.077-6.749,5.315-3.809,24.957-4.722,27.188-1.6,4-1.6,4,2.639,2.223,5.292,2.387S4440.667,853.843,4440.667,853.843Z" transform="translate(-4404.337 -828.179)" fill="#03386e"/>
        <path id="Trazado_586905" data-name="Trazado 586905" d="M4458.717,843.858s-5.437,13.432-5.6,16.151-.64,44.453-.64,44.453.32,1.919-3.358,1.119-4.637-1.6-4.637-1.6,3.518-25.744,2.558-34.7,7.356-23.559,7.356-23.559Z" transform="translate(-4418.071 -820.06)" fill="#03386e"/>
        <path id="Trazado_586906" data-name="Trazado 586906" d="M4388.468,1224.253l3.186.1a1.842,1.842,0,0,0,1.478-.667,82.215,82.215,0,0,0,14.094-26.569q.185-.585.39-1.185c2.888-8.42,8.875-18.99,12.03-28.557.5-1.524.953-2.958,1.357-4.316.129-.435.256-.862.376-1.282l-3.355-2.546s-10.073,16.31-13.19,31.659C4402.124,1204.22,4391.275,1220.263,4388.468,1224.253Z" transform="translate(-4372.521 -1076.495)" fill="#1e3d70"/>
        <path id="Trazado_586907" data-name="Trazado 586907" d="M4535,1173.481c-.055,7.061.28,22.8,1.14,30.494a1.39,1.39,0,0,0,1.383,1.236h2.377c1,0,1.751-.007,2.249-.015a.913.913,0,0,0,.882-.738c2.364-12.028,4.056-22.022,5.294-30.657,1.037-7.228,1.957-13.424,2.666-18.758.713-5.368,1.209-9.863,1.386-13.661q.042-.9.06-1.745t.01-1.655l-19.684-1.919C4533.014,1149.143,4535.037,1169.143,4535,1173.481Z" transform="translate(-4489.854 -1057.659)" fill="#2a4e96"/>
        <path id="Trazado_586908" data-name="Trazado 586908" d="M4570.962,1228.352c.9,0,1.6-.006,2.09-.012a1.11,1.11,0,0,0,1.072-.9c2.348-11.96,4.03-21.9,5.263-30.5,1.037-7.228,1.958-13.424,2.666-18.758.714-5.368,1.209-9.863,1.387-13.661l-7.223,4.249s4.609,1.626,2.851,13.939S4573.41,1226.609,4570.962,1228.352Z" transform="translate(-4520.911 -1080.8)" fill="#1e3d70"/>
        <path id="Trazado_586909" data-name="Trazado 586909" d="M4536.721,904.853s1.386,5.01,6.184,4.37,11.618-3.518,11.618-3.518-2.05-6.478-4.6-14.988c-3.086-10.3-6.906-23.584-8.707-31.961a51.925,51.925,0,0,1-.979-5.712l-3.979-7.722S4530.325,858.641,4530,862,4536.721,904.853,4536.721,904.853Z" transform="translate(-4487.6 -821.251)" fill="#03386e"/>
        <path id="Trazado_586910" data-name="Trazado 586910" d="M4510.944,861.5l-5.253-16.176a80.982,80.982,0,0,1,9.964,3.652s2.082,2.684,3.37,8.874c0,0,1.36,14.863-1.678,20.3,0,0-9.594,1.919-24.944-3.358v-3.518s16.79.88,20.228,1.279Z" transform="translate(-4457.033 -821.251)" fill="#ffb27d"/>
        <path id="Trazado_586911" data-name="Trazado 586911" d="M4567.108,927.485c.214,5.437,1.494,15.99,12.9,21.64.03.014.061.03.091.043-3.087-10.3-6.907-23.584-8.707-31.961C4569.3,920.338,4566.991,924.492,4567.108,927.485Z" transform="translate(-4517.774 -879.702)" fill="#042547"/>
        <path id="Trazado_586912" data-name="Trazado 586912" d="M4561.063,845.323s9.737.686,12.083,5.909,3.091,22.6.106,27.717c0,0-4.109,1.17-11.378-.189l-.269-.051s-2.318-5.677-.24-6.8c0,0,6.129.32,5.49-1.706S4561.063,845.323,4561.063,845.323Z" transform="translate(-4512.405 -821.251)" fill="#03386e"/>
        <g id="Grupo_875828" data-name="Grupo 875828" transform="translate(23.09 47.226)">
          <path id="Trazado_586913" data-name="Trazado 586913" d="M4432.875,974.192l.287.922,15.978-4.97a.614.614,0,0,0,.108-.565.452.452,0,0,0-.395-.357Z" transform="translate(-4431.72 -969.222)" fill="#a9453d"/>
          <path id="Trazado_586914" data-name="Trazado 586914" d="M4426.692,996.689l1.155-.871.287.922Z" transform="translate(-4426.692 -990.848)" fill="#a9453d"/>
        </g>
        <path id="Trazado_586915" data-name="Trazado 586915" d="M4392.049,1112.541s-4.053,2.24-4.586,3.946-.167,5.28.477,5.227,1.6-3.84,2.137-4.107,1.28-1.066,1.28-.479-.533,1.653-.267,1.813,1.12-1.493,1.707-1.813.833-2.957,1.4-3.665S4392.049,1112.541,4392.049,1112.541Z" transform="translate(-4371.495 -1038.532)" fill="#ffb27d"/>
        <path id="Trazado_586916" data-name="Trazado 586916" d="M4452.487,975.812s-3.625-2.232-5.145-1.889-5.4,3.15-3.532,3.758,3.374-.03,4.09.412,1.247,1.248,4.587,1.237S4452.487,975.812,4452.487,975.812Z" transform="translate(-4417.117 -925.79)" fill="#ffb27d"/>
      </g>
      <g id="Grupo_875830" data-name="Grupo 875830" transform="translate(3964.792 449.138)">
        <path id="Trazado_586917" data-name="Trazado 586917" d="M4831.892,1529.829a18.727,18.727,0,0,1,1.281-4.8c.895-1.789,6.587-.651,6.587-.651s1.138.976,1.382,5.53Z" transform="translate(-4794.384 -1364.842)" fill="#233862"/>
        <path id="Trazado_586918" data-name="Trazado 586918" d="M4649.3,1513.473c1.338-.816.576-6.907.576-6.907s-6.232-4.986-7.089-1.169-5.921,5.532-8.8,6a3.093,3.093,0,0,0-2.8,2.076Z" transform="translate(-4631.184 -1348.526)" fill="#233862"/>
        <path id="Trazado_586919" data-name="Trazado 586919" d="M4704.8,1115.559a28.55,28.55,0,0,0-.457,3.367c-.58,11.3-9.514,37.142-11.111,37.745-2.473.933-6.366-1.05-8.4-1.7a1.747,1.747,0,0,1-1.226-1.985c4.424-20.339,6.05-49.627,6.642-66.966a78.658,78.658,0,0,1,1.8-14.767s21.789-5.814,21.919,1.541C4714.079,1079.3,4706.747,1104.823,4704.8,1115.559Z" transform="translate(-4673.78 -994.91)" fill="#213f7a"/>
        <path id="Trazado_586920" data-name="Trazado 586920" d="M4733.859,1115.559,4719.3,1086.02a78.686,78.686,0,0,1,1.8-14.767s21.789-5.814,21.919,1.541C4743.135,1079.3,4735.8,1104.823,4733.859,1115.559Z" transform="translate(-4702.836 -994.91)" fill="#233862"/>
        <path id="Trazado_586921" data-name="Trazado 586921" d="M4771.252,1077.57l11.519,83.485s5.059,1.22,8.993.244c0,0,3.372-44.4,3.091-55.135s2.42-28.723-.617-30.707S4771.252,1077.57,4771.252,1077.57Z" transform="translate(-4745.076 -999.661)" fill="#213f7a"/>
        <path id="Trazado_586922" data-name="Trazado 586922" d="M4758.808,859.361a1.6,1.6,0,0,1-1.153,1.651c-1.607.466-3.459.791-7.032,1.531a68.191,68.191,0,0,1-13.418,1.348c-8.824.056-12.164-2.985-12.164-2.985-.38.007.2-1.84.724-10.62.178-2.974.349-6.744.472-11.509.111-4.287.187-9.381.193-15.423.009-7.269,11.26-15.089,11.468-15.089l0,0c0,1.047,1.65,2.978,4.19,3.145,3.015.2,6.715-1.3,6.715-3.04,0-.018,5.451,8.72,7.387,18.031C4757.17,831.09,4756.774,830.964,4758.808,859.361Z" transform="translate(-4707.4 -782.842)" fill="#b0d0ff"/>
        <path id="Trazado_586923" data-name="Trazado 586923" d="M4711.923,808.267s-10.462-.089-12.98,3.442-8.039,22.528-5.158,28.849,8.272-2.615,11.264-6.487S4711.923,808.267,4711.923,808.267Z" transform="translate(-4681.425 -782.844)" fill="#b0d0ff"/>
        <path id="Trazado_586924" data-name="Trazado 586924" d="M4793.668,772.578l.006,1.081s-.294,3.382,3.87,3.876,7.256-.632,7.144-3.242a37.653,37.653,0,0,1-.751-5.768,11.73,11.73,0,0,1,.148-2.025l-8.07-.161-2.377.388Z" transform="translate(-4763.278 -748.752)" fill="#ffb27d"/>
        <path id="Trazado_586925" data-name="Trazado 586925" d="M4793.637,766.727l.031,5.85a6.827,6.827,0,0,0,2.909.642c3.709,0,6.106-2.72,7.359-4.694a11.73,11.73,0,0,1,.148-2.025l-8.07-.161Z" transform="translate(-4763.278 -748.752)" fill="#e2915a"/>
        <path id="Trazado_586926" data-name="Trazado 586926" d="M4794.883,705.028c-.937,5.04-7.439,4.874-10.249,4.557-.791-.088-1.289-.189-1.289-.189-.892-.238-1.389-1.643-1.621-3.482-.459-3.641.121-8.985.736-10.352.925-2.057,2.669-4.282,9.218-2.676S4796.084,698.572,4794.883,705.028Z" transform="translate(-4753.458 -688.578)" fill="#ffb27d"/>
        <path id="Trazado_586927" data-name="Trazado 586927" d="M4720.02,884.023s-4.046,8.936-3.929,11.615a13.967,13.967,0,0,1,3.929.505C4723.183,897.086,4720.02,884.023,4720.02,884.023Z" transform="translate(-4700.222 -844.443)" fill="#98baf4"/>
        <path id="Trazado_586928" data-name="Trazado 586928" d="M4775.343,674.414a21.672,21.672,0,0,0,6.282-1.7c2.759-1.2,6.24.121,7.37.717a1.675,1.675,0,0,0-.275-.68,1.517,1.517,0,0,1,.583.863c.052.039.076.065.062.074a1.944,1.944,0,0,1,.945.061s-.259-.037-.351.129a.15.15,0,0,1-.042.046c4.3,2.08,4.7,8.882,3.317,10.456a54.686,54.686,0,0,0-4.183,6.179,7.8,7.8,0,0,1,.093-2.694c.3-1.666-1.137-1.666-2.955-2.424s-.3-2.878-1.894-4.166-7.424-.53-7.348-1.515C4774.782,678.971,4775.343,674.635,4775.343,674.414Z" transform="translate(-4748.349 -672.227)" fill="#233862"/>
        <path id="Trazado_586929" data-name="Trazado 586929" d="M4753.826,971.924c-1.708,6.859-20.181,10.4-24.38,11.124.177-2.974.348-6.744.472-11.509Z" transform="translate(-4711.083 -915.604)" fill="#98baf4"/>
        <path id="Trazado_586930" data-name="Trazado 586930" d="M4833.235,954.076a32.55,32.55,0,0,0,4.811-.938c.7-.352,3.924-4.928,1.815-6.1s-7.77,3.52-7.77,3.52Z" transform="translate(-4794.546 -895.528)" fill="#ffb27d"/>
        <path id="Trazado_586931" data-name="Trazado 586931" d="M4709.661,957.069s15.2.825,25.4-1.36a4.384,4.384,0,0,0-2.949-4.256s-15.9-3.37-19.72-2.432S4709.661,957.069,4709.661,957.069Z" transform="translate(-4694.88 -897.161)" fill="#b0d0ff"/>
        <path id="Trazado_586932" data-name="Trazado 586932" d="M4840.6,831.29c-3.155,3.8-7.28,6.91-11.826,7.637h0a8.476,8.476,0,0,1-1.125-5.077,10.162,10.162,0,0,1,1.656-4.66,10.276,10.276,0,0,0,.894-1.8c2.483-6.335,2.113-18.545,2.113-18.545s10.544,1.1,13.829,5.8C4848.154,817.514,4845.588,825.276,4840.6,831.29Z" transform="translate(-4790.91 -783.312)" fill="#b0d0ff"/>
        <path id="Trazado_586933" data-name="Trazado 586933" d="M4785.352,768.664c-.791-.088-1.288-.189-1.288-.189-.892-.238-1.389-1.643-1.62-3.482a4.4,4.4,0,0,1,2.757,2.254A3.233,3.233,0,0,1,4785.352,768.664Z" transform="translate(-4754.176 -747.657)" fill="#e2915a"/>
        <path id="Trazado_586934" data-name="Trazado 586934" d="M4767.063,772.5s-3.641-6.009-.81-6.27a4.282,4.282,0,0,1,4.378,2.359c.409.7-.106,3.88-.106,3.88Z" transform="translate(-4740.135 -748.646)" fill="#ffb27d"/>
        <path id="Trazado_586935" data-name="Trazado 586935" d="M4785.631,821.714a7.851,7.851,0,0,1-.621,2.086,9.992,9.992,0,0,1-2.319,3.194h0c-9.457-4.269-11.371-18.927-11.691-26.981-.129-3.237,0-5.408,0-5.408,4.266-1.413,5.465,1.042,5.465,1.042s5.037,11.979,7.65,19.807C4785.114,818.449,4785.759,820.838,4785.631,821.714Z" transform="translate(-4744.824 -771.378)" fill="#b0d0ff"/>
        <path id="Trazado_586936" data-name="Trazado 586936" d="M4794.768,844.794c-3.155,3.8-7.28,6.91-11.826,7.637h0c-9.457-4.269-11.37-18.927-11.69-26.981,0,0,4.475,16.231,10.565,21.9a6.647,6.647,0,0,0,3.445,1.884s7.681-2.171,9.292-4.215C4794.666,844.876,4794.736,844.8,4794.768,844.794Z" transform="translate(-4745.074 -796.815)" fill="#98baf4"/>
      </g>
      <g id="Grupo_875832" data-name="Grupo 875832" transform="translate(3811.637 458.704)">
        <path id="Trazado_586937" data-name="Trazado 586937" d="M3883.381,759.626c-.608-1.172,13.257-5.392,13.476,6.174,0,0,25.972-.638,13.571-15.115-4.293-5.012-3.852-9.155-3.723-13.012s-2.674-15.069-12.287-13.94a7.159,7.159,0,0,0-5.66.606C3881.614,728.045,3865.608,763.891,3883.381,759.626Z" transform="translate(-3863.393 -723.415)" fill="#163560"/>
        <path id="Trazado_586938" data-name="Trazado 586938" d="M4145.8,973.069s1.69-2.574,3.053-2.624,3.886-.757,3.684-.252-1.766.555-1.917.858,2.321.757,3.028.807,2.372,0,2.321.353-3,1.817-5.083,1.615a14.124,14.124,0,0,0-4.656.606Z" transform="translate(-4083.354 -923.928)" fill="#ffb27d"/>
        <path id="Trazado_586939" data-name="Trazado 586939" d="M4014.971,901.407a25.351,25.351,0,0,0,2.586,3.911c2.009,2.516,5.106,5.423,9,6a9.654,9.654,0,0,0,5.344-.867l.006,0c4.723-2.1,8.275-6.918,8.275-6.918a3.883,3.883,0,0,0-.53-3.81s-9.538,2.145-10.446,1.691-6.207-15.719-7.468-17.637-5.562-2.914-5.562-2.914Z" transform="translate(-3976.973 -851.434)" fill="#b0d0ff"/>
        <path id="Trazado_586940" data-name="Trazado 586940" d="M4027.5,989.76c2.009,2.516,5.106,5.423,9,6a9.657,9.657,0,0,0,5.344-.867c-.185.024-4.9.607-6.783-2.757-1.918-3.432-3.992-8.882-6.841-7.065C4026.989,985.851,4027.043,987.8,4027.5,989.76Z" transform="translate(-3986.917 -935.876)" fill="#98baf4"/>
        <path id="Trazado_586941" data-name="Trazado 586941" d="M3814.053,1536.261s-2.91,2.656-2.342,4.543,3.194,3.145,3.549,5.452,1.774,3.564,3.052,3.564h6.091s.94-1.623-1.331-2.112-3.128-3.2-2.986-5.716a44.311,44.311,0,0,0-.213-5.871l-4.827-1.118Z" transform="translate(-3811.637 -1383.335)" fill="#233862"/>
        <path id="Trazado_586942" data-name="Trazado 586942" d="M3954.618,1547.767s-1.047,11.251.23,11.88l16.352-.033s0-1.887-2.626-2.307-7.24-1.957-8.021-5.382S3954.618,1547.767,3954.618,1547.767Z" transform="translate(-3927.569 -1393.714)" fill="#233862"/>
        <path id="Trazado_586943" data-name="Trazado 586943" d="M3893.7,878.981c3.365-7.546,5.424-9.712,5.031-12.054-.293-1.743.891-32.5.891-32.5.4-.124,1.2-.234,1.637-.332a4.1,4.1,0,0,0,3-2.607,20.913,20.913,0,0,0,1.018-6.94l.431.085,7.248,1.435s-.165,2.281-.17,4.429v.053a4.168,4.168,0,0,0,3.008,4.031c.915.264,1.712.49,1.712.49a66.459,66.459,0,0,1,3.17,15.4c.508,7.805-4.839,11.2.04,26.793C3925.7,893.2,3891.842,883.15,3893.7,878.981Z" transform="translate(-3878.305 -805.647)" fill="#ffb27d"/>
        <path id="Trazado_586944" data-name="Trazado 586944" d="M3965.509,826.435s-.165,2.281-.17,4.429c-4.055-.114-6.2-3.814-7.078-5.865Z" transform="translate(-3930.861 -806.016)" fill="#e8945b"/>
        <path id="Trazado_586945" data-name="Trazado 586945" d="M3962.043,773.118s-9.6.158-9.6-5.819-1.25-9.982,4.876-10.336,7.319,1.926,7.806,3.92S3964.539,772.923,3962.043,773.118Z" transform="translate(-3926.041 -750.665)" fill="#ffb27d"/>
        <path id="Trazado_586946" data-name="Trazado 586946" d="M3948.264,751.054s-2.627,7.012-6.659,8.049-5.781-.043-5.781-.043a11.42,11.42,0,0,0,3.735-6.745S3946.282,747.717,3948.264,751.054Z" transform="translate(-3912.616 -744.901)" fill="#163560"/>
        <path id="Trazado_586947" data-name="Trazado 586947" d="M3998.906,754.411a5.952,5.952,0,0,1,2.75,2.149,9.662,9.662,0,0,1,1.3,5.487s1.979-4.766-.245-7.462C4000.349,751.726,3998.906,754.411,3998.906,754.411Z" transform="translate(-3963.909 -747.689)" fill="#163560"/>
        <path id="Trazado_586948" data-name="Trazado 586948" d="M3993.119,822.267a2.411,2.411,0,0,0,1.987.808,1.763,1.763,0,0,0,1.479-.976A6.448,6.448,0,0,0,3993.119,822.267Z" transform="translate(-3959.204 -803.521)" fill="#ebf3fa"/>
        <path id="Trazado_586949" data-name="Trazado 586949" d="M3888.6,891.012a65.129,65.129,0,0,0,0,7.558c.162,2.733,2.926,6.393,3.318,7.3.984,2.271,2.094,2.64,2.094,2.64l8.585,2.1,3.019.739,9.52-2.843s4.336-12.1,2.595-18.915a52.371,52.371,0,0,0-4.4-11.543s-7.768,7.606-17.882-.645Z" transform="translate(-3874.126 -848.628)" fill="#b0d0ff"/>
        <path id="Trazado_586950" data-name="Trazado 586950" d="M3902.514,984.6a26.723,26.723,0,0,0,.805,6.183c.984,2.271,2.094,2.64,2.094,2.64l8.585,2.1,3.729-1.1s-12.447-1.886-11.068-12.6Z" transform="translate(-3885.531 -933.542)" fill="#f2ccaa"/>
        <path id="Trazado_586951" data-name="Trazado 586951" d="M3959.1,1053.669s4.714,14.674,5.017,19.669-9.011,70.97-9.386,73.273c-.353,2.17-3.048,3.553-3.048,3.553a4.077,4.077,0,0,1-3.008.232,7.438,7.438,0,0,1-3.23-1.522s-3.669-47.053-1.4-63.861a266.193,266.193,0,0,0,2.3-31.344Z" transform="translate(-3918.698 -991.952)" fill="#08ceee"/>
        <path id="Trazado_586952" data-name="Trazado 586952" d="M3846.9,1051.328s-7.191,9.649-7.861,16.171-1.052,29.432-2.48,35.791-6.676,18.595-6.676,38.427a3.956,3.956,0,0,0,2.229,1.742,18.3,18.3,0,0,0,1.961.542,3.083,3.083,0,0,0,3.448-1.636c3.548-7.143,14.848-30.181,15.428-34.963.41-3.384,3.978-25.783,11.761-38.926,1.868-3.156-1.147-15.7-1.147-15.7Z" transform="translate(-3826.473 -990.048)" fill="#3ae3fe"/>
        <path id="Trazado_586953" data-name="Trazado 586953" d="M3994.26,822.621s.166.7,1.918.6c0,0,1.471-.091,1.426-.865A4.732,4.732,0,0,0,3994.26,822.621Z" transform="translate(-3960.132 -803.716)" fill="#fff"/>
        <path id="Trazado_586954" data-name="Trazado 586954" d="M3937.234,1041.548a9.884,9.884,0,0,1-5.652,1.573c-4.491.09-15.618-1.145-15.618-1.145a9.2,9.2,0,0,0-.474,2.84s13.591,3.428,21.465.5A4.977,4.977,0,0,0,3937.234,1041.548Z" transform="translate(-3896.081 -982.096)" fill="#233862"/>
        <g id="Grupo_875831" data-name="Grupo 875831" transform="translate(34.529 60.256)">
          <path id="Trazado_586955" data-name="Trazado 586955" d="M3996.405,1048.17a2.065,2.065,0,1,1,2.049,2.319A2.2,2.2,0,0,1,3996.405,1048.17Zm.679,0a1.392,1.392,0,1,0,1.37-1.64A1.525,1.525,0,0,0,3997.084,1048.17Z" transform="translate(-3996.405 -1045.851)" fill="#fff"/>
        </g>
        <rect id="Rectángulo_295926" data-name="Rectángulo 295926" width="18.463" height="25.273" transform="matrix(-0.754, -0.657, 0.657, -0.754, 19.176, 74.231)" fill="#0c5e46"/>
        <path id="Trazado_586956" data-name="Trazado 586956" d="M3930.625,1055.989s5.1.6,5.086,1.808-1.271,3.7-1.9,3.809-4.152-3.364-4.152-3.364Z" transform="translate(-3907.601 -993.838)" fill="#ffb27d"/>
        <path id="Trazado_586957" data-name="Trazado 586957" d="M3851.8,877.405s-6.811.478-9.422,6.825-7.565,17-7.565,18.8,2.767,7.319,17.628,10.5c0,0,1.538-1.617,1.444-2.9,0,0-9.277-7.968-9.252-8.9.047-1.761,1.521-4.087,9.666-12.234C3856.51,887.278,3851.8,877.405,3851.8,877.405Z" transform="translate(-3830.479 -848.628)" fill="#b0d0ff"/>
      </g>
    </g>
  </g>
</svg>
