<svg xmlns="http://www.w3.org/2000/svg" xmlns:xlink="http://www.w3.org/1999/xlink" width="191.177" height="191.177" viewBox="0 0 191.177 191.177">
  <defs>
    <filter id="Elipse_180" x="0" y="0" width="191.177" height="191.177" filterUnits="userSpaceOnUse">
      <feOffset dx="5" dy="5" input="SourceAlpha"/>
      <feGaussianBlur stdDeviation="12.5" result="blur"/>
      <feFlood flood-opacity="0.161"/>
      <feComposite operator="in" in2="blur"/>
      <feComposite in="SourceGraphic"/>
    </filter>
    <clipPath id="clip-path">
      <circle id="Elipse_7381" data-name="Elipse 7381" cx="44.368" cy="44.368" r="44.368" fill="none" stroke="#707070" stroke-width="1"/>
    </clipPath>
  </defs>
  <g id="Grupo_1072847" data-name="Grupo 1072847" transform="translate(-709.411 -4204.809)">
    <g id="Grupo_1072688" data-name="Grupo 1072688" transform="translate(730.327 4228.326)">
      <g id="Grupo_1015374" data-name="Grupo 1015374" transform="translate(0 0)">
        <g id="Grupo_1015448" data-name="Grupo 1015448" transform="translate(0 0)">
          <g id="Grupo_1014855" data-name="Grupo 1014855" transform="translate(0 0)">
            <path id="Unión_12" data-name="Unión 12" d="M69.673,0c38.48,0,69.673,30.661,69.673,68.483s-31.194,68.483-69.673,68.483S0,106.3,0,68.483,31.194,0,69.673,0Z" fill="#eba325"/>
            <path id="Trazado_608395" data-name="Trazado 608395" d="M58.359,0c32.231,0,58.359,26.395,58.359,58.955S90.59,117.91,58.359,117.91,0,91.515,0,58.955,26.128,0,58.359,0Z" transform="translate(11.909 8.337)" fill="#fef5e5"/>
          </g>
        </g>
      </g>
    </g>
    <g id="Grupo_1072689" data-name="Grupo 1072689" transform="translate(741.911 4237.309)">
      <g id="Grupo_875625" data-name="Grupo 875625" transform="translate(0 0)">
        <g transform="matrix(1, 0, 0, 1, -32.5, -32.5)" filter="url(#Elipse_180)">
          <circle id="Elipse_180-2" data-name="Elipse 180" cx="58.089" cy="58.089" r="58.089" transform="translate(32.5 32.5)" fill="#fff"/>
        </g>
      </g>
      <g id="Enmascarar_grupo_700350" data-name="Enmascarar grupo 700350" transform="translate(13.721 13.721)" clip-path="url(#clip-path)">
        <g id="Grupo_876069" data-name="Grupo 876069" transform="translate(16.284 16.224)">
          <path id="Trazado_587797" data-name="Trazado 587797" d="M2500.729-5.451c2.738-1.934,5.49-3.848,8.2-5.817a1.148,1.148,0,0,1,1.636-.045q6.719,4.891,13.516,9.674c.68.48.789.739.192,1.422a19.027,19.027,0,0,1-22.832,4.772c-.2-.1-.412-.181-.619-.271l-.3-.007.107.239q4.429,7.547,8.857,15.094c.324.552.677,1.091.947,1.669a2.174,2.174,0,0,1-.521,2.682,3.662,3.662,0,0,1-5.014-.627c-1.06-1.734-2.074-3.5-3.069-5.27a1.2,1.2,0,0,0-1.231-.734c-1.809.049-3.621.045-5.431,0-.645-.015-.835.179-.812.818.046,1.318.033,2.64.008,3.96-.031,1.624-.982,2.481-2.7,2.482s-2.688-.845-2.722-2.461c-.027-1.282-.043-2.566.008-3.847.028-.7-.118-.986-.9-.958-1.771.065-3.545.048-5.317.005a1.206,1.206,0,0,0-1.243.712c-.953,1.709-1.951,3.394-2.951,5.077a3.743,3.743,0,0,1-4.862,1.067,2.331,2.331,0,0,1-.548-3.388q3.319-5.648,6.665-11.28c1.276-2.159,2.546-4.322,3.927-6.666h-6.474c-2.345,0-2.8-.442-2.8-2.742q0-10.751,0-21.5c0-.6.076-1.114-.758-1.338a1.584,1.584,0,0,1-1.057-1.7c.005-.981,0-1.962,0-2.942.006-1.794.584-2.386,2.355-2.386q12.448,0,24.9.01a6.713,6.713,0,0,0,2.842-.532,17.189,17.189,0,0,1,5.357-1.309c.522-.052.8-.047.8.65q-.048,8.657,0,17.315c0,.623-.358.839-.76,1.119q-3.71,2.575-7.412,5.163c-2.15,1.455-4.311,2.9-6.442,4.376-.5.347-.734.42-1.074-.21a19.3,19.3,0,0,1-2.306-11.671,20.185,20.185,0,0,1,2.571-7.622c-.257-.019-.393-.038-.529-.038-5.279,0-10.558.024-15.837-.025-.9-.008-.838.428-.838,1.028.008,7.165.028,14.33-.021,21.494-.007.968.346,1.067,1.154,1.063,5.92-.029,11.84-.013,17.76-.022A1.932,1.932,0,0,0,2496.3.9a12.349,12.349,0,0,0-.917-1c-.69-.61-.72-1.013.136-1.583C2497.3-2.871,2499-4.188,2500.729-5.451Zm9.012,10.122a17.311,17.311,0,0,0,11.82-4.684c.5-.464.672-.725-.027-1.215q-5.6-3.928-11.124-7.953a.893.893,0,0,0-1.262-.01q-5.535,4.014-11.123,7.955c-.662.466-.6.719-.06,1.215A17.337,17.337,0,0,0,2509.742,4.671Zm-2.69-26.372c0-2.34-.042-4.681.021-7.019.023-.866-.293-.888-.978-.742a17.413,17.413,0,0,0-12.28,23.369c.287.7.454.947,1.212.413,3.762-2.648,7.564-5.24,11.371-7.824a1.344,1.344,0,0,0,.668-1.29C2507.03-17.1,2507.051-19.4,2507.051-21.7Zm-8.638-6.242h-21.3c-2.709,0-2.682,0-2.683,2.685,0,.726.178.952.933.948,6.218-.03,12.437-.019,18.656-.014a1.173,1.173,0,0,0,1.088-.414A20.45,20.45,0,0,1,2498.413-27.943Zm-3.235,30.93c.2.383.368.712.553,1.029q4.24,7.276,8.484,14.548c.721,1.237,1.427,2.483,2.168,3.708.543.9,1.506.647,2.128.385.822-.348.076-.972-.167-1.387-3.277-5.591-6.634-11.135-9.839-16.766C2497.71,3.108,2496.85,2.494,2495.178,2.987Zm-7,0c-1.72-.5-2.577.127-3.368,1.518-3.167,5.566-6.482,11.048-9.725,16.572-.251.428-.843.861-.516,1.391.377.612,1.109.25,1.682.288s.7-.508.914-.881q4.85-8.293,9.686-16.6C2487.278,4.543,2487.705,3.8,2488.174,2.991Zm6.417,2.672-.217.033c0,3.113.005,6.225-.006,9.337,0,.41.172.506.541.5,1.755-.012,3.511-.005,5.432-.005Zm-11.623,9.869c1.909,0,3.635-.007,5.36.006.4,0,.623-.056.62-.542-.018-3.1-.009-6.209-.009-9.314l-.2-.039Zm9.591-6.331c0-1.845-.04-3.691.019-5.534.025-.78-.326-.844-.941-.827-.539.015-.907.006-.9.751q.054,5.59,0,11.181c-.007.717.311.776.881.771.585,0,.988,0,.96-.808C2492.517,12.892,2492.559,11.045,2492.559,9.2Zm0,10.819c0-.676-.036-1.354.009-2.027.056-.845-.537-.613-.98-.646-.488-.037-.873-.025-.847.672.048,1.275.035,2.554.006,3.83-.015.674.24.939.923.94.706,0,.927-.315.9-.966C2492.536,21.223,2492.558,20.621,2492.559,20.02Z" transform="translate(-2472.635 31.609)" fill="#050505"/>
          <path id="Trazado_587798" data-name="Trazado 587798" d="M2513.019,25.527c-1.732,1.263-3.428,2.58-5.212,3.765-.856.569-.826.973-.136,1.583a12.3,12.3,0,0,1,.916,1,1.933,1.933,0,0,1-1.149.129c-5.92.01-11.84-.006-17.76.022-.807,0-1.16-.1-1.154-1.063.049-7.164.029-14.329.021-21.494,0-.6-.06-1.036.838-1.028,5.279.049,10.558.024,15.837.025.136,0,.272.019.529.038a20.181,20.181,0,0,0-2.571,7.622,19.3,19.3,0,0,0,2.306,11.671c.34.63.574.558,1.074.21,2.132-1.481,4.292-2.921,6.442-4.376Q2513.01,24.58,2513.019,25.527ZM2490.4,10.5v1.365q-.049.228.18.181h3.177q.229.049.181-.18V10.5q.048-.228-.18-.18h-3.177Q2490.355,10.272,2490.4,10.5Zm6.257,19.705c1.811,0,3.622-.027,5.432.014.686.015,1-.1.979-.9-.021-.716-.176-1.065-.935-.927s-.932-.208-.922-.929c.038-2.98-.009-5.961.033-8.941.011-.755-.131-1.033-.965-1.035s-.883.349-.877,1c.026,2.9.013,5.81.01,8.715,0,.6.222,1.213-.873,1.233-1.169.021-.931-.65-.933-1.287-.006-1.735-.048-3.473.019-5.206.031-.8-.344-.8-.941-.819-.646-.017-.937.093-.913.847.059,1.884,0,3.773.032,5.658.01.578-.138.769-.747.783-.77.018-1.22-.076-1.091-1.013.087-.629-.01-1.282.025-1.921.028-.515-.108-.722-.678-.732-.775-.014-1.323.044-1.158,1.052.079.477-.028.983.023,1.468.086.819-.1,1.314-1.062,1.125-.859-.169-.74.426-.769.958-.032.578.05.89.766.87C2492.962,30.172,2494.811,30.206,2496.66,30.206Zm-.859-14.493c1.579,0,3.16-.04,4.738.017.8.029.689-.441.7-.93.006-.5.076-.929-.708-.918q-4.738.064-9.477,0c-.8-.011-.689.441-.7.93-.007.5-.078.947.708.918C2492.64,15.673,2494.221,15.714,2495.8,15.714Zm2.631-3.623c.675,0,1.354-.045,2.024.012s.84-.234.782-.84c-.047-.5.156-1.052-.735-1-1.309.071-2.625.04-3.937.008-.549-.013-.774.094-.8.723-.034.849.167,1.245,1.091,1.113A11.247,11.247,0,0,1,2498.431,12.091Z" transform="translate(-2484.924 0.631)" fill="#c9ced6"/>
          <path id="Trazado_587799" data-name="Trazado 587799" d="M2658.591-12.953a19.935,19.935,0,0,1-2.442,9.759c-.306.557-.492.662-1.053.272q-7.007-4.862-14.062-9.657a1.269,1.269,0,0,1-.58-1.219c.017-5.617.027-11.234-.008-16.85-.005-.8.194-.976.99-.909a19.041,19.041,0,0,1,16.918,16.139C2658.48-14.448,2658.542-13.47,2658.591-12.953Zm-16.315-2.587c0,.277-.013.392,0,.5.061.457-.23,1.052.354,1.315.625.281.832-.379,1.141-.684,2.655-2.617,5.283-5.261,7.919-7.9,1.2-1.2,1.16-1.163.033-2.4-.608-.665-.94-.525-1.5.046q-3.468,3.561-7.028,7.031C2642.533-16.975,2642.055-16.345,2642.276-15.54Zm4.346,4.586c.27-.248.5-.441.705-.651q3.324-3.316,6.643-6.638c1.459-1.458,1.446-1.45.308-3.148-.268-.4-.431-.532-.828-.131q-4.3,4.339-8.633,8.649c-.129.129-.364.336-.218.453C2645.242-11.9,2645.93-11.447,2646.622-10.954Zm9.255-6.642-6.523,6.526c-1.184,1.184-1.148,1.136.188,2.146.7.529,1.1.419,1.657-.18a34.584,34.584,0,0,1,3.768-3.734,3.36,3.36,0,0,0,1.071-4.514C2656.024-17.384,2656-17.411,2655.877-17.6Zm-13.6-1.578c2.314-2.333,4.347-4.454,6.468-6.484.77-.736.693-1.029-.168-1.591a1.543,1.543,0,0,0-2.423.31c-1.017,1.2-2.217,2.253-3.331,3.377-.257.259-.566.475-.555.928C2642.294-21.593,2642.276-20.55,2642.276-19.174Zm14.49,7c-1.059,1.07-1.913,1.9-2.728,2.767-.657.7-1.948,1.347-1.809,2.094.129.692,1.453,1.139,2.212,1.742.569.452.779.248,1.013-.339A18.727,18.727,0,0,0,2656.766-12.171ZM2645.254-28.8a10.74,10.74,0,0,0-2.418-.7c-.245-.045-.554-.13-.554.3,0,1.127,0,2.254,0,3.3Z" transform="translate(-2602.423 31.578)" fill="#050404"/>
          <path id="Trazado_587800" data-name="Trazado 587800" d="M2637.976,147.176a2.714,2.714,0,1,1-2.751-2.706A2.725,2.725,0,0,1,2637.976,147.176Zm-2.736.914a.876.876,0,0,0,.906-.837.829.829,0,0,0-.873-.953.816.816,0,0,0-.9.818C2634.337,147.7,2634.691,148,2635.24,148.09Z" transform="translate(-2596.314 -104.574)" fill="#070606"/>
          <path id="Trazado_587801" data-name="Trazado 587801" d="M2669.953,147.16a2.715,2.715,0,1,1-2.766-2.691A2.726,2.726,0,0,1,2669.953,147.16Zm-1.812.066a.871.871,0,0,0-.81-.924.886.886,0,1,0-.074,1.767A.87.87,0,0,0,2668.14,147.226Z" transform="translate(-2621.045 -104.573)" fill="#070606"/>
          <path id="Trazado_587802" data-name="Trazado 587802" d="M2699.219,144.471a2.715,2.715,0,1,1-2.712,2.745A2.723,2.723,0,0,1,2699.219,144.471Zm.906,2.687c-.083-.517-.363-.856-.885-.857a.828.828,0,0,0-.9.921.816.816,0,0,0,.865.849C2699.781,148.078,2700.07,147.715,2700.125,147.158Z" transform="translate(-2645.782 -104.575)" fill="#070606"/>
          <path id="Trazado_587803" data-name="Trazado 587803" d="M2594.777,80.318A17.337,17.337,0,0,1,2583,75.626c-.539-.5-.6-.749.06-1.215q5.594-3.932,11.123-7.955a.893.893,0,0,1,1.262.01q5.537,4.011,11.124,7.953c.7.49.531.752.027,1.215A17.311,17.311,0,0,1,2594.777,80.318Zm-2.161-3c.269-.219.453-.343.608-.5,1.469-1.462,2.911-2.952,4.409-4.384.517-.495.342-.769-.077-1.159s-.668-.745-1.242-.133c-1.393,1.483-2.867,2.888-4.3,4.338-.188.191-.607.356-.381.706A10.093,10.093,0,0,0,2592.616,77.321Zm.406-6.068a.879.879,0,0,0-.913.829.832.832,0,0,0,.866.959.819.819,0,0,0,.9-.81C2593.925,71.652,2593.569,71.346,2593.022,71.253Zm3.64,5.432c.509-.1.851-.376.841-.9a.83.83,0,0,0-.938-.887.817.817,0,0,0-.834.88C2595.738,76.357,2596.109,76.635,2596.662,76.684Z" transform="translate(-2557.67 -44.038)" fill="#b1d97d"/>
          <path id="Trazado_587804" data-name="Trazado 587804" d="M2575.082-14.606c0,2.3-.021,4.6.015,6.906a1.344,1.344,0,0,1-.668,1.29c-3.807,2.585-7.608,5.176-11.371,7.824-.758.534-.926.285-1.212-.413a17.413,17.413,0,0,1,12.28-23.369c.685-.146,1-.124.978.742C2575.041-19.287,2575.082-16.946,2575.082-14.606Zm-4.752,3.265v-.416c1.238.217,1.245-.543,1.09-1.4a2.284,2.284,0,0,0-1.051-1.67,1.259,1.259,0,0,1-.721-1.454c.107-.675-.07-1.01-.877-.98-.7.027-1.075.148-.936.923.131.735-.17,1.005-.915.937-.3-.027-.879-.263-.874.351.015,1.615-.437,3.362,1.112,4.613l0,.416c-1.238-.217-1.246.543-1.091,1.4a2.275,2.275,0,0,0,1.053,1.669,1.257,1.257,0,0,1,.719,1.455c-.106.675.07,1.011.877.98.7-.027,1.075-.148.937-.923-.131-.735.169-1.005.915-.937.3.027.879.263.873-.351C2571.426-8.342,2571.877-10.09,2570.33-11.341Z" transform="translate(-2540.666 24.514)" fill="#f8d46e"/>
          <path id="Trazado_587805" data-name="Trazado 587805" d="M2504.552-15.43a20.448,20.448,0,0,0-3.3,3.206,1.174,1.174,0,0,1-1.088.414c-6.219,0-12.437-.016-18.656.014-.754,0-.933-.223-.932-.948,0-2.685-.026-2.685,2.683-2.685h21.3Z" transform="translate(-2478.774 19.096)" fill="#a8b0bb"/>
          <path id="Trazado_587806" data-name="Trazado 587806" d="M2572.128,120.5c1.672-.493,2.532.12,3.327,1.516,3.2,5.631,6.562,11.176,9.839,16.766.243.414.989,1.039.167,1.387-.621.263-1.584.513-2.127-.385-.741-1.224-1.447-2.471-2.168-3.708q-4.242-7.274-8.484-14.548C2572.5,121.217,2572.333,120.887,2572.128,120.5Z" transform="translate(-2549.585 -85.908)" fill="#c99972"/>
          <path id="Trazado_587807" data-name="Trazado 587807" d="M2494.435,120.508c-.469.81-.9,1.552-1.327,2.292q-4.84,8.3-9.686,16.6c-.218.373-.345.918-.914.881s-1.3.324-1.683-.288c-.327-.53.265-.963.516-1.391,3.243-5.523,6.558-11.005,9.725-16.572C2491.858,120.634,2492.715,120,2494.435,120.508Z" transform="translate(-2478.896 -85.908)" fill="#c99972"/>
          <path id="Trazado_587808" data-name="Trazado 587808" d="M2554.351,126.782c0,1.845-.042,3.691.02,5.534.027.81-.375.8-.96.808-.57,0-.887-.054-.881-.771q.052-5.59,0-11.181c-.007-.745.361-.736.9-.751.615-.017.966.047.941.827C2554.311,123.091,2554.351,124.937,2554.351,126.782Z" transform="translate(-2534.427 -85.972)" fill="#cb9b73"/>
          <path id="Trazado_587809" data-name="Trazado 587809" d="M2554.357,187.086c0,.6-.023,1.2.006,1.8.031.651-.19.967-.9.966-.683,0-.938-.266-.923-.94.03-1.276.042-2.555-.005-3.83-.026-.7.36-.709.847-.672.444.034,1.037-.2.98.646C2554.322,185.732,2554.357,186.41,2554.357,187.086Z" transform="translate(-2534.433 -135.457)" fill="#cb9b73"/>
          <path id="Trazado_587810" data-name="Trazado 587810" d="M2595.845,127l-.107-.239.3.007Z" transform="translate(-2567.845 -90.879)" fill="#f6f8f9"/>
          <path id="Trazado_587811" data-name="Trazado 587811" d="M2502.866,61.077c-1.849,0-3.7-.034-5.545.017-.716.02-.8-.292-.766-.87.03-.533-.09-1.128.77-.958.962.189,1.148-.306,1.062-1.125-.051-.485.056-.991-.023-1.468-.166-1.008.382-1.066,1.158-1.052.569.01.706.217.678.732-.035.639.062,1.292-.025,1.921-.129.937.321,1.031,1.091,1.013.61-.014.758-.2.748-.783-.033-1.886.027-3.774-.032-5.658-.023-.754.267-.864.913-.847.6.015.972.021.941.819-.067,1.733-.025,3.47-.019,5.206,0,.636-.235,1.308.933,1.287,1.095-.02.872-.63.873-1.233,0-2.905.016-5.81-.01-8.715-.006-.655.046-1.006.877-1s.976.28.965,1.035c-.043,2.98,0,5.961-.034,8.941-.009.72.161,1.067.922.929s.914.211.935.927c.023.8-.293.915-.979.9C2506.489,61.05,2504.677,61.077,2502.866,61.077Z" transform="translate(-2491.131 -30.24)" fill="#030303"/>
          <path id="Trazado_587812" data-name="Trazado 587812" d="M2502.031,34.276c-1.58,0-3.161-.041-4.738.017-.786.029-.715-.414-.708-.918.006-.489-.1-.941.7-.93q4.738.063,9.477,0c.784-.01.714.414.708.918-.006.489.106.959-.7.93C2505.192,34.236,2503.611,34.276,2502.031,34.276Z" transform="translate(-2491.155 -17.932)" fill="#030303"/>
          <path id="Trazado_587813" data-name="Trazado 587813" d="M2523.141,18.274a11.243,11.243,0,0,0-1.573.013c-.924.132-1.125-.265-1.091-1.113.025-.629.25-.737.8-.723,1.312.032,2.628.063,3.938-.008.89-.048.687.506.735,1,.058.606-.1.9-.782.84S2523.816,18.274,2523.141,18.274Z" transform="translate(-2509.634 -5.552)" fill="#030303"/>
          <path id="Trazado_587814" data-name="Trazado 587814" d="M2500.17,18.452h-3.177l-.18-.181V16.907l.181-.18h3.177l.18.18v1.365Z" transform="translate(-2491.335 -5.775)" fill="#030303"/>
          <path id="Trazado_587815" data-name="Trazado 587815" d="M2496.967,16.7l-.181.18Q2496.739,16.649,2496.967,16.7Z" transform="translate(-2491.308 -5.746)" fill="#070606"/>
          <path id="Trazado_587816" data-name="Trazado 587816" d="M2511.628,23.729l.181-.18Q2511.856,23.777,2511.628,23.729Z" transform="translate(-2502.793 -11.051)" fill="#070606"/>
          <path id="Trazado_587817" data-name="Trazado 587817" d="M2496.785,23.545l.18.181Q2496.736,23.773,2496.785,23.545Z" transform="translate(-2491.306 -11.048)" fill="#070606"/>
          <path id="Trazado_587818" data-name="Trazado 587818" d="M2511.812,16.879l-.18-.18Q2511.861,16.651,2511.812,16.879Z" transform="translate(-2502.796 -5.747)" fill="#070606"/>
          <path id="Trazado_587819" data-name="Trazado 587819" d="M2648.337,6.4c-.221-.8.257-1.435.925-2.083q3.565-3.464,7.028-7.031c.557-.571.888-.711,1.5-.046,1.127,1.233,1.17,1.193-.032,2.4-2.636,2.636-5.265,5.28-7.919,7.9-.309.305-.516.965-1.141.684-.583-.263-.292-.858-.354-1.315C2648.324,6.788,2648.337,6.673,2648.337,6.4Z" transform="translate(-2608.484 9.642)" fill="#f57e6a"/>
          <path id="Trazado_587820" data-name="Trazado 587820" d="M2660.644,22.518c-.692-.493-1.38-.951-2.022-1.466-.146-.117.089-.324.218-.453q4.319-4.322,8.633-8.649c.4-.4.56-.268.828.131,1.138,1.7,1.15,1.69-.309,3.148q-3.321,3.32-6.643,6.638C2661.139,22.077,2660.914,22.27,2660.644,22.518Z" transform="translate(-2616.445 -1.894)" fill="#f57e6a"/>
          <path id="Trazado_587821" data-name="Trazado 587821" d="M2683.374,30.1c.123.185.147.212.161.244a3.36,3.36,0,0,1-1.071,4.514,34.585,34.585,0,0,0-3.768,3.734c-.559.6-.957.709-1.657.18-1.337-1.01-1.372-.963-.188-2.146Z" transform="translate(-2629.919 -16.119)" fill="#f57e6a"/>
          <path id="Trazado_587822" data-name="Trazado 587822" d="M2648.5-5.947c0-1.376.017-2.419-.008-3.46-.011-.452.3-.668.555-.928,1.114-1.123,2.313-2.173,3.331-3.377a1.543,1.543,0,0,1,2.423-.31c.861.562.938.854.167,1.591C2652.844-10.4,2650.81-8.28,2648.5-5.947Z" transform="translate(-2608.643 18.352)" fill="#f57e6a"/>
          <path id="Trazado_587823" data-name="Trazado 587823" d="M2696.952,54.045a18.721,18.721,0,0,1-1.312,6.264c-.234.587-.444.791-1.013.339-.759-.6-2.083-1.05-2.212-1.742-.139-.747,1.152-1.395,1.809-2.094C2695.039,55.945,2695.894,55.115,2696.952,54.045Z" transform="translate(-2642.609 -34.638)" fill="#f57e6a"/>
          <path id="Trazado_587824" data-name="Trazado 587824" d="M2651.522-21.836l-2.972,2.9c0-1.045,0-2.172,0-3.3,0-.434.308-.349.553-.3A10.739,10.739,0,0,1,2651.522-21.836Z" transform="translate(-2608.692 24.619)" fill="#f57e6a"/>
          <path id="Trazado_587825" data-name="Trazado 587825" d="M2641.476,154.334c-.548-.088-.9-.391-.862-.972a.817.817,0,0,1,.9-.818.83.83,0,0,1,.873.953A.876.876,0,0,1,2641.476,154.334Z" transform="translate(-2602.551 -110.819)" fill="#ea7966"/>
          <path id="Trazado_587826" data-name="Trazado 587826" d="M2674.391,153.465a.87.87,0,0,1-.884.843.886.886,0,1,1,.074-1.767A.871.871,0,0,1,2674.391,153.465Z" transform="translate(-2627.296 -110.812)" fill="#ea7966"/>
          <path id="Trazado_587827" data-name="Trazado 587827" d="M2706.369,153.4c-.055.557-.344.92-.924.913a.816.816,0,0,1-.865-.849.828.828,0,0,1,.9-.922C2706.006,152.547,2706.286,152.886,2706.369,153.4Z" transform="translate(-2652.026 -110.82)" fill="#ea7966"/>
          <path id="Trazado_587828" data-name="Trazado 587828" d="M2623.307,93.1a10.092,10.092,0,0,1-.978-1.13c-.225-.35.193-.515.381-.706,1.428-1.45,2.9-2.855,4.3-4.338.574-.611.838-.243,1.242.133s.594.664.077,1.159c-1.5,1.432-2.94,2.922-4.409,4.384C2623.76,92.754,2623.576,92.878,2623.307,93.1Z" transform="translate(-2588.361 -59.814)" fill="#050402"/>
          <path id="Trazado_587829" data-name="Trazado 587829" d="M2625.533,88.5c.547.094.9.4.857.978a.819.819,0,0,1-.9.81.832.832,0,0,1-.866-.959A.879.879,0,0,1,2625.533,88.5Z" transform="translate(-2590.181 -61.287)" fill="#070606"/>
          <path id="Trazado_587830" data-name="Trazado 587830" d="M2641.547,106.366c-.554-.049-.925-.327-.931-.908a.817.817,0,0,1,.834-.88.83.83,0,0,1,.938.887C2642.4,105.99,2642.055,106.267,2641.547,106.366Z" transform="translate(-2602.555 -73.72)" fill="#070606"/>
          <path id="Trazado_587831" data-name="Trazado 587831" d="M2585.6,7.231c-1.549-1.251-1.1-3-1.112-4.613-.006-.614.574-.378.873-.351.745.068,1.046-.2.915-.937-.138-.775.239-.9.937-.923.806-.031.984.3.877.98a1.259,1.259,0,0,0,.721,1.454,2.283,2.283,0,0,1,1.051,1.67c.155.855.147,1.615-1.09,1.4l-.689-.03c0-.3.025-.6,0-.891-.057-.7-.494-.946-1.144-.931-.332.007-.675-.063-.671.474,0,.648.085,1.226.861,1.324.315.04.652.189.975,0,.077.363.426.341.667.472,1.548,1.251,1.1,3,1.112,4.613.006.614-.574.378-.874.351-.746-.068-1.046.2-.915.937.138.775-.24.9-.937.923-.807.031-.983-.3-.877-.98a1.257,1.257,0,0,0-.719-1.455,2.276,2.276,0,0,1-1.053-1.669c-.155-.854-.147-1.615,1.091-1.4l.689.03c0,.3-.025.6,0,.891.057.7.5.945,1.144.931.333-.007.675.063.671-.474,0-.648-.085-1.226-.861-1.323-.316-.039-.652-.191-.975,0C2586.189,7.339,2585.839,7.361,2585.6,7.231Z" transform="translate(-2559.104 6.848)" fill="#050402"/>
          <path id="Trazado_587832" data-name="Trazado 587832" d="M2589.558,30.528c.241.13.591.108.667.472l.021-.026-.689-.03Z" transform="translate(-2563.064 -16.449)" fill="#edcb69"/>
          <path id="Trazado_587833" data-name="Trazado 587833" d="M2600.52,24.472l.689.03v.416c-.241-.131-.59-.109-.667-.472Z" transform="translate(-2571.544 -11.745)" fill="#edcb69"/>
          <path id="Trazado_587834" data-name="Trazado 587834" d="M2594.347,18.313c-.323.191-.659.041-.975,0-.775-.1-.857-.675-.861-1.324,0-.537.339-.466.672-.474.649-.015,1.087.235,1.144.931.024.3,0,.594,0,.891Z" transform="translate(-2565.35 -5.612)" fill="#edcb69"/>
          <path id="Trazado_587835" data-name="Trazado 587835" d="M2592.5,32.288c.323-.192.659-.041.975,0,.776.1.856.676.861,1.323,0,.537-.338.467-.671.474-.648.014-1.087-.234-1.144-.931-.024-.3,0-.594,0-.891Z" transform="translate(-2565.345 -17.737)" fill="#edcb69"/>
        </g>
      </g>
    </g>
  </g>
</svg>
