<svg id="objetivo_2_" data-name="objetivo(2)" xmlns="http://www.w3.org/2000/svg" width="82.282" height="82.591" viewBox="0 0 82.282 82.591">
  <g id="Grupo_873572" data-name="Grupo 873572" transform="translate(19.474 22.768)">
    <g id="Grupo_873569" data-name="Grupo 873569">
      <g id="Grupo_873568" data-name="Grupo 873568">
        <path id="Trazado_262346" data-name="Trazado 262346" d="M123.291,144.369a1.612,1.612,0,1,1,1.582-1.3A1.626,1.626,0,0,1,123.291,144.369Z" transform="translate(-121.681 -141.147)" fill="#fff"/>
      </g>
    </g>
    <g id="Grupo_873571" data-name="Grupo 873571" transform="translate(29.479 33.124)">
      <g id="Grupo_873570" data-name="Grupo 873570" transform="translate(0 0)">
        <path id="Trazado_262347" data-name="Trazado 262347" d="M306.039,349.715a1.612,1.612,0,1,1,1.593-1.361A1.628,1.628,0,0,1,306.039,349.715Z" transform="translate(-304.427 -346.494)" fill="#fff"/>
      </g>
    </g>
  </g>
  <g id="Grupo_873574" data-name="Grupo 873574" transform="translate(0 0)">
    <g id="Grupo_873573" data-name="Grupo 873573" transform="translate(0 0)">
      <path id="Trazado_262348" data-name="Trazado 262348" d="M83.137,11.992a1.613,1.613,0,0,0-1.392-1.047l-8.794-.658-.658-8.793A1.613,1.613,0,0,0,69.544.473L62.515,7.5a6.476,6.476,0,0,0-1.9,4.357q0,.044,0,.088l.1,5.386a36.747,36.747,0,1,0,5.26,5.2l5.323.086h.085a6.478,6.478,0,0,0,4.357-1.9l7.029-7.029a1.613,1.613,0,0,0,.372-1.7ZM64.8,9.783l4.542-4.542.444,5.934-5.85,5.859-.091-5.1A3.259,3.259,0,0,1,64.8,9.783ZM37.665,79.365a33.481,33.481,0,1,1,22.34-58.4L56.269,24.7a28.18,28.18,0,0,0-28.163-5.355,1.613,1.613,0,0,0,1.1,3.034,24.958,24.958,0,0,1,24.782,4.606l-3.742,3.742a19.7,19.7,0,1,0-3.624,32.7,1.613,1.613,0,1,0-1.47-2.872,16.263,16.263,0,0,1-7.482,1.8A16.475,16.475,0,1,1,47.949,33.022l-3.763,3.763a11.213,11.213,0,1,0,2.324,2.238l3.749-3.749a16.459,16.459,0,0,1,3.047,15.792,1.613,1.613,0,0,0,3.062,1.017,19.686,19.686,0,0,0-3.821-19.1l3.737-3.737a24.979,24.979,0,1,1-38.8,1.936,1.613,1.613,0,0,0-2.605-1.9,28.207,28.207,0,1,0,43.692-2.316L62.3,23.233A33.464,33.464,0,0,1,37.665,79.365Zm7.973-33.481a7.979,7.979,0,1,1-3.776-6.775l-5.145,5.145A1.613,1.613,0,1,0,39,46.534L44.2,41.328A7.927,7.927,0,0,1,45.638,45.884ZM73.455,18.441A3.261,3.261,0,0,1,71.3,19.4l-5.079-.082,3.1-3.1c.035-.035.067-.07.1-.107l2.648-2.652L78,13.9Z" transform="translate(-0.956 -0.001)" fill="#fff"/>
    </g>
  </g>
</svg>
