<svg xmlns="http://www.w3.org/2000/svg" xmlns:xlink="http://www.w3.org/1999/xlink" width="400" height="309" viewBox="0 0 400 309">
  <defs>
    <clipPath id="clip-path">
      <rect id="Rectángulo_296854" data-name="Rectángulo 296854" width="158.873" height="243.627" fill="none"/>
    </clipPath>
  </defs>
  <g id="Grupo_1072871" data-name="Grupo 1072871" transform="translate(3372 10944)">
    <rect id="Rectángulo_377686" data-name="Rectángulo 377686" width="400" height="309" transform="translate(-3372 -10944)" fill="#fff"/>
    <g id="Grupo_1072870" data-name="Grupo 1072870" transform="translate(0 17)">
      <rect id="Rectángulo_296855" data-name="Rectángulo 296855" width="335" height="281" rx="5" transform="translate(-3323 -10947)" fill="#f6f6f6"/>
      <g id="Grupo_1072843" data-name="Grupo 1072843" transform="translate(-4198.5 -12508)">
        <rect id="Rectángulo_296853" data-name="Rectángulo 296853" width="295" height="66" transform="translate(915 1726)" fill="#03386e"/>
        <path id="Trazado_612814" data-name="Trazado 612814" d="M25.092,20.284H16.654V29H12.26V7.672H26.147v3.56H16.654v5.508h8.438ZM49.35,18.072h-13.1V14.615h13.1Zm0,6.343h-13.1V20.958h13.1Zm15.85-2.93V29H60.8V7.672h8.32a9.626,9.626,0,0,1,4.226.879,6.477,6.477,0,0,1,2.805,2.5,6.964,6.964,0,0,1,.981,3.684,6.124,6.124,0,0,1-2.146,4.944,8.938,8.938,0,0,1-5.94,1.809Zm0-3.56h3.926a3.86,3.86,0,0,0,2.659-.82,2.984,2.984,0,0,0,.916-2.344,3.518,3.518,0,0,0-.923-2.534,3.447,3.447,0,0,0-2.549-1H65.2Zm14.868,2.4a22.48,22.48,0,0,1,.894-6.387A16.854,16.854,0,0,1,83.6,8.573a9.845,9.845,0,0,1,3.779-3.245l.82,2.285a10.2,10.2,0,0,0-3.34,4.893,22.654,22.654,0,0,0-1.2,7.734v.454a23.087,23.087,0,0,0,1.187,7.764A10.4,10.4,0,0,0,88.2,33.424l-.82,2.241a9.849,9.849,0,0,1-3.713-3.157,16.572,16.572,0,0,1-2.629-5.222,22.347,22.347,0,0,1-.967-6.182ZM100.517,29H96.283V12.682L91.23,14.249V10.807l8.833-3.164h.454Zm23.115-11.938h5.288v3.823h-5.288v5.977H119.6V20.885h-5.3V17.062h5.3V11.334h4.028ZM143.407,29h-4.248V13.15h4.248Zm-4.5-19.951a2.085,2.085,0,0,1,.637-1.567,2.746,2.746,0,0,1,3.464,0,2.073,2.073,0,0,1,.645,1.567A2.078,2.078,0,0,1,143,10.631a2.715,2.715,0,0,1-3.442,0A2.078,2.078,0,0,1,138.91,9.049Zm15.278,11.616a21.332,21.332,0,0,1-.952,6.372,17.3,17.3,0,0,1-2.739,5.405,9.869,9.869,0,0,1-3.823,3.223l-.82-2.241a10.3,10.3,0,0,0,3.281-4.834,22.385,22.385,0,0,0,1.245-7.515V20.3a22.891,22.891,0,0,0-1.194-7.72,10.737,10.737,0,0,0-3.333-5.01l.82-2.241a9.872,9.872,0,0,1,3.757,3.135,17.074,17.074,0,0,1,2.739,5.288,21.18,21.18,0,0,1,1.018,6.255Zm4.877-10.91.077,1.068A3.228,3.228,0,0,1,161.8,9.584a2.683,2.683,0,0,1,2.187.863,4.027,4.027,0,0,1,.735,2.58V19h-2.469V13.087a1.6,1.6,0,0,0-.342-1.141,1.53,1.53,0,0,0-1.136-.355,1.7,1.7,0,0,0-1.564.889V19h-2.469V9.755Z" transform="translate(988.5 1739.5)" fill="#fff"/>
      </g>
      <path id="Trazado_612813" data-name="Trazado 612813" d="M63.4,11.771H58.342V17H55.705V4.2h8.332V6.339h-5.7v3.3H63.4Zm2.118,3.981a1.279,1.279,0,0,1,.409-.984,1.588,1.588,0,0,1,2.057,0,1.279,1.279,0,0,1,.409.984,1.261,1.261,0,0,1-.4.971,1.614,1.614,0,0,1-2.065,0A1.261,1.261,0,0,1,65.522,15.752Zm0-7.2a1.279,1.279,0,0,1,.409-.984,1.588,1.588,0,0,1,2.057,0,1.279,1.279,0,0,1,.409.984,1.261,1.261,0,0,1-.4.971,1.614,1.614,0,0,1-2.065,0A1.261,1.261,0,0,1,65.522,8.554Zm12.832,6.24,2.355-7.3h1.661L78.961,17H77.722L74.276,7.49h1.661ZM89.675,17a3.416,3.416,0,0,1-.229-1,3.628,3.628,0,0,1-2.707,1.178,3.357,3.357,0,0,1-2.307-.8,2.573,2.573,0,0,1-.9-2.017,2.688,2.688,0,0,1,1.129-2.307,5.325,5.325,0,0,1,3.177-.822H89.42v-.747a1.826,1.826,0,0,0-.51-1.358,2.049,2.049,0,0,0-1.5-.505,2.371,2.371,0,0,0-1.459.439,1.3,1.3,0,0,0-.589,1.063H83.725a2.244,2.244,0,0,1,.505-1.375A3.449,3.449,0,0,1,85.6,7.7a4.613,4.613,0,0,1,1.9-.387,3.759,3.759,0,0,1,2.575.822,2.964,2.964,0,0,1,.967,2.263v4.377a5.351,5.351,0,0,0,.334,2.083V17Zm-2.7-1.239a2.858,2.858,0,0,0,1.45-.4,2.392,2.392,0,0,0,.993-1.028V12.386H88.146q-2.988,0-2.988,1.749a1.48,1.48,0,0,0,.51,1.2A1.959,1.959,0,0,0,86.977,15.761ZM95.361,17H93.735V3.5h1.626Zm2.171-4.843a5.617,5.617,0,0,1,.549-2.514,4.1,4.1,0,0,1,1.529-1.723,4.163,4.163,0,0,1,2.237-.606,4.01,4.01,0,0,1,3.142,1.345,5.174,5.174,0,0,1,1.2,3.577v.114a5.666,5.666,0,0,1-.532,2.492,4.038,4.038,0,0,1-1.521,1.718,4.211,4.211,0,0,1-2.272.615,4,4,0,0,1-3.133-1.345,5.147,5.147,0,0,1-1.2-3.56Zm1.635.193a4.068,4.068,0,0,0,.734,2.54,2.487,2.487,0,0,0,3.933-.013,4.449,4.449,0,0,0,.729-2.72,4.061,4.061,0,0,0-.743-2.536,2.361,2.361,0,0,0-1.973-.971,2.335,2.335,0,0,0-1.942.958A4.416,4.416,0,0,0,99.167,12.351Zm13.658-3.4a4.873,4.873,0,0,0-.8-.062,2.143,2.143,0,0,0-2.171,1.362V17h-1.626V7.49h1.582l.026,1.1A2.532,2.532,0,0,1,112.1,7.314a1.661,1.661,0,0,1,.721.123ZM119.575,17V8.747h-1.5V7.49h1.5V6.515a3.238,3.238,0,0,1,.817-2.364,3.088,3.088,0,0,1,2.312-.835,4.293,4.293,0,0,1,1.116.148l-.088,1.311a4.67,4.67,0,0,0-.879-.079,1.586,1.586,0,0,0-1.222.463,1.877,1.877,0,0,0-.431,1.327V7.49h2.03V8.747H121.2V17Zm11.32-.94a3.454,3.454,0,0,1-2.786,1.116,2.956,2.956,0,0,1-2.316-.883,3.823,3.823,0,0,1-.8-2.615V7.49h1.626v6.144q0,2.162,1.758,2.162a2.434,2.434,0,0,0,2.479-1.389V7.49h1.626V17h-1.547Zm6.258-10.872v2.3h1.775V8.747h-1.775v5.9a1.32,1.32,0,0,0,.237.858,1,1,0,0,0,.809.286,3.937,3.937,0,0,0,.773-.105V17a4.742,4.742,0,0,1-1.248.175,2.025,2.025,0,0,1-1.644-.659,2.832,2.832,0,0,1-.554-1.872v-5.9H133.8V7.49h1.731v-2.3ZM146.7,16.06a3.454,3.454,0,0,1-2.786,1.116,2.956,2.956,0,0,1-2.316-.883,3.823,3.823,0,0,1-.8-2.615V7.49h1.626v6.144q0,2.162,1.758,2.162a2.434,2.434,0,0,0,2.479-1.389V7.49h1.626V17h-1.547Zm8.648-7.11a4.873,4.873,0,0,0-.8-.062,2.143,2.143,0,0,0-2.171,1.362V17H150.75V7.49h1.582l.026,1.1a2.532,2.532,0,0,1,2.268-1.274,1.661,1.661,0,0,1,.721.123Zm.888,3.208a5.617,5.617,0,0,1,.549-2.514,4.1,4.1,0,0,1,1.529-1.723,4.163,4.163,0,0,1,2.237-.606,4.01,4.01,0,0,1,3.142,1.345,5.174,5.174,0,0,1,1.2,3.577v.114a5.666,5.666,0,0,1-.532,2.492,4.038,4.038,0,0,1-1.521,1.718,4.211,4.211,0,0,1-2.272.615,4,4,0,0,1-3.133-1.345,5.147,5.147,0,0,1-1.2-3.56Zm1.635.193a4.068,4.068,0,0,0,.734,2.54,2.487,2.487,0,0,0,3.933-.013,4.449,4.449,0,0,0,.729-2.72,4.061,4.061,0,0,0-.743-2.536,2.361,2.361,0,0,0-1.973-.971,2.335,2.335,0,0,0-1.942.958A4.416,4.416,0,0,0,157.869,12.351Zm9.1,3.8a1.018,1.018,0,0,1,.25-.7.954.954,0,0,1,.751-.281.983.983,0,0,1,.76.281,1,1,0,0,1,.259.7.944.944,0,0,1-.259.677,1,1,0,0,1-.76.272.9.9,0,0,1-1-.949ZM46.683,42.491V47H44.046V34.2h4.992a5.776,5.776,0,0,1,2.536.527,3.886,3.886,0,0,1,1.683,1.5,4.178,4.178,0,0,1,.589,2.21,3.674,3.674,0,0,1-1.288,2.966,5.363,5.363,0,0,1-3.564,1.085Zm0-2.136h2.355a2.316,2.316,0,0,0,1.6-.492,1.79,1.79,0,0,0,.549-1.406,2.111,2.111,0,0,0-.554-1.521,2.068,2.068,0,0,0-1.529-.6H46.683Zm8.93,5.4a1.279,1.279,0,0,1,.409-.984,1.588,1.588,0,0,1,2.057,0,1.279,1.279,0,0,1,.409.984,1.261,1.261,0,0,1-.4.971,1.614,1.614,0,0,1-2.065,0A1.261,1.261,0,0,1,55.613,45.752Zm0-7.2a1.279,1.279,0,0,1,.409-.984,1.588,1.588,0,0,1,2.057,0,1.279,1.279,0,0,1,.409.984,1.261,1.261,0,0,1-.4.971,1.614,1.614,0,0,1-2.065,0A1.261,1.261,0,0,1,55.613,38.554Zm12.832,6.24,2.355-7.3h1.661L69.051,47H67.812l-3.445-9.51h1.661ZM79.765,47a3.416,3.416,0,0,1-.229-1,3.628,3.628,0,0,1-2.707,1.178,3.357,3.357,0,0,1-2.307-.8,2.573,2.573,0,0,1-.9-2.017,2.688,2.688,0,0,1,1.129-2.307,5.325,5.325,0,0,1,3.177-.822H79.51v-.747A1.826,1.826,0,0,0,79,39.129a2.049,2.049,0,0,0-1.5-.505,2.371,2.371,0,0,0-1.459.439,1.3,1.3,0,0,0-.589,1.063H73.815a2.244,2.244,0,0,1,.505-1.375,3.449,3.449,0,0,1,1.371-1.05,4.613,4.613,0,0,1,1.9-.387,3.759,3.759,0,0,1,2.575.822,2.964,2.964,0,0,1,.967,2.263v4.377a5.351,5.351,0,0,0,.334,2.083V47Zm-2.7-1.239a2.858,2.858,0,0,0,1.45-.4,2.392,2.392,0,0,0,.993-1.028V42.386H78.236q-2.988,0-2.988,1.749a1.48,1.48,0,0,0,.51,1.2A1.959,1.959,0,0,0,77.067,45.761ZM85.452,47H83.826V33.5h1.626Zm2.171-4.843a5.617,5.617,0,0,1,.549-2.514A4.1,4.1,0,0,1,89.7,37.921a4.163,4.163,0,0,1,2.237-.606,4.01,4.01,0,0,1,3.142,1.345,5.174,5.174,0,0,1,1.2,3.577v.114a5.666,5.666,0,0,1-.532,2.492,4.038,4.038,0,0,1-1.521,1.718,4.211,4.211,0,0,1-2.272.615,4,4,0,0,1-3.133-1.345,5.147,5.147,0,0,1-1.2-3.56Zm1.635.193a4.068,4.068,0,0,0,.734,2.54,2.487,2.487,0,0,0,3.933-.013,4.449,4.449,0,0,0,.729-2.72,4.061,4.061,0,0,0-.743-2.536,2.361,2.361,0,0,0-1.973-.971A2.335,2.335,0,0,0,90,39.608,4.416,4.416,0,0,0,89.257,42.351Zm13.658-3.4a4.873,4.873,0,0,0-.8-.062,2.143,2.143,0,0,0-2.171,1.362V47H98.319V37.49H99.9l.026,1.1a2.532,2.532,0,0,1,2.268-1.274,1.661,1.661,0,0,1,.721.123Zm13.983,3.4a5.694,5.694,0,0,1-.993,3.5,3.183,3.183,0,0,1-2.689,1.327,3.488,3.488,0,0,1-2.725-1.1v4.579h-1.626V37.49h1.485l.079,1.055a3.35,3.35,0,0,1,2.76-1.23,3.243,3.243,0,0,1,2.711,1.292,5.756,5.756,0,0,1,1,3.595Zm-1.626-.185a4.2,4.2,0,0,0-.686-2.54,2.208,2.208,0,0,0-1.881-.932A2.39,2.39,0,0,0,110.492,40v4.544a2.4,2.4,0,0,0,2.232,1.3,2.2,2.2,0,0,0,1.859-.927A4.587,4.587,0,0,0,115.273,42.166Zm8.288-3.217a4.873,4.873,0,0,0-.8-.062,2.143,2.143,0,0,0-2.171,1.362V47h-1.626V37.49h1.582l.026,1.1a2.532,2.532,0,0,1,2.268-1.274,1.661,1.661,0,0,1,.721.123Zm5.273,8.227a4.155,4.155,0,0,1-3.146-1.27,4.714,4.714,0,0,1-1.213-3.4v-.3a5.707,5.707,0,0,1,.541-2.527,4.217,4.217,0,0,1,1.512-1.74,3.8,3.8,0,0,1,2.1-.628,3.562,3.562,0,0,1,2.883,1.222,5.289,5.289,0,0,1,1.028,3.5v.677H126.1a3.38,3.38,0,0,0,.822,2.272,2.583,2.583,0,0,0,2,.866,2.832,2.832,0,0,0,1.459-.352,3.666,3.666,0,0,0,1.046-.932l.993.773A3.993,3.993,0,0,1,128.834,47.176Zm-.2-8.525a2.169,2.169,0,0,0-1.652.716,3.482,3.482,0,0,0-.826,2.008h4.764v-.123a3.1,3.1,0,0,0-.668-1.92A2.042,2.042,0,0,0,128.632,38.65Zm11.329,5.827a1.2,1.2,0,0,0-.5-1.024,4.78,4.78,0,0,0-1.731-.628,8.186,8.186,0,0,1-1.96-.633,2.788,2.788,0,0,1-1.072-.879,2.1,2.1,0,0,1-.347-1.213,2.467,2.467,0,0,1,.989-1.978,3.861,3.861,0,0,1,2.527-.809,3.974,3.974,0,0,1,2.624.835,2.652,2.652,0,0,1,1.006,2.136h-1.635a1.468,1.468,0,0,0-.567-1.151,2.124,2.124,0,0,0-1.428-.483,2.223,2.223,0,0,0-1.389.387,1.217,1.217,0,0,0-.5,1.011.986.986,0,0,0,.466.888,5.731,5.731,0,0,0,1.683.571,8.77,8.77,0,0,1,1.973.65,2.878,2.878,0,0,1,1.121.91,2.237,2.237,0,0,1,.365,1.3,2.434,2.434,0,0,1-1.02,2.043,4.277,4.277,0,0,1-2.646.769,4.789,4.789,0,0,1-2.021-.4,3.288,3.288,0,0,1-1.375-1.129,2.722,2.722,0,0,1-.5-1.569h1.626a1.683,1.683,0,0,0,.655,1.3,2.54,2.54,0,0,0,1.613.479,2.622,2.622,0,0,0,1.481-.374A1.148,1.148,0,0,0,139.961,44.478Zm7.69,2.7a4.155,4.155,0,0,1-3.146-1.27,4.714,4.714,0,0,1-1.213-3.4v-.3a5.707,5.707,0,0,1,.541-2.527,4.217,4.217,0,0,1,1.512-1.74,3.8,3.8,0,0,1,2.1-.628,3.562,3.562,0,0,1,2.883,1.222,5.289,5.289,0,0,1,1.028,3.5v.677h-6.442a3.38,3.38,0,0,0,.822,2.272,2.583,2.583,0,0,0,2,.866A2.832,2.832,0,0,0,149.2,45.5a3.666,3.666,0,0,0,1.046-.932l.993.773A3.993,3.993,0,0,1,147.652,47.176Zm-.2-8.525a2.169,2.169,0,0,0-1.652.716,3.482,3.482,0,0,0-.826,2.008h4.764v-.123a3.1,3.1,0,0,0-.668-1.92A2.042,2.042,0,0,0,147.45,38.65Zm7.33-1.16.053,1.2a3.465,3.465,0,0,1,2.848-1.371q3.015,0,3.041,3.4V47H159.1V40.707a2.189,2.189,0,0,0-.47-1.521,1.884,1.884,0,0,0-1.437-.492,2.347,2.347,0,0,0-1.389.422,2.865,2.865,0,0,0-.932,1.107V47h-1.626V37.49Zm10.6-2.3v2.3h1.775v1.257h-1.775v5.9a1.32,1.32,0,0,0,.237.858,1,1,0,0,0,.809.286,3.937,3.937,0,0,0,.773-.105V47a4.742,4.742,0,0,1-1.248.175,2.025,2.025,0,0,1-1.644-.659,2.832,2.832,0,0,1-.554-1.872v-5.9h-1.731V37.49h1.731v-2.3ZM173,47.176a4.155,4.155,0,0,1-3.146-1.27,4.714,4.714,0,0,1-1.213-3.4v-.3a5.707,5.707,0,0,1,.541-2.527,4.217,4.217,0,0,1,1.512-1.74,3.8,3.8,0,0,1,2.1-.628,3.562,3.562,0,0,1,2.883,1.222,5.289,5.289,0,0,1,1.028,3.5v.677h-6.442a3.38,3.38,0,0,0,.822,2.272,2.583,2.583,0,0,0,2,.866,2.832,2.832,0,0,0,1.459-.352,3.666,3.666,0,0,0,1.046-.932l.993.773A3.993,3.993,0,0,1,173,47.176Zm-.2-8.525a2.169,2.169,0,0,0-1.652.716,3.482,3.482,0,0,0-.826,2.008h4.764v-.123a3.1,3.1,0,0,0-.668-1.92A2.042,2.042,0,0,0,172.8,38.65Zm5.827,7.5a1.018,1.018,0,0,1,.25-.7.954.954,0,0,1,.751-.281.983.983,0,0,1,.76.281,1,1,0,0,1,.259.7.944.944,0,0,1-.259.677,1,1,0,0,1-.76.272.9.9,0,0,1-1-.949ZM47.72,77H45.171V67.49H47.72Zm-2.7-11.971a1.251,1.251,0,0,1,.382-.94,1.648,1.648,0,0,1,2.079,0,1.342,1.342,0,0,1,0,1.89,1.629,1.629,0,0,1-2.065,0A1.247,1.247,0,0,1,45.022,65.029Zm4.913,10.723a1.279,1.279,0,0,1,.409-.984,1.588,1.588,0,0,1,2.057,0,1.279,1.279,0,0,1,.409.984,1.261,1.261,0,0,1-.4.971,1.614,1.614,0,0,1-2.065,0A1.261,1.261,0,0,1,49.935,75.752Zm0-7.2a1.279,1.279,0,0,1,.409-.984,1.588,1.588,0,0,1,2.057,0,1.279,1.279,0,0,1,.409.984,1.261,1.261,0,0,1-.4.971,1.614,1.614,0,0,1-2.065,0A1.261,1.261,0,0,1,49.935,68.554Zm11.9-3.366v2.3h1.775v1.257H61.835v5.9a1.32,1.32,0,0,0,.237.858,1,1,0,0,0,.809.286,3.937,3.937,0,0,0,.773-.105V77a4.742,4.742,0,0,1-1.248.175,2.025,2.025,0,0,1-1.644-.659,2.832,2.832,0,0,1-.554-1.872v-5.9H58.478V67.49h1.731v-2.3ZM71.38,77a3.416,3.416,0,0,1-.229-1,3.628,3.628,0,0,1-2.707,1.178,3.357,3.357,0,0,1-2.307-.8,2.573,2.573,0,0,1-.9-2.017,2.688,2.688,0,0,1,1.129-2.307,5.325,5.325,0,0,1,3.177-.822h1.582v-.747a1.826,1.826,0,0,0-.51-1.358,2.049,2.049,0,0,0-1.5-.505,2.371,2.371,0,0,0-1.459.439,1.3,1.3,0,0,0-.589,1.063H65.43a2.244,2.244,0,0,1,.505-1.375,3.449,3.449,0,0,1,1.371-1.05,4.613,4.613,0,0,1,1.9-.387,3.759,3.759,0,0,1,2.575.822,2.964,2.964,0,0,1,.967,2.263v4.377a5.351,5.351,0,0,0,.334,2.083V77Zm-2.7-1.239a2.858,2.858,0,0,0,1.45-.4,2.392,2.392,0,0,0,.993-1.028V72.386H69.851q-2.988,0-2.988,1.749a1.48,1.48,0,0,0,.51,1.2A1.959,1.959,0,0,0,68.682,75.761Zm12.155-1.283a1.2,1.2,0,0,0-.5-1.024,4.78,4.78,0,0,0-1.731-.628,8.186,8.186,0,0,1-1.96-.633,2.788,2.788,0,0,1-1.072-.879A2.1,2.1,0,0,1,75.23,70.1a2.467,2.467,0,0,1,.989-1.978,3.861,3.861,0,0,1,2.527-.809,3.974,3.974,0,0,1,2.624.835,2.652,2.652,0,0,1,1.006,2.136H80.741a1.468,1.468,0,0,0-.567-1.151,2.124,2.124,0,0,0-1.428-.483,2.223,2.223,0,0,0-1.389.387,1.217,1.217,0,0,0-.5,1.011.986.986,0,0,0,.466.888A5.731,5.731,0,0,0,79,71.507a8.77,8.77,0,0,1,1.973.65,2.878,2.878,0,0,1,1.121.91,2.237,2.237,0,0,1,.365,1.3,2.434,2.434,0,0,1-1.02,2.043,4.277,4.277,0,0,1-2.646.769,4.789,4.789,0,0,1-2.021-.4A3.288,3.288,0,0,1,75.4,75.642a2.722,2.722,0,0,1-.5-1.569h1.626a1.683,1.683,0,0,0,.655,1.3,2.54,2.54,0,0,0,1.613.479,2.622,2.622,0,0,0,1.481-.374A1.148,1.148,0,0,0,80.837,74.478ZM90.453,77a3.416,3.416,0,0,1-.229-1,3.628,3.628,0,0,1-2.707,1.178,3.357,3.357,0,0,1-2.307-.8,2.573,2.573,0,0,1-.9-2.017,2.688,2.688,0,0,1,1.129-2.307,5.325,5.325,0,0,1,3.177-.822H90.2v-.747a1.826,1.826,0,0,0-.51-1.358,2.049,2.049,0,0,0-1.5-.505,2.371,2.371,0,0,0-1.459.439,1.3,1.3,0,0,0-.589,1.063H84.5a2.244,2.244,0,0,1,.505-1.375,3.449,3.449,0,0,1,1.371-1.05,4.613,4.613,0,0,1,1.9-.387,3.759,3.759,0,0,1,2.575.822,2.964,2.964,0,0,1,.967,2.263v4.377a5.351,5.351,0,0,0,.334,2.083V77Zm-2.7-1.239a2.858,2.858,0,0,0,1.45-.4,2.392,2.392,0,0,0,.993-1.028V72.386H88.923q-2.988,0-2.988,1.749a1.48,1.48,0,0,0,.51,1.2A1.959,1.959,0,0,0,87.754,75.761Zm10.679-3.595a5.571,5.571,0,0,1,1.037-3.52,3.529,3.529,0,0,1,5.361-.189V63.5h1.626V77h-1.494l-.079-1.02a3.311,3.311,0,0,1-2.716,1.2,3.248,3.248,0,0,1-2.694-1.354,5.634,5.634,0,0,1-1.042-3.533Zm1.626.185a4.218,4.218,0,0,0,.668,2.531,2.159,2.159,0,0,0,1.846.914,2.372,2.372,0,0,0,2.259-1.389V70.039a2.39,2.39,0,0,0-2.241-1.345,2.17,2.17,0,0,0-1.863.923A4.644,4.644,0,0,0,100.059,72.351Zm12.867,4.825a4.155,4.155,0,0,1-3.146-1.27,4.714,4.714,0,0,1-1.213-3.4v-.3a5.707,5.707,0,0,1,.541-2.527,4.217,4.217,0,0,1,1.512-1.74,3.8,3.8,0,0,1,2.1-.628,3.562,3.562,0,0,1,2.883,1.222,5.289,5.289,0,0,1,1.028,3.5v.677h-6.442a3.38,3.38,0,0,0,.822,2.272,2.583,2.583,0,0,0,2,.866,2.832,2.832,0,0,0,1.459-.352,3.666,3.666,0,0,0,1.046-.932l.993.773A3.993,3.993,0,0,1,112.926,77.176Zm-.2-8.525a2.169,2.169,0,0,0-1.652.716,3.482,3.482,0,0,0-.826,2.008h4.764v-.123a3.1,3.1,0,0,0-.668-1.92A2.042,2.042,0,0,0,112.724,68.65ZM124.739,77h-1.626V67.49h1.626Zm-1.758-12.032a.971.971,0,0,1,.242-.668.907.907,0,0,1,.716-.272.922.922,0,0,1,.721.272.96.96,0,0,1,.246.668.929.929,0,0,1-.246.659.938.938,0,0,1-.721.264.924.924,0,0,1-.716-.264A.938.938,0,0,1,122.981,64.968Zm5.9,2.522.053,1.2a3.465,3.465,0,0,1,2.848-1.371q3.015,0,3.041,3.4V77h-1.626V70.707a2.189,2.189,0,0,0-.47-1.521,1.884,1.884,0,0,0-1.437-.492,2.347,2.347,0,0,0-1.389.422,2.865,2.865,0,0,0-.932,1.107V77H127.34V67.49Zm10.6-2.3v2.3h1.775v1.257h-1.775v5.9a1.32,1.32,0,0,0,.237.858,1,1,0,0,0,.809.286,3.937,3.937,0,0,0,.773-.105V77a4.742,4.742,0,0,1-1.248.175,2.025,2.025,0,0,1-1.644-.659,2.832,2.832,0,0,1-.554-1.872v-5.9h-1.731V67.49h1.731v-2.3Zm7.62,11.988a4.155,4.155,0,0,1-3.146-1.27,4.714,4.714,0,0,1-1.213-3.4v-.3a5.707,5.707,0,0,1,.541-2.527,4.217,4.217,0,0,1,1.512-1.74,3.8,3.8,0,0,1,2.1-.628,3.562,3.562,0,0,1,2.883,1.222,5.289,5.289,0,0,1,1.028,3.5v.677h-6.442a3.38,3.38,0,0,0,.822,2.272,2.583,2.583,0,0,0,2,.866,2.832,2.832,0,0,0,1.459-.352,3.666,3.666,0,0,0,1.046-.932l.993.773A3.993,3.993,0,0,1,147.1,77.176Zm-.2-8.525a2.169,2.169,0,0,0-1.652.716,3.482,3.482,0,0,0-.826,2.008h4.764v-.123a3.1,3.1,0,0,0-.668-1.92A2.042,2.042,0,0,0,146.9,68.65Zm10.389.3a4.873,4.873,0,0,0-.8-.062,2.143,2.143,0,0,0-2.171,1.362V77h-1.626V67.49h1.582l.026,1.1a2.532,2.532,0,0,1,2.268-1.274,1.661,1.661,0,0,1,.721.123Zm5.273,8.227a4.155,4.155,0,0,1-3.146-1.27,4.714,4.714,0,0,1-1.213-3.4v-.3a5.707,5.707,0,0,1,.541-2.527,4.217,4.217,0,0,1,1.512-1.74,3.8,3.8,0,0,1,2.1-.628,3.562,3.562,0,0,1,2.883,1.222,5.289,5.289,0,0,1,1.028,3.5v.677h-6.442a3.38,3.38,0,0,0,.822,2.272,2.583,2.583,0,0,0,2,.866A2.832,2.832,0,0,0,164.1,75.5a3.666,3.666,0,0,0,1.046-.932l.993.773A3.993,3.993,0,0,1,162.558,77.176Zm-.2-8.525a2.169,2.169,0,0,0-1.652.716,3.482,3.482,0,0,0-.826,2.008h4.764v-.123a3.1,3.1,0,0,0-.668-1.92A2.042,2.042,0,0,0,162.356,68.65Zm.791-5.15h1.969l-2.355,2.584-1.31,0Zm10.538,10.978a1.2,1.2,0,0,0-.5-1.024,4.78,4.78,0,0,0-1.731-.628,8.186,8.186,0,0,1-1.96-.633,2.788,2.788,0,0,1-1.072-.879,2.1,2.1,0,0,1-.347-1.213,2.467,2.467,0,0,1,.989-1.978,3.861,3.861,0,0,1,2.527-.809,3.974,3.974,0,0,1,2.624.835,2.652,2.652,0,0,1,1.006,2.136h-1.635a1.468,1.468,0,0,0-.567-1.151,2.124,2.124,0,0,0-1.428-.483,2.223,2.223,0,0,0-1.389.387,1.217,1.217,0,0,0-.5,1.011.986.986,0,0,0,.466.888,5.731,5.731,0,0,0,1.683.571,8.77,8.77,0,0,1,1.973.65,2.878,2.878,0,0,1,1.121.91,2.237,2.237,0,0,1,.365,1.3,2.434,2.434,0,0,1-1.02,2.043,4.277,4.277,0,0,1-2.646.769,4.789,4.789,0,0,1-2.021-.4,3.288,3.288,0,0,1-1.375-1.129,2.722,2.722,0,0,1-.5-1.569h1.626a1.683,1.683,0,0,0,.655,1.3,2.54,2.54,0,0,0,1.613.479,2.622,2.622,0,0,0,1.481-.374A1.148,1.148,0,0,0,173.685,74.478Zm3.779,1.67a1.018,1.018,0,0,1,.25-.7.954.954,0,0,1,.751-.281.983.983,0,0,1,.76.281,1,1,0,0,1,.259.7.944.944,0,0,1-.259.677,1,1,0,0,1-.76.272.9.9,0,0,1-1-.949ZM23.581,97.49l.079,1.1a3.32,3.32,0,0,1,2.733-1.274,2.759,2.759,0,0,1,2.25.888,4.142,4.142,0,0,1,.756,2.654V107h-2.54v-6.082a1.648,1.648,0,0,0-.352-1.173,1.574,1.574,0,0,0-1.169-.365,1.747,1.747,0,0,0-1.608.914V107H21.19V97.49Zm7.866,8.262a1.279,1.279,0,0,1,.409-.984,1.588,1.588,0,0,1,2.057,0,1.279,1.279,0,0,1,.409.984,1.261,1.261,0,0,1-.4.971,1.614,1.614,0,0,1-2.065,0A1.261,1.261,0,0,1,31.447,105.752Zm0-7.2a1.279,1.279,0,0,1,.409-.984,1.588,1.588,0,0,1,2.057,0,1.279,1.279,0,0,1,.409.984,1.261,1.261,0,0,1-.4.971,1.614,1.614,0,0,1-2.065,0A1.261,1.261,0,0,1,31.447,98.554ZM42.68,97.49l.053,1.2a3.465,3.465,0,0,1,2.848-1.371q3.015,0,3.041,3.4V107H47v-6.293a2.189,2.189,0,0,0-.47-1.521,1.884,1.884,0,0,0-1.437-.492,2.347,2.347,0,0,0-1.389.422,2.865,2.865,0,0,0-.932,1.107V107H41.142V97.49Zm14.265,8.569a3.454,3.454,0,0,1-2.786,1.116,2.956,2.956,0,0,1-2.316-.883,3.823,3.823,0,0,1-.8-2.615V97.49h1.626v6.144q0,2.162,1.758,2.162a2.434,2.434,0,0,0,2.479-1.389V97.49h1.626V107H56.979ZM55.626,93.5h1.969l-2.355,2.584-1.31,0Zm6.9,3.99.044,1.055a3.512,3.512,0,0,1,2.821-1.23,2.719,2.719,0,0,1,2.716,1.529,3.6,3.6,0,0,1,1.235-1.107,3.647,3.647,0,0,1,1.8-.422q3.129,0,3.182,3.313V107H72.694v-6.275a2.184,2.184,0,0,0-.466-1.525,2.051,2.051,0,0,0-1.564-.505,2.156,2.156,0,0,0-1.5.541,2.193,2.193,0,0,0-.694,1.455V107H66.832v-6.231a1.814,1.814,0,0,0-2.03-2.074,2.175,2.175,0,0,0-2.188,1.362V107H60.987V97.49Zm18.193,9.686a4.155,4.155,0,0,1-3.146-1.27,4.714,4.714,0,0,1-1.213-3.4v-.3a5.707,5.707,0,0,1,.541-2.527,4.217,4.217,0,0,1,1.512-1.74,3.8,3.8,0,0,1,2.1-.628A3.562,3.562,0,0,1,83.4,98.536a5.289,5.289,0,0,1,1.028,3.5v.677H77.985a3.38,3.38,0,0,0,.822,2.272,2.583,2.583,0,0,0,2,.866,2.832,2.832,0,0,0,1.459-.352,3.666,3.666,0,0,0,1.046-.932l.993.773A3.993,3.993,0,0,1,80.719,107.176Zm-.2-8.525a2.169,2.169,0,0,0-1.652.716,3.482,3.482,0,0,0-.826,2.008H82.8v-.123a3.1,3.1,0,0,0-.668-1.92A2.042,2.042,0,0,0,80.517,98.65Zm10.389.3a4.873,4.873,0,0,0-.8-.062,2.143,2.143,0,0,0-2.171,1.362V107H86.309V97.49h1.582l.026,1.1a2.532,2.532,0,0,1,2.268-1.274,1.661,1.661,0,0,1,.721.123Zm.888,3.208a5.617,5.617,0,0,1,.549-2.514,4.1,4.1,0,0,1,1.529-1.723,4.163,4.163,0,0,1,2.237-.606,4.01,4.01,0,0,1,3.142,1.345,5.174,5.174,0,0,1,1.2,3.577v.114a5.666,5.666,0,0,1-.532,2.492,4.038,4.038,0,0,1-1.521,1.718,4.211,4.211,0,0,1-2.272.615,4,4,0,0,1-3.133-1.345,5.147,5.147,0,0,1-1.2-3.56Zm1.635.193a4.068,4.068,0,0,0,.734,2.54,2.487,2.487,0,0,0,3.933-.013,4.449,4.449,0,0,0,.729-2.72,4.061,4.061,0,0,0-.743-2.536,2.361,2.361,0,0,0-1.973-.971,2.335,2.335,0,0,0-1.942.958A4.416,4.416,0,0,0,93.428,102.351Zm13.122-.185a5.571,5.571,0,0,1,1.037-3.52,3.529,3.529,0,0,1,5.361-.189V93.5h1.626V107H113.08L113,105.98a3.311,3.311,0,0,1-2.716,1.2,3.248,3.248,0,0,1-2.694-1.354,5.634,5.634,0,0,1-1.042-3.533Zm1.626.185a4.218,4.218,0,0,0,.668,2.531,2.159,2.159,0,0,0,1.846.914,2.372,2.372,0,0,0,2.259-1.389v-4.368a2.39,2.39,0,0,0-2.241-1.345,2.17,2.17,0,0,0-1.863.923A4.644,4.644,0,0,0,108.176,102.351Zm12.867,4.825a4.155,4.155,0,0,1-3.146-1.27,4.714,4.714,0,0,1-1.213-3.4v-.3a5.707,5.707,0,0,1,.541-2.527,4.217,4.217,0,0,1,1.512-1.74,3.8,3.8,0,0,1,2.1-.628,3.562,3.562,0,0,1,2.883,1.222,5.289,5.289,0,0,1,1.028,3.5v.677H118.31a3.38,3.38,0,0,0,.822,2.272,2.583,2.583,0,0,0,2,.866,2.832,2.832,0,0,0,1.459-.352,3.666,3.666,0,0,0,1.046-.932l.993.773A3.993,3.993,0,0,1,121.043,107.176Zm-.2-8.525a2.169,2.169,0,0,0-1.652.716,3.482,3.482,0,0,0-.826,2.008h4.764v-.123a3.1,3.1,0,0,0-.668-1.92A2.042,2.042,0,0,0,120.841,98.65Zm18.281,3.7a5.694,5.694,0,0,1-.993,3.5,3.183,3.183,0,0,1-2.689,1.327,3.488,3.488,0,0,1-2.725-1.1v4.579h-1.626V97.49h1.485l.079,1.055a3.35,3.35,0,0,1,2.76-1.23,3.243,3.243,0,0,1,2.711,1.292,5.756,5.756,0,0,1,1,3.595Zm-1.626-.185a4.2,4.2,0,0,0-.686-2.54,2.208,2.208,0,0,0-1.881-.932,2.39,2.39,0,0,0-2.215,1.31v4.544a2.4,2.4,0,0,0,2.232,1.3,2.2,2.2,0,0,0,1.859-.927A4.587,4.587,0,0,0,137.5,102.166Zm7.638,5.01a4.155,4.155,0,0,1-3.146-1.27,4.714,4.714,0,0,1-1.213-3.4v-.3a5.707,5.707,0,0,1,.541-2.527,4.217,4.217,0,0,1,1.512-1.74,3.8,3.8,0,0,1,2.1-.628,3.562,3.562,0,0,1,2.883,1.222,5.289,5.289,0,0,1,1.028,3.5v.677H142.4a3.38,3.38,0,0,0,.822,2.272,2.583,2.583,0,0,0,2,.866,2.832,2.832,0,0,0,1.459-.352,3.666,3.666,0,0,0,1.046-.932l.993.773A3.993,3.993,0,0,1,145.134,107.176Zm-.2-8.525a2.169,2.169,0,0,0-1.652.716,3.482,3.482,0,0,0-.826,2.008h4.764v-.123a3.1,3.1,0,0,0-.668-1.92A2.042,2.042,0,0,0,144.932,98.65Zm10.389.3a4.873,4.873,0,0,0-.8-.062,2.143,2.143,0,0,0-2.171,1.362V107h-1.626V97.49h1.582l.026,1.1a2.532,2.532,0,0,1,2.268-1.274,1.661,1.661,0,0,1,.721.123ZM158.581,107h-1.635V97.49h1.635Zm.018-13.491h1.969l-2.355,2.584-1.31,0Zm2.232,8.648a5.617,5.617,0,0,1,.549-2.514,4.1,4.1,0,0,1,1.529-1.723,4.163,4.163,0,0,1,2.237-.606,4.01,4.01,0,0,1,3.142,1.345,5.174,5.174,0,0,1,1.2,3.577v.114a5.666,5.666,0,0,1-.532,2.492,4.038,4.038,0,0,1-1.521,1.718,4.211,4.211,0,0,1-2.272.615,4,4,0,0,1-3.133-1.345,5.147,5.147,0,0,1-1.2-3.56Zm1.635.193a4.068,4.068,0,0,0,.734,2.54,2.487,2.487,0,0,0,3.933-.013,4.449,4.449,0,0,0,.729-2.72,4.061,4.061,0,0,0-.743-2.536,2.361,2.361,0,0,0-1.973-.971,2.335,2.335,0,0,0-1.942.958A4.416,4.416,0,0,0,162.466,102.351Zm8.666-.185a5.571,5.571,0,0,1,1.037-3.52,3.529,3.529,0,0,1,5.361-.189V93.5h1.626V107h-1.494l-.079-1.02a3.311,3.311,0,0,1-2.716,1.2,3.248,3.248,0,0,1-2.694-1.354,5.634,5.634,0,0,1-1.042-3.533Zm1.626.185a4.218,4.218,0,0,0,.668,2.531,2.159,2.159,0,0,0,1.846.914,2.372,2.372,0,0,0,2.259-1.389v-4.368a2.39,2.39,0,0,0-2.241-1.345,2.17,2.17,0,0,0-1.863.923A4.644,4.644,0,0,0,172.758,102.351Zm8.49-.193a5.617,5.617,0,0,1,.549-2.514,4.1,4.1,0,0,1,1.529-1.723,4.163,4.163,0,0,1,2.237-.606,4.01,4.01,0,0,1,3.142,1.345,5.174,5.174,0,0,1,1.2,3.577v.114a5.666,5.666,0,0,1-.532,2.492,4.038,4.038,0,0,1-1.521,1.718,4.211,4.211,0,0,1-2.272.615,4,4,0,0,1-3.133-1.345,5.147,5.147,0,0,1-1.2-3.56Zm1.635.193a4.068,4.068,0,0,0,.734,2.54,2.487,2.487,0,0,0,3.933-.013,4.449,4.449,0,0,0,.729-2.72,4.061,4.061,0,0,0-.743-2.536,2.361,2.361,0,0,0-1.973-.971,2.335,2.335,0,0,0-1.942.958A4.416,4.416,0,0,0,182.883,102.351Zm14.6,2.127a1.2,1.2,0,0,0-.5-1.024,4.78,4.78,0,0,0-1.731-.628,8.186,8.186,0,0,1-1.96-.633,2.788,2.788,0,0,1-1.072-.879,2.1,2.1,0,0,1-.347-1.213,2.467,2.467,0,0,1,.989-1.978,3.861,3.861,0,0,1,2.527-.809,3.974,3.974,0,0,1,2.624.835,2.652,2.652,0,0,1,1.006,2.136h-1.635a1.468,1.468,0,0,0-.567-1.151,2.124,2.124,0,0,0-1.428-.483,2.223,2.223,0,0,0-1.389.387,1.217,1.217,0,0,0-.5,1.011.986.986,0,0,0,.466.888,5.731,5.731,0,0,0,1.683.571,8.77,8.77,0,0,1,1.973.65,2.878,2.878,0,0,1,1.121.91,2.237,2.237,0,0,1,.365,1.3,2.434,2.434,0,0,1-1.02,2.043,4.277,4.277,0,0,1-2.646.769,4.789,4.789,0,0,1-2.021-.4,3.288,3.288,0,0,1-1.375-1.129,2.722,2.722,0,0,1-.5-1.569h1.626a1.683,1.683,0,0,0,.655,1.3,2.54,2.54,0,0,0,1.613.479,2.622,2.622,0,0,0,1.481-.374A1.148,1.148,0,0,0,197.481,104.478Zm3.779,1.67a1.018,1.018,0,0,1,.25-.7.954.954,0,0,1,.751-.281.983.983,0,0,1,.76.281,1,1,0,0,1,.259.7.944.944,0,0,1-.259.677,1,1,0,0,1-.76.272.9.9,0,0,1-1-.949Z" transform="translate(-3223.5 -10920.066)" fill="#12263f"/>
      <g id="Grupo_877084" data-name="Grupo 877084" transform="translate(-3368.6 -10924.521)">
        <g id="Grupo_877083" data-name="Grupo 877083" clip-path="url(#clip-path)">
          <path id="Trazado_588363" data-name="Trazado 588363" d="M100.942,278.8l.637,10.548L128.493,289s4.175-5.185-8.849-5.185c-2.612,0-3.021-5.536-3.021-5.536Z" transform="translate(-16.584 -45.72)" fill="#afafaf"/>
          <path id="Trazado_588364" data-name="Trazado 588364" d="M46.578,278.8l-.637,10.548L19.028,289s-4.175-5.185,8.849-5.185c2.612,0,3.021-5.536,3.021-5.536Z" transform="translate(-3.022 -45.72)" fill="#afafaf"/>
          <path id="Trazado_588365" data-name="Trazado 588365" d="M36.008,132.92,28.928,257.238H50.473l10.075-101.9,2.183-.119,25.66,102.019h19.42L83.436,128.2Z" transform="translate(-4.753 -21.063)" fill="#0076be"/>
          <path id="Trazado_588366" data-name="Trazado 588366" d="M69.806,155.348H65.788l-.66-10.336.376-.024.637,9.985h3.665Z" transform="translate(-10.7 -23.821)" fill="#f2f2f2"/>
          <path id="Trazado_588367" data-name="Trazado 588367" d="M112.916,252.54H99.681v-.375h12.78c-1.225-6.391-18.438-96.23-19.141-101.772-9.783,2.378-13.591-4.861-13.629-4.936l.335-.17c.037.072,3.777,7.146,13.413,4.689l.235-.059v.242c0,1.987,19.006,101.157,19.2,102.159Z" transform="translate(-13.093 -23.87)" fill="#f2f2f2"/>
          <path id="Trazado_588368" data-name="Trazado 588368" d="M50.206,252.4h-17.8l.011-.2c.216-4.026,5.293-98.607,6.043-102.091l.038-.176.177.03c5.271.891,11.334-5.486,11.394-5.551l.274.258c-.251.266-6.137,6.445-11.545,5.691-.827,5.6-5.731,96.752-5.994,101.661h17.4Z" transform="translate(-5.324 -23.726)" fill="#f2f2f2"/>
          <path id="Trazado_588369" data-name="Trazado 588369" d="M70.614,29.479,71.5,42.065S60.836,44.6,58.04,41.777c-.636-.642.8-15,.8-15Z" transform="translate(-9.509 -4.399)" fill="#f29b89"/>
          <path id="Trazado_588370" data-name="Trazado 588370" d="M72,33.462c-2.035-.018-7.2-2.572-7.2-2.572a10.679,10.679,0,0,0,7.312,4.875c-.028-.626-.086-1.386-.114-2.3" transform="translate(-10.647 -5.075)" fill="#222753"/>
          <path id="Trazado_588371" data-name="Trazado 588371" d="M74.969,9.3s4.479,17.129-1.128,19.934-15.684-3.924-15.684-3.924L55.108,11.037Z" transform="translate(-9.054 -1.529)" fill="#f29b89"/>
          <path id="Trazado_588372" data-name="Trazado 588372" d="M77.9,18.122a.792.792,0,0,0,.645.888c.364.005.664-.383.671-.867s-.282-.883-.645-.888-.664.383-.671.867" transform="translate(-12.8 -2.835)" fill="#222753"/>
          <path id="Trazado_588373" data-name="Trazado 588373" d="M70.726,18.623a.792.792,0,0,0,.644.888c.364.005.664-.383.671-.867s-.281-.883-.645-.888-.664.383-.67.867" transform="translate(-11.62 -2.917)" fill="#222753"/>
          <path id="Trazado_588374" data-name="Trazado 588374" d="M75.058,23.384a.188.188,0,0,1-.008-.376,3.668,3.668,0,0,0,1.554-.421c.254-.17-.25-1.785-1.079-3.456a.188.188,0,1,1,.337-.167c.512,1.031,1.63,3.481.951,3.935a3.988,3.988,0,0,1-1.748.485h-.008" transform="translate(-12.301 -3.099)" fill="#222753"/>
          <path id="Trazado_588375" data-name="Trazado 588375" d="M74.976,26.877A2.5,2.5,0,0,1,72.635,25.4a.188.188,0,0,1,.335-.171,2.448,2.448,0,0,0,3.287,1.01.188.188,0,0,1,.16.341,3.824,3.824,0,0,1-1.441.3" transform="translate(-11.93 -4.128)" fill="#222753"/>
          <path id="Trazado_588376" data-name="Trazado 588376" d="M55.416,5.6c1.2-3.584,4.789-2.4,5.01-2.736a4.549,4.549,0,0,1,5.262-1.636c1.168.369,2.409.986,3.428.307,1.358-.906,7.458-3.006,8.5.115,2.272,6.819-.925,8.556-3.663,9.243-1.559.391-3.2-.165-4.806-.218a5.162,5.162,0,0,0-4.358,1.58,14.064,14.064,0,0,1-1.425,2.178c-1.046.934-2.769.714-3.837,1.623a4.207,4.207,0,0,0-1.048,3.323,26.211,26.211,0,0,0,.263,3.545,4.765,4.765,0,0,1,.048,1.786,1.451,1.451,0,0,1-1.2,1.169c-.9.051-1.433-.981-1.631-1.859a12.242,12.242,0,0,1-.3-2.459c-.022-1.039-6.1-15.151-.239-15.96" transform="translate(-8.686 0)" fill="#222753"/>
          <path id="Trazado_588377" data-name="Trazado 588377" d="M62.085,19.838c-.1-.016-.82-1.848-2.673-1.523-1.65.289-1.732,3.007-1.186,3.6a4.635,4.635,0,0,0,3.39,1.739Z" transform="translate(-9.517 -3.003)" fill="#f29b89"/>
          <path id="Trazado_588378" data-name="Trazado 588378" d="M59.174,21.587a.188.188,0,0,1-.186-.165,1.12,1.12,0,0,1,.335-1.086c.593-.469,1.708-.058,1.756-.042a.189.189,0,0,1,.11.242.191.191,0,0,1-.242.11c-.267-.1-1.036-.3-1.392-.015a.78.78,0,0,0-.194.745.188.188,0,0,1-.165.209.1.1,0,0,1-.023,0" transform="translate(-9.689 -3.304)" fill="#222753"/>
          <path id="Trazado_588379" data-name="Trazado 588379" d="M60.556,22.037h-.018a.188.188,0,0,1-.168-.16,2.566,2.566,0,0,0-.15-.211,3.627,3.627,0,0,1-.673-1.231.188.188,0,0,1,.365-.092,3.323,3.323,0,0,0,.608,1.1c.16.212.233.31.222.426a.188.188,0,0,1-.187.17" transform="translate(-9.782 -3.319)" fill="#222753"/>
          <path id="Trazado_588380" data-name="Trazado 588380" d="M87.762,46.174s0,51.692,0,76.133c-20.185,11.228-52.265,0-52.265,0L32,76.866l.867-30.692L48.3,43.726l6-.953,6.466.52,8.059-.119,8.232,1.3Z" transform="translate(-5.257 -7.027)" fill="#222753"/>
          <path id="Trazado_588381" data-name="Trazado 588381" d="M80.262,44.478C78.005,49.843,72.765,61.986,69,68.12c-1.345,2.19-2.5,3.619-3.268,3.694-.744.075-1.9-1.354-3.251-3.669a.026.026,0,0,1-.008-.017c-3.443-5.875-8.2-17.408-10.964-24.4l6-.953,6.466.52,8.059-.119Z" transform="translate(-8.462 -7.027)" fill="#f2f2f2"/>
          <path id="Trazado_588382" data-name="Trazado 588382" d="M54.1,43.086c.066-.3,2.949-3.776,2.949-3.776s6.136,2.6,7.729,2.537,7.609-2.537,7.609-2.537l2.6,4.306s-4.9,4.762-10.087,5.074c-4.9.3-10.8-5.6-10.8-5.6" transform="translate(-8.888 -6.459)" fill="#f2f2f2"/>
          <path id="Trazado_588383" data-name="Trazado 588383" d="M61.978,49.7a.182.182,0,0,1-.092-.024c-.218-.122-5.369-3.008-6.576-4.752a.187.187,0,0,1,.048-.262.189.189,0,0,1,.262.048c1.056,1.526,5.513,4.1,6.325,4.566l3.239-3.385a.19.19,0,0,1,.262-.009l3.754,3.4c.763-.439,5.022-2.953,5.8-4.922a.188.188,0,1,1,.35.138c-.9,2.278-5.872,5.062-6.083,5.18a.191.191,0,0,1-.217-.025l-3.72-3.369-3.214,3.36a.191.191,0,0,1-.136.058" transform="translate(-9.082 -7.268)" fill="#3ae3fe"/>
          <path id="Trazado_588384" data-name="Trazado 588384" d="M71.151,67.934s-.075.309-.217.777c-1.345,2.19-2.5,3.619-3.268,3.694-.744.075-1.9-1.354-3.251-3.669a.026.026,0,0,1-.008-.017l1.5-15.569L63.3,49.858l3.343-3.485,3.853,3.485-1.947,3.293Z" transform="translate(-10.399 -7.619)" fill="#3ae3fe"/>
          <path id="Trazado_588385" data-name="Trazado 588385" d="M168.9,28.782s9.454-9.179,13.122-11.719c.554-.384,2.665-1.1,2.58.788s-2.734,3.533-4.4,5.16c1.531-.284,6.773,5.3,6.4,6.576s-9.658,7.222-9.658,7.222Z" transform="translate(-27.75 -2.728)" fill="#f29b89"/>
          <path id="Trazado_588386" data-name="Trazado 588386" d="M183.5,34.647a1.151,1.151,0,0,1-.71-.221c-.266-.2-.747-.809.006-2.261-1.185.49-1.783.267-2.082-.033a1.883,1.883,0,0,1-.122-1.988,1.713,1.713,0,0,1-1.982-.375c-.232-.295-.843-1.411,1.076-3.346a.187.187,0,1,1,.267.263c-1.352,1.365-1.427,2.367-1.046,2.851a1.521,1.521,0,0,0,1.976.053.189.189,0,0,1,.227.025.187.187,0,0,1,.037.224c-.453.857-.519,1.671-.164,2.028s1.137.257,2.192-.293a.188.188,0,0,1,.246.267c-.819,1.285-.743,2.024-.4,2.286a1.54,1.54,0,0,0,1.852-.547.188.188,0,0,1,.277.253,2.351,2.351,0,0,1-1.649.812" transform="translate(-29.3 -4.332)" fill="#222753"/>
          <path id="Trazado_588387" data-name="Trazado 588387" d="M172.71,26.927a.188.188,0,0,1-.111-.339,39.512,39.512,0,0,1,4.96-3.212l.272-.1c1.128-.416,2.194-.808,2.515.04.293.776-1.06,2.448-1.334,2.775a.188.188,0,0,1-.288-.242c.623-.744,1.429-1.981,1.27-2.4-.176-.466-.886-.244-2.033.18l-.274.1a40.734,40.734,0,0,0-4.866,3.161.185.185,0,0,1-.111.037" transform="translate(-28.345 -3.748)" fill="#222753"/>
          <path id="Trazado_588388" data-name="Trazado 588388" d="M181.413,29.839a.188.188,0,0,1-.1-.348c1.782-1.083,2.491-4.115,2.5-4.145a.188.188,0,0,1,.366.084c-.03.13-.75,3.217-2.669,4.382a.188.188,0,0,1-.1.028" transform="translate(-29.775 -4.14)" fill="#222753"/>
          <path id="Trazado_588389" data-name="Trazado 588389" d="M184.2,32.2a.188.188,0,0,1-.1-.348,7.5,7.5,0,0,0,2.892-3.7.188.188,0,0,1,.358.113,7.74,7.74,0,0,1-3.054,3.91.19.19,0,0,1-.1.027" transform="translate(-30.232 -4.603)" fill="#222753"/>
          <path id="Trazado_588390" data-name="Trazado 588390" d="M96.023,44.168c8.632,5.325,20.315,6.177,30.867,2.964a41.98,41.98,0,0,0,13.328-6.752c8.945-5.4,11.61-8.989,14.388-11.513,3.633,2.862,12.139,9.718,12.227,9.787-8.449,12.341-19.286,21.849-31.343,27.6a60.8,60.8,0,0,1-52.4.618Z" transform="translate(-13.652 -4.743)" fill="#222753"/>
          <path id="Trazado_588391" data-name="Trazado 588391" d="M95.655,59.939l-.375-.024a46.531,46.531,0,0,1,2.57-12.823l.349.139a46.148,46.148,0,0,0-2.544,12.709" transform="translate(-15.654 -7.737)" fill="#f2f2f2"/>
          <path id="Trazado_588392" data-name="Trazado 588392" d="M19.75,139.771s2.383,7.626,5.076,11.5c1.208,1.74,3.5,4.106,4.384,3.269a2.094,2.094,0,0,0,.447-1.328s1.89,1.6,2.551,1.077c.852-.679.5-2.124.5-2.124s1.663.972,2.073.541c.793-.834-.514-2.878-.514-2.878s1.411.7,1.922-.225c.3-.542-3.735-7.9-3.735-7.9s4.87,2.032,4.743.539-10.587-9.087-10.587-9.087Z" transform="translate(-3.245 -21.877)" fill="#f29b89"/>
          <path id="Trazado_588393" data-name="Trazado 588393" d="M30.634,156.317a.193.193,0,0,1-.116-.039c-.091-.072-2.246-1.755-2.448-1.927s-1.985-2.666-2.338-3.163a.188.188,0,1,1,.306-.218c.8,1.122,2.122,2.954,2.276,3.1.2.165,2.414,1.9,2.436,1.916a.188.188,0,0,1,.032.264.185.185,0,0,1-.148.072" transform="translate(-4.222 -24.791)" fill="#222753"/>
          <path id="Trazado_588394" data-name="Trazado 588394" d="M34.161,154.9a.189.189,0,0,1-.113-.038l-3.065-2.307a.181.181,0,0,1-.046-.048l-2.312-3.6a.188.188,0,0,1,.317-.2l2.293,3.572,3.038,2.287a.189.189,0,0,1,.038.263.187.187,0,0,1-.15.074" transform="translate(-4.698 -24.417)" fill="#222753"/>
          <path id="Trazado_588395" data-name="Trazado 588395" d="M36.205,152.225a.185.185,0,0,1-.134-.055L33.8,149.879l-2.21-3a.188.188,0,1,1,.3-.222l2.193,2.983,2.254,2.27a.189.189,0,0,1,0,.267.187.187,0,0,1-.132.053" transform="translate(-5.184 -24.082)" fill="#222753"/>
          <path id="Trazado_588396" data-name="Trazado 588396" d="M40.463,70.136C28.476,77.367,22.843,84.175,21.134,91.91c-2.028,9.18,1.471,18.8,6.432,29.058l-12.813,9.614C3.091,116.859-1.214,102.427.287,88.883c1.777-16.027,11.519-31.408,26.992-42.3Z" transform="translate(0 -7.654)" fill="#222753"/>
          <path id="Trazado_588397" data-name="Trazado 588397" d="M37.5,63.895c-.087-8.785-5-17.148-5.051-17.231l.323-.192c.05.084,5.017,8.534,5.1,17.419Z" transform="translate(-5.332 -7.635)" fill="#f2f2f2"/>
        </g>
      </g>
    </g>
  </g>
</svg>
