<svg xmlns="http://www.w3.org/2000/svg" xmlns:xlink="http://www.w3.org/1999/xlink" width="455.992" height="369.199" viewBox="0 0 455.992 369.199">
  <defs>
    <filter id="Elipse_180" x="324.704" y="5.287" width="131.288" height="131.287" filterUnits="userSpaceOnUse">
      <feOffset dx="5" dy="5" input="SourceAlpha"/>
      <feGaussianBlur stdDeviation="12.5" result="blur"/>
      <feFlood flood-opacity="0.161"/>
      <feComposite operator="in" in2="blur"/>
      <feComposite in="SourceGraphic"/>
    </filter>
    <filter id="Elipse_180-2" x="0" y="5.287" width="131.288" height="131.287" filterUnits="userSpaceOnUse">
      <feOffset dx="5" dy="5" input="SourceAlpha"/>
      <feGaussianBlur stdDeviation="12.5" result="blur-2"/>
      <feFlood flood-opacity="0.161"/>
      <feComposite operator="in" in2="blur-2"/>
      <feComposite in="SourceGraphic"/>
    </filter>
    <filter id="Elipse_180-3" x="162.352" y="237.913" width="131.288" height="131.287" filterUnits="userSpaceOnUse">
      <feOffset dx="5" dy="5" input="SourceAlpha"/>
      <feGaussianBlur stdDeviation="12.5" result="blur-3"/>
      <feFlood flood-opacity="0.161"/>
      <feComposite operator="in" in2="blur-3"/>
      <feComposite in="SourceGraphic"/>
    </filter>
  </defs>
  <g id="Grupo_1072820" data-name="Grupo 1072820" transform="translate(-468.113 -776)">
    <rect id="Rectángulo_377621" data-name="Rectángulo 377621" width="392" height="332" transform="translate(495.217 776)" fill="#fff"/>
    <g id="Grupo_875552" data-name="Grupo 875552" transform="translate(531.403 789.503)">
      <path id="Trazado_583429" data-name="Trazado 583429" d="M782.832-226.7A120.975,120.975,0,0,0,666.289-101.446,120.973,120.973,0,0,0,791.545,15.1,120.972,120.972,0,0,0,908.088-110.161,120.973,120.973,0,0,0,782.832-226.7Zm8.01,222.3a101.452,101.452,0,0,1-105.048-97.74,101.452,101.452,0,0,1,97.74-105.05,101.453,101.453,0,0,1,105.05,97.74A101.455,101.455,0,0,1,790.843-4.409Z" transform="translate(-629.701 226.784)" fill="#e8e8e8"/>
      <g id="Grupo_845437" data-name="Grupo 845437" transform="translate(0 1.298)">
        <path id="Trazado_583434" data-name="Trazado 583434" d="M681.626-116.336a61.688,61.688,0,0,1-30.865-8.315A61.755,61.755,0,0,1,628.3-208.946a61.913,61.913,0,0,1,53.428-30.777,61.672,61.672,0,0,1,30.865,8.314,61.29,61.29,0,0,1,28.689,37.495,61.28,61.28,0,0,1-6.226,46.8A61.917,61.917,0,0,1,681.626-116.336Z" transform="translate(-620.003 239.723)" fill="#fff"/>
        <path id="Trazado_583435" data-name="Trazado 583435" d="M679.791-123.785a56.059,56.059,0,0,1-28.052-7.559,56.135,56.135,0,0,1-20.421-76.623,56.287,56.287,0,0,1,48.572-27.979,56.058,56.058,0,0,1,28.052,7.559A55.71,55.71,0,0,1,734.021-194.3a55.7,55.7,0,0,1-5.66,42.541A56.285,56.285,0,0,1,679.791-123.785Z" transform="translate(-618.168 241.558)" fill="#0c5e46"/>
        <path id="Trazado_612812" data-name="Trazado 612812" d="M44.723,0A44.723,44.723,0,1,1,0,44.723,44.723,44.723,0,0,1,44.723,0Z" transform="translate(6.941 29.995) rotate(-14.923)" fill="#f6f6f6"/>
        <path id="Trazado_612813" data-name="Trazado 612813" d="M18.75,10.949h-3.6L14.471,13H12.29l3.705-9.953h1.9L21.621,13H19.44ZM15.708,9.288H18.2L16.945,5.563Zm8.2-3.685.062.854A2.582,2.582,0,0,1,26.1,5.467a2.146,2.146,0,0,1,1.75.69,3.221,3.221,0,0,1,.588,2.064V13H26.461V8.27a1.282,1.282,0,0,0-.273-.913,1.224,1.224,0,0,0-.909-.284,1.359,1.359,0,0,0-1.251.711V13H22.052V5.6ZM34.22,13a2.194,2.194,0,0,1-.2-.663,2.39,2.39,0,0,1-1.866.8,2.626,2.626,0,0,1-1.8-.629,2.023,2.023,0,0,1-.714-1.586,2.09,2.09,0,0,1,.872-1.8,4.3,4.3,0,0,1,2.519-.636h.909V8.058a1.219,1.219,0,0,0-.263-.82,1.035,1.035,0,0,0-.831-.308,1.177,1.177,0,0,0-.783.239.813.813,0,0,0-.284.656H29.8a1.984,1.984,0,0,1,.4-1.189,2.621,2.621,0,0,1,1.121-.858,4.086,4.086,0,0,1,1.627-.311,3.228,3.228,0,0,1,2.17.687,2.4,2.4,0,0,1,.8,1.931v3.206a3.536,3.536,0,0,0,.294,1.593V13Zm-1.634-1.374a1.7,1.7,0,0,0,.807-.195,1.28,1.28,0,0,0,.547-.523V9.637H33.2q-1.483,0-1.579,1.025l-.007.116a.791.791,0,0,0,.26.608A1.009,1.009,0,0,0,32.586,11.626ZM33.338,2.5h2.153L33.6,4.619H31.991ZM39.524,13H37.542V2.5h1.982Zm3.712,0H41.254V5.6h1.982Zm-2.1-9.311a.973.973,0,0,1,.3-.731,1.281,1.281,0,0,1,1.617,0,.967.967,0,0,1,.3.731.97.97,0,0,1-.3.738,1.267,1.267,0,0,1-1.606,0A.97.97,0,0,1,41.138,3.689Zm7.731,7.267a.637.637,0,0,0-.359-.571,4.077,4.077,0,0,0-1.152-.373Q44.72,9.459,44.72,7.771a2.032,2.032,0,0,1,.817-1.644,3.3,3.3,0,0,1,2.136-.66,3.547,3.547,0,0,1,2.252.663,2.09,2.09,0,0,1,.844,1.723H48.794a.956.956,0,0,0-.273-.7,1.157,1.157,0,0,0-.854-.277,1.182,1.182,0,0,0-.772.226.712.712,0,0,0-.273.574.609.609,0,0,0,.311.53,3.2,3.2,0,0,0,1.049.349,8.571,8.571,0,0,1,1.244.332,2.044,2.044,0,0,1,1.565,1.989,1.929,1.929,0,0,1-.868,1.637,3.745,3.745,0,0,1-2.242.625,3.912,3.912,0,0,1-1.651-.332A2.77,2.77,0,0,1,44.9,11.9a2.113,2.113,0,0,1-.41-1.248H46.36a1.031,1.031,0,0,0,.39.807,1.546,1.546,0,0,0,.971.28,1.43,1.43,0,0,0,.858-.215A.67.67,0,0,0,48.869,10.956ZM54.146,13H52.164V5.6h1.982Zm-2.1-9.311a.973.973,0,0,1,.3-.731,1.281,1.281,0,0,1,1.617,0,.967.967,0,0,1,.3.731.97.97,0,0,1-.3.738,1.267,1.267,0,0,1-1.606,0A.97.97,0,0,1,52.048,3.689Zm7.731,7.267a.637.637,0,0,0-.359-.571,4.077,4.077,0,0,0-1.152-.373Q55.63,9.459,55.63,7.771a2.032,2.032,0,0,1,.817-1.644,3.3,3.3,0,0,1,2.136-.66,3.547,3.547,0,0,1,2.252.663,2.09,2.09,0,0,1,.844,1.723H59.7a.956.956,0,0,0-.273-.7,1.157,1.157,0,0,0-.854-.277A1.182,1.182,0,0,0,57.8,7.1a.712.712,0,0,0-.273.574.609.609,0,0,0,.311.53,3.2,3.2,0,0,0,1.049.349,8.571,8.571,0,0,1,1.244.332A2.044,2.044,0,0,1,61.7,10.874a1.929,1.929,0,0,1-.868,1.637,3.745,3.745,0,0,1-2.242.625,3.912,3.912,0,0,1-1.651-.332,2.77,2.77,0,0,1-1.131-.909,2.113,2.113,0,0,1-.41-1.248H57.27a1.031,1.031,0,0,0,.39.807,1.546,1.546,0,0,0,.971.28,1.43,1.43,0,0,0,.858-.215A.67.67,0,0,0,59.779,10.956ZM17.273,28.587,18.647,23.6h2.064l-2.5,7.4H16.33l-2.5-7.4H15.9Zm7.622,2.55a3.631,3.631,0,0,1-2.649-1,3.548,3.548,0,0,1-1.022-2.659v-.191a4.468,4.468,0,0,1,.431-1.993,3.161,3.161,0,0,1,1.22-1.354,3.425,3.425,0,0,1,1.8-.475,3.07,3.07,0,0,1,2.389.957,3.889,3.889,0,0,1,.872,2.714v.807h-4.71a1.835,1.835,0,0,0,.578,1.162,1.746,1.746,0,0,0,1.22.438,2.132,2.132,0,0,0,1.784-.827L27.78,29.8a2.966,2.966,0,0,1-1.2.981A3.947,3.947,0,0,1,24.9,31.137ZM24.67,25.06a1.234,1.234,0,0,0-.954.4,2.062,2.062,0,0,0-.468,1.14H26V26.44a1.471,1.471,0,0,0-.355-1.02A1.274,1.274,0,0,0,24.67,25.06Zm8.545.4A5.367,5.367,0,0,0,32.5,25.4a1.447,1.447,0,0,0-1.47.759V31H29.058V23.6h1.866l.055.882a1.831,1.831,0,0,1,1.647-1.019,2.07,2.07,0,0,1,.615.089Zm3.657-3.671V23.6h1.265v1.449H36.872v3.691a.881.881,0,0,0,.157.588.79.79,0,0,0,.6.178,3.151,3.151,0,0,0,.581-.048v1.5a4.067,4.067,0,0,1-1.2.178,1.886,1.886,0,0,1-2.119-2.1V25.053h-1.08V23.6H34.9V21.785ZM41.322,31H39.34V23.6h1.982Zm-2.1-9.311a.973.973,0,0,1,.3-.731,1.281,1.281,0,0,1,1.617,0,1.044,1.044,0,0,1,0,1.47,1.267,1.267,0,0,1-1.606,0A.97.97,0,0,1,39.223,21.689Zm6.8,7.854a1.3,1.3,0,0,0,.889-.3,1.054,1.054,0,0,0,.355-.8h1.853a2.534,2.534,0,0,1-.41,1.377,2.706,2.706,0,0,1-1.1.971,3.455,3.455,0,0,1-1.548.345,3.211,3.211,0,0,1-2.5-1.008,3.99,3.99,0,0,1-.916-2.786v-.13a3.944,3.944,0,0,1,.909-2.728,3.174,3.174,0,0,1,2.5-1.019,3.111,3.111,0,0,1,2.225.79,2.8,2.8,0,0,1,.851,2.1H47.269a1.358,1.358,0,0,0-.355-.938,1.321,1.321,0,0,0-1.945.142,2.916,2.916,0,0,0-.352,1.633V27.4a2.953,2.953,0,0,0,.349,1.643A1.2,1.2,0,0,0,46.025,29.544ZM54.536,31a2.194,2.194,0,0,1-.2-.663,2.39,2.39,0,0,1-1.866.8,2.626,2.626,0,0,1-1.8-.629,2.023,2.023,0,0,1-.714-1.586,2.09,2.09,0,0,1,.872-1.8,4.3,4.3,0,0,1,2.519-.636h.909v-.424a1.219,1.219,0,0,0-.263-.82,1.035,1.035,0,0,0-.831-.308,1.177,1.177,0,0,0-.783.239.813.813,0,0,0-.284.656H50.12a1.984,1.984,0,0,1,.4-1.189,2.621,2.621,0,0,1,1.121-.858,4.086,4.086,0,0,1,1.627-.311,3.228,3.228,0,0,1,2.17.687,2.4,2.4,0,0,1,.8,1.931v3.206a3.536,3.536,0,0,0,.294,1.593V31ZM52.9,29.626a1.7,1.7,0,0,0,.807-.195,1.28,1.28,0,0,0,.547-.523V27.637h-.738q-1.483,0-1.579,1.025l-.007.116a.791.791,0,0,0,.26.608A1.009,1.009,0,0,0,52.9,29.626ZM59.841,31H57.858V20.5h1.982Z" transform="translate(24.692 43.192)" fill="#12263f"/>
      </g>
      <g id="Grupo_845440" data-name="Grupo 845440" transform="translate(95.816 160.178)">
        <path id="Trazado_583443" data-name="Trazado 583443" d="M853.65-10.309a61.663,61.663,0,0,1-31.082-8.441,61.756,61.756,0,0,1-22.12-84.384,61.947,61.947,0,0,1,53.3-30.563,61.654,61.654,0,0,1,31.082,8.441,61.756,61.756,0,0,1,22.122,84.384A61.947,61.947,0,0,1,853.65-10.309Z" transform="translate(-792.028 133.697)" fill="#fff"/>
        <path id="Trazado_583444" data-name="Trazado 583444" d="M851.815-17.758a56.03,56.03,0,0,1-28.248-7.673,56.137,56.137,0,0,1-20.109-76.706,56.316,56.316,0,0,1,48.456-27.782,56.031,56.031,0,0,1,28.25,7.673A56.137,56.137,0,0,1,900.272-45.54,56.318,56.318,0,0,1,851.815-17.758Z" transform="translate(-790.193 135.533)" fill="#3ae3fe"/>
        <circle id="Elipse_7379" data-name="Elipse 7379" cx="44.723" cy="44.723" r="44.723" transform="matrix(0.975, -0.223, 0.223, 0.975, 8.115, 28.05)" fill="#fff"/>
        <path id="Trazado_612816" data-name="Trazado 612816" d="M10.726,10.949h-3.6L6.447,13H4.266L7.971,3.047h1.9L13.6,13H11.417ZM7.684,9.288h2.488L8.922,5.563Zm13.043.082a4.436,4.436,0,0,1-.776,2.738,2.488,2.488,0,0,1-2.1,1.029,2.3,2.3,0,0,1-1.812-.779v3.486H14.069V5.6H15.9l.068.725a2.322,2.322,0,0,1,1.873-.861,2.5,2.5,0,0,1,2.126,1.012,4.556,4.556,0,0,1,.759,2.789Zm-1.976-.144a2.911,2.911,0,0,0-.366-1.593,1.191,1.191,0,0,0-1.063-.561,1.294,1.294,0,0,0-1.278.711v3.028a1.316,1.316,0,0,0,1.292.731Q18.752,11.544,18.752,9.227ZM24.036,13H22.053V2.5h1.982Zm3.712,0H25.765V5.6h1.982Zm-2.1-9.311a.973.973,0,0,1,.3-.731,1.281,1.281,0,0,1,1.617,0,.967.967,0,0,1,.3.731.97.97,0,0,1-.3.738,1.267,1.267,0,0,1-1.606,0A.97.97,0,0,1,25.649,3.689Zm6.8,7.854a1.3,1.3,0,0,0,.889-.3,1.054,1.054,0,0,0,.355-.8h1.853a2.534,2.534,0,0,1-.41,1.377,2.706,2.706,0,0,1-1.1.971,3.455,3.455,0,0,1-1.548.345,3.211,3.211,0,0,1-2.5-1.008,3.99,3.99,0,0,1-.916-2.786v-.13a3.944,3.944,0,0,1,.909-2.728,3.174,3.174,0,0,1,2.5-1.019,3.111,3.111,0,0,1,2.225.79,2.8,2.8,0,0,1,.851,2.1H33.7a1.358,1.358,0,0,0-.355-.938,1.321,1.321,0,0,0-1.945.142A2.916,2.916,0,0,0,31.043,9.2V9.4a2.953,2.953,0,0,0,.349,1.643A1.2,1.2,0,0,0,32.451,11.544ZM40.962,13a2.194,2.194,0,0,1-.2-.663,2.39,2.39,0,0,1-1.866.8,2.626,2.626,0,0,1-1.8-.629,2.023,2.023,0,0,1-.714-1.586,2.09,2.09,0,0,1,.872-1.8,4.3,4.3,0,0,1,2.519-.636h.909V8.058a1.219,1.219,0,0,0-.263-.82,1.035,1.035,0,0,0-.831-.308,1.177,1.177,0,0,0-.783.239.813.813,0,0,0-.284.656H36.546a1.984,1.984,0,0,1,.4-1.189,2.621,2.621,0,0,1,1.121-.858,4.086,4.086,0,0,1,1.627-.311,3.228,3.228,0,0,1,2.17.687,2.4,2.4,0,0,1,.8,1.931v3.206a3.536,3.536,0,0,0,.294,1.593V13Zm-1.634-1.374a1.7,1.7,0,0,0,.807-.195,1.28,1.28,0,0,0,.547-.523V9.637h-.738q-1.483,0-1.579,1.025l-.007.116a.791.791,0,0,0,.26.608A1.009,1.009,0,0,0,39.328,11.626Zm7.93-.082a1.3,1.3,0,0,0,.889-.3,1.054,1.054,0,0,0,.355-.8h1.853a2.534,2.534,0,0,1-.41,1.377,2.706,2.706,0,0,1-1.1.971,3.455,3.455,0,0,1-1.548.345,3.211,3.211,0,0,1-2.5-1.008,3.99,3.99,0,0,1-.916-2.786v-.13a3.944,3.944,0,0,1,.909-2.728,3.174,3.174,0,0,1,2.5-1.019,3.111,3.111,0,0,1,2.225.79,2.8,2.8,0,0,1,.851,2.1H48.5a1.358,1.358,0,0,0-.355-.938,1.321,1.321,0,0,0-1.945.142A2.916,2.916,0,0,0,45.849,9.2V9.4a2.953,2.953,0,0,0,.349,1.643A1.2,1.2,0,0,0,47.258,11.544ZM53.567,13H51.585V5.6h1.982Zm-2.1-9.311a.973.973,0,0,1,.3-.731,1.281,1.281,0,0,1,1.617,0,.967.967,0,0,1,.3.731.97.97,0,0,1-.3.738,1.267,1.267,0,0,1-1.606,0A.97.97,0,0,1,51.469,3.689Zm3.418,5.544a4.387,4.387,0,0,1,.424-1.962,3.1,3.1,0,0,1,1.22-1.333,3.56,3.56,0,0,1,1.849-.472,3.368,3.368,0,0,1,2.444.916A3.676,3.676,0,0,1,61.88,8.871l.014.506a3.866,3.866,0,0,1-.95,2.731,3.683,3.683,0,0,1-5.1,0,3.934,3.934,0,0,1-.954-2.789Zm1.976.14a2.765,2.765,0,0,0,.4,1.612,1.424,1.424,0,0,0,2.256.007,3.025,3.025,0,0,0,.4-1.763,2.737,2.737,0,0,0-.4-1.6A1.311,1.311,0,0,0,58.38,7.06a1.29,1.29,0,0,0-1.121.565A3.076,3.076,0,0,0,56.862,9.374ZM58.769,2.5h2.153L59.029,4.619H57.423Zm6.159,3.1.062.854a2.582,2.582,0,0,1,2.126-.991,2.146,2.146,0,0,1,1.75.69,3.221,3.221,0,0,1,.588,2.064V13H67.478V8.27a1.282,1.282,0,0,0-.273-.913,1.224,1.224,0,0,0-.909-.284,1.359,1.359,0,0,0-1.251.711V13H63.069V5.6Zm9.2,3.644a4.457,4.457,0,0,1,.776-2.755,2.517,2.517,0,0,1,2.123-1.025,2.265,2.265,0,0,1,1.784.807V2.5h1.982V13H79.01l-.1-.786a2.325,2.325,0,0,1-1.9.923,2.511,2.511,0,0,1-2.1-1.029A4.6,4.6,0,0,1,74.13,9.247Zm1.976.147a2.92,2.92,0,0,0,.362,1.6,1.18,1.18,0,0,0,1.053.555,1.322,1.322,0,0,0,1.292-.774V7.847a1.3,1.3,0,0,0-1.278-.774Q76.105,7.073,76.105,9.394Zm9.625,3.743a3.631,3.631,0,0,1-2.649-1,3.548,3.548,0,0,1-1.022-2.659V9.288A4.468,4.468,0,0,1,82.49,7.3a3.161,3.161,0,0,1,1.22-1.354,3.425,3.425,0,0,1,1.8-.475,3.07,3.07,0,0,1,2.389.957,3.889,3.889,0,0,1,.872,2.714v.807h-4.71a1.835,1.835,0,0,0,.578,1.162,1.746,1.746,0,0,0,1.22.438,2.132,2.132,0,0,0,1.784-.827l.971,1.087a2.966,2.966,0,0,1-1.2.981A3.947,3.947,0,0,1,85.73,13.137ZM85.5,7.06a1.234,1.234,0,0,0-.954.4,2.062,2.062,0,0,0-.468,1.14h2.748V8.44a1.471,1.471,0,0,0-.355-1.02A1.274,1.274,0,0,0,85.5,7.06ZM12.767,29H10.784V21.6h1.982Zm-2.1-9.311a.973.973,0,0,1,.3-.731,1.281,1.281,0,0,1,1.617,0,1.044,1.044,0,0,1,0,1.47,1.267,1.267,0,0,1-1.606,0A.97.97,0,0,1,10.668,19.689ZM16.212,21.6l.062.854a2.582,2.582,0,0,1,2.126-.991,2.146,2.146,0,0,1,1.75.69,3.221,3.221,0,0,1,.588,2.064V29H18.762V24.27a1.282,1.282,0,0,0-.273-.913,1.224,1.224,0,0,0-.909-.284,1.359,1.359,0,0,0-1.251.711V29H14.353V21.6Zm5.715,3.644a4.457,4.457,0,0,1,.776-2.755,2.517,2.517,0,0,1,2.123-1.025,2.265,2.265,0,0,1,1.784.807V18.5h1.982V29H26.808l-.1-.786a2.325,2.325,0,0,1-1.9.923,2.511,2.511,0,0,1-2.1-1.029A4.6,4.6,0,0,1,21.927,25.247Zm1.976.147a2.92,2.92,0,0,0,.362,1.6,1.18,1.18,0,0,0,1.053.555,1.322,1.322,0,0,0,1.292-.774V23.847a1.3,1.3,0,0,0-1.278-.774Q23.9,23.073,23.9,25.394ZM32.208,29H30.226V21.6h1.982Zm-2.1-9.311a.973.973,0,0,1,.3-.731,1.281,1.281,0,0,1,1.617,0,1.044,1.044,0,0,1,0,1.47,1.267,1.267,0,0,1-1.606,0A.97.97,0,0,1,30.11,19.689Zm6.8,7.854a1.3,1.3,0,0,0,.889-.3,1.054,1.054,0,0,0,.355-.8h1.853a2.534,2.534,0,0,1-.41,1.377,2.706,2.706,0,0,1-1.1.971,3.455,3.455,0,0,1-1.548.345,3.211,3.211,0,0,1-2.5-1.008,3.99,3.99,0,0,1-.916-2.786v-.13a3.944,3.944,0,0,1,.909-2.728,3.174,3.174,0,0,1,2.5-1.019,3.111,3.111,0,0,1,2.225.79,2.8,2.8,0,0,1,.851,2.1H38.156a1.358,1.358,0,0,0-.355-.938,1.321,1.321,0,0,0-1.945.142A2.916,2.916,0,0,0,35.5,25.2V25.4a2.953,2.953,0,0,0,.349,1.643A1.2,1.2,0,0,0,36.911,27.544ZM45.422,29a2.194,2.194,0,0,1-.2-.663,2.39,2.39,0,0,1-1.866.8,2.626,2.626,0,0,1-1.8-.629,2.023,2.023,0,0,1-.714-1.586,2.09,2.09,0,0,1,.872-1.8,4.3,4.3,0,0,1,2.519-.636h.909v-.424a1.219,1.219,0,0,0-.263-.82,1.035,1.035,0,0,0-.831-.308,1.177,1.177,0,0,0-.783.239.813.813,0,0,0-.284.656H41.006a1.984,1.984,0,0,1,.4-1.189,2.621,2.621,0,0,1,1.121-.858,4.086,4.086,0,0,1,1.627-.311,3.228,3.228,0,0,1,2.17.687,2.4,2.4,0,0,1,.8,1.931v3.206a3.536,3.536,0,0,0,.294,1.593V29Zm-1.634-1.374a1.7,1.7,0,0,0,.807-.195,1.28,1.28,0,0,0,.547-.523V25.637H44.4q-1.483,0-1.579,1.025l-.007.116a.791.791,0,0,0,.26.608A1.009,1.009,0,0,0,43.788,27.626Zm4.546-2.379a4.457,4.457,0,0,1,.776-2.755,2.517,2.517,0,0,1,2.123-1.025,2.265,2.265,0,0,1,1.784.807V18.5H55V29H53.215l-.1-.786a2.325,2.325,0,0,1-1.9.923,2.511,2.511,0,0,1-2.1-1.029A4.6,4.6,0,0,1,48.334,25.247Zm1.976.147a2.92,2.92,0,0,0,.362,1.6,1.18,1.18,0,0,0,1.053.555,1.322,1.322,0,0,0,1.292-.774V23.847a1.3,1.3,0,0,0-1.278-.774Q50.31,23.073,50.31,25.394Zm5.913-.161a4.387,4.387,0,0,1,.424-1.962,3.1,3.1,0,0,1,1.22-1.333,3.56,3.56,0,0,1,1.849-.472,3.368,3.368,0,0,1,2.444.916,3.676,3.676,0,0,1,1.056,2.488l.014.506a3.866,3.866,0,0,1-.95,2.731,3.683,3.683,0,0,1-5.1,0,3.934,3.934,0,0,1-.954-2.789Zm1.976.14a2.765,2.765,0,0,0,.4,1.612,1.424,1.424,0,0,0,2.256.007,3.025,3.025,0,0,0,.4-1.763,2.737,2.737,0,0,0-.4-1.6,1.311,1.311,0,0,0-1.135-.568,1.29,1.29,0,0,0-1.121.565A3.076,3.076,0,0,0,58.2,25.374Zm10.4-1.918a5.367,5.367,0,0,0-.711-.055,1.447,1.447,0,0,0-1.47.759V29H64.447V21.6h1.866l.055.882a1.831,1.831,0,0,1,1.647-1.019,2.07,2.07,0,0,1,.615.089Zm4.225,5.681a3.631,3.631,0,0,1-2.649-1,3.548,3.548,0,0,1-1.022-2.659v-.191a4.468,4.468,0,0,1,.431-1.993,3.161,3.161,0,0,1,1.22-1.354,3.425,3.425,0,0,1,1.8-.475A3.07,3.07,0,0,1,75,22.424a3.889,3.889,0,0,1,.872,2.714v.807h-4.71a1.835,1.835,0,0,0,.578,1.162,1.746,1.746,0,0,0,1.22.438,2.132,2.132,0,0,0,1.784-.827l.971,1.087a2.966,2.966,0,0,1-1.2.981A3.947,3.947,0,0,1,72.827,29.137ZM72.6,23.06a1.234,1.234,0,0,0-.954.4,2.062,2.062,0,0,0-.468,1.14h2.748V24.44a1.471,1.471,0,0,0-.355-1.02A1.274,1.274,0,0,0,72.6,23.06ZM81,26.956a.637.637,0,0,0-.359-.571,4.077,4.077,0,0,0-1.152-.373q-2.639-.554-2.639-2.242a2.032,2.032,0,0,1,.817-1.644,3.3,3.3,0,0,1,2.136-.66,3.547,3.547,0,0,1,2.252.663,2.09,2.09,0,0,1,.844,1.723H80.921a.956.956,0,0,0-.273-.7,1.157,1.157,0,0,0-.854-.277,1.182,1.182,0,0,0-.772.226.712.712,0,0,0-.273.574.609.609,0,0,0,.311.53,3.2,3.2,0,0,0,1.049.349,8.571,8.571,0,0,1,1.244.332,2.044,2.044,0,0,1,1.565,1.989,1.929,1.929,0,0,1-.868,1.637,3.745,3.745,0,0,1-2.242.625,3.912,3.912,0,0,1-1.651-.332,2.77,2.77,0,0,1-1.131-.909,2.113,2.113,0,0,1-.41-1.248h1.873a1.031,1.031,0,0,0,.39.807,1.546,1.546,0,0,0,.971.28,1.43,1.43,0,0,0,.858-.215A.67.67,0,0,0,81,26.956ZM14.407,41.233a4.421,4.421,0,0,1,.776-2.755,2.537,2.537,0,0,1,2.129-1.012,2.271,2.271,0,0,1,1.894.909l.13-.772h1.736v10.24H19.09V44.364a2.277,2.277,0,0,1-1.791.772,2.518,2.518,0,0,1-2.105-1.025A4.638,4.638,0,0,1,14.407,41.233Zm1.976.14a2.9,2.9,0,0,0,.373,1.616,1.193,1.193,0,0,0,1.049.555,1.329,1.329,0,0,0,1.285-.726v-3.06a1.318,1.318,0,0,0-1.271-.7,1.207,1.207,0,0,0-1.06.555A3.2,3.2,0,0,0,16.383,41.374Zm10.671,2.874a2.477,2.477,0,0,1-2.023.889,2.337,2.337,0,0,1-1.815-.684,2.918,2.918,0,0,1-.639-2V37.6h1.976v4.784q0,1.157,1.053,1.157a1.426,1.426,0,0,0,1.381-.7V37.6h1.982V45H27.109Zm6.809.889a3.631,3.631,0,0,1-2.649-1,3.548,3.548,0,0,1-1.022-2.659v-.191a4.468,4.468,0,0,1,.431-1.993,3.161,3.161,0,0,1,1.22-1.354,3.425,3.425,0,0,1,1.8-.475,3.07,3.07,0,0,1,2.389.957,3.889,3.889,0,0,1,.872,2.714v.807h-4.71a1.835,1.835,0,0,0,.578,1.162,1.746,1.746,0,0,0,1.22.438,2.132,2.132,0,0,0,1.784-.827l.971,1.087a2.966,2.966,0,0,1-1.2.981A3.947,3.947,0,0,1,33.863,45.137Zm-.226-6.077a1.234,1.234,0,0,0-.954.4,2.062,2.062,0,0,0-.468,1.14h2.748V40.44a1.471,1.471,0,0,0-.355-1.02A1.274,1.274,0,0,0,33.637,39.06Zm10.644,3.527L45.655,37.6h2.064l-2.5,7.4H43.337l-2.5-7.4h2.064ZM52.771,45a2.194,2.194,0,0,1-.2-.663,2.39,2.39,0,0,1-1.866.8,2.626,2.626,0,0,1-1.8-.629,2.023,2.023,0,0,1-.714-1.586,2.09,2.09,0,0,1,.872-1.8,4.3,4.3,0,0,1,2.519-.636h.909v-.424a1.219,1.219,0,0,0-.263-.82,1.035,1.035,0,0,0-.831-.308,1.177,1.177,0,0,0-.783.239.813.813,0,0,0-.284.656H48.355a1.984,1.984,0,0,1,.4-1.189,2.621,2.621,0,0,1,1.121-.858,4.086,4.086,0,0,1,1.627-.311,3.228,3.228,0,0,1,2.17.687,2.4,2.4,0,0,1,.8,1.931v3.206a3.536,3.536,0,0,0,.294,1.593V45Zm-1.634-1.374a1.7,1.7,0,0,0,.807-.195,1.28,1.28,0,0,0,.547-.523V41.637h-.738q-1.483,0-1.579,1.025l-.007.116a.791.791,0,0,0,.26.608A1.009,1.009,0,0,0,51.137,43.626Zm9.01-4.17a5.367,5.367,0,0,0-.711-.055,1.447,1.447,0,0,0-1.47.759V45H55.99V37.6h1.866l.055.882a1.831,1.831,0,0,1,1.647-1.019,2.07,2.07,0,0,1,.615.089ZM63.182,45H61.2V37.6h1.982Zm-2.1-9.311a.973.973,0,0,1,.3-.731,1.281,1.281,0,0,1,1.617,0,1.044,1.044,0,0,1,0,1.47,1.267,1.267,0,0,1-1.606,0A.97.97,0,0,1,61.083,35.689ZM69.095,45a2.194,2.194,0,0,1-.2-.663,2.39,2.39,0,0,1-1.866.8,2.626,2.626,0,0,1-1.8-.629,2.023,2.023,0,0,1-.714-1.586,2.09,2.09,0,0,1,.872-1.8,4.3,4.3,0,0,1,2.519-.636h.909v-.424a1.219,1.219,0,0,0-.263-.82,1.035,1.035,0,0,0-.831-.308,1.177,1.177,0,0,0-.783.239.813.813,0,0,0-.284.656H64.679a1.985,1.985,0,0,1,.4-1.189,2.621,2.621,0,0,1,1.121-.858,4.086,4.086,0,0,1,1.627-.311,3.228,3.228,0,0,1,2.17.687,2.4,2.4,0,0,1,.8,1.931v3.206a3.536,3.536,0,0,0,.294,1.593V45Zm-1.634-1.374a1.7,1.7,0,0,0,.807-.195,1.28,1.28,0,0,0,.547-.523V41.637h-.738q-1.483,0-1.579,1.025l-.007.116a.791.791,0,0,0,.26.608A1.009,1.009,0,0,0,67.461,43.626ZM74.133,37.6l.062.854a2.582,2.582,0,0,1,2.126-.991,2.146,2.146,0,0,1,1.75.69,3.221,3.221,0,0,1,.588,2.064V45H76.683V40.27a1.282,1.282,0,0,0-.273-.913,1.224,1.224,0,0,0-.909-.284,1.359,1.359,0,0,0-1.251.711V45H72.274V37.6Z" transform="translate(15.172 37.195)" fill="#12263f"/>
      </g>
      <g id="Grupo_845441" data-name="Grupo 845441" transform="translate(195.988 1.296)">
        <path id="Trazado_583446" data-name="Trazado 583446" d="M856.936-111.178a61.843,61.843,0,0,1-53.677-31.214,61.282,61.282,0,0,1-5.847-46.847,61.276,61.276,0,0,1,28.994-37.26,61.7,61.7,0,0,1,30.431-8.067,61.848,61.848,0,0,1,53.676,31.213A61.286,61.286,0,0,1,916.36-156.5a61.269,61.269,0,0,1-28.993,37.26A61.7,61.7,0,0,1,856.936-111.178Z" transform="translate(-795.175 234.566)" fill="#fff"/>
        <path id="Trazado_583447" data-name="Trazado 583447" d="M855.1-118.625A56.221,56.221,0,0,1,806.3-147a55.7,55.7,0,0,1-5.315-42.586,55.7,55.7,0,0,1,26.355-33.869A56.082,56.082,0,0,1,855-230.789a56.223,56.223,0,0,1,48.8,28.375,55.714,55.714,0,0,1,5.314,42.586,55.705,55.705,0,0,1-26.355,33.869A56.086,56.086,0,0,1,855.1-118.625Z" transform="translate(-793.339 236.401)" fill="#e1efe3"/>
        <path id="Trazado_612814" data-name="Trazado 612814" d="M44.723,0A44.723,44.723,0,1,1,0,44.723,44.723,44.723,0,0,1,44.723,0Z" transform="translate(6.726 92.947) rotate(-74.613)" fill="#fff"/>
        <path id="Trazado_612815" data-name="Trazado 612815" d="M18.75,10.949h-3.6L14.471,13H12.29l3.705-9.953h1.9L21.621,13H19.44ZM15.708,9.288H18.2L16.945,5.563Zm8.2-3.685.062.854A2.582,2.582,0,0,1,26.1,5.467a2.146,2.146,0,0,1,1.75.69,3.221,3.221,0,0,1,.588,2.064V13H26.461V8.27a1.282,1.282,0,0,0-.273-.913,1.224,1.224,0,0,0-.909-.284,1.359,1.359,0,0,0-1.251.711V13H22.052V5.6ZM34.22,13a2.194,2.194,0,0,1-.2-.663,2.39,2.39,0,0,1-1.866.8,2.626,2.626,0,0,1-1.8-.629,2.023,2.023,0,0,1-.714-1.586,2.09,2.09,0,0,1,.872-1.8,4.3,4.3,0,0,1,2.519-.636h.909V8.058a1.219,1.219,0,0,0-.263-.82,1.035,1.035,0,0,0-.831-.308,1.177,1.177,0,0,0-.783.239.813.813,0,0,0-.284.656H29.8a1.984,1.984,0,0,1,.4-1.189,2.621,2.621,0,0,1,1.121-.858,4.086,4.086,0,0,1,1.627-.311,3.228,3.228,0,0,1,2.17.687,2.4,2.4,0,0,1,.8,1.931v3.206a3.536,3.536,0,0,0,.294,1.593V13Zm-1.634-1.374a1.7,1.7,0,0,0,.807-.195,1.28,1.28,0,0,0,.547-.523V9.637H33.2q-1.483,0-1.579,1.025l-.007.116a.791.791,0,0,0,.26.608A1.009,1.009,0,0,0,32.586,11.626ZM33.338,2.5h2.153L33.6,4.619H31.991ZM39.524,13H37.542V2.5h1.982Zm3.712,0H41.254V5.6h1.982Zm-2.1-9.311a.973.973,0,0,1,.3-.731,1.281,1.281,0,0,1,1.617,0,.967.967,0,0,1,.3.731.97.97,0,0,1-.3.738,1.267,1.267,0,0,1-1.606,0A.97.97,0,0,1,41.138,3.689Zm7.731,7.267a.637.637,0,0,0-.359-.571,4.077,4.077,0,0,0-1.152-.373Q44.72,9.459,44.72,7.771a2.032,2.032,0,0,1,.817-1.644,3.3,3.3,0,0,1,2.136-.66,3.547,3.547,0,0,1,2.252.663,2.09,2.09,0,0,1,.844,1.723H48.794a.956.956,0,0,0-.273-.7,1.157,1.157,0,0,0-.854-.277,1.182,1.182,0,0,0-.772.226.712.712,0,0,0-.273.574.609.609,0,0,0,.311.53,3.2,3.2,0,0,0,1.049.349,8.571,8.571,0,0,1,1.244.332,2.044,2.044,0,0,1,1.565,1.989,1.929,1.929,0,0,1-.868,1.637,3.745,3.745,0,0,1-2.242.625,3.912,3.912,0,0,1-1.651-.332A2.77,2.77,0,0,1,44.9,11.9a2.113,2.113,0,0,1-.41-1.248H46.36a1.031,1.031,0,0,0,.39.807,1.546,1.546,0,0,0,.971.28,1.43,1.43,0,0,0,.858-.215A.67.67,0,0,0,48.869,10.956ZM54.146,13H52.164V5.6h1.982Zm-2.1-9.311a.973.973,0,0,1,.3-.731,1.281,1.281,0,0,1,1.617,0,.967.967,0,0,1,.3.731.97.97,0,0,1-.3.738,1.267,1.267,0,0,1-1.606,0A.97.97,0,0,1,52.048,3.689Zm7.731,7.267a.637.637,0,0,0-.359-.571,4.077,4.077,0,0,0-1.152-.373Q55.63,9.459,55.63,7.771a2.032,2.032,0,0,1,.817-1.644,3.3,3.3,0,0,1,2.136-.66,3.547,3.547,0,0,1,2.252.663,2.09,2.09,0,0,1,.844,1.723H59.7a.956.956,0,0,0-.273-.7,1.157,1.157,0,0,0-.854-.277A1.182,1.182,0,0,0,57.8,7.1a.712.712,0,0,0-.273.574.609.609,0,0,0,.311.53,3.2,3.2,0,0,0,1.049.349,8.571,8.571,0,0,1,1.244.332A2.044,2.044,0,0,1,61.7,10.874a1.929,1.929,0,0,1-.868,1.637,3.745,3.745,0,0,1-2.242.625,3.912,3.912,0,0,1-1.651-.332,2.77,2.77,0,0,1-1.131-.909,2.113,2.113,0,0,1-.41-1.248H57.27a1.031,1.031,0,0,0,.39.807,1.546,1.546,0,0,0,.971.28,1.43,1.43,0,0,0,.858-.215A.67.67,0,0,0,59.779,10.956ZM8.27,24.41a2.466,2.466,0,0,1,1.976-.943q2.406,0,2.44,2.8V31H10.711V26.317a1.374,1.374,0,0,0-.273-.94,1.172,1.172,0,0,0-.909-.3,1.345,1.345,0,0,0-1.258.67V31H6.295V20.5H8.27Zm5.6,2.823a4.387,4.387,0,0,1,.424-1.962,3.1,3.1,0,0,1,1.22-1.333,3.56,3.56,0,0,1,1.849-.472,3.368,3.368,0,0,1,2.444.916,3.676,3.676,0,0,1,1.056,2.488l.014.506a3.866,3.866,0,0,1-.95,2.731,3.3,3.3,0,0,1-2.55,1.029,3.319,3.319,0,0,1-2.553-1.025,3.934,3.934,0,0,1-.954-2.789Zm1.976.14a2.765,2.765,0,0,0,.4,1.612,1.424,1.424,0,0,0,2.256.007,3.025,3.025,0,0,0,.4-1.763,2.737,2.737,0,0,0-.4-1.6,1.311,1.311,0,0,0-1.135-.568,1.29,1.29,0,0,0-1.121.565A3.076,3.076,0,0,0,15.845,27.374Zm10.4-1.918a5.367,5.367,0,0,0-.711-.055,1.447,1.447,0,0,0-1.47.759V31H22.093V23.6h1.866l.055.882a1.831,1.831,0,0,1,1.647-1.019,2.07,2.07,0,0,1,.615.089ZM29.284,31H27.3V23.6h1.982Zm-2.1-9.311a.973.973,0,0,1,.3-.731,1.281,1.281,0,0,1,1.617,0,1.044,1.044,0,0,1,0,1.47,1.267,1.267,0,0,1-1.606,0A.97.97,0,0,1,27.185,21.689Zm6,7.718H36.8V31H30.658V29.8l3.479-4.6H30.761V23.6h5.927v1.164Zm4.437-2.174a4.387,4.387,0,0,1,.424-1.962,3.1,3.1,0,0,1,1.22-1.333,3.56,3.56,0,0,1,1.849-.472,3.368,3.368,0,0,1,2.444.916,3.676,3.676,0,0,1,1.056,2.488l.014.506a3.866,3.866,0,0,1-.95,2.731,3.683,3.683,0,0,1-5.1,0,3.934,3.934,0,0,1-.954-2.789Zm1.976.14a2.765,2.765,0,0,0,.4,1.612,1.424,1.424,0,0,0,2.256.007,3.025,3.025,0,0,0,.4-1.763,2.737,2.737,0,0,0-.4-1.6,1.311,1.311,0,0,0-1.135-.568,1.29,1.29,0,0,0-1.121.565A3.076,3.076,0,0,0,39.593,27.374Zm8.066-3.77.062.854a2.582,2.582,0,0,1,2.126-.991,2.146,2.146,0,0,1,1.75.69,3.221,3.221,0,0,1,.588,2.064V31H50.209V26.27a1.282,1.282,0,0,0-.273-.913,1.224,1.224,0,0,0-.909-.284,1.359,1.359,0,0,0-1.251.711V31H45.8V23.6Zm8.388-1.818V23.6h1.265v1.449H56.047v3.691a.881.881,0,0,0,.157.588.79.79,0,0,0,.6.178,3.151,3.151,0,0,0,.581-.048v1.5a4.067,4.067,0,0,1-1.2.178,1.886,1.886,0,0,1-2.119-2.1V25.053h-1.08V23.6h1.08V21.785ZM62.7,31a2.194,2.194,0,0,1-.2-.663,2.39,2.39,0,0,1-1.866.8,2.626,2.626,0,0,1-1.8-.629,2.023,2.023,0,0,1-.714-1.586,2.09,2.09,0,0,1,.872-1.8,4.3,4.3,0,0,1,2.519-.636h.909v-.424a1.219,1.219,0,0,0-.263-.82,1.035,1.035,0,0,0-.831-.308,1.177,1.177,0,0,0-.783.239.813.813,0,0,0-.284.656H58.282a1.984,1.984,0,0,1,.4-1.189,2.621,2.621,0,0,1,1.121-.858,4.086,4.086,0,0,1,1.627-.311,3.228,3.228,0,0,1,2.17.687,2.4,2.4,0,0,1,.8,1.931v3.206a3.536,3.536,0,0,0,.294,1.593V31Zm-1.634-1.374a1.7,1.7,0,0,0,.807-.195,1.28,1.28,0,0,0,.547-.523V27.637H61.68q-1.483,0-1.579,1.025l-.007.116a.791.791,0,0,0,.26.608A1.009,1.009,0,0,0,61.064,29.626ZM68,31H66.02V20.5H68Z" transform="translate(24.712 42.694)" fill="#12263f"/>
      </g>
      <path id="Trazado_583448" data-name="Trazado 583448" d="M645.235-192.983a21.473,21.473,0,0,1-10.745-2.9,21.5,21.5,0,0,1-7.822-29.35,21.561,21.561,0,0,1,18.606-10.717,21.473,21.473,0,0,1,10.745,2.9,21.34,21.34,0,0,1,9.99,13.056,21.336,21.336,0,0,1-2.168,16.3A21.56,21.56,0,0,1,645.235-192.983Z" transform="translate(-540.491 310.89)" fill="#0c5e46"/>
      <path id="Trazado_583449" data-name="Trazado 583449" d="M645.235-192.983a21.473,21.473,0,0,1-10.745-2.9,21.5,21.5,0,0,1-7.822-29.35,21.561,21.561,0,0,1,18.606-10.717,21.473,21.473,0,0,1,10.745,2.9,21.34,21.34,0,0,1,9.99,13.056,21.336,21.336,0,0,1-2.168,16.3A21.56,21.56,0,0,1,645.235-192.983Z" transform="translate(-431.185 310.89)" fill="#e1efe3"/>
      <path id="Trazado_583450" data-name="Trazado 583450" d="M645.235-192.983a21.473,21.473,0,0,1-10.745-2.9,21.5,21.5,0,0,1-7.822-29.35,21.561,21.561,0,0,1,18.606-10.717,21.473,21.473,0,0,1,10.745,2.9,21.34,21.34,0,0,1,9.99,13.056,21.336,21.336,0,0,1-2.168,16.3A21.56,21.56,0,0,1,645.235-192.983Z" transform="translate(-487.773 380.332)" fill="#3ae3fe"/>
      <path id="Trazado_612817" data-name="Trazado 612817" d="M11.392,19H8.57V8.121L5.2,9.166V6.871l5.889-2.109h.3Z" transform="translate(95.447 83.745)" fill="#fff"/>
      <path id="Trazado_612818" data-name="Trazado 612818" d="M14.282,19H4.536V17.066l4.6-4.9a11.347,11.347,0,0,0,1.4-1.807,2.9,2.9,0,0,0,.454-1.465A2.172,2.172,0,0,0,10.513,7.4a1.727,1.727,0,0,0-1.367-.542,1.863,1.863,0,0,0-1.509.659,2.611,2.611,0,0,0-.552,1.733H4.253a4.661,4.661,0,0,1,.62-2.373A4.371,4.371,0,0,1,6.626,5.2a5.328,5.328,0,0,1,2.568-.61,5.045,5.045,0,0,1,3.413,1.055,3.731,3.731,0,0,1,1.216,2.979,4.781,4.781,0,0,1-.547,2.148A11.939,11.939,0,0,1,11.4,13.316L8.169,16.725h6.113Z" transform="translate(204.752 83.745)" fill="#12263f"/>
      <path id="Trazado_612819" data-name="Trazado 612819" d="M7.407,10.641h1.5A2.119,2.119,0,0,0,10.5,10.1a1.968,1.968,0,0,0,.518-1.426,1.74,1.74,0,0,0-.513-1.338A1.987,1.987,0,0,0,9.1,6.861a2.083,2.083,0,0,0-1.357.444,1.421,1.421,0,0,0-.547,1.157H4.37a3.471,3.471,0,0,1,.6-2,4,4,0,0,1,1.68-1.382,5.606,5.606,0,0,1,2.378-.5,5.316,5.316,0,0,1,3.535,1.079,3.682,3.682,0,0,1,1.279,2.974,2.992,2.992,0,0,1-.6,1.8,3.87,3.87,0,0,1-1.562,1.26,3.533,3.533,0,0,1,1.792,1.289,3.5,3.5,0,0,1,.591,2.031,3.743,3.743,0,0,1-1.382,3.037A5.556,5.556,0,0,1,9.029,19.2a5.268,5.268,0,0,1-3.481-1.123A3.668,3.668,0,0,1,4.195,15.1H7.017a1.635,1.635,0,0,0,.6,1.309A2.213,2.213,0,0,0,9.1,16.92a2.224,2.224,0,0,0,1.577-.532,1.837,1.837,0,0,0,.571-1.411q0-2.129-2.344-2.129H7.407Z" transform="translate(148.165 152.187)" fill="#12263f"/>
    </g>
    <g id="Grupo_1072808" data-name="Grupo 1072808" transform="translate(819.704 809.435)">
      <g id="Grupo_1072798" data-name="Grupo 1072798" transform="translate(0 0)">
        <g id="Grupo_1072794" data-name="Grupo 1072794" transform="translate(0 0)">
          <g id="Grupo_1015374" data-name="Grupo 1015374" transform="translate(0 0)">
            <g id="Grupo_1015448" data-name="Grupo 1015448" transform="translate(0)">
              <g id="Grupo_1014855" data-name="Grupo 1014855">
                <path id="Unión_12" data-name="Unión 12" d="M33.756,0C52.4,0,67.513,14.855,67.513,33.18S52.4,66.359,33.756,66.359,0,51.5,0,33.18,15.113,0,33.756,0Z" fill="#e1efe3"/>
                <path id="Trazado_608395" data-name="Trazado 608395" d="M28.275,0A28.42,28.42,0,0,1,56.55,28.563,28.42,28.42,0,0,1,28.275,57.127,28.42,28.42,0,0,1,0,28.563,28.42,28.42,0,0,1,28.275,0Z" transform="translate(5.77 4.039)" fill="#fef5e5"/>
              </g>
            </g>
          </g>
        </g>
        <g id="Grupo_1072795" data-name="Grupo 1072795" transform="translate(5.613 4.352)">
          <g id="Grupo_875625" data-name="Grupo 875625" transform="translate(0 0)">
            <g transform="matrix(1, 0, 0, 1, -357.2, -37.79)" filter="url(#Elipse_180)">
              <circle id="Elipse_180-4" data-name="Elipse 180" cx="28.144" cy="28.144" r="28.144" transform="translate(357.2 37.79)" fill="#fff"/>
            </g>
          </g>
        </g>
      </g>
      <g id="computer" transform="translate(16.736 16.159)">
        <path id="Trazado_612735" data-name="Trazado 612735" d="M35.905,16.135V32.02H3V16.135A1.138,1.138,0,0,1,4.135,15H34.771A1.138,1.138,0,0,1,35.905,16.135Z" transform="translate(-2.433 -7.625)" fill="#57a4ff"/>
        <path id="Trazado_612736" data-name="Trazado 612736" d="M35.905,16.135V32.02H3V29.751H26.828a6.808,6.808,0,0,0,6.808-6.808V16.135A1.138,1.138,0,0,0,32.5,15h2.269A1.138,1.138,0,0,1,35.905,16.135Z" transform="translate(-2.433 -7.625)" fill="#2488ff"/>
        <path id="Trazado_612737" data-name="Trazado 612737" d="M53,27h2.269v7.943H53Z" transform="translate(-24.066 -12.817)" fill="#ff7956"/>
        <path id="Trazado_612738" data-name="Trazado 612738" d="M45,29h2.269v6.808H45Z" transform="translate(-20.605 -13.682)" fill="#ffde55"/>
        <path id="Trazado_612739" data-name="Trazado 612739" d="M33.616,59.269H20L21.7,57H31.914Z" transform="translate(-9.788 -25.797)" fill="#c6c5ca"/>
        <path id="Trazado_612740" data-name="Trazado 612740" d="M37,33h2.269v4.539H37Z" transform="translate(-17.143 -15.413)" fill="#00ddc2"/>
        <path id="Trazado_612741" data-name="Trazado 612741" d="M36.085,5.042a5.086,5.086,0,0,1,1.021,3.064,4.689,4.689,0,0,1-.034.567H32V3a5.1,5.1,0,0,1,4.085,2.042Z" transform="translate(-14.98 -2.433)" fill="#ff7956"/>
        <path id="Trazado_612742" data-name="Trazado 612742" d="M24.6,11.816A5.1,5.1,0,0,1,28.106,3V8.673h5.072a4.783,4.783,0,0,1-.261,1.135A5.1,5.1,0,0,1,24.6,11.816Z" transform="translate(-11.086 -2.433)" fill="#ffde55"/>
        <path id="Trazado_612743" data-name="Trazado 612743" d="M33.178,14.918a4.783,4.783,0,0,1-.261,1.135A5.1,5.1,0,0,1,23,14.351a5.273,5.273,0,0,1,.068-.851,5.212,5.212,0,0,0,.227.851,5.014,5.014,0,0,0,1.3,2.008,5.1,5.1,0,0,0,8.073-1.441Z" transform="translate(-11.086 -6.976)" fill="#2488ff"/>
        <path id="Trazado_612744" data-name="Trazado 612744" d="M32.943,54.4H25l.567-3.4h6.808Z" transform="translate(-11.951 -23.201)" fill="#57a4ff"/>
        <path id="Trazado_612745" data-name="Trazado 612745" d="M35.905,45v2.269A1.138,1.138,0,0,1,34.771,48.4H4.135A1.138,1.138,0,0,1,3,47.269V45Z" transform="translate(-2.433 -20.605)" fill="#c6c5ca"/>
        <path id="Trazado_612746" data-name="Trazado 612746" d="M26,51h6.808v1.7H26Z" transform="translate(-12.384 -23.201)" fill="#2488ff"/>
        <path id="Trazado_612747" data-name="Trazado 612747" d="M9.837,21.837h2.837A2.837,2.837,0,1,1,9.837,19Z" transform="translate(-4.163 -9.355)" fill="#ffde55"/>
        <path id="Trazado_612748" data-name="Trazado 612748" d="M37,33h2.269v4.539H37Z" transform="translate(-17.143 -15.413)" fill="#00d7df"/>
        <path id="Trazado_612749" data-name="Trazado 612749" d="M53,27h2.269v1.135H53Z" transform="translate(-24.066 -12.817)" fill="#ff5023"/>
        <path id="Trazado_612750" data-name="Trazado 612750" d="M45,29h2.269v1.135H45Z" transform="translate(-20.605 -13.682)" fill="#ebbf00"/>
        <path id="Trazado_612751" data-name="Trazado 612751" d="M37,33h2.269v1.135H37Z" transform="translate(-17.143 -15.413)" fill="#009698"/>
        <path id="Trazado_612752" data-name="Trazado 612752" d="M34.338,8.808H24.58a5.786,5.786,0,0,0,.113-1.135,5.653,5.653,0,0,0-.823-2.927l2.145-1.611h4.351V2H25.828a.558.558,0,0,0-.34.113l-2.3,1.725a5.649,5.649,0,0,0-8.34,0l-2.3-1.725A.558.558,0,0,0,12.212,2H7.673V3.135h4.351l2.145,1.611a5.653,5.653,0,0,0-.823,2.927,5.787,5.787,0,0,0,.113,1.135H3.7A1.707,1.707,0,0,0,2,10.51V28.665a1.707,1.707,0,0,0,1.7,1.7H15.049v2.269h-1.7a.575.575,0,0,0-.454.227l-1.7,2.269a.567.567,0,0,0,.454.908H26.4a.567.567,0,0,0,.454-.908l-1.7-2.269a.575.575,0,0,0-.454-.227h-1.7V30.367H34.338a1.707,1.707,0,0,0,1.7-1.7V10.51a1.707,1.707,0,0,0-1.7-1.7ZM19.587,3.174a4.526,4.526,0,0,1,2.689,1.345l-1.328,1,.681.908,1.328-1a4.507,4.507,0,0,1,.6,2.247H19.587Zm-4.5,2.252,1.328,1,.681-.908-1.328-1a4.526,4.526,0,0,1,2.689-1.345V8.241a.567.567,0,0,0,.567.567h4.391a4.536,4.536,0,1,1-8.328-3.381ZM24.41,33.771l.851,1.135H12.779l.851-1.135Zm-8.226-1.135V30.367h5.673v2.269Zm18.722-3.971a.567.567,0,0,1-.567.567H3.7a.567.567,0,0,1-.567-.567v-1.7H34.905Zm0-2.837H3.135V10.51A.567.567,0,0,1,3.7,9.943H13.823a5.669,5.669,0,0,0,10.394,0H34.338a.567.567,0,0,1,.567.567Z" transform="translate(-2 -2)"/>
        <path id="Trazado_612753" data-name="Trazado 612753" d="M54,2h2.269V3.135H54Z" transform="translate(-24.499 -2)"/>
        <path id="Trazado_612754" data-name="Trazado 612754" d="M44,6h1.135V7.135H44Z" transform="translate(-20.172 -3.731)"/>
        <path id="Trazado_612755" data-name="Trazado 612755" d="M48,6h5.673V7.135H48Z" transform="translate(-21.903 -3.731)"/>
        <path id="Trazado_612756" data-name="Trazado 612756" d="M44,10h4.539v1.135H44Z" transform="translate(-20.172 -5.461)"/>
        <path id="Trazado_612757" data-name="Trazado 612757" d="M54,10h2.269v1.135H54Z" transform="translate(-24.499 -5.461)"/>
        <path id="Trazado_612758" data-name="Trazado 612758" d="M6,2H8.269V3.135H6Z" transform="translate(-3.731 -2)"/>
        <path id="Trazado_612759" data-name="Trazado 612759" d="M18,6h1.135V7.135H18Z" transform="translate(-8.923 -3.731)"/>
        <path id="Trazado_612760" data-name="Trazado 612760" d="M6,6h5.673V7.135H6Z" transform="translate(-3.731 -3.731)"/>
        <path id="Trazado_612761" data-name="Trazado 612761" d="M12,10h4.539v1.135H12Z" transform="translate(-6.327 -5.461)"/>
        <path id="Trazado_612762" data-name="Trazado 612762" d="M6,10H8.269v1.135H6Z" transform="translate(-3.731 -5.461)"/>
        <path id="Trazado_612763" data-name="Trazado 612763" d="M6,32H8.837v1.135H6Z" transform="translate(-3.731 -14.98)"/>
        <path id="Trazado_612764" data-name="Trazado 612764" d="M13,32H23.779v1.135H13Z" transform="translate(-6.759 -14.98)"/>
        <path id="Trazado_612765" data-name="Trazado 612765" d="M6,36h9.077v1.135H6Z" transform="translate(-3.731 -16.711)"/>
        <path id="Trazado_612766" data-name="Trazado 612766" d="M24,36h4.539v1.135H24Z" transform="translate(-11.519 -16.711)"/>
        <path id="Trazado_612767" data-name="Trazado 612767" d="M6,40h5.673v1.135H6Z" transform="translate(-3.731 -18.441)"/>
        <path id="Trazado_612768" data-name="Trazado 612768" d="M18,40h7.943v1.135H18Z" transform="translate(-8.923 -18.441)"/>
        <path id="Trazado_612769" data-name="Trazado 612769" d="M36.567,37.673h2.269a.567.567,0,0,0,.567-.567V32.567A.567.567,0,0,0,38.837,32H36.567a.567.567,0,0,0-.567.567v4.539A.567.567,0,0,0,36.567,37.673Zm.567-4.539h1.135v3.4H37.135Z" transform="translate(-16.711 -14.98)"/>
        <path id="Trazado_612770" data-name="Trazado 612770" d="M46.837,28H44.567a.567.567,0,0,0-.567.567v6.808a.567.567,0,0,0,.567.567h2.269a.567.567,0,0,0,.567-.567V28.567A.567.567,0,0,0,46.837,28Zm-.567,6.808H45.135V29.135h1.135Z" transform="translate(-20.172 -13.249)"/>
        <path id="Trazado_612771" data-name="Trazado 612771" d="M54.837,26H52.567a.567.567,0,0,0-.567.567V34.51a.567.567,0,0,0,.567.567h2.269a.567.567,0,0,0,.567-.567V26.567A.567.567,0,0,0,54.837,26Zm-.567,7.943H53.135V27.135h1.135Z" transform="translate(-23.633 -12.384)"/>
        <path id="Trazado_612772" data-name="Trazado 612772" d="M9.4,24.808a3.407,3.407,0,0,0,3.4-3.4.567.567,0,0,0-.567-.567H9.971V18.567A.567.567,0,0,0,9.4,18a3.4,3.4,0,0,0,0,6.808Zm-.567-5.6v2.2a.567.567,0,0,0,.567.567h2.2a2.269,2.269,0,1,1-2.765-2.765Z" transform="translate(-3.731 -8.923)"/>
        <path id="Trazado_612773" data-name="Trazado 612773" d="M20,24h1.135v1.135H20Z" transform="translate(-9.788 -11.519)"/>
        <path id="Trazado_612774" data-name="Trazado 612774" d="M24,24h4.539v1.135H24Z" transform="translate(-11.519 -11.519)"/>
        <path id="Trazado_612775" data-name="Trazado 612775" d="M20,28h6.808v1.135H20Z" transform="translate(-9.788 -13.249)"/>
        <path id="Trazado_612776" data-name="Trazado 612776" d="M39.347,24.494l.975-1.956h3.053a.567.567,0,0,0,.436-.2l2.666-3.2h2V18H46.212a.567.567,0,0,0-.436.2l-2.666,3.2H39.971a.567.567,0,0,0-.511.314l-.975,1.956H36v1.135h2.837A.567.567,0,0,0,39.347,24.494Z" transform="translate(-16.711 -8.923)"/>
      </g>
    </g>
    <g id="Grupo_1072807" data-name="Grupo 1072807" transform="translate(495 809.435)">
      <g id="Grupo_1072796" data-name="Grupo 1072796" transform="translate(0 0)">
        <g id="Grupo_1072794-2" data-name="Grupo 1072794" transform="translate(0 0)">
          <g id="Grupo_1015374-2" data-name="Grupo 1015374" transform="translate(0 0)">
            <g id="Grupo_1015448-2" data-name="Grupo 1015448" transform="translate(0)">
              <g id="Grupo_1014855-2" data-name="Grupo 1014855">
                <path id="Unión_12-2" data-name="Unión 12" d="M33.756,0C52.4,0,67.513,14.855,67.513,33.18S52.4,66.359,33.756,66.359,0,51.5,0,33.18,15.113,0,33.756,0Z" fill="#0c5e46"/>
                <path id="Trazado_608395-2" data-name="Trazado 608395" d="M28.275,0A28.42,28.42,0,0,1,56.55,28.563,28.42,28.42,0,0,1,28.275,57.127,28.42,28.42,0,0,1,0,28.563,28.42,28.42,0,0,1,28.275,0Z" transform="translate(5.77 4.039)" fill="#fef5e5"/>
              </g>
            </g>
          </g>
        </g>
        <g id="Grupo_1072795-2" data-name="Grupo 1072795" transform="translate(5.613 4.352)">
          <g id="Grupo_875625-2" data-name="Grupo 875625" transform="translate(0 0)">
            <g transform="matrix(1, 0, 0, 1, -32.5, -37.79)" filter="url(#Elipse_180-2)">
              <circle id="Elipse_180-5" data-name="Elipse 180" cx="28.144" cy="28.144" r="28.144" transform="translate(32.5 37.79)" fill="#fff"/>
            </g>
          </g>
        </g>
      </g>
      <g id="layer1" transform="translate(17.077 14.392)">
        <path id="path7762-9" d="M1.339,37.06,1.323,6.445,6.951.821C10.319.821,23.141.777,27.584.8a1.231,1.231,0,0,1,1.251,1.25V32.683c0,3.126,0,4.377-2.54,4.377Z" transform="translate(0.551 -0.17)" fill="#e4eff8"/>
        <path id="path7860-2" d="M26.952.8V3.291c0,27.513-16.883,26.887-20.634,26.887H1.328l0,6.878H26.288c2.54,0,2.54-1.251,2.54-4.377V2.046A1.23,1.23,0,0,0,27.578.8h-.625Z" transform="translate(0.558 -0.166)" fill="#c4dcf0"/>
        <path id="path7766-2" d="M13.961,18.643c0-2.039-4.172-4.078-4.172-8.837a7.274,7.274,0,0,1,7.359-7.425A7.564,7.564,0,0,1,24.8,9.859c0,4.758-4.461,6.746-4.461,8.785Z" transform="translate(12.093 1.994)" fill="#ffca28"/>
        <path id="path7764-4" d="M1.323,6.424,6.951.8V6.424Z" transform="translate(0.551 -0.164)" fill="#549ad4"/>
        <path id="path7797-7" d="M13.892,2.468a7.263,7.263,0,0,1,6.253,7.339,6.1,6.1,0,0,1-.635,3.057A9.719,9.719,0,0,1,11.373,17.4a2.416,2.416,0,0,1,.438,1.247c1.387,0,2.775,0,4.162,0,.834,0,1.667,0,2.5,0,0-1.657,2.754-3.315,3.787-6.43a7.577,7.577,0,0,0,.385-2.407c0-.059-.007-.117-.009-.176a7.3,7.3,0,0,0-7.495-7.249,8.318,8.318,0,0,0-1.251.087Z" transform="translate(14.252 1.994)" fill="#ecb200"/>
        <path id="path7805-7" d="M17.148,2.381A7.274,7.274,0,0,0,9.79,9.807c0,4.758,4.172,6.8,4.172,8.837h1.251c0-2.039-4.172-4.079-4.172-8.837a7.266,7.266,0,0,1,6.724-7.395c-.2-.016-.409-.031-.617-.031Z" transform="translate(12.093 1.994)" fill="#f5f9fb"/>
        <path id="path7808-5" d="M17.894,9.263v3.751a1.248,1.248,0,0,1-1.251,1.25H12.892a1.248,1.248,0,0,1-1.251-1.25V9.263Z" transform="translate(14.618 11.375)" fill="#e4eff8"/>
        <path id="path7812-4" d="M12.892,14.264h3.752a1.248,1.248,0,0,0,1.251-1.251V9.263H16.536a4.374,4.374,0,0,1-4.895,3.749,1.248,1.248,0,0,0,1.251,1.252Z" transform="translate(14.618 11.375)" fill="#c4dcf0"/>
        <path id="path7819-8" d="M11.642,9.263v3.75a1.248,1.248,0,0,0,1.251,1.251h1.251a1.248,1.248,0,0,1-1.251-1.251V9.263Z" transform="translate(14.618 11.375)" fill="#f5f9fb"/>
        <path id="path7822-1" d="M15.922,11.377v1.251a1.248,1.248,0,0,1-1.251,1.251H13.421a1.248,1.248,0,0,1-1.251-1.251V11.377Z" transform="translate(15.34 14.258)" fill="#ffca28"/>
        <path id="path7824-2" d="M12.2,12.881a1.247,1.247,0,0,0,1.225,1h1.251a1.248,1.248,0,0,0,1.251-1.251V11.377H15.89a4.866,4.866,0,0,1-3.719,1.252,1.267,1.267,0,0,0,.026.251Z" transform="translate(15.34 14.258)" fill="#ecb200"/>
        <path id="path7829-8" d="M.794,13.758v3.126a2.5,2.5,0,0,0,2.5,2.5H27.056a2.5,2.5,0,0,1-2.5-2.5V13.758Z" transform="translate(-0.17 17.505)" fill="#549ad4"/>
        <path id="path7849-9" d="M22.472,13.758c-1.005,3.752-5.628,4.377-13.756,4.377-2.67,0-6.446.049-7.77.026a2.485,2.485,0,0,0,2.142,1.225H26.849a2.5,2.5,0,0,1-2.5-2.5V13.758Z" transform="translate(0.037 17.504)" fill="#3588cb"/>
        <path id="path7834-3" d="M10.067,10.22,7.474,12.728,12.48,18.97a2.366,2.366,0,0,0,3.372.294,2.292,2.292,0,0,0,.2-3.36Z" transform="translate(8.937 12.68)" fill="#ffd1b5"/>
        <path id="path7841-6" d="M9.106,10.22l-.928.9L13.221,15.9a2.292,2.292,0,0,1-.2,3.36,2.332,2.332,0,0,1-.613.368,2.382,2.382,0,0,0,2.488-.368,2.292,2.292,0,0,0,.2-3.36Z" transform="translate(9.897 12.68)" fill="#ffb98d"/>
        <path id="path7844-8" d="M10.067,10.22,7.474,12.728l.365.456A7.5,7.5,0,0,0,11,11.107Z" transform="translate(8.937 12.68)" fill="#ffb98d"/>
        <path id="path7865-0" d="M17.653,12.8a7.5,7.5,0,1,1-7.5-7.5A7.5,7.5,0,0,1,17.653,12.8Z" transform="translate(2.355 5.962)" fill="#549ad4"/>
        <path id="ellipse7867-2" d="M13.708,11.352a5,5,0,1,1-5-5,5,5,0,0,1,5,5Z" transform="translate(3.798 7.405)" fill="#e4eff8"/>
        <path id="ellipse7871-1" d="M8.706,6.35a5,5,0,0,0-2.844,9.114A5,5,0,0,1,12.8,8.491a5,5,0,0,0-4.1-2.141Z" transform="translate(3.798 7.405)" fill="#c4dcf0"/>
        <path id="path7874-0" d="M7.264,6.617h-2.5v4.376h2.5Z" transform="translate(5.24 7.769)" fill="#ffd1b5"/>
        <path id="rect7878-5" d="M6.879,4.5h2.5v9.377h-2.5Z" transform="translate(8.126 4.885)" fill="#ffd1b5"/>
        <path id="path7887-1" d="M12.266,6.011c-2.071,2.868-6.128,4.554-7.5,4.554V11.82h7.5Z" transform="translate(5.24 6.942)" fill="#ffb98d"/>
        <path id="rect7876-1" d="M5.821,5.295h2.5v7.5h-2.5Z" transform="translate(6.683 5.966)" fill="#ffca28"/>
        <path id="rect7891-0" d="M8.322,7.031a14.529,14.529,0,0,1-2.5,1.425v1.974h2.5Z" transform="translate(6.683 8.333)" fill="#ecb200"/>
        <path id="path7715-8" d="M0,2.5A5,5,0,0,0,4.332,0" transform="translate(29.386 9.378) rotate(180)" fill="none" stroke="#333" stroke-linecap="round" stroke-linejoin="round" stroke-width="0.529"/>
        <path id="path7717-5" d="M1.251.618a.625.625,0,1,0,0,.008" transform="translate(25.009 12.505) rotate(180)" fill="#333"/>
        <path id="path7857-0" d="M.794,13.758v3.126a2.5,2.5,0,0,0,2.5,2.5H4.545a2.5,2.5,0,0,1-2.5-2.5V13.758Z" transform="translate(-0.17 17.505)" fill="#f5f9fb"/>
        <g id="Grupo_1072799" data-name="Grupo 1072799" transform="translate(0 0)">
          <path id="path917" d="M13.879,5.984A7.508,7.508,0,0,1,3.334,16.53,7.51,7.51,0,1,0,13.879,5.984Z" transform="translate(3.293 6.905)" fill="#3588cb"/>
          <path id="path912" d="M10.165,5.3a7.515,7.515,0,0,0,0,15.03c.211,0,.42-.014.626-.031a7.51,7.51,0,0,1,0-14.968c-.207-.017-.415-.032-.626-.032Z" transform="translate(2.36 5.973)" fill="#f5f9fb"/>
          <path id="path846" d="M1.8,31.219H1.154a.626.626,0,0,0-.624.624v3.135a3.135,3.135,0,0,0,3.13,3.129h23.8a3.135,3.135,0,0,0,3.13-3.129V29.336a1.889,1.889,0,0,0,1.881-1.876v-.734a1.889,1.889,0,0,0,1.253-1.767v-.624a.626.626,0,0,0,0-1.251V21.831a.626.626,0,0,0,.109-1.243,4.358,4.358,0,0,1,.377-.57c.387-.507.947-1.1,1.522-1.793A8.932,8.932,0,0,0,38.106,12.4a8.191,8.191,0,0,0-7.515-8.075V2.418A1.892,1.892,0,0,0,28.719.536C22.984.514,14.268.556,8.182.56A.626.626,0,0,0,7.6.726L1.967,6.361a.639.639,0,0,0-.182.457ZM28.708,1.789a.585.585,0,0,1,.634.629V4.3a7.925,7.925,0,0,0-7.519,8.05,9.329,9.329,0,0,0,2.219,5.825c.538.7,1.056,1.3,1.419,1.812a4.128,4.128,0,0,1,.407.689.626.626,0,0,0,.338,1.152v1.253a.626.626,0,0,0,0,1.251v.624a1.888,1.888,0,0,0,1.253,1.769v.733a1.884,1.884,0,0,0,1.876,1.876v5.641a1.876,1.876,0,1,1-3.753,0v-1.83c.063-.046.125-.093.185-.144a2.92,2.92,0,0,0,.226-4.3l-5.793-5.5a8.138,8.138,0,0,0-1.507-9.76V9.935a.626.626,0,0,0-.629-.629H15.558a.626.626,0,0,0-.624.629v1.248H13.1v0A8.138,8.138,0,1,0,16.664,26.6l3.7,4.614H3.049L3.035,7.429H8.046a.626.626,0,0,0,.624-.624V1.811c3.782,0,15.787-.044,20.038-.022ZM7.418,2.677v3.5h-3.5ZM11.177,4.29a.626.626,0,1,0,0,1.253h11.27a.626.626,0,1,0,0-1.253Zm18.64,1.253A6.941,6.941,0,0,1,36.852,12.4a7.6,7.6,0,0,1-2.089,5.021c-.542.654-1.1,1.24-1.553,1.83a4.135,4.135,0,0,0-.736,1.322H30.588v-3.5l1.7-1.7a.626.626,0,1,0-.888-.883l-1.432,1.434-1.438-1.434a.624.624,0,0,0-.883.883l1.692,1.7v3.5H27.167a4.318,4.318,0,0,0-.684-1.308c-.421-.594-.94-1.189-1.447-1.849a8,8,0,0,1-1.961-5.066,6.628,6.628,0,0,1,6.741-6.811ZM29.963,6.8a5.636,5.636,0,0,0-4.882,2.815.628.628,0,0,0,1.087.629,4.377,4.377,0,0,1,3.794-2.191.626.626,0,1,0,0-1.253Zm-18.787,0a.627.627,0,1,0,0,1.254h9.394a.627.627,0,0,0,0-1.254Zm5.011,3.759H17.44V18.7H16.188V10.559ZM24.954,11.8a.626.626,0,1,0,.626.626A.626.626,0,0,0,24.954,11.8Zm-11.273.632h1.253V18.7H13.682V12.437Zm5.011,2.92a6.89,6.89,0,1,1-6.264-2.9v1.858H10.547a.6.6,0,0,0-.4.144,5.651,5.651,0,0,0,3.843,10.413,5.625,5.625,0,0,0,4.706-5.486c0-1.335,0-2.692,0-4.033Zm-7.516.214h1.253V18.7H11.177Zm-1.254.65v3.1a.626.626,0,0,0,.624.629H17.4a4.386,4.386,0,0,1-8.466.85,4.431,4.431,0,0,1,.993-4.583Zm17.535,5.611H32.47v1.253H27.458Zm-7.953,2.448,5.628,5.336a1.676,1.676,0,0,1-.185,2.437,1.737,1.737,0,0,1-2.478-.213l-4.719-5.881a8.09,8.09,0,0,0,1.754-1.678Zm7.953.057H32.47v.623a.613.613,0,0,1-.629.625H28.082a.609.609,0,0,1-.624-.625Zm1.253,2.5h2.506v.624a.612.612,0,0,1-.629.624H29.335a.608.608,0,0,1-.624-.624ZM1.783,32.471H21.372a2.975,2.975,0,0,0,2.956,1.206v1.3a3.107,3.107,0,0,0,.632,1.876H3.659a1.857,1.857,0,0,1-1.876-1.876Z" transform="translate(-0.53 -0.53)" fill="#333"/>
        </g>
      </g>
    </g>
    <g id="Grupo_1072806" data-name="Grupo 1072806" transform="translate(657.352 1042.061)">
      <g id="Grupo_1072797" data-name="Grupo 1072797" transform="translate(0 0)">
        <g id="Grupo_1072794-3" data-name="Grupo 1072794" transform="translate(0)">
          <g id="Grupo_1015374-3" data-name="Grupo 1015374" transform="translate(0 0)">
            <g id="Grupo_1015448-3" data-name="Grupo 1015448" transform="translate(0)">
              <g id="Grupo_1014855-3" data-name="Grupo 1014855">
                <path id="Unión_12-3" data-name="Unión 12" d="M33.756,0C52.4,0,67.513,14.855,67.513,33.18S52.4,66.359,33.756,66.359,0,51.5,0,33.18,15.113,0,33.756,0Z" fill="#3ae3fe"/>
                <path id="Trazado_608395-3" data-name="Trazado 608395" d="M28.275,0A28.42,28.42,0,0,1,56.55,28.563,28.42,28.42,0,0,1,28.275,57.127,28.42,28.42,0,0,1,0,28.563,28.42,28.42,0,0,1,28.275,0Z" transform="translate(5.77 4.039)" fill="#fef5e5"/>
              </g>
            </g>
          </g>
        </g>
        <g id="Grupo_1072795-3" data-name="Grupo 1072795" transform="translate(5.613 4.352)">
          <g id="Grupo_875625-3" data-name="Grupo 875625" transform="translate(0 0)">
            <g transform="matrix(1, 0, 0, 1, -194.85, -270.41)" filter="url(#Elipse_180-3)">
              <circle id="Elipse_180-6" data-name="Elipse 180" cx="28.144" cy="28.144" r="28.144" transform="translate(194.85 270.41)" fill="#fff"/>
            </g>
          </g>
        </g>
      </g>
      <g id="analitica" transform="translate(15.776 15.2)">
        <g id="Grupo_1072805" data-name="Grupo 1072805" transform="translate(0 0)">
          <g id="Grupo_1072800" data-name="Grupo 1072800" transform="translate(0 0)">
            <circle id="Elipse_7413" data-name="Elipse 7413" cx="6.873" cy="6.873" r="6.873" transform="translate(0 9.718) rotate(-45)" fill="#60b7ff"/>
            <circle id="Elipse_7414" data-name="Elipse 7414" cx="6.019" cy="6.019" r="6.019" transform="translate(1.208 9.718) rotate(-45)" fill="#8ac9fe"/>
            <path id="Trazado_612777" data-name="Trazado 612777" d="M112.608,112.62h6.873a6.87,6.87,0,0,1-3.436,5.953Z" transform="translate(-102.888 -102.902)" fill="#fd4755" fill-rule="evenodd"/>
            <path id="Trazado_612778" data-name="Trazado 612778" d="M112.608,112.62h6.019a6.016,6.016,0,0,1-3.009,5.213Z" transform="translate(-102.888 -102.902)" fill="#fe646f" fill-rule="evenodd"/>
            <path id="Trazado_612779" data-name="Trazado 612779" d="M119.481,14.883h-6.873V8.01A6.873,6.873,0,0,1,119.481,14.883Z" transform="translate(-102.888 -5.165)" fill="#ffd064" fill-rule="evenodd"/>
            <path id="Trazado_612780" data-name="Trazado 612780" d="M118.627,27.027h-6.019V21.008A6.019,6.019,0,0,1,118.627,27.027Z" transform="translate(-102.888 -17.309)" fill="#ffe177" fill-rule="evenodd"/>
          </g>
          <g id="Grupo_1072801" data-name="Grupo 1072801" transform="translate(19.848 2.664)">
            <path id="Trazado_612781" data-name="Trazado 612781" d="M267.5,5.247h1.773a.741.741,0,0,1,.74.74V7.759a.741.741,0,0,1-.74.74H267.5a.741.741,0,0,1-.74-.74V5.987a.741.741,0,0,1,.74-.74Z" transform="translate(-266.759 -5.247)" fill="#8ac9fe" fill-rule="evenodd"/>
            <path id="Trazado_612782" data-name="Trazado 612782" d="M267.5,87.873h1.773a.741.741,0,0,1,.74.74v1.773a.741.741,0,0,1-.74.74H267.5a.741.741,0,0,1-.74-.74V88.613A.741.741,0,0,1,267.5,87.873Z" transform="translate(-266.759 -82.444)" fill="#ffe177" fill-rule="evenodd"/>
            <path id="Trazado_612783" data-name="Trazado 612783" d="M267.5,170.5h1.773a.741.741,0,0,1,.74.74v1.773a.741.741,0,0,1-.74.74H267.5a.741.741,0,0,1-.74-.74v-1.773A.741.741,0,0,1,267.5,170.5Z" transform="translate(-266.759 -159.641)" fill="#fe646f" fill-rule="evenodd"/>
          </g>
          <g id="Grupo_1072802" data-name="Grupo 1072802" transform="translate(2.847 20.364)">
            <path id="Trazado_612784" data-name="Trazado 612784" d="M197.669,348.361h2.182a.658.658,0,0,1,.657.657v8.912a.658.658,0,0,1-.657.657h-2.182a.658.658,0,0,1-.657-.657v-8.912A.658.658,0,0,1,197.669,348.361Z" transform="translate(-184.594 -343.519)" fill="#ffe177" fill-rule="evenodd"/>
            <path id="Trazado_612785" data-name="Trazado 612785" d="M199.852,348.361a.658.658,0,0,1,.657.657v8.912a.658.658,0,0,1-.657.657h-2.182a.658.658,0,0,1-.657-.657h2.182a.658.658,0,0,0,.657-.657Z" transform="translate(-184.594 -343.519)" fill="#ffd064" fill-rule="evenodd"/>
            <path id="Trazado_612786" data-name="Trazado 612786" d="M294.254,348.361h2.182a.658.658,0,0,1,.657.657v8.912a.658.658,0,0,1-.657.657h-2.182a.658.658,0,0,1-.657-.657v-8.912A.658.658,0,0,1,294.254,348.361Z" transform="translate(-274.833 -343.519)" fill="#fe646f" fill-rule="evenodd"/>
            <path id="Trazado_612787" data-name="Trazado 612787" d="M296.437,348.361a.658.658,0,0,1,.657.657v8.912a.658.658,0,0,1-.657.657h-2.182a.658.658,0,0,1-.657-.657h2.182a.658.658,0,0,0,.657-.657Z" transform="translate(-274.833 -343.519)" fill="#fd4755" fill-rule="evenodd"/>
            <path id="Trazado_612788" data-name="Trazado 612788" d="M8.657,321.361h2.182a.658.658,0,0,1,.657.657V332.7a.658.658,0,0,1-.657.657H8.657A.658.658,0,0,1,8,332.7V322.018A.658.658,0,0,1,8.657,321.361Z" transform="translate(-8 -318.293)" fill="#6cf5c2" fill-rule="evenodd"/>
            <path id="Trazado_612789" data-name="Trazado 612789" d="M10.839,321.361a.658.658,0,0,1,.657.657V332.7a.658.658,0,0,1-.657.657H8.657A.658.658,0,0,1,8,332.7h2.182a.658.658,0,0,0,.657-.657Z" transform="translate(-8 -318.293)" fill="#00e499" fill-rule="evenodd"/>
            <path id="Trazado_612790" data-name="Trazado 612790" d="M101.083,274.658h2.182a.658.658,0,0,1,.657.657V289.07a.658.658,0,0,1-.657.657h-2.182a.658.658,0,0,1-.657-.657V275.315A.658.658,0,0,1,101.083,274.658Z" transform="translate(-94.354 -274.658)" fill="#8ac9fe" fill-rule="evenodd"/>
            <path id="Trazado_612791" data-name="Trazado 612791" d="M103.265,274.658a.658.658,0,0,1,.657.657V289.07a.658.658,0,0,1-.657.657h-2.182a.658.658,0,0,1-.657-.657h2.182a.658.658,0,0,0,.657-.657Z" transform="translate(-94.354 -274.658)" fill="#60b7ff" fill-rule="evenodd"/>
          </g>
          <g id="Grupo_1072803" data-name="Grupo 1072803" transform="translate(13.346 12.658)">
            <path id="Trazado_612792" data-name="Trazado 612792" d="M374.37,354.862a6.806,6.806,0,0,1-1.148,1.264l3.123,3.061,1.189-1.225Z" transform="translate(-359.725 -341.886)" fill="#a79ba7" fill-rule="evenodd"/>
            <path id="Trazado_612793" data-name="Trazado 612793" d="M386.189,354.541a.785.785,0,0,1-.34.456l3.1,3.082.38-.416Z" transform="translate(-371.523 -341.586)" fill="#837683" fill-rule="evenodd"/>
            <path id="Trazado_612794" data-name="Trazado 612794" d="M413.078,395.4l1.342-1.383a.617.617,0,0,0-.013-.87l-3.716-3.606a.617.617,0,0,0-.87.013l-1.342,1.383a.617.617,0,0,0,.013.87l3.716,3.606A.617.617,0,0,0,413.078,395.4Z" transform="translate(-392.505 -374.126)" fill="#f1ba84" fill-rule="evenodd"/>
            <path id="Trazado_612795" data-name="Trazado 612795" d="M434.05,389.541l3.716,3.606a.617.617,0,0,1,.013.87l-1.342,1.383a.611.611,0,0,1-.167.122.618.618,0,0,0,.716-.122l1.342-1.383a.617.617,0,0,0-.013-.87l-3.716-3.606a.617.617,0,0,0-.7-.109A.611.611,0,0,1,434.05,389.541Z" transform="translate(-416.414 -374.125)" fill="#e3a76f" fill-rule="evenodd"/>
            <circle id="Elipse_7415" data-name="Elipse 7415" cx="6.767" cy="6.767" r="6.767" transform="translate(0 9.569) rotate(-45)" fill="#eceff1"/>
            <path id="Trazado_612796" data-name="Trazado 612796" d="M308.843,200a6.767,6.767,0,0,1,0,13.535q-.165,0-.329-.008a6.767,6.767,0,0,0,0-13.519Q308.677,200,308.843,200Z" transform="translate(-299.269 -197.202)" fill="#d1d1d6" fill-rule="evenodd"/>
          </g>
          <g id="Grupo_1072804" data-name="Grupo 1072804" transform="translate(17.992 17.299)">
            <ellipse id="Elipse_7416" data-name="Elipse 7416" cx="4.928" cy="4.928" rx="4.928" ry="4.928" transform="translate(0 0)" fill="#837683"/>
            <path id="Trazado_612797" data-name="Trazado 612797" d="M311.335,232.933a4.9,4.9,0,0,1-.822,2.726,4.934,4.934,0,0,1-3.668,2.182q.216.019.438.019a4.971,4.971,0,0,0,.705-.05l.089-.014a4.928,4.928,0,0,0-.794-9.791q-.221,0-.438.019A4.928,4.928,0,0,1,311.335,232.933Z" transform="translate(-302.356 -228.005)" fill="#685e68" fill-rule="evenodd"/>
            <path id="Trazado_612798" data-name="Trazado 612798" d="M264.857,310.239a3.443,3.443,0,0,0-3.421,3.071,4.911,4.911,0,0,0,3.421,1.381,4.976,4.976,0,0,0,.705-.05,4.912,4.912,0,0,0,2.716-1.332A3.441,3.441,0,0,0,264.857,310.239Z" transform="translate(-259.93 -304.836)" fill="#8ac9fe" fill-rule="evenodd"/>
            <path id="Trazado_612799" data-name="Trazado 612799" d="M306.847,310.267c2.048.26,2.874,1.81,3.063,3.668a4.939,4.939,0,0,0,.8-.624,3.441,3.441,0,0,0-3.421-3.071A3.479,3.479,0,0,0,306.847,310.267Z" transform="translate(-302.357 -304.836)" fill="#60b7ff" fill-rule="evenodd"/>
            <ellipse id="Elipse_7417" data-name="Elipse 7417" cx="1.74" cy="1.74" rx="1.74" ry="1.74" transform="translate(3.188 1.663)" fill="#f6dccd"/>
            <path id="Trazado_612800" data-name="Trazado 612800" d="M311.7,255.058a1.74,1.74,0,0,1-1.521,1.726,1.765,1.765,0,0,0,.219.014,1.74,1.74,0,1,0,0-3.48,1.758,1.758,0,0,0-.219.014A1.74,1.74,0,0,1,311.7,255.058Z" transform="translate(-305.472 -251.655)" fill="#f1cbbc" fill-rule="evenodd"/>
          </g>
        </g>
        <path id="Trazado_612801" data-name="Trazado 612801" d="M16.193,19.916a4.375,4.375,0,0,0,.727,2.418,3.956,3.956,0,0,1,2.04-2.118,2.265,2.265,0,1,1,3.271,0,3.959,3.959,0,0,1,2.04,2.118,4.4,4.4,0,1,0-8.078-2.418Zm4.4-.051a1.214,1.214,0,1,1,1.214-1.214A1.215,1.215,0,0,1,20.595,19.866Zm0,4.452a4.381,4.381,0,0,1-2.858-1.059,2.916,2.916,0,0,1,5.718,0A4.383,4.383,0,0,1,20.595,24.318Zm-5.453-4.4a5.453,5.453,0,1,1,5.453,5.453A5.46,5.46,0,0,1,15.142,19.916ZM9.566,18.579H7.121V32.6H9.566Zm1.051-.526V33.122a.526.526,0,0,1-.525.526H6.6a.526.526,0,0,1-.526-.526V18.053a.526.526,0,0,1,.526-.526h3.5a.526.526,0,0,1,.525.526Zm21.94,11.693L28.842,26.14a.086.086,0,0,0-.062-.025h0a.088.088,0,0,0-.063.026l-1.342,1.383a.092.092,0,0,0,0,.127l3.716,3.606a.093.093,0,0,0,.127,0l1.342-1.383A.092.092,0,0,0,32.558,29.746Zm-10.3-2.729a7.309,7.309,0,0,1-2.445.149V32.6h2.445ZM15.912,25.5a7.345,7.345,0,0,1-1.71-2.08h-.735V32.6h2.445Zm-1.558-5.586a6.242,6.242,0,1,1,6.241,6.242A6.249,6.249,0,0,1,14.353,19.916Zm3.877-6.9a7.243,7.243,0,0,1,1.838-.375v-.725H18.23ZM26.2,24.582c-.14.168-.288.33-.442.485l1.308,1.27.457-.471Zm7.119,6.023-1.341,1.383a1.142,1.142,0,0,1-1.614.024l-3.716-3.606a1.143,1.143,0,0,1-.258-1.26l-1.43-1.388a7.29,7.29,0,0,1-1.647.927v6.437a.526.526,0,0,1-.525.526h-3.5a.526.526,0,0,1-.526-.526V26.975a7.237,7.237,0,0,1-1.8-.737v6.884a.526.526,0,0,1-.526.526h-3.5a.526.526,0,0,1-.525-.526V22.9a.525.525,0,0,1,.525-.526h.786a7.293,7.293,0,0,1,3.452-8.9V11.392a.526.526,0,0,1,.526-.526h2.889a.526.526,0,0,1,.526.526v1.25a7.237,7.237,0,0,1,2.77.769h4.136a.526.526,0,1,1,0,1.051h-2.6a7.281,7.281,0,0,1,1.384,9.258l1.491,1.447a1.144,1.144,0,0,1,1.267.219l3.716,3.606a1.142,1.142,0,0,1,.024,1.613ZM3.494,21.647H1.048V32.6H3.494Zm1.051-.525v12a.526.526,0,0,1-.526.526H.523A.526.526,0,0,1,0,33.122v-12A.526.526,0,0,1,.523,20.6h3.5a.526.526,0,0,1,.526.526ZM18.23,8.326h1.838V6.489H18.23Zm-1.051.526V5.963a.525.525,0,0,1,.526-.525h2.889a.526.526,0,0,1,.526.525V8.852a.526.526,0,0,1-.526.526H17.7A.526.526,0,0,1,17.179,8.852Zm5.763.182h5.084a.526.526,0,0,0,0-1.051H22.942a.526.526,0,0,0,0,1.051Zm0-2.2H33.11a.526.526,0,0,0,0-1.051H22.942a.526.526,0,0,0,0,1.051ZM18.23,2.9h1.838V1.06H18.23Zm-1.051.526V.535A.526.526,0,0,1,17.7.009h2.889a.526.526,0,0,1,.526.526V3.423a.526.526,0,0,1-.526.526H17.7A.526.526,0,0,1,17.179,3.423Zm5.763.182h5.084a.526.526,0,1,0,0-1.051H22.942a.526.526,0,0,0,0,1.051Zm0-2.2H33.11a.526.526,0,1,0,0-1.051H22.942a.526.526,0,0,0,0,1.051Zm-21.894,6a6.347,6.347,0,0,0,9.1,5.719L6.942,7.674a.53.53,0,0,1-.072-.267V1.082A6.356,6.356,0,0,0,1.048,7.407ZM7.921,1.082a6.359,6.359,0,0,1,5.8,5.8l-5.8,0Zm5.8,6.854-5.406,0,2.739,4.659A6.348,6.348,0,0,0,13.72,7.936ZM0,7.407A7.4,7.4,0,1,0,7.4.009,7.407,7.407,0,0,0,0,7.407Zm22.42,4.328a.525.525,0,0,0,.525.525H33.11a.526.526,0,1,0,0-1.051H22.942A.525.525,0,0,0,22.417,11.736Z" transform="translate(2.324 2.311)" fill-rule="evenodd"/>
      </g>
    </g>
  </g>
</svg>
