<svg xmlns="http://www.w3.org/2000/svg" xmlns:xlink="http://www.w3.org/1999/xlink" width="400" height="309" viewBox="0 0 400 309">
  <defs>
    <clipPath id="clip-path">
      <rect id="Rectángulo_296854" data-name="Rectángulo 296854" width="158.873" height="243.627" fill="none"/>
    </clipPath>
  </defs>
  <g id="Grupo_1072879" data-name="Grupo 1072879" transform="translate(3372 10944)">
    <rect id="Rectángulo_377686" data-name="Rectángulo 377686" width="400" height="309" transform="translate(-3372 -10944)" fill="#fff"/>
    <g id="Grupo_1072870" data-name="Grupo 1072870" transform="translate(0 17)">
      <rect id="Rectángulo_296855" data-name="Rectángulo 296855" width="335" height="281" rx="5" transform="translate(-3323 -10947)" fill="#f6f6f6"/>
      <g id="Grupo_1072843" data-name="Grupo 1072843" transform="translate(-4198.5 -12508)">
        <rect id="Rectángulo_296853" data-name="Rectángulo 296853" width="295" height="90" transform="translate(915 1726)" fill="#03386e"/>
        <g id="Grupo_1072880" data-name="Grupo 1072880" transform="translate(7359.463 15451.99)">
          <g id="Grupo_877087" data-name="Grupo 877087" transform="translate(0 -6)">
            <path id="Trazado_612814" data-name="Trazado 612814" d="M9.3,21.485V29H4.91V7.672h8.32a9.626,9.626,0,0,1,4.226.879,6.477,6.477,0,0,1,2.805,2.5,6.964,6.964,0,0,1,.981,3.684A6.124,6.124,0,0,1,19.1,19.676a8.938,8.938,0,0,1-5.94,1.809Zm0-3.56H13.23a3.86,3.86,0,0,0,2.659-.82,2.984,2.984,0,0,0,.916-2.344,3.518,3.518,0,0,0-.923-2.534,3.447,3.447,0,0,0-2.549-1H9.3Zm35.61.146h-13.1V14.615h13.1Zm0,6.343h-13.1V20.958h13.1Z" transform="translate(-6361.963 -13695.857)" fill="#fff"/>
            <path id="Trazado_612813" data-name="Trazado 612813" d="M52.627,29H48.394V12.682L43.34,14.249V10.807l8.833-3.164h.454ZM7.62,55.328a22.48,22.48,0,0,1,.894-6.387,16.854,16.854,0,0,1,2.637-5.369,9.845,9.845,0,0,1,3.779-3.245l.82,2.285a10.2,10.2,0,0,0-3.34,4.893,22.654,22.654,0,0,0-1.2,7.734v.454A23.087,23.087,0,0,0,12.4,63.458a10.4,10.4,0,0,0,3.354,4.966l-.82,2.241a9.849,9.849,0,0,1-3.713-3.157,16.572,16.572,0,0,1-2.629-5.222A22.347,22.347,0,0,1,7.62,56.1ZM28.069,64H23.836V47.682l-5.054,1.567V45.807l8.833-3.164h.454ZM51.184,52.062h5.288v3.823H51.184v5.977H47.156V55.885h-5.3V52.062h5.3V46.334h4.028ZM70.96,64H66.712V48.15H70.96Zm-4.5-19.951a2.085,2.085,0,0,1,.637-1.567,2.746,2.746,0,0,1,3.464,0,2.237,2.237,0,0,1-.007,3.149,2.715,2.715,0,0,1-3.442,0A2.078,2.078,0,0,1,66.463,44.049ZM81.741,55.665a21.332,21.332,0,0,1-.952,6.372,17.3,17.3,0,0,1-2.739,5.405,9.869,9.869,0,0,1-3.823,3.223l-.82-2.241a10.3,10.3,0,0,0,3.281-4.834,22.385,22.385,0,0,0,1.245-7.515V55.3a22.891,22.891,0,0,0-1.194-7.72,10.737,10.737,0,0,0-3.333-5.01l.82-2.241a9.872,9.872,0,0,1,3.757,3.135,17.074,17.074,0,0,1,2.739,5.288,21.18,21.18,0,0,1,1.018,6.255Zm4.877-10.91.077,1.068a3.228,3.228,0,0,1,2.657-1.239,2.683,2.683,0,0,1,2.187.863,4.026,4.026,0,0,1,.735,2.58V54H89.8V48.087a1.6,1.6,0,0,0-.342-1.141,1.53,1.53,0,0,0-1.136-.355,1.7,1.7,0,0,0-1.564.889V54H84.293V44.755Z" transform="translate(-6311.963 -13714.99)" fill="#fff"/>
            <line id="Línea_534" data-name="Línea 534" x2="88" transform="translate(-6307.037 -13680.357)" fill="none" stroke="#fff" stroke-width="2"/>
          </g>
        </g>
      </g>
      <g id="Grupo_877084" data-name="Grupo 877084" transform="translate(-3368.6 -10924.521)">
        <g id="Grupo_877083" data-name="Grupo 877083" clip-path="url(#clip-path)">
          <path id="Trazado_588363" data-name="Trazado 588363" d="M100.942,278.8l.637,10.548L128.493,289s4.175-5.185-8.849-5.185c-2.612,0-3.021-5.536-3.021-5.536Z" transform="translate(-16.584 -45.72)" fill="#afafaf"/>
          <path id="Trazado_588364" data-name="Trazado 588364" d="M46.578,278.8l-.637,10.548L19.028,289s-4.175-5.185,8.849-5.185c2.612,0,3.021-5.536,3.021-5.536Z" transform="translate(-3.022 -45.72)" fill="#afafaf"/>
          <path id="Trazado_588365" data-name="Trazado 588365" d="M36.008,132.92,28.928,257.238H50.473l10.075-101.9,2.183-.119,25.66,102.019h19.42L83.436,128.2Z" transform="translate(-4.753 -21.063)" fill="#0076be"/>
          <path id="Trazado_588366" data-name="Trazado 588366" d="M69.806,155.348H65.788l-.66-10.336.376-.024.637,9.985h3.665Z" transform="translate(-10.7 -23.821)" fill="#f2f2f2"/>
          <path id="Trazado_588367" data-name="Trazado 588367" d="M112.916,252.54H99.681v-.375h12.78c-1.225-6.391-18.438-96.23-19.141-101.772-9.783,2.378-13.591-4.861-13.629-4.936l.335-.17c.037.072,3.777,7.146,13.413,4.689l.235-.059v.242c0,1.987,19.006,101.157,19.2,102.159Z" transform="translate(-13.093 -23.87)" fill="#f2f2f2"/>
          <path id="Trazado_588368" data-name="Trazado 588368" d="M50.206,252.4h-17.8l.011-.2c.216-4.026,5.293-98.607,6.043-102.091l.038-.176.177.03c5.271.891,11.334-5.486,11.394-5.551l.274.258c-.251.266-6.137,6.445-11.545,5.691-.827,5.6-5.731,96.752-5.994,101.661h17.4Z" transform="translate(-5.324 -23.726)" fill="#f2f2f2"/>
          <path id="Trazado_588369" data-name="Trazado 588369" d="M70.614,29.479,71.5,42.065S60.836,44.6,58.04,41.777c-.636-.642.8-15,.8-15Z" transform="translate(-9.509 -4.399)" fill="#f29b89"/>
          <path id="Trazado_588370" data-name="Trazado 588370" d="M72,33.462c-2.035-.018-7.2-2.572-7.2-2.572a10.679,10.679,0,0,0,7.312,4.875c-.028-.626-.086-1.386-.114-2.3" transform="translate(-10.647 -5.075)" fill="#222753"/>
          <path id="Trazado_588371" data-name="Trazado 588371" d="M74.969,9.3s4.479,17.129-1.128,19.934-15.684-3.924-15.684-3.924L55.108,11.037Z" transform="translate(-9.054 -1.529)" fill="#f29b89"/>
          <path id="Trazado_588372" data-name="Trazado 588372" d="M77.9,18.122a.792.792,0,0,0,.645.888c.364.005.664-.383.671-.867s-.282-.883-.645-.888-.664.383-.671.867" transform="translate(-12.8 -2.835)" fill="#222753"/>
          <path id="Trazado_588373" data-name="Trazado 588373" d="M70.726,18.623a.792.792,0,0,0,.644.888c.364.005.664-.383.671-.867s-.281-.883-.645-.888-.664.383-.67.867" transform="translate(-11.62 -2.917)" fill="#222753"/>
          <path id="Trazado_588374" data-name="Trazado 588374" d="M75.058,23.384a.188.188,0,0,1-.008-.376,3.668,3.668,0,0,0,1.554-.421c.254-.17-.25-1.785-1.079-3.456a.188.188,0,1,1,.337-.167c.512,1.031,1.63,3.481.951,3.935a3.988,3.988,0,0,1-1.748.485h-.008" transform="translate(-12.301 -3.099)" fill="#222753"/>
          <path id="Trazado_588375" data-name="Trazado 588375" d="M74.976,26.877A2.5,2.5,0,0,1,72.635,25.4a.188.188,0,0,1,.335-.171,2.448,2.448,0,0,0,3.287,1.01.188.188,0,0,1,.16.341,3.824,3.824,0,0,1-1.441.3" transform="translate(-11.93 -4.128)" fill="#222753"/>
          <path id="Trazado_588376" data-name="Trazado 588376" d="M55.416,5.6c1.2-3.584,4.789-2.4,5.01-2.736a4.549,4.549,0,0,1,5.262-1.636c1.168.369,2.409.986,3.428.307,1.358-.906,7.458-3.006,8.5.115,2.272,6.819-.925,8.556-3.663,9.243-1.559.391-3.2-.165-4.806-.218a5.162,5.162,0,0,0-4.358,1.58,14.064,14.064,0,0,1-1.425,2.178c-1.046.934-2.769.714-3.837,1.623a4.207,4.207,0,0,0-1.048,3.323,26.211,26.211,0,0,0,.263,3.545,4.765,4.765,0,0,1,.048,1.786,1.451,1.451,0,0,1-1.2,1.169c-.9.051-1.433-.981-1.631-1.859a12.242,12.242,0,0,1-.3-2.459c-.022-1.039-6.1-15.151-.239-15.96" transform="translate(-8.686 0)" fill="#222753"/>
          <path id="Trazado_588377" data-name="Trazado 588377" d="M62.085,19.838c-.1-.016-.82-1.848-2.673-1.523-1.65.289-1.732,3.007-1.186,3.6a4.635,4.635,0,0,0,3.39,1.739Z" transform="translate(-9.517 -3.003)" fill="#f29b89"/>
          <path id="Trazado_588378" data-name="Trazado 588378" d="M59.174,21.587a.188.188,0,0,1-.186-.165,1.12,1.12,0,0,1,.335-1.086c.593-.469,1.708-.058,1.756-.042a.189.189,0,0,1,.11.242.191.191,0,0,1-.242.11c-.267-.1-1.036-.3-1.392-.015a.78.78,0,0,0-.194.745.188.188,0,0,1-.165.209.1.1,0,0,1-.023,0" transform="translate(-9.689 -3.304)" fill="#222753"/>
          <path id="Trazado_588379" data-name="Trazado 588379" d="M60.556,22.037h-.018a.188.188,0,0,1-.168-.16,2.566,2.566,0,0,0-.15-.211,3.627,3.627,0,0,1-.673-1.231.188.188,0,0,1,.365-.092,3.323,3.323,0,0,0,.608,1.1c.16.212.233.31.222.426a.188.188,0,0,1-.187.17" transform="translate(-9.782 -3.319)" fill="#222753"/>
          <path id="Trazado_588380" data-name="Trazado 588380" d="M87.762,46.174s0,51.692,0,76.133c-20.185,11.228-52.265,0-52.265,0L32,76.866l.867-30.692L48.3,43.726l6-.953,6.466.52,8.059-.119,8.232,1.3Z" transform="translate(-5.257 -7.027)" fill="#222753"/>
          <path id="Trazado_588381" data-name="Trazado 588381" d="M80.262,44.478C78.005,49.843,72.765,61.986,69,68.12c-1.345,2.19-2.5,3.619-3.268,3.694-.744.075-1.9-1.354-3.251-3.669a.026.026,0,0,1-.008-.017c-3.443-5.875-8.2-17.408-10.964-24.4l6-.953,6.466.52,8.059-.119Z" transform="translate(-8.462 -7.027)" fill="#f2f2f2"/>
          <path id="Trazado_588382" data-name="Trazado 588382" d="M54.1,43.086c.066-.3,2.949-3.776,2.949-3.776s6.136,2.6,7.729,2.537,7.609-2.537,7.609-2.537l2.6,4.306s-4.9,4.762-10.087,5.074c-4.9.3-10.8-5.6-10.8-5.6" transform="translate(-8.888 -6.459)" fill="#f2f2f2"/>
          <path id="Trazado_588383" data-name="Trazado 588383" d="M61.978,49.7a.182.182,0,0,1-.092-.024c-.218-.122-5.369-3.008-6.576-4.752a.187.187,0,0,1,.048-.262.189.189,0,0,1,.262.048c1.056,1.526,5.513,4.1,6.325,4.566l3.239-3.385a.19.19,0,0,1,.262-.009l3.754,3.4c.763-.439,5.022-2.953,5.8-4.922a.188.188,0,1,1,.35.138c-.9,2.278-5.872,5.062-6.083,5.18a.191.191,0,0,1-.217-.025l-3.72-3.369-3.214,3.36a.191.191,0,0,1-.136.058" transform="translate(-9.082 -7.268)" fill="#3ae3fe"/>
          <path id="Trazado_588384" data-name="Trazado 588384" d="M71.151,67.934s-.075.309-.217.777c-1.345,2.19-2.5,3.619-3.268,3.694-.744.075-1.9-1.354-3.251-3.669a.026.026,0,0,1-.008-.017l1.5-15.569L63.3,49.858l3.343-3.485,3.853,3.485-1.947,3.293Z" transform="translate(-10.399 -7.619)" fill="#3ae3fe"/>
          <path id="Trazado_588385" data-name="Trazado 588385" d="M168.9,28.782s9.454-9.179,13.122-11.719c.554-.384,2.665-1.1,2.58.788s-2.734,3.533-4.4,5.16c1.531-.284,6.773,5.3,6.4,6.576s-9.658,7.222-9.658,7.222Z" transform="translate(-27.75 -2.728)" fill="#f29b89"/>
          <path id="Trazado_588386" data-name="Trazado 588386" d="M183.5,34.647a1.151,1.151,0,0,1-.71-.221c-.266-.2-.747-.809.006-2.261-1.185.49-1.783.267-2.082-.033a1.883,1.883,0,0,1-.122-1.988,1.713,1.713,0,0,1-1.982-.375c-.232-.295-.843-1.411,1.076-3.346a.187.187,0,1,1,.267.263c-1.352,1.365-1.427,2.367-1.046,2.851a1.521,1.521,0,0,0,1.976.053.189.189,0,0,1,.227.025.187.187,0,0,1,.037.224c-.453.857-.519,1.671-.164,2.028s1.137.257,2.192-.293a.188.188,0,0,1,.246.267c-.819,1.285-.743,2.024-.4,2.286a1.54,1.54,0,0,0,1.852-.547.188.188,0,0,1,.277.253,2.351,2.351,0,0,1-1.649.812" transform="translate(-29.3 -4.332)" fill="#222753"/>
          <path id="Trazado_588387" data-name="Trazado 588387" d="M172.71,26.927a.188.188,0,0,1-.111-.339,39.512,39.512,0,0,1,4.96-3.212l.272-.1c1.128-.416,2.194-.808,2.515.04.293.776-1.06,2.448-1.334,2.775a.188.188,0,0,1-.288-.242c.623-.744,1.429-1.981,1.27-2.4-.176-.466-.886-.244-2.033.18l-.274.1a40.734,40.734,0,0,0-4.866,3.161.185.185,0,0,1-.111.037" transform="translate(-28.345 -3.748)" fill="#222753"/>
          <path id="Trazado_588388" data-name="Trazado 588388" d="M181.413,29.839a.188.188,0,0,1-.1-.348c1.782-1.083,2.491-4.115,2.5-4.145a.188.188,0,0,1,.366.084c-.03.13-.75,3.217-2.669,4.382a.188.188,0,0,1-.1.028" transform="translate(-29.775 -4.14)" fill="#222753"/>
          <path id="Trazado_588389" data-name="Trazado 588389" d="M184.2,32.2a.188.188,0,0,1-.1-.348,7.5,7.5,0,0,0,2.892-3.7.188.188,0,0,1,.358.113,7.74,7.74,0,0,1-3.054,3.91.19.19,0,0,1-.1.027" transform="translate(-30.232 -4.603)" fill="#222753"/>
          <path id="Trazado_588390" data-name="Trazado 588390" d="M96.023,44.168c8.632,5.325,20.315,6.177,30.867,2.964a41.98,41.98,0,0,0,13.328-6.752c8.945-5.4,11.61-8.989,14.388-11.513,3.633,2.862,12.139,9.718,12.227,9.787-8.449,12.341-19.286,21.849-31.343,27.6a60.8,60.8,0,0,1-52.4.618Z" transform="translate(-13.652 -4.743)" fill="#222753"/>
          <path id="Trazado_588391" data-name="Trazado 588391" d="M95.655,59.939l-.375-.024a46.531,46.531,0,0,1,2.57-12.823l.349.139a46.148,46.148,0,0,0-2.544,12.709" transform="translate(-15.654 -7.737)" fill="#f2f2f2"/>
          <path id="Trazado_588392" data-name="Trazado 588392" d="M19.75,139.771s2.383,7.626,5.076,11.5c1.208,1.74,3.5,4.106,4.384,3.269a2.094,2.094,0,0,0,.447-1.328s1.89,1.6,2.551,1.077c.852-.679.5-2.124.5-2.124s1.663.972,2.073.541c.793-.834-.514-2.878-.514-2.878s1.411.7,1.922-.225c.3-.542-3.735-7.9-3.735-7.9s4.87,2.032,4.743.539-10.587-9.087-10.587-9.087Z" transform="translate(-3.245 -21.877)" fill="#f29b89"/>
          <path id="Trazado_588393" data-name="Trazado 588393" d="M30.634,156.317a.193.193,0,0,1-.116-.039c-.091-.072-2.246-1.755-2.448-1.927s-1.985-2.666-2.338-3.163a.188.188,0,1,1,.306-.218c.8,1.122,2.122,2.954,2.276,3.1.2.165,2.414,1.9,2.436,1.916a.188.188,0,0,1,.032.264.185.185,0,0,1-.148.072" transform="translate(-4.222 -24.791)" fill="#222753"/>
          <path id="Trazado_588394" data-name="Trazado 588394" d="M34.161,154.9a.189.189,0,0,1-.113-.038l-3.065-2.307a.181.181,0,0,1-.046-.048l-2.312-3.6a.188.188,0,0,1,.317-.2l2.293,3.572,3.038,2.287a.189.189,0,0,1,.038.263.187.187,0,0,1-.15.074" transform="translate(-4.698 -24.417)" fill="#222753"/>
          <path id="Trazado_588395" data-name="Trazado 588395" d="M36.205,152.225a.185.185,0,0,1-.134-.055L33.8,149.879l-2.21-3a.188.188,0,1,1,.3-.222l2.193,2.983,2.254,2.27a.189.189,0,0,1,0,.267.187.187,0,0,1-.132.053" transform="translate(-5.184 -24.082)" fill="#222753"/>
          <path id="Trazado_588396" data-name="Trazado 588396" d="M40.463,70.136C28.476,77.367,22.843,84.175,21.134,91.91c-2.028,9.18,1.471,18.8,6.432,29.058l-12.813,9.614C3.091,116.859-1.214,102.427.287,88.883c1.777-16.027,11.519-31.408,26.992-42.3Z" transform="translate(0 -7.654)" fill="#222753"/>
          <path id="Trazado_588397" data-name="Trazado 588397" d="M37.5,63.895c-.087-8.785-5-17.148-5.051-17.231l.323-.192c.05.084,5.017,8.534,5.1,17.419Z" transform="translate(-5.332 -7.635)" fill="#f2f2f2"/>
        </g>
      </g>
    </g>
    <path id="Trazado_612815" data-name="Trazado 612815" d="M39.37,13.99V19H36.44V4.781h5.547a6.417,6.417,0,0,1,2.817.586,4.318,4.318,0,0,1,1.87,1.665,4.643,4.643,0,0,1,.654,2.456,4.083,4.083,0,0,1-1.431,3.3,5.959,5.959,0,0,1-3.96,1.206Zm0-2.373h2.617a2.573,2.573,0,0,0,1.772-.547,1.989,1.989,0,0,0,.61-1.562,2.345,2.345,0,0,0-.615-1.689,2.3,2.3,0,0,0-1.7-.664H39.37Zm9.922,6a1.421,1.421,0,0,1,.454-1.094,1.764,1.764,0,0,1,2.285,0,1.421,1.421,0,0,1,.454,1.094,1.4,1.4,0,0,1-.449,1.079,1.794,1.794,0,0,1-2.295,0A1.4,1.4,0,0,1,49.292,17.613Zm0-8a1.421,1.421,0,0,1,.454-1.094,1.764,1.764,0,0,1,2.285,0,1.421,1.421,0,0,1,.454,1.094,1.4,1.4,0,0,1-.449,1.079,1.794,1.794,0,0,1-2.295,0A1.4,1.4,0,0,1,49.292,9.615ZM63.55,16.549l2.617-8.115h1.846L64.224,19H62.847L59.019,8.434h1.846ZM76.128,19a3.8,3.8,0,0,1-.254-1.113A4.031,4.031,0,0,1,72.866,19.2a3.73,3.73,0,0,1-2.563-.884,2.859,2.859,0,0,1-1-2.241,2.987,2.987,0,0,1,1.255-2.563,5.916,5.916,0,0,1,3.53-.913h1.758v-.83a2.029,2.029,0,0,0-.566-1.509,2.276,2.276,0,0,0-1.67-.562,2.634,2.634,0,0,0-1.621.488,1.439,1.439,0,0,0-.654,1.182H69.517a2.493,2.493,0,0,1,.562-1.528A3.832,3.832,0,0,1,71.6,8.668a5.125,5.125,0,0,1,2.114-.43,4.177,4.177,0,0,1,2.861.913,3.294,3.294,0,0,1,1.074,2.515v4.863a5.946,5.946,0,0,0,.371,2.314V19Zm-3-1.377a3.175,3.175,0,0,0,1.611-.439,2.658,2.658,0,0,0,1.1-1.143V13.873H74.429q-3.32,0-3.32,1.943a1.645,1.645,0,0,0,.566,1.328A2.177,2.177,0,0,0,73.13,17.623ZM82.446,19H80.64V4h1.807Zm2.412-5.381a6.241,6.241,0,0,1,.61-2.793,4.553,4.553,0,0,1,1.7-1.914,4.626,4.626,0,0,1,2.485-.674,4.456,4.456,0,0,1,3.491,1.494,5.748,5.748,0,0,1,1.333,3.975v.127a6.3,6.3,0,0,1-.591,2.769A4.486,4.486,0,0,1,92.2,18.512a4.679,4.679,0,0,1-2.524.684A4.445,4.445,0,0,1,86.191,17.7a5.719,5.719,0,0,1-1.333-3.955Zm1.816.215a4.52,4.52,0,0,0,.815,2.822,2.763,2.763,0,0,0,4.37-.015,4.943,4.943,0,0,0,.811-3.022,4.513,4.513,0,0,0-.825-2.817,2.623,2.623,0,0,0-2.192-1.079A2.594,2.594,0,0,0,87.5,10.787,4.906,4.906,0,0,0,86.675,13.834Zm15.176-3.779a5.414,5.414,0,0,0-.889-.068A2.381,2.381,0,0,0,98.55,11.5V19H96.743V8.434H98.5l.029,1.221a2.813,2.813,0,0,1,2.52-1.416,1.846,1.846,0,0,1,.8.137Zm15.537,3.779a6.327,6.327,0,0,1-1.1,3.887A3.537,3.537,0,0,1,113.3,19.2a3.875,3.875,0,0,1-3.027-1.221v5.088h-1.807V8.434h1.65l.088,1.172a3.722,3.722,0,0,1,3.066-1.367,3.6,3.6,0,0,1,3.013,1.436,6.4,6.4,0,0,1,1.108,3.994Zm-1.807-.205a4.669,4.669,0,0,0-.762-2.822,2.454,2.454,0,0,0-2.09-1.035,2.656,2.656,0,0,0-2.461,1.455v5.049a2.661,2.661,0,0,0,2.48,1.445,2.442,2.442,0,0,0,2.065-1.03A5.1,5.1,0,0,0,115.581,13.629Zm9.209-3.574a5.414,5.414,0,0,0-.889-.068,2.381,2.381,0,0,0-2.412,1.514V19h-1.807V8.434h1.758l.029,1.221a2.813,2.813,0,0,1,2.52-1.416,1.846,1.846,0,0,1,.8.137Zm5.859,9.141a4.617,4.617,0,0,1-3.5-1.411,5.237,5.237,0,0,1-1.348-3.774v-.332a6.341,6.341,0,0,1,.6-2.808,4.685,4.685,0,0,1,1.68-1.934,4.223,4.223,0,0,1,2.339-.7,3.957,3.957,0,0,1,3.2,1.357,5.877,5.877,0,0,1,1.143,3.887v.752h-7.158a3.756,3.756,0,0,0,.913,2.524,2.87,2.87,0,0,0,2.222.962,3.147,3.147,0,0,0,1.621-.391,4.073,4.073,0,0,0,1.162-1.035l1.1.859A4.437,4.437,0,0,1,130.649,19.2Zm-.225-9.473a2.41,2.41,0,0,0-1.836.8,3.868,3.868,0,0,0-.918,2.231h5.293v-.137a3.441,3.441,0,0,0-.742-2.134A2.269,2.269,0,0,0,130.425,9.723ZM143.013,16.2a1.33,1.33,0,0,0-.552-1.138,5.311,5.311,0,0,0-1.924-.7,9.1,9.1,0,0,1-2.178-.7,3.1,3.1,0,0,1-1.191-.977,2.336,2.336,0,0,1-.386-1.348,2.741,2.741,0,0,1,1.1-2.2,4.291,4.291,0,0,1,2.808-.9,4.415,4.415,0,0,1,2.915.928,2.947,2.947,0,0,1,1.118,2.373h-1.816a1.631,1.631,0,0,0-.63-1.279,2.36,2.36,0,0,0-1.587-.537,2.47,2.47,0,0,0-1.543.43,1.353,1.353,0,0,0-.557,1.123,1.1,1.1,0,0,0,.518.986,6.368,6.368,0,0,0,1.87.635,9.744,9.744,0,0,1,2.192.723,3.2,3.2,0,0,1,1.245,1.011,2.485,2.485,0,0,1,.405,1.44,2.7,2.7,0,0,1-1.133,2.271,4.752,4.752,0,0,1-2.939.854,5.321,5.321,0,0,1-2.246-.449,3.653,3.653,0,0,1-1.528-1.255,3.025,3.025,0,0,1-.552-1.743h1.807a1.87,1.87,0,0,0,.728,1.44,2.822,2.822,0,0,0,1.792.532,2.913,2.913,0,0,0,1.646-.415A1.275,1.275,0,0,0,143.013,16.2Zm8.545,3a4.617,4.617,0,0,1-3.5-1.411,5.237,5.237,0,0,1-1.348-3.774v-.332a6.341,6.341,0,0,1,.6-2.808,4.685,4.685,0,0,1,1.68-1.934,4.223,4.223,0,0,1,2.339-.7,3.957,3.957,0,0,1,3.2,1.357,5.877,5.877,0,0,1,1.143,3.887v.752h-7.158a3.756,3.756,0,0,0,.913,2.524,2.87,2.87,0,0,0,2.222.962,3.147,3.147,0,0,0,1.621-.391,4.073,4.073,0,0,0,1.162-1.035l1.1.859A4.437,4.437,0,0,1,151.558,19.2Zm-.225-9.473a2.41,2.41,0,0,0-1.836.8,3.868,3.868,0,0,0-.918,2.231h5.293v-.137a3.441,3.441,0,0,0-.742-2.134A2.269,2.269,0,0,0,151.333,9.723Zm8.145-1.289.059,1.328A3.851,3.851,0,0,1,162.7,8.238q3.35,0,3.379,3.779V19h-1.807V12.008a2.433,2.433,0,0,0-.522-1.689,2.094,2.094,0,0,0-1.6-.547,2.607,2.607,0,0,0-1.543.469,3.183,3.183,0,0,0-1.035,1.23V19h-1.807V8.434Zm11.777-2.559V8.434h1.973v1.4h-1.973v6.561a1.467,1.467,0,0,0,.264.953,1.11,1.11,0,0,0,.9.318,4.374,4.374,0,0,0,.859-.117V19a5.268,5.268,0,0,1-1.387.194,2.25,2.25,0,0,1-1.826-.732,3.147,3.147,0,0,1-.615-2.08V9.83h-1.924v-1.4h1.924V5.875Zm8.467,13.32a4.617,4.617,0,0,1-3.5-1.411,5.237,5.237,0,0,1-1.348-3.774v-.332a6.341,6.341,0,0,1,.6-2.808,4.685,4.685,0,0,1,1.68-1.934,4.223,4.223,0,0,1,2.339-.7A3.957,3.957,0,0,1,182.7,9.6a5.877,5.877,0,0,1,1.143,3.887v.752h-7.158a3.756,3.756,0,0,0,.913,2.524,2.87,2.87,0,0,0,2.222.962,3.147,3.147,0,0,0,1.621-.391,4.073,4.073,0,0,0,1.162-1.035l1.1.859A4.437,4.437,0,0,1,179.722,19.2ZM179.5,9.723a2.41,2.41,0,0,0-1.836.8,3.868,3.868,0,0,0-.918,2.231h5.293v-.137a3.441,3.441,0,0,0-.742-2.134A2.269,2.269,0,0,0,179.5,9.723Zm6.475,8.33a1.131,1.131,0,0,1,.278-.781,1.061,1.061,0,0,1,.835-.312,1.092,1.092,0,0,1,.845.313,1.109,1.109,0,0,1,.288.781,1.048,1.048,0,0,1-.288.752,1.112,1.112,0,0,1-.845.3,1,1,0,0,1-1.113-1.055ZM40.581,49h-2.93V34.781h2.93Zm2.666-1.387A1.421,1.421,0,0,1,43.7,46.52a1.764,1.764,0,0,1,2.285,0,1.421,1.421,0,0,1,.454,1.094,1.4,1.4,0,0,1-.449,1.079,1.794,1.794,0,0,1-2.295,0A1.4,1.4,0,0,1,43.247,47.613Zm0-8a1.421,1.421,0,0,1,.454-1.094,1.764,1.764,0,0,1,2.285,0,1.421,1.421,0,0,1,.454,1.094,1.4,1.4,0,0,1-.449,1.079,1.794,1.794,0,0,1-2.295,0A1.4,1.4,0,0,1,43.247,39.615Zm13.223-3.74v2.559h1.973v1.4H56.47v6.561a1.467,1.467,0,0,0,.264.953,1.11,1.11,0,0,0,.9.318,4.374,4.374,0,0,0,.859-.117V49A5.268,5.268,0,0,1,57.1,49.2a2.25,2.25,0,0,1-1.826-.732,3.147,3.147,0,0,1-.615-2.08V39.83H52.739v-1.4h1.924V35.875ZM67.075,49a3.8,3.8,0,0,1-.254-1.113A4.031,4.031,0,0,1,63.813,49.2a3.73,3.73,0,0,1-2.563-.884,2.859,2.859,0,0,1-1-2.241A2.987,2.987,0,0,1,61.5,43.507a5.916,5.916,0,0,1,3.53-.913h1.758v-.83a2.029,2.029,0,0,0-.566-1.509,2.276,2.276,0,0,0-1.67-.562,2.634,2.634,0,0,0-1.621.488,1.439,1.439,0,0,0-.654,1.182H60.464a2.493,2.493,0,0,1,.562-1.528,3.832,3.832,0,0,1,1.523-1.167,5.125,5.125,0,0,1,2.114-.43,4.177,4.177,0,0,1,2.861.913A3.294,3.294,0,0,1,68.6,41.666v4.863a5.946,5.946,0,0,0,.371,2.314V49Zm-3-1.377a3.175,3.175,0,0,0,1.611-.439,2.658,2.658,0,0,0,1.1-1.143V43.873H65.376q-3.32,0-3.32,1.943a1.645,1.645,0,0,0,.566,1.328A2.177,2.177,0,0,0,64.077,47.623ZM77.583,46.2a1.33,1.33,0,0,0-.552-1.138,5.311,5.311,0,0,0-1.924-.7,9.1,9.1,0,0,1-2.178-.7,3.1,3.1,0,0,1-1.191-.977,2.336,2.336,0,0,1-.386-1.348,2.741,2.741,0,0,1,1.1-2.2,4.291,4.291,0,0,1,2.808-.9,4.415,4.415,0,0,1,2.915.928,2.947,2.947,0,0,1,1.118,2.373H77.476a1.631,1.631,0,0,0-.63-1.279,2.36,2.36,0,0,0-1.587-.537,2.47,2.47,0,0,0-1.543.43,1.353,1.353,0,0,0-.557,1.123,1.1,1.1,0,0,0,.518.986,6.368,6.368,0,0,0,1.87.635,9.744,9.744,0,0,1,2.192.723,3.2,3.2,0,0,1,1.245,1.011,2.485,2.485,0,0,1,.405,1.44,2.7,2.7,0,0,1-1.133,2.271,4.752,4.752,0,0,1-2.939.854,5.321,5.321,0,0,1-2.246-.449,3.653,3.653,0,0,1-1.528-1.255,3.025,3.025,0,0,1-.552-1.743H72.8a1.87,1.87,0,0,0,.728,1.44,2.822,2.822,0,0,0,1.792.532,2.913,2.913,0,0,0,1.646-.415A1.275,1.275,0,0,0,77.583,46.2ZM88.267,49a3.8,3.8,0,0,1-.254-1.113A4.031,4.031,0,0,1,85,49.2a3.73,3.73,0,0,1-2.563-.884,2.859,2.859,0,0,1-1-2.241A2.987,2.987,0,0,1,82.7,43.507a5.916,5.916,0,0,1,3.53-.913h1.758v-.83a2.029,2.029,0,0,0-.566-1.509,2.276,2.276,0,0,0-1.67-.562,2.634,2.634,0,0,0-1.621.488,1.439,1.439,0,0,0-.654,1.182H81.655a2.493,2.493,0,0,1,.562-1.528,3.832,3.832,0,0,1,1.523-1.167,5.125,5.125,0,0,1,2.114-.43,4.177,4.177,0,0,1,2.861.913,3.294,3.294,0,0,1,1.074,2.515v4.863a5.946,5.946,0,0,0,.371,2.314V49Zm-3-1.377a3.175,3.175,0,0,0,1.611-.439,2.658,2.658,0,0,0,1.1-1.143V43.873H86.567q-3.32,0-3.32,1.943a1.645,1.645,0,0,0,.566,1.328A2.177,2.177,0,0,0,85.269,47.623Zm11.865-3.994a6.19,6.19,0,0,1,1.152-3.911,3.921,3.921,0,0,1,5.957-.21V34h1.807V49h-1.66l-.088-1.133a3.679,3.679,0,0,1-3.018,1.328,3.609,3.609,0,0,1-2.993-1.5,6.26,6.26,0,0,1-1.157-3.926Zm1.807.205a4.687,4.687,0,0,0,.742,2.813,2.4,2.4,0,0,0,2.051,1.016,2.636,2.636,0,0,0,2.51-1.543V41.266a2.656,2.656,0,0,0-2.49-1.494,2.411,2.411,0,0,0-2.07,1.025A5.16,5.16,0,0,0,98.94,43.834Zm14.3,5.361a4.617,4.617,0,0,1-3.5-1.411,5.237,5.237,0,0,1-1.348-3.774v-.332a6.341,6.341,0,0,1,.6-2.808,4.685,4.685,0,0,1,1.68-1.934,4.223,4.223,0,0,1,2.339-.7,3.957,3.957,0,0,1,3.2,1.357,5.877,5.877,0,0,1,1.143,3.887v.752H110.2a3.756,3.756,0,0,0,.913,2.524,2.87,2.87,0,0,0,2.222.962,3.147,3.147,0,0,0,1.621-.391,4.073,4.073,0,0,0,1.162-1.035l1.1.859A4.437,4.437,0,0,1,113.237,49.2Zm-.225-9.473a2.41,2.41,0,0,0-1.836.8,3.869,3.869,0,0,0-.918,2.231h5.293v-.137a3.441,3.441,0,0,0-.742-2.134A2.269,2.269,0,0,0,113.013,39.723ZM126.362,49h-1.807V38.434h1.807Zm-1.953-13.369a1.078,1.078,0,0,1,.269-.742,1.008,1.008,0,0,1,.8-.3,1.024,1.024,0,0,1,.8.3,1.067,1.067,0,0,1,.273.742,1.032,1.032,0,0,1-.273.732,1.043,1.043,0,0,1-.8.293,1.026,1.026,0,0,1-.8-.293A1.043,1.043,0,0,1,124.409,35.631Zm6.553,2.8.059,1.328a3.851,3.851,0,0,1,3.164-1.523q3.35,0,3.379,3.779V49h-1.807V42.008a2.433,2.433,0,0,0-.522-1.689,2.094,2.094,0,0,0-1.6-.547,2.607,2.607,0,0,0-1.543.469,3.183,3.183,0,0,0-1.035,1.23V49h-1.807V38.434Zm11.777-2.559v2.559h1.973v1.4h-1.973v6.561a1.467,1.467,0,0,0,.264.953,1.11,1.11,0,0,0,.9.318,4.374,4.374,0,0,0,.859-.117V49a5.268,5.268,0,0,1-1.387.194,2.25,2.25,0,0,1-1.826-.732,3.147,3.147,0,0,1-.615-2.08V39.83h-1.924v-1.4h1.924V35.875Zm8.467,13.32a4.617,4.617,0,0,1-3.5-1.411,5.237,5.237,0,0,1-1.348-3.774v-.332a6.341,6.341,0,0,1,.6-2.808,4.685,4.685,0,0,1,1.68-1.934,4.223,4.223,0,0,1,2.339-.7,3.957,3.957,0,0,1,3.2,1.357,5.877,5.877,0,0,1,1.143,3.887v.752h-7.158a3.756,3.756,0,0,0,.913,2.524,2.87,2.87,0,0,0,2.222.962,3.147,3.147,0,0,0,1.621-.391,4.073,4.073,0,0,0,1.162-1.035l1.1.859A4.437,4.437,0,0,1,151.206,49.2Zm-.225-9.473a2.41,2.41,0,0,0-1.836.8,3.868,3.868,0,0,0-.918,2.231h5.293v-.137a3.441,3.441,0,0,0-.742-2.134A2.269,2.269,0,0,0,150.981,39.723Zm11.543.332a5.414,5.414,0,0,0-.889-.068,2.381,2.381,0,0,0-2.412,1.514V49h-1.807V38.434h1.758l.029,1.221a2.813,2.813,0,0,1,2.52-1.416,1.846,1.846,0,0,1,.8.137Zm5.859,9.141a4.617,4.617,0,0,1-3.5-1.411,5.237,5.237,0,0,1-1.348-3.774v-.332a6.341,6.341,0,0,1,.6-2.808,4.685,4.685,0,0,1,1.68-1.934,4.223,4.223,0,0,1,2.339-.7,3.957,3.957,0,0,1,3.2,1.357,5.877,5.877,0,0,1,1.143,3.887v.752h-7.158a3.756,3.756,0,0,0,.913,2.524,2.87,2.87,0,0,0,2.222.962,3.147,3.147,0,0,0,1.621-.391,4.073,4.073,0,0,0,1.162-1.035l1.1.859A4.437,4.437,0,0,1,168.384,49.2Zm-.225-9.473a2.41,2.41,0,0,0-1.836.8,3.868,3.868,0,0,0-.918,2.231H170.7v-.137a3.441,3.441,0,0,0-.742-2.134A2.269,2.269,0,0,0,168.159,39.723ZM169.038,34h2.188l-2.617,2.871-1.455,0Zm11.709,12.2a1.33,1.33,0,0,0-.552-1.138,5.311,5.311,0,0,0-1.924-.7,9.1,9.1,0,0,1-2.178-.7,3.1,3.1,0,0,1-1.191-.977,2.336,2.336,0,0,1-.386-1.348,2.741,2.741,0,0,1,1.1-2.2,4.291,4.291,0,0,1,2.808-.9,4.415,4.415,0,0,1,2.915.928,2.947,2.947,0,0,1,1.118,2.373H180.64a1.631,1.631,0,0,0-.63-1.279,2.36,2.36,0,0,0-1.587-.537,2.47,2.47,0,0,0-1.543.43,1.353,1.353,0,0,0-.557,1.123,1.1,1.1,0,0,0,.518.986,6.368,6.368,0,0,0,1.87.635,9.744,9.744,0,0,1,2.192.723,3.2,3.2,0,0,1,1.245,1.011,2.485,2.485,0,0,1,.405,1.44,2.7,2.7,0,0,1-1.133,2.271,4.752,4.752,0,0,1-2.939.854,5.321,5.321,0,0,1-2.246-.449,3.653,3.653,0,0,1-1.528-1.255,3.025,3.025,0,0,1-.552-1.743h1.807a1.87,1.87,0,0,0,.728,1.44,2.822,2.822,0,0,0,1.792.532,2.913,2.913,0,0,0,1.646-.415A1.275,1.275,0,0,0,180.747,46.2Zm4.2,1.855a1.131,1.131,0,0,1,.278-.781,1.061,1.061,0,0,1,.835-.312,1.092,1.092,0,0,1,.845.313,1.109,1.109,0,0,1,.288.781,1.048,1.048,0,0,1-.288.752,1.112,1.112,0,0,1-.845.3,1,1,0,0,1-1.113-1.055ZM13.7,68.434l.088,1.221a3.689,3.689,0,0,1,3.037-1.416,3.066,3.066,0,0,1,2.5.986,4.6,4.6,0,0,1,.84,2.949V79H17.344V72.242a1.831,1.831,0,0,0-.391-1.3,1.749,1.749,0,0,0-1.3-.405,1.942,1.942,0,0,0-1.787,1.016V79H11.045V68.434Zm8.74,9.18A1.421,1.421,0,0,1,22.9,76.52a1.764,1.764,0,0,1,2.285,0,1.421,1.421,0,0,1,.454,1.094,1.4,1.4,0,0,1-.449,1.079,1.794,1.794,0,0,1-2.295,0A1.4,1.4,0,0,1,22.441,77.613Zm0-8a1.421,1.421,0,0,1,.454-1.094,1.764,1.764,0,0,1,2.285,0,1.421,1.421,0,0,1,.454,1.094,1.4,1.4,0,0,1-.449,1.079,1.794,1.794,0,0,1-2.295,0A1.4,1.4,0,0,1,22.441,69.615Zm12.48-1.182.059,1.328a3.851,3.851,0,0,1,3.164-1.523q3.35,0,3.379,3.779V79H39.717V72.008a2.432,2.432,0,0,0-.522-1.689,2.094,2.094,0,0,0-1.6-.547,2.607,2.607,0,0,0-1.543.469,3.183,3.183,0,0,0-1.035,1.23V79H33.213V68.434Zm15.85,9.521a3.837,3.837,0,0,1-3.1,1.24,3.285,3.285,0,0,1-2.573-.981,4.248,4.248,0,0,1-.894-2.905V68.434h1.807V75.26q0,2.4,1.953,2.4a2.7,2.7,0,0,0,2.754-1.543V68.434h1.807V79H50.811ZM49.307,64h2.188l-2.617,2.871-1.455,0Zm7.666,4.434.049,1.172a3.9,3.9,0,0,1,3.135-1.367,3.021,3.021,0,0,1,3.018,1.7,4,4,0,0,1,1.372-1.23,4.052,4.052,0,0,1,2-.469q3.477,0,3.535,3.682V79H68.271V72.027a2.426,2.426,0,0,0-.518-1.694,2.279,2.279,0,0,0-1.738-.562,2.4,2.4,0,0,0-1.67.6,2.436,2.436,0,0,0-.771,1.616V79H61.758V72.076a2.016,2.016,0,0,0-2.256-2.3,2.417,2.417,0,0,0-2.432,1.514V79H55.264V68.434ZM77.188,79.2a4.617,4.617,0,0,1-3.5-1.411,5.237,5.237,0,0,1-1.348-3.774v-.332a6.341,6.341,0,0,1,.6-2.808,4.685,4.685,0,0,1,1.68-1.934,4.223,4.223,0,0,1,2.339-.7,3.957,3.957,0,0,1,3.2,1.357,5.877,5.877,0,0,1,1.143,3.887v.752H74.15a3.756,3.756,0,0,0,.913,2.524,2.87,2.87,0,0,0,2.222.962,3.147,3.147,0,0,0,1.621-.391,4.073,4.073,0,0,0,1.162-1.035l1.1.859A4.437,4.437,0,0,1,77.188,79.2Zm-.225-9.473a2.41,2.41,0,0,0-1.836.8,3.869,3.869,0,0,0-.918,2.231H79.5v-.137a3.441,3.441,0,0,0-.742-2.134A2.269,2.269,0,0,0,76.963,69.723Zm11.543.332a5.414,5.414,0,0,0-.889-.068A2.381,2.381,0,0,0,85.205,71.5V79H83.4V68.434h1.758l.029,1.221a2.813,2.813,0,0,1,2.52-1.416,1.846,1.846,0,0,1,.8.137Zm.986,3.564a6.241,6.241,0,0,1,.61-2.793,4.553,4.553,0,0,1,1.7-1.914,4.626,4.626,0,0,1,2.485-.674,4.456,4.456,0,0,1,3.491,1.494,5.748,5.748,0,0,1,1.333,3.975v.127a6.3,6.3,0,0,1-.591,2.769,4.486,4.486,0,0,1-1.689,1.909,4.679,4.679,0,0,1-2.524.684A4.445,4.445,0,0,1,90.825,77.7a5.719,5.719,0,0,1-1.333-3.955Zm1.816.215a4.52,4.52,0,0,0,.815,2.822,2.763,2.763,0,0,0,4.37-.015,4.943,4.943,0,0,0,.811-3.022,4.513,4.513,0,0,0-.825-2.817,2.623,2.623,0,0,0-2.192-1.079,2.594,2.594,0,0,0-2.158,1.064A4.906,4.906,0,0,0,91.309,73.834Zm14.58-.205a6.19,6.19,0,0,1,1.152-3.911,3.921,3.921,0,0,1,5.957-.21V64H114.8V79h-1.66l-.088-1.133a3.679,3.679,0,0,1-3.018,1.328,3.609,3.609,0,0,1-2.993-1.5,6.26,6.26,0,0,1-1.157-3.926Zm1.807.205a4.687,4.687,0,0,0,.742,2.813,2.4,2.4,0,0,0,2.051,1.016A2.636,2.636,0,0,0,113,76.119V71.266a2.656,2.656,0,0,0-2.49-1.494,2.411,2.411,0,0,0-2.07,1.025A5.16,5.16,0,0,0,107.7,73.834Zm14.3,5.361a4.617,4.617,0,0,1-3.5-1.411,5.237,5.237,0,0,1-1.348-3.774v-.332a6.341,6.341,0,0,1,.6-2.808,4.685,4.685,0,0,1,1.68-1.934,4.223,4.223,0,0,1,2.339-.7,3.957,3.957,0,0,1,3.2,1.357,5.877,5.877,0,0,1,1.143,3.887v.752h-7.158a3.756,3.756,0,0,0,.913,2.524,2.87,2.87,0,0,0,2.222.962,3.147,3.147,0,0,0,1.621-.391,4.073,4.073,0,0,0,1.162-1.035l1.1.859A4.437,4.437,0,0,1,121.992,79.2Zm-.225-9.473a2.41,2.41,0,0,0-1.836.8,3.869,3.869,0,0,0-.918,2.231h5.293v-.137a3.441,3.441,0,0,0-.742-2.134A2.269,2.269,0,0,0,121.768,69.723Zm20.313,4.111a6.327,6.327,0,0,1-1.1,3.887,3.537,3.537,0,0,1-2.988,1.475,3.875,3.875,0,0,1-3.027-1.221v5.088h-1.807V68.434h1.65l.088,1.172a3.722,3.722,0,0,1,3.066-1.367,3.6,3.6,0,0,1,3.013,1.436,6.4,6.4,0,0,1,1.108,3.994Zm-1.807-.205a4.669,4.669,0,0,0-.762-2.822,2.454,2.454,0,0,0-2.09-1.035,2.656,2.656,0,0,0-2.461,1.455v5.049a2.661,2.661,0,0,0,2.48,1.445,2.442,2.442,0,0,0,2.065-1.03A5.1,5.1,0,0,0,140.273,73.629ZM148.76,79.2a4.617,4.617,0,0,1-3.5-1.411,5.237,5.237,0,0,1-1.348-3.774v-.332a6.341,6.341,0,0,1,.6-2.808,4.685,4.685,0,0,1,1.68-1.934,4.223,4.223,0,0,1,2.339-.7,3.957,3.957,0,0,1,3.2,1.357,5.877,5.877,0,0,1,1.143,3.887v.752h-7.158a3.756,3.756,0,0,0,.913,2.524,2.87,2.87,0,0,0,2.222.962,3.147,3.147,0,0,0,1.621-.391,4.073,4.073,0,0,0,1.162-1.035l1.1.859A4.437,4.437,0,0,1,148.76,79.2Zm-.225-9.473a2.41,2.41,0,0,0-1.836.8,3.868,3.868,0,0,0-.918,2.231h5.293v-.137a3.441,3.441,0,0,0-.742-2.134A2.269,2.269,0,0,0,148.535,69.723Zm11.543.332a5.414,5.414,0,0,0-.889-.068,2.381,2.381,0,0,0-2.412,1.514V79h-1.807V68.434h1.758l.029,1.221a2.813,2.813,0,0,1,2.52-1.416,1.846,1.846,0,0,1,.8.137ZM163.7,79h-1.816V68.434H163.7Zm.02-14.99h2.188l-2.617,2.871-1.455,0Zm2.48,9.609a6.241,6.241,0,0,1,.61-2.793,4.553,4.553,0,0,1,1.7-1.914A4.626,4.626,0,0,1,171,68.238a4.456,4.456,0,0,1,3.491,1.494,5.748,5.748,0,0,1,1.333,3.975v.127a6.3,6.3,0,0,1-.591,2.769,4.486,4.486,0,0,1-1.689,1.909,4.679,4.679,0,0,1-2.524.684,4.445,4.445,0,0,1-3.481-1.494,5.719,5.719,0,0,1-1.333-3.955Zm1.816.215a4.52,4.52,0,0,0,.815,2.822,2.763,2.763,0,0,0,4.37-.015,4.943,4.943,0,0,0,.811-3.022,4.513,4.513,0,0,0-.825-2.817A2.623,2.623,0,0,0,171,69.723a2.594,2.594,0,0,0-2.158,1.064A4.906,4.906,0,0,0,168.018,73.834Zm9.629-.205a6.19,6.19,0,0,1,1.152-3.911,3.921,3.921,0,0,1,5.957-.21V64h1.807V79H184.9l-.088-1.133A3.679,3.679,0,0,1,181.8,79.2a3.609,3.609,0,0,1-2.993-1.5,6.26,6.26,0,0,1-1.157-3.926Zm1.807.205a4.687,4.687,0,0,0,.742,2.813,2.4,2.4,0,0,0,2.051,1.016,2.636,2.636,0,0,0,2.51-1.543V71.266a2.656,2.656,0,0,0-2.49-1.494A2.411,2.411,0,0,0,180.2,70.8,5.16,5.16,0,0,0,179.453,73.834Zm9.434-.215a6.241,6.241,0,0,1,.61-2.793,4.553,4.553,0,0,1,1.7-1.914,4.626,4.626,0,0,1,2.485-.674,4.456,4.456,0,0,1,3.491,1.494,5.748,5.748,0,0,1,1.333,3.975v.127a6.3,6.3,0,0,1-.591,2.769,4.486,4.486,0,0,1-1.689,1.909,4.679,4.679,0,0,1-2.524.684A4.445,4.445,0,0,1,190.22,77.7a5.719,5.719,0,0,1-1.333-3.955Zm1.816.215a4.52,4.52,0,0,0,.815,2.822,2.763,2.763,0,0,0,4.37-.015,4.943,4.943,0,0,0,.811-3.022,4.513,4.513,0,0,0-.825-2.817,2.623,2.623,0,0,0-2.192-1.079,2.594,2.594,0,0,0-2.158,1.064A4.906,4.906,0,0,0,190.7,73.834ZM206.924,76.2a1.33,1.33,0,0,0-.552-1.138,5.311,5.311,0,0,0-1.924-.7,9.1,9.1,0,0,1-2.178-.7,3.1,3.1,0,0,1-1.191-.977,2.336,2.336,0,0,1-.386-1.348,2.741,2.741,0,0,1,1.1-2.2,4.29,4.29,0,0,1,2.808-.9,4.415,4.415,0,0,1,2.915.928,2.947,2.947,0,0,1,1.118,2.373h-1.816a1.631,1.631,0,0,0-.63-1.279,2.36,2.36,0,0,0-1.587-.537,2.47,2.47,0,0,0-1.543.43,1.353,1.353,0,0,0-.557,1.123,1.1,1.1,0,0,0,.518.986,6.368,6.368,0,0,0,1.87.635,9.744,9.744,0,0,1,2.192.723,3.2,3.2,0,0,1,1.245,1.011,2.485,2.485,0,0,1,.405,1.44,2.7,2.7,0,0,1-1.133,2.271,4.752,4.752,0,0,1-2.939.854,5.321,5.321,0,0,1-2.246-.449,3.653,3.653,0,0,1-1.528-1.255,3.025,3.025,0,0,1-.552-1.743h1.807a1.87,1.87,0,0,0,.728,1.44,2.822,2.822,0,0,0,1.792.532,2.913,2.913,0,0,0,1.646-.415A1.275,1.275,0,0,0,206.924,76.2Zm4.2,1.855a1.131,1.131,0,0,1,.278-.781,1.061,1.061,0,0,1,.835-.312,1.092,1.092,0,0,1,.845.313,1.109,1.109,0,0,1,.288.781,1.048,1.048,0,0,1-.288.752,1.112,1.112,0,0,1-.845.3,1,1,0,0,1-1.113-1.055Z" transform="translate(-3221 -10902.066)" fill="#12263f"/>
  </g>
</svg>
