<svg xmlns="http://www.w3.org/2000/svg" xmlns:xlink="http://www.w3.org/1999/xlink" width="400" height="264" viewBox="0 0 400 264">
  <defs>
    <clipPath id="clip-path">
      <rect id="Rectángulo_296854" data-name="Rectángulo 296854" width="98.519" height="151.076" fill="none"/>
    </clipPath>
  </defs>
  <g id="Grupo_1072882" data-name="Grupo 1072882" transform="translate(3149 8486)">
    <rect id="Rectángulo_377686" data-name="Rectángulo 377686" width="400" height="264" transform="translate(-3149 -8486)" fill="#fff"/>
    <rect id="Rectángulo_296855" data-name="Rectángulo 296855" width="376" height="236" rx="5" transform="translate(-3136 -8474)" fill="#f6f6f6"/>
    <rect id="Rectángulo_377689" data-name="Rectángulo 377689" width="296" height="98.5" transform="translate(-3069.5 -8379.656)" fill="#03386e"/>
    <path id="Trazado_612827" data-name="Trazado 612827" d="M6.97,13.827,9.87,4.2h2.936L8.35,17H5.6L1.16,4.2H4.087ZM18.949,17a2.821,2.821,0,0,1-.255-.853,3.073,3.073,0,0,1-2.4,1.028,3.376,3.376,0,0,1-2.316-.809,2.6,2.6,0,0,1-.918-2.039,2.687,2.687,0,0,1,1.121-2.32,5.529,5.529,0,0,1,3.239-.817h1.169v-.545a1.567,1.567,0,0,0-.338-1.055,1.331,1.331,0,0,0-1.068-.4,1.513,1.513,0,0,0-1.006.308,1.045,1.045,0,0,0-.365.844h-2.54a2.551,2.551,0,0,1,.51-1.529,3.37,3.37,0,0,1,1.441-1.1,5.253,5.253,0,0,1,2.092-.4A4.15,4.15,0,0,1,20.1,8.2a3.09,3.09,0,0,1,1.033,2.483V14.8a4.546,4.546,0,0,0,.378,2.048V17Zm-2.1-1.767a2.188,2.188,0,0,0,1.037-.25,1.645,1.645,0,0,0,.7-.672V12.676H17.64q-1.907,0-2.03,1.318l-.009.149a1.017,1.017,0,0,0,.334.782A1.3,1.3,0,0,0,16.849,15.233ZM25.77,17H23.221V3.5H25.77Zm1.7-4.843a5.64,5.64,0,0,1,.545-2.522A3.989,3.989,0,0,1,29.58,7.921a4.577,4.577,0,0,1,2.377-.606A4.33,4.33,0,0,1,35.1,8.492a4.727,4.727,0,0,1,1.358,3.2l.018.65a4.97,4.97,0,0,1-1.222,3.511,4.247,4.247,0,0,1-3.278,1.323,4.268,4.268,0,0,1-3.283-1.318,5.058,5.058,0,0,1-1.226-3.586Zm2.54.18a3.555,3.555,0,0,0,.51,2.073,1.831,1.831,0,0,0,2.9.009,3.89,3.89,0,0,0,.519-2.267,3.519,3.519,0,0,0-.519-2.06,1.686,1.686,0,0,0-1.459-.731,1.658,1.658,0,0,0-1.441.726A3.955,3.955,0,0,0,30.006,12.338ZM43.383,9.872a6.9,6.9,0,0,0-.914-.07,1.86,1.86,0,0,0-1.89.976V17h-2.54V7.49h2.4l.07,1.134a2.354,2.354,0,0,1,2.118-1.31,2.662,2.662,0,0,1,.791.114Zm8.508,2.619V17H49.254V4.2h4.992a5.776,5.776,0,0,1,2.536.527,3.886,3.886,0,0,1,1.683,1.5,4.178,4.178,0,0,1,.589,2.21,3.674,3.674,0,0,1-1.288,2.966A5.363,5.363,0,0,1,54.2,12.491Zm0-2.136h2.355a2.316,2.316,0,0,0,1.6-.492,1.79,1.79,0,0,0,.549-1.406,2.111,2.111,0,0,0-.554-1.521,2.068,2.068,0,0,0-1.529-.6H51.891Zm14.15-.483a6.9,6.9,0,0,0-.914-.07,1.86,1.86,0,0,0-1.89.976V17H60.7V7.49h2.4l.07,1.134a2.354,2.354,0,0,1,2.118-1.31,2.662,2.662,0,0,1,.791.114Zm5.432,7.3a4.668,4.668,0,0,1-3.406-1.283,4.561,4.561,0,0,1-1.314-3.419v-.246a5.745,5.745,0,0,1,.554-2.562,4.064,4.064,0,0,1,1.569-1.74,4.4,4.4,0,0,1,2.316-.611,3.947,3.947,0,0,1,3.072,1.23,5,5,0,0,1,1.121,3.489v1.037H69.328a2.36,2.36,0,0,0,.743,1.494,2.245,2.245,0,0,0,1.569.563,2.742,2.742,0,0,0,2.294-1.063l1.248,1.4a3.813,3.813,0,0,1-1.547,1.261A5.075,5.075,0,0,1,71.473,17.176Zm-.29-7.813a1.587,1.587,0,0,0-1.226.512,2.651,2.651,0,0,0-.6,1.466h3.533v-.2a1.891,1.891,0,0,0-.457-1.311A1.638,1.638,0,0,0,71.183,9.362Zm10.793,5.01a.818.818,0,0,0-.461-.734,5.241,5.241,0,0,0-1.481-.479q-3.393-.712-3.393-2.883a2.613,2.613,0,0,1,1.05-2.114,4.237,4.237,0,0,1,2.747-.848,4.56,4.56,0,0,1,2.9.853,2.687,2.687,0,0,1,1.085,2.215h-2.54a1.229,1.229,0,0,0-.352-.9,1.488,1.488,0,0,0-1.1-.356,1.52,1.52,0,0,0-.993.29.916.916,0,0,0-.352.738.783.783,0,0,0,.4.681,4.114,4.114,0,0,0,1.349.448,11.019,11.019,0,0,1,1.6.426,2.628,2.628,0,0,1,2.013,2.558,2.481,2.481,0,0,1-1.116,2.1,4.815,4.815,0,0,1-2.883.8,5.029,5.029,0,0,1-2.123-.426,3.561,3.561,0,0,1-1.455-1.169,2.716,2.716,0,0,1-.527-1.6H78.75a1.326,1.326,0,0,0,.5,1.037,1.987,1.987,0,0,0,1.248.36,1.839,1.839,0,0,0,1.1-.277A.861.861,0,0,0,81.976,14.372Zm8.481,2.8a4.668,4.668,0,0,1-3.406-1.283,4.561,4.561,0,0,1-1.314-3.419v-.246a5.745,5.745,0,0,1,.554-2.562,4.064,4.064,0,0,1,1.569-1.74,4.4,4.4,0,0,1,2.316-.611,3.947,3.947,0,0,1,3.072,1.23,5,5,0,0,1,1.121,3.489v1.037H88.313a2.36,2.36,0,0,0,.743,1.494,2.245,2.245,0,0,0,1.569.563,2.742,2.742,0,0,0,2.294-1.063l1.248,1.4a3.813,3.813,0,0,1-1.547,1.261A5.075,5.075,0,0,1,90.457,17.176Zm-.29-7.813a1.587,1.587,0,0,0-1.226.512,2.651,2.651,0,0,0-.6,1.466h3.533v-.2a1.891,1.891,0,0,0-.457-1.311A1.638,1.638,0,0,0,90.167,9.362Zm7.98-1.872.079,1.1a3.32,3.32,0,0,1,2.733-1.274,2.759,2.759,0,0,1,2.25.888,4.142,4.142,0,0,1,.756,2.654V17h-2.54V10.918a1.648,1.648,0,0,0-.352-1.173,1.574,1.574,0,0,0-1.169-.365,1.747,1.747,0,0,0-1.608.914V17h-2.54V7.49Zm10.784-2.338V7.49h1.626V9.354h-1.626V14.1a1.133,1.133,0,0,0,.2.756,1.015,1.015,0,0,0,.773.229,4.051,4.051,0,0,0,.747-.062v1.925a5.229,5.229,0,0,1-1.538.229,2.425,2.425,0,0,1-2.725-2.7V9.354H105V7.49h1.389V5.152Zm7.418,12.023a4.668,4.668,0,0,1-3.406-1.283,4.561,4.561,0,0,1-1.314-3.419v-.246a5.745,5.745,0,0,1,.554-2.562,4.064,4.064,0,0,1,1.569-1.74,4.4,4.4,0,0,1,2.316-.611,3.947,3.947,0,0,1,3.072,1.23,5,5,0,0,1,1.121,3.489v1.037h-6.056a2.36,2.36,0,0,0,.743,1.494,2.245,2.245,0,0,0,1.569.563,2.742,2.742,0,0,0,2.294-1.063l1.248,1.4a3.813,3.813,0,0,1-1.547,1.261A5.075,5.075,0,0,1,116.35,17.176Zm-.29-7.813a1.587,1.587,0,0,0-1.226.512,2.651,2.651,0,0,0-.6,1.466h3.533v-.2a1.891,1.891,0,0,0-.457-1.311A1.638,1.638,0,0,0,116.06,9.362Zm9.729,2.813a5.731,5.731,0,0,1,1-3.542,3.237,3.237,0,0,1,2.729-1.318,2.913,2.913,0,0,1,2.294,1.037V3.5h2.549V17h-2.294l-.123-1.011a2.989,2.989,0,0,1-2.443,1.187,3.228,3.228,0,0,1-2.694-1.323A5.916,5.916,0,0,1,125.789,12.175Zm2.54.189a3.754,3.754,0,0,0,.466,2.051,1.517,1.517,0,0,0,1.354.713,1.7,1.7,0,0,0,1.661-.995V10.375a1.675,1.675,0,0,0-1.644-.995Q128.329,9.38,128.329,12.364ZM140.7,17.176a4.668,4.668,0,0,1-3.406-1.283,4.561,4.561,0,0,1-1.314-3.419v-.246a5.745,5.745,0,0,1,.554-2.562,4.064,4.064,0,0,1,1.569-1.74,4.4,4.4,0,0,1,2.316-.611,3.947,3.947,0,0,1,3.072,1.23,5,5,0,0,1,1.121,3.489v1.037H138.56a2.36,2.36,0,0,0,.743,1.494,2.245,2.245,0,0,0,1.569.563,2.742,2.742,0,0,0,2.294-1.063l1.248,1.4a3.813,3.813,0,0,1-1.547,1.261A5.075,5.075,0,0,1,140.7,17.176Zm-.29-7.813a1.587,1.587,0,0,0-1.226.512,2.651,2.651,0,0,0-.6,1.466h3.533v-.2a1.891,1.891,0,0,0-.457-1.311A1.638,1.638,0,0,0,140.414,9.362Zm15.82,6.671a3.185,3.185,0,0,1-2.6,1.143A3,3,0,0,1,151.3,16.3a3.752,3.752,0,0,1-.822-2.575V7.49h2.54v6.151q0,1.487,1.354,1.487a1.834,1.834,0,0,0,1.775-.9V7.49H158.7V17H156.3Zm6.715-8.543.079,1.1a3.32,3.32,0,0,1,2.733-1.274,2.759,2.759,0,0,1,2.25.888,4.142,4.142,0,0,1,.756,2.654V17h-2.54V10.918a1.648,1.648,0,0,0-.352-1.173,1.574,1.574,0,0,0-1.169-.365,1.747,1.747,0,0,0-1.608.914V17h-2.54V7.49ZM176.2,17a2.821,2.821,0,0,1-.255-.853,3.073,3.073,0,0,1-2.4,1.028,3.376,3.376,0,0,1-2.316-.809,2.6,2.6,0,0,1-.918-2.039,2.687,2.687,0,0,1,1.121-2.32,5.529,5.529,0,0,1,3.239-.817h1.169v-.545a1.567,1.567,0,0,0-.338-1.055,1.331,1.331,0,0,0-1.068-.4,1.513,1.513,0,0,0-1.006.308,1.045,1.045,0,0,0-.365.844h-2.54a2.551,2.551,0,0,1,.51-1.529,3.37,3.37,0,0,1,1.441-1.1,5.253,5.253,0,0,1,2.092-.4,4.15,4.15,0,0,1,2.791.883,3.09,3.09,0,0,1,1.033,2.483V14.8a4.546,4.546,0,0,0,.378,2.048V17Zm-2.1-1.767a2.188,2.188,0,0,0,1.037-.25,1.645,1.645,0,0,0,.7-.672V12.676h-.949q-1.907,0-2.03,1.318l-.009.149a1.017,1.017,0,0,0,.334.782A1.3,1.3,0,0,0,174.1,15.233Zm15.873-.861a.818.818,0,0,0-.461-.734,5.241,5.241,0,0,0-1.481-.479q-3.393-.712-3.393-2.883a2.613,2.613,0,0,1,1.05-2.114,4.237,4.237,0,0,1,2.747-.848,4.56,4.56,0,0,1,2.9.853,2.687,2.687,0,0,1,1.085,2.215h-2.54a1.229,1.229,0,0,0-.352-.9,1.488,1.488,0,0,0-1.1-.356,1.52,1.52,0,0,0-.993.29.916.916,0,0,0-.352.738.783.783,0,0,0,.4.681,4.114,4.114,0,0,0,1.349.448,11.019,11.019,0,0,1,1.6.426,2.628,2.628,0,0,1,2.013,2.558,2.481,2.481,0,0,1-1.116,2.1,4.815,4.815,0,0,1-2.883.8,5.029,5.029,0,0,1-2.123-.426,3.561,3.561,0,0,1-1.455-1.169,2.716,2.716,0,0,1-.527-1.6h2.408a1.326,1.326,0,0,0,.5,1.037,1.987,1.987,0,0,0,1.248.36,1.839,1.839,0,0,0,1.1-.277A.861.861,0,0,0,189.976,14.372Zm8.481,2.8a4.668,4.668,0,0,1-3.406-1.283,4.561,4.561,0,0,1-1.314-3.419v-.246a5.745,5.745,0,0,1,.554-2.562,4.064,4.064,0,0,1,1.569-1.74,4.4,4.4,0,0,1,2.316-.611,3.947,3.947,0,0,1,3.072,1.23,5,5,0,0,1,1.121,3.489v1.037h-6.056a2.36,2.36,0,0,0,.743,1.494,2.245,2.245,0,0,0,1.569.563,2.742,2.742,0,0,0,2.294-1.063l1.248,1.4a3.813,3.813,0,0,1-1.547,1.261A5.075,5.075,0,0,1,198.457,17.176Zm-.29-7.813a1.587,1.587,0,0,0-1.226.512,2.651,2.651,0,0,0-.6,1.466h3.533v-.2a1.891,1.891,0,0,0-.457-1.311A1.638,1.638,0,0,0,198.167,9.362Zm10.986.51a6.9,6.9,0,0,0-.914-.07,1.86,1.86,0,0,0-1.89.976V17h-2.54V7.49h2.4l.07,1.134a2.354,2.354,0,0,1,2.118-1.31,2.662,2.662,0,0,1,.791.114Zm3.9,7.128h-2.549V7.49h2.549Zm-2.7-11.971a1.251,1.251,0,0,1,.382-.94,1.648,1.648,0,0,1,2.079,0,1.244,1.244,0,0,1,.387.94,1.247,1.247,0,0,1-.391.949,1.629,1.629,0,0,1-2.065,0A1.247,1.247,0,0,1,210.357,5.029Zm9.167,12.146a4.668,4.668,0,0,1-3.406-1.283,4.561,4.561,0,0,1-1.314-3.419v-.246a5.745,5.745,0,0,1,.554-2.562,4.064,4.064,0,0,1,1.569-1.74,4.4,4.4,0,0,1,2.316-.611,3.947,3.947,0,0,1,3.072,1.23,5,5,0,0,1,1.121,3.489v1.037H217.38a2.36,2.36,0,0,0,.743,1.494,2.245,2.245,0,0,0,1.569.563,2.742,2.742,0,0,0,2.294-1.063l1.248,1.4a3.813,3.813,0,0,1-1.547,1.261A5.075,5.075,0,0,1,219.524,17.176Zm-.29-7.813a1.587,1.587,0,0,0-1.226.512,2.651,2.651,0,0,0-.6,1.466h3.533v-.2a1.891,1.891,0,0,0-.457-1.311A1.638,1.638,0,0,0,219.234,9.362ZM15.06,36.175a5.731,5.731,0,0,1,1-3.542,3.237,3.237,0,0,1,2.729-1.318,2.913,2.913,0,0,1,2.294,1.037V27.5h2.549V41H21.335l-.123-1.011a2.989,2.989,0,0,1-2.443,1.187,3.228,3.228,0,0,1-2.694-1.323A5.916,5.916,0,0,1,15.06,36.175Zm2.54.189a3.754,3.754,0,0,0,.466,2.051,1.517,1.517,0,0,0,1.354.713,1.7,1.7,0,0,0,1.661-.995V34.375a1.675,1.675,0,0,0-1.644-.995Q17.6,33.38,17.6,36.364Zm12.375,4.812a4.668,4.668,0,0,1-3.406-1.283,4.561,4.561,0,0,1-1.314-3.419v-.246a5.745,5.745,0,0,1,.554-2.562,4.064,4.064,0,0,1,1.569-1.74,4.4,4.4,0,0,1,2.316-.611,3.947,3.947,0,0,1,3.072,1.23,5,5,0,0,1,1.121,3.489v1.037H27.831a2.36,2.36,0,0,0,.743,1.494,2.245,2.245,0,0,0,1.569.563,2.742,2.742,0,0,0,2.294-1.063l1.248,1.4a3.813,3.813,0,0,1-1.547,1.261A5.075,5.075,0,0,1,29.975,41.176Zm-.29-7.813a1.587,1.587,0,0,0-1.226.512,2.651,2.651,0,0,0-.6,1.466H31.39v-.2a1.891,1.891,0,0,0-.457-1.311A1.638,1.638,0,0,0,29.685,33.362Zm14.08,5.766a1.666,1.666,0,0,0,1.143-.387,1.355,1.355,0,0,0,.457-1.028h2.382a3.258,3.258,0,0,1-.527,1.771A3.48,3.48,0,0,1,45.8,40.732a4.442,4.442,0,0,1-1.991.444,4.129,4.129,0,0,1-3.217-1.3A5.13,5.13,0,0,1,39.415,36.3v-.167a5.071,5.071,0,0,1,1.169-3.507,4.08,4.08,0,0,1,3.208-1.31,4,4,0,0,1,2.861,1.015,3.594,3.594,0,0,1,1.094,2.7H45.365a1.745,1.745,0,0,0-.457-1.206,1.7,1.7,0,0,0-2.5.183,3.749,3.749,0,0,0-.453,2.1v.264a3.8,3.8,0,0,0,.448,2.113A1.549,1.549,0,0,0,43.765,39.128Zm11.127.905a3.185,3.185,0,0,1-2.6,1.143,3,3,0,0,1-2.333-.879,3.752,3.752,0,0,1-.822-2.575V31.49h2.54v6.151q0,1.487,1.354,1.487a1.834,1.834,0,0,0,1.775-.9V31.49h2.549V41H54.962Zm3.981-3.876a5.64,5.64,0,0,1,.545-2.522,3.989,3.989,0,0,1,1.569-1.714,4.577,4.577,0,0,1,2.377-.606,4.33,4.33,0,0,1,3.142,1.178,4.727,4.727,0,0,1,1.358,3.2l.018.65a4.97,4.97,0,0,1-1.222,3.511,4.735,4.735,0,0,1-6.561,0,5.058,5.058,0,0,1-1.226-3.586Zm2.54.18a3.555,3.555,0,0,0,.51,2.073,1.831,1.831,0,0,0,2.9.009,3.89,3.89,0,0,0,.519-2.267,3.519,3.519,0,0,0-.519-2.06,1.686,1.686,0,0,0-1.459-.731,1.658,1.658,0,0,0-1.441.726A3.955,3.955,0,0,0,61.414,36.338Zm11.074-7.185V31.49h1.626v1.863H72.488V38.1a1.133,1.133,0,0,0,.2.756,1.015,1.015,0,0,0,.773.229,4.051,4.051,0,0,0,.747-.062v1.925a5.229,5.229,0,0,1-1.538.229,2.425,2.425,0,0,1-2.725-2.7V33.354H68.559V31.49h1.389V29.152ZM81.04,41a2.821,2.821,0,0,1-.255-.853,3.073,3.073,0,0,1-2.4,1.028,3.376,3.376,0,0,1-2.316-.809,2.6,2.6,0,0,1-.918-2.039,2.687,2.687,0,0,1,1.121-2.32,5.529,5.529,0,0,1,3.239-.817h1.169v-.545a1.567,1.567,0,0,0-.338-1.055,1.331,1.331,0,0,0-1.068-.4,1.513,1.513,0,0,0-1.006.308,1.045,1.045,0,0,0-.365.844h-2.54a2.551,2.551,0,0,1,.51-1.529,3.37,3.37,0,0,1,1.441-1.1,5.253,5.253,0,0,1,2.092-.4A4.15,4.15,0,0,1,82.2,32.2a3.09,3.09,0,0,1,1.033,2.483V38.8a4.546,4.546,0,0,0,.378,2.048V41Zm-2.1-1.767a2.188,2.188,0,0,0,1.037-.25,1.645,1.645,0,0,0,.7-.672V36.676H79.73q-1.907,0-2.03,1.318l-.009.149a1.017,1.017,0,0,0,.334.782A1.3,1.3,0,0,0,78.939,39.233Zm11.391-.861a.818.818,0,0,0-.461-.734,5.241,5.241,0,0,0-1.481-.479q-3.393-.712-3.393-2.883a2.613,2.613,0,0,1,1.05-2.114,4.237,4.237,0,0,1,2.747-.848,4.56,4.56,0,0,1,2.9.853,2.687,2.687,0,0,1,1.085,2.215h-2.54a1.229,1.229,0,0,0-.352-.9,1.488,1.488,0,0,0-1.1-.356,1.52,1.52,0,0,0-.993.29.916.916,0,0,0-.352.738.783.783,0,0,0,.4.681,4.114,4.114,0,0,0,1.349.448,11.019,11.019,0,0,1,1.6.426A2.628,2.628,0,0,1,92.8,38.267a2.481,2.481,0,0,1-1.116,2.1,4.815,4.815,0,0,1-2.883.8,5.029,5.029,0,0,1-2.123-.426,3.561,3.561,0,0,1-1.455-1.169,2.716,2.716,0,0,1-.527-1.6H87.1a1.326,1.326,0,0,0,.5,1.037,1.987,1.987,0,0,0,1.248.36,1.839,1.839,0,0,0,1.1-.277A.861.861,0,0,0,90.33,38.372Zm8.191-2.215a5.64,5.64,0,0,1,.545-2.522,3.989,3.989,0,0,1,1.569-1.714,4.577,4.577,0,0,1,2.377-.606,4.33,4.33,0,0,1,3.142,1.178,4.727,4.727,0,0,1,1.358,3.2l.018.65a4.97,4.97,0,0,1-1.222,3.511,4.735,4.735,0,0,1-6.561,0,5.058,5.058,0,0,1-1.226-3.586Zm2.54.18a3.555,3.555,0,0,0,.51,2.073,1.831,1.831,0,0,0,2.9.009,3.89,3.89,0,0,0,.519-2.267,3.519,3.519,0,0,0-.519-2.06,1.686,1.686,0,0,0-1.459-.731,1.658,1.658,0,0,0-1.441.726A3.955,3.955,0,0,0,101.061,36.338ZM119.087,41a2.821,2.821,0,0,1-.255-.853,3.073,3.073,0,0,1-2.4,1.028,3.376,3.376,0,0,1-2.316-.809,2.6,2.6,0,0,1-.918-2.039,2.687,2.687,0,0,1,1.121-2.32,5.529,5.529,0,0,1,3.239-.817h1.169v-.545a1.567,1.567,0,0,0-.338-1.055,1.331,1.331,0,0,0-1.068-.4,1.513,1.513,0,0,0-1.006.308,1.045,1.045,0,0,0-.365.844h-2.54a2.551,2.551,0,0,1,.51-1.529,3.37,3.37,0,0,1,1.441-1.1,5.253,5.253,0,0,1,2.092-.4,4.15,4.15,0,0,1,2.791.883,3.09,3.09,0,0,1,1.033,2.483V38.8a4.546,4.546,0,0,0,.378,2.048V41Zm-2.1-1.767a2.188,2.188,0,0,0,1.037-.25,1.645,1.645,0,0,0,.7-.672V36.676h-.949q-1.907,0-2.03,1.318l-.009.149a1.017,1.017,0,0,0,.334.782A1.3,1.3,0,0,0,116.987,39.233Zm8.578-7.743.079,1.1a3.32,3.32,0,0,1,2.733-1.274,2.759,2.759,0,0,1,2.25.888,4.142,4.142,0,0,1,.756,2.654V41h-2.54V34.918a1.648,1.648,0,0,0-.352-1.173,1.574,1.574,0,0,0-1.169-.365,1.747,1.747,0,0,0-1.608.914V41h-2.54V31.49ZM139,40.033a3.185,3.185,0,0,1-2.6,1.143,3,3,0,0,1-2.333-.879,3.752,3.752,0,0,1-.822-2.575V31.49h2.54v6.151q0,1.487,1.354,1.487a1.834,1.834,0,0,0,1.775-.9V31.49h2.549V41h-2.391Zm9.888.967a2.821,2.821,0,0,1-.255-.853,3.073,3.073,0,0,1-2.4,1.028,3.376,3.376,0,0,1-2.316-.809A2.6,2.6,0,0,1,143,38.328a2.687,2.687,0,0,1,1.121-2.32,5.529,5.529,0,0,1,3.239-.817h1.169v-.545a1.567,1.567,0,0,0-.338-1.055,1.331,1.331,0,0,0-1.068-.4,1.513,1.513,0,0,0-1.006.308,1.045,1.045,0,0,0-.365.844h-2.54a2.551,2.551,0,0,1,.51-1.529,3.37,3.37,0,0,1,1.441-1.1,5.253,5.253,0,0,1,2.092-.4,4.15,4.15,0,0,1,2.791.883,3.09,3.09,0,0,1,1.033,2.483V38.8a4.546,4.546,0,0,0,.378,2.048V41Zm-2.1-1.767a2.188,2.188,0,0,0,1.037-.25,1.645,1.645,0,0,0,.7-.672V36.676h-.949q-1.907,0-2.03,1.318l-.009.149a1.017,1.017,0,0,0,.334.782A1.3,1.3,0,0,0,146.791,39.233ZM155.711,41h-2.549V27.5h2.549Zm4.772,0h-2.549V31.49h2.549Zm-2.7-11.971a1.251,1.251,0,0,1,.382-.94,1.648,1.648,0,0,1,2.079,0,1.342,1.342,0,0,1,0,1.89,1.629,1.629,0,0,1-2.065,0A1.247,1.247,0,0,1,157.786,29.029Zm4.395,7.146a5.731,5.731,0,0,1,1-3.542,3.237,3.237,0,0,1,2.729-1.318,2.913,2.913,0,0,1,2.294,1.037V27.5h2.549V41h-2.294l-.123-1.011a2.989,2.989,0,0,1-2.443,1.187,3.228,3.228,0,0,1-2.694-1.323A5.916,5.916,0,0,1,162.18,36.175Zm2.54.189a3.754,3.754,0,0,0,.466,2.051,1.517,1.517,0,0,0,1.354.713,1.7,1.7,0,0,0,1.661-.995V34.375a1.675,1.675,0,0,0-1.644-.995Q164.72,33.38,164.72,36.364ZM178.229,41a2.821,2.821,0,0,1-.255-.853,3.073,3.073,0,0,1-2.4,1.028,3.376,3.376,0,0,1-2.316-.809,2.6,2.6,0,0,1-.918-2.039,2.687,2.687,0,0,1,1.121-2.32,5.529,5.529,0,0,1,3.239-.817h1.169v-.545a1.567,1.567,0,0,0-.338-1.055,1.331,1.331,0,0,0-1.068-.4,1.513,1.513,0,0,0-1.006.308,1.045,1.045,0,0,0-.365.844h-2.54a2.551,2.551,0,0,1,.51-1.529,3.37,3.37,0,0,1,1.441-1.1,5.253,5.253,0,0,1,2.092-.4,4.15,4.15,0,0,1,2.791.883,3.09,3.09,0,0,1,1.033,2.483V38.8a4.546,4.546,0,0,0,.378,2.048V41Zm-2.1-1.767a2.188,2.188,0,0,0,1.037-.25,1.645,1.645,0,0,0,.7-.672V36.676h-.949q-1.907,0-2.03,1.318l-.009.149a1.017,1.017,0,0,0,.334.782A1.3,1.3,0,0,0,176.128,39.233Zm5.845-3.059a5.731,5.731,0,0,1,1-3.542,3.237,3.237,0,0,1,2.729-1.318,2.913,2.913,0,0,1,2.294,1.037V27.5h2.549V41h-2.294l-.123-1.011a2.989,2.989,0,0,1-2.443,1.187,3.228,3.228,0,0,1-2.694-1.323A5.916,5.916,0,0,1,181.973,36.175Zm2.54.189a3.754,3.754,0,0,0,.466,2.051,1.517,1.517,0,0,0,1.354.713,1.7,1.7,0,0,0,1.661-.995V34.375a1.675,1.675,0,0,0-1.644-.995Q184.513,33.38,184.513,36.364Zm12.375,4.812a4.668,4.668,0,0,1-3.406-1.283,4.561,4.561,0,0,1-1.314-3.419v-.246a5.745,5.745,0,0,1,.554-2.562,4.064,4.064,0,0,1,1.569-1.74,4.4,4.4,0,0,1,2.316-.611,3.947,3.947,0,0,1,3.072,1.23,5,5,0,0,1,1.121,3.489v1.037h-6.056a2.36,2.36,0,0,0,.743,1.494,2.245,2.245,0,0,0,1.569.563,2.742,2.742,0,0,0,2.294-1.063l1.248,1.4a3.813,3.813,0,0,1-1.547,1.261A5.075,5.075,0,0,1,196.888,41.176Zm-.29-7.813a1.587,1.587,0,0,0-1.226.512,2.651,2.651,0,0,0-.6,1.466H198.3v-.2a1.891,1.891,0,0,0-.457-1.311A1.638,1.638,0,0,0,196.6,33.362Zm10.793,5.01a.818.818,0,0,0-.461-.734,5.241,5.241,0,0,0-1.481-.479q-3.393-.712-3.393-2.883a2.613,2.613,0,0,1,1.05-2.114,4.237,4.237,0,0,1,2.747-.848,4.56,4.56,0,0,1,2.9.853,2.687,2.687,0,0,1,1.085,2.215h-2.54a1.229,1.229,0,0,0-.352-.9,1.488,1.488,0,0,0-1.1-.356,1.52,1.52,0,0,0-.993.29.916.916,0,0,0-.352.738.783.783,0,0,0,.4.681,4.114,4.114,0,0,0,1.349.448,11.019,11.019,0,0,1,1.6.426,2.628,2.628,0,0,1,2.013,2.558,2.481,2.481,0,0,1-1.116,2.1,4.815,4.815,0,0,1-2.883.8,5.029,5.029,0,0,1-2.123-.426,3.561,3.561,0,0,1-1.455-1.169,2.716,2.716,0,0,1-.527-1.6h2.408a1.326,1.326,0,0,0,.5,1.037,1.987,1.987,0,0,0,1.248.36,1.839,1.839,0,0,0,1.1-.277A.861.861,0,0,0,207.391,38.372Z" transform="translate(-3035 -8444.262)" fill="#12263f"/>
    <g id="Grupo_1072877" data-name="Grupo 1072877" transform="translate(1933.269 -463.708)">
      <g id="Grupo_875560" data-name="Grupo 875560" transform="translate(1442.037 5833.966)">
        <path id="Trazado_612828" data-name="Trazado 612828" d="M5.317,13.99V19H2.388V4.781H7.935a6.417,6.417,0,0,1,2.817.586,4.318,4.318,0,0,1,1.87,1.665,4.643,4.643,0,0,1,.654,2.456,4.083,4.083,0,0,1-1.431,3.3,5.959,5.959,0,0,1-3.96,1.206Zm0-2.373H7.935a2.573,2.573,0,0,0,1.772-.547,1.989,1.989,0,0,0,.61-1.562A2.345,2.345,0,0,0,9.7,7.818,2.3,2.3,0,0,0,8,7.154H5.317Zm23.74.1h-8.73V9.41h8.73Zm0,4.229h-8.73v-2.3h8.73Zm15.664.127H39.585L38.608,19H35.493L40.786,4.781H43.5L48.823,19H45.708ZM40.376,13.7h3.555L42.144,8.375Z" transform="translate(-6386.963 -13715.99)" fill="#fff"/>
        <path id="Trazado_612829" data-name="Trazado 612829" d="M5.485,13.219a14.987,14.987,0,0,1,.6-4.258A11.236,11.236,0,0,1,7.839,5.382a6.564,6.564,0,0,1,2.52-2.163l.547,1.523A6.8,6.8,0,0,0,8.678,8a15.1,15.1,0,0,0-.8,5.156v.3a15.391,15.391,0,0,0,.791,5.176,6.93,6.93,0,0,0,2.236,3.311l-.547,1.494a6.566,6.566,0,0,1-2.476-2.1A11.048,11.048,0,0,1,6.13,17.857a14.9,14.9,0,0,1-.645-4.121ZM19.118,19H16.3V8.121L12.927,9.166V6.871l5.889-2.109h.3Zm15.41-7.959h3.525V13.59H34.528v3.984H31.843V13.59H28.307V11.041h3.535V7.223h2.686ZM47.712,19H44.88V8.434h2.832Zm-3-13.3a1.39,1.39,0,0,1,.425-1.045,1.831,1.831,0,0,1,2.31,0,1.382,1.382,0,0,1,.43,1.045,1.386,1.386,0,0,1-.435,1.055,1.81,1.81,0,0,1-2.295,0A1.386,1.386,0,0,1,44.714,5.7ZM54.9,13.443a14.221,14.221,0,0,1-.635,4.248,11.531,11.531,0,0,1-1.826,3.6,6.579,6.579,0,0,1-2.549,2.148l-.547-1.494a6.867,6.867,0,0,0,2.188-3.223,14.923,14.923,0,0,0,.83-5.01V13.2a15.261,15.261,0,0,0-.8-5.146,7.158,7.158,0,0,0-2.222-3.34l.547-1.494a6.581,6.581,0,0,1,2.5,2.09A11.383,11.383,0,0,1,54.22,8.834,14.12,14.12,0,0,1,54.9,13ZM58.15,5.837l.051.712a2.152,2.152,0,0,1,1.772-.826,1.788,1.788,0,0,1,1.458.575,2.684,2.684,0,0,1,.49,1.72V12H60.275V8.058a1.068,1.068,0,0,0-.228-.76,1.02,1.02,0,0,0-.758-.236,1.133,1.133,0,0,0-1.042.592V12H56.6V5.837Zm15.939,8.212h-5.5V11.773h5.5ZM88.073,19H85.251V8.121L81.882,9.166V6.871l5.889-2.109h.3ZM20.016,49H17.184V38.434h2.832Zm-3-13.3a1.39,1.39,0,0,1,.425-1.045,1.831,1.831,0,0,1,2.31,0,1.491,1.491,0,0,1,0,2.1,1.81,1.81,0,0,1-2.295,0A1.386,1.386,0,0,1,17.018,35.7Zm5.449,7.52a14.987,14.987,0,0,1,.6-4.258,11.236,11.236,0,0,1,1.758-3.579,6.564,6.564,0,0,1,2.52-2.163l.547,1.523A6.8,6.8,0,0,0,25.661,38a15.1,15.1,0,0,0-.8,5.156v.3a15.391,15.391,0,0,0,.791,5.176,6.93,6.93,0,0,0,2.236,3.311l-.547,1.494a6.566,6.566,0,0,1-2.476-2.1,11.048,11.048,0,0,1-1.753-3.481,14.9,14.9,0,0,1-.645-4.121ZM36.1,49H33.278V38.121l-3.369,1.045V36.871L35.8,34.762h.3Zm15.41-7.959h3.525V43.59H51.511v3.984H48.825V43.59H45.29V41.041h3.535V37.223h2.686ZM65.016,49h-2.93V34.781h2.93Zm7.393-5.557a14.221,14.221,0,0,1-.635,4.248,11.531,11.531,0,0,1-1.826,3.6A6.579,6.579,0,0,1,67.4,53.443l-.547-1.494a6.867,6.867,0,0,0,2.188-3.223,14.923,14.923,0,0,0,.83-5.01V43.2a15.261,15.261,0,0,0-.8-5.146,7.158,7.158,0,0,0-2.222-3.34l.547-1.494a6.581,6.581,0,0,1,2.5,2.09,11.383,11.383,0,0,1,1.826,3.525A14.12,14.12,0,0,1,72.409,43Zm3.251-7.607.051.712a2.152,2.152,0,0,1,1.772-.826,1.788,1.788,0,0,1,1.458.575,2.684,2.684,0,0,1,.49,1.72V42H77.785V38.058a1.068,1.068,0,0,0-.228-.76,1.02,1.02,0,0,0-.758-.236,1.133,1.133,0,0,0-1.042.592V42H74.111V35.837Z" transform="translate(-6316.963 -13729.99)" fill="#fff"/>
        <path id="Trazado_585926" data-name="Trazado 585926" d="M-6338.762-12773.541h90.566" transform="translate(23 -925.955)" fill="none" stroke="#fff" stroke-width="2"/>
      </g>
      <path id="Trazado_612830" data-name="Trazado 612830" d="M33.193-48.727H27.038V5.156h6.155v4.9H21.044v-63.68H33.193Z" transform="translate(-4909.463 -7844)" fill="#fff"/>
      <path id="Trazado_612831" data-name="Trazado 612831" d="M.29-53.625H12.472v63.68H.29v-4.9H6.51V-48.727H.29Z" transform="translate(-4780.463 -7844)" fill="#fff"/>
    </g>
    <g id="Grupo_1072875" data-name="Grupo 1072875" transform="translate(-3136 -8543.916)">
      <g id="Grupo_877083" data-name="Grupo 877083" transform="translate(0 129.103)" clip-path="url(#clip-path)">
        <path id="Trazado_588363" data-name="Trazado 588363" d="M100.942,278.6l.395,6.541,16.689-.218s2.589-3.215-5.488-3.215c-1.62,0-1.873-3.433-1.873-3.433Z" transform="translate(-48.631 -134.065)" fill="#afafaf"/>
        <path id="Trazado_588364" data-name="Trazado 588364" d="M35.87,278.6l-.395,6.541-16.689-.218s-2.589-3.215,5.488-3.215c1.62,0,1.873-3.433,1.873-3.433Z" transform="translate(-8.86 -134.065)" fill="#afafaf"/>
        <path id="Trazado_588365" data-name="Trazado 588365" d="M33.318,131.128l-4.39,77.09h13.36l6.248-63.189,1.354-.074L65.8,208.218H77.844L62.729,128.2Z" transform="translate(-13.937 -61.764)" fill="#0076be"/>
        <path id="Trazado_588366" data-name="Trazado 588366" d="M68.028,151.412H65.537L65.127,145l.233-.015.395,6.192h2.273Z" transform="translate(-31.377 -69.851)" fill="#f2f2f2"/>
        <path id="Trazado_588367" data-name="Trazado 588367" d="M100.295,211.8H92.087v-.233h7.925c-.76-3.963-11.434-59.673-11.869-63.11-6.066,1.474-8.428-3.015-8.451-3.061l.208-.106c.023.045,2.342,4.431,8.318,2.908l.146-.037v.15c0,1.232,11.786,62.728,11.905,63.35Z" transform="translate(-38.393 -69.995)" fill="#f2f2f2"/>
        <path id="Trazado_588368" data-name="Trazado 588368" d="M43.444,211.374H32.406l.007-.122c.134-2.5,3.282-61.147,3.747-63.308l.023-.109.11.019c3.268.552,7.028-3.4,7.066-3.442l.17.16c-.155.165-3.805,4-7.159,3.529-.513,3.47-3.554,60-3.717,63.041H43.444Z" transform="translate(-15.612 -69.573)" fill="#f2f2f2"/>
        <path id="Trazado_588369" data-name="Trazado 588369" d="M65.776,28.452l.55,7.8s-6.613,1.57-8.347-.178c-.394-.4.5-9.3.5-9.3Z" transform="translate(-27.884 -12.899)" fill="#f29b89"/>
        <path id="Trazado_588370" data-name="Trazado 588370" d="M69.269,32.485c-1.262-.011-4.463-1.6-4.463-1.6a6.622,6.622,0,0,0,4.534,3.023c-.017-.388-.053-.86-.071-1.428" transform="translate(-31.222 -14.882)" fill="#222753"/>
        <path id="Trazado_588371" data-name="Trazado 588371" d="M67.424,9.3s2.778,10.622-.7,12.361S57,19.232,57,19.232l-1.89-8.853Z" transform="translate(-26.55 -4.482)" fill="#f29b89"/>
        <path id="Trazado_588372" data-name="Trazado 588372" d="M77.9,17.793a.491.491,0,0,0,.4.55c.225,0,.411-.237.416-.538s-.175-.547-.4-.55-.411.237-.416.538" transform="translate(-37.532 -8.313)" fill="#222753"/>
        <path id="Trazado_588373" data-name="Trazado 588373" d="M70.726,18.294a.491.491,0,0,0,.4.55c.225,0,.411-.237.416-.538s-.174-.547-.4-.55-.411.237-.416.538" transform="translate(-34.074 -8.554)" fill="#222753"/>
        <path id="Trazado_588374" data-name="Trazado 588374" d="M74.987,21.665a.117.117,0,0,1,0-.233,2.275,2.275,0,0,0,.964-.261c.158-.106-.155-1.107-.669-2.143a.117.117,0,1,1,.209-.1c.318.639,1.011,2.158.59,2.44a2.473,2.473,0,0,1-1.084.3h0" transform="translate(-36.07 -9.086)" fill="#222753"/>
        <path id="Trazado_588375" data-name="Trazado 588375" d="M74.079,26.212a1.548,1.548,0,0,1-1.452-.915.117.117,0,0,1,.208-.106,1.518,1.518,0,0,0,2.038.626.117.117,0,0,1,.1.211,2.372,2.372,0,0,1-.893.184" transform="translate(-34.984 -12.106)" fill="#222753"/>
        <path id="Trazado_588376" data-name="Trazado 588376" d="M54.448,3.473c.741-2.223,2.97-1.487,3.107-1.7A2.821,2.821,0,0,1,60.818.762c.724.229,1.494.612,2.126.19.842-.562,4.625-1.864,5.27.072,1.409,4.228-.574,5.306-2.271,5.732a10.875,10.875,0,0,1-2.98-.135,3.2,3.2,0,0,0-2.7.98,8.722,8.722,0,0,1-.884,1.351c-.649.579-1.717.443-2.379,1.006a2.609,2.609,0,0,0-.65,2.06,16.254,16.254,0,0,0,.163,2.2,2.955,2.955,0,0,1,.03,1.107.9.9,0,0,1-.746.725c-.557.032-.889-.608-1.012-1.153A7.592,7.592,0,0,1,54.6,13.37c-.013-.644-3.781-9.4-.148-9.9" transform="translate(-25.471 0)" fill="#222753"/>
        <path id="Trazado_588377" data-name="Trazado 588377" d="M60.5,19.245c-.059-.01-.508-1.146-1.657-.944-1.023.179-1.074,1.865-.735,2.234a2.874,2.874,0,0,0,2.1,1.078Z" transform="translate(-27.906 -8.805)" fill="#f29b89"/>
        <path id="Trazado_588378" data-name="Trazado 588378" d="M59.1,21.026a.117.117,0,0,1-.116-.1.694.694,0,0,1,.208-.674c.368-.291,1.059-.036,1.089-.026a.117.117,0,0,1,.068.15.118.118,0,0,1-.15.068c-.165-.062-.643-.183-.863-.009a.483.483,0,0,0-.12.462.117.117,0,0,1-.1.13H59.1" transform="translate(-28.411 -9.689)" fill="#222753"/>
        <path id="Trazado_588379" data-name="Trazado 588379" d="M60.17,21.341h-.011a.117.117,0,0,1-.1-.1,1.591,1.591,0,0,0-.093-.131,2.25,2.25,0,0,1-.417-.763.117.117,0,0,1,.226-.057,2.061,2.061,0,0,0,.377.68c.1.132.145.192.138.264a.117.117,0,0,1-.116.105" transform="translate(-28.685 -9.733)" fill="#222753"/>
        <path id="Trazado_588380" data-name="Trazado 588380" d="M66.578,44.882s0,32.055,0,47.21c-12.517,6.962-32.41,0-32.41,0L32,63.915l.537-19.032,9.572-1.518,3.721-.591,4.01.322,5-.074,5.1.808Z" transform="translate(-15.416 -20.607)" fill="#222753"/>
        <path id="Trazado_588381" data-name="Trazado 588381" d="M69.337,43.83c-1.4,3.327-4.648,10.857-6.986,14.661-.834,1.358-1.549,2.244-2.026,2.291-.461.047-1.176-.84-2.016-2.275a.016.016,0,0,1-.005-.01C56.169,54.853,53.22,47.7,51.5,43.364l3.721-.591,4.01.322,5-.074Z" transform="translate(-24.814 -20.607)" fill="#f2f2f2"/>
        <path id="Trazado_588382" data-name="Trazado 588382" d="M54.1,41.651c.041-.183,1.829-2.341,1.829-2.341s3.8,1.61,4.793,1.573a29.177,29.177,0,0,0,4.718-1.573l1.61,2.67s-3.039,2.953-6.255,3.146c-3.041.183-6.694-3.475-6.694-3.475" transform="translate(-26.063 -18.939)" fill="#f2f2f2"/>
        <path id="Trazado_588383" data-name="Trazado 588383" d="M59.433,47.624a.113.113,0,0,1-.057-.015c-.135-.076-3.33-1.865-4.078-2.947a.116.116,0,0,1,.03-.162.118.118,0,0,1,.162.03c.655.946,3.419,2.546,3.922,2.832l2.009-2.1a.118.118,0,0,1,.163-.006l2.328,2.108c.473-.272,3.114-1.831,3.6-3.052a.117.117,0,1,1,.217.086c-.558,1.413-3.642,3.139-3.772,3.212a.118.118,0,0,1-.135-.016L61.51,45.505l-1.993,2.083a.118.118,0,0,1-.084.036" transform="translate(-26.631 -21.313)" fill="#3ae3fe"/>
        <path id="Trazado_588384" data-name="Trazado 588384" d="M68.166,59.743s-.047.192-.135.482c-.834,1.358-1.549,2.244-2.026,2.291-.461.047-1.176-.84-2.016-2.275a.016.016,0,0,1-.005-.01l.933-9.655L63.3,48.534l2.073-2.161,2.389,2.161-1.207,2.042Z" transform="translate(-30.494 -22.341)" fill="#3ae3fe"/>
        <path id="Trazado_588385" data-name="Trazado 588385" d="M168.9,24.156s5.863-5.692,8.137-7.267c.344-.238,1.653-.683,1.6.489s-1.7,2.191-2.727,3.2c.949-.176,4.2,3.286,3.967,4.078s-5.989,4.479-5.989,4.479Z" transform="translate(-81.373 -7.999)" fill="#f29b89"/>
        <path id="Trazado_588386" data-name="Trazado 588386" d="M181.541,31.5a.714.714,0,0,1-.44-.137c-.165-.126-.463-.5,0-1.4-.735.3-1.106.166-1.291-.02a1.168,1.168,0,0,1-.076-1.233,1.062,1.062,0,0,1-1.229-.233c-.144-.183-.523-.875.667-2.075a.116.116,0,1,1,.165.163c-.838.846-.885,1.468-.649,1.768a.943.943,0,0,0,1.225.033.117.117,0,0,1,.14.016.116.116,0,0,1,.023.139c-.281.531-.322,1.036-.1,1.258s.705.16,1.359-.182a.117.117,0,0,1,.152.166c-.508.8-.461,1.255-.248,1.418a.955.955,0,0,0,1.148-.339.116.116,0,0,1,.172.157,1.458,1.458,0,0,1-1.022.5" transform="translate(-85.918 -12.703)" fill="#222753"/>
        <path id="Trazado_588387" data-name="Trazado 588387" d="M172.639,25.365a.117.117,0,0,1-.069-.21,24.5,24.5,0,0,1,3.076-1.992l.169-.062c.7-.258,1.36-.5,1.56.025.182.481-.657,1.518-.827,1.721a.117.117,0,0,1-.179-.15c.387-.461.886-1.228.788-1.489-.109-.289-.549-.151-1.261.111l-.17.062a25.262,25.262,0,0,0-3.018,1.96.115.115,0,0,1-.069.023" transform="translate(-83.117 -10.991)" fill="#222753"/>
        <path id="Trazado_588388" data-name="Trazado 588388" d="M181.342,28.076a.117.117,0,0,1-.061-.216,4.7,4.7,0,0,0,1.55-2.57.116.116,0,1,1,.227.052,4.833,4.833,0,0,1-1.655,2.718.117.117,0,0,1-.061.017" transform="translate(-87.309 -12.14)" fill="#222753"/>
        <path id="Trazado_588389" data-name="Trazado 588389" d="M184.126,30.612a.116.116,0,0,1-.061-.216,4.65,4.65,0,0,0,1.794-2.3.116.116,0,0,1,.222.07,4.8,4.8,0,0,1-1.894,2.425.118.118,0,0,1-.061.017" transform="translate(-88.651 -13.499)" fill="#222753"/>
        <path id="Trazado_588390" data-name="Trazado 588390" d="M91.11,38.355c5.353,3.3,12.6,3.83,19.141,1.838a26.032,26.032,0,0,0,8.265-4.187,40.639,40.639,0,0,0,8.922-7.14c2.253,1.775,7.528,6.026,7.582,6.069a50.016,50.016,0,0,1-19.436,17.117,37.7,37.7,0,0,1-32.493.383Z" transform="translate(-40.031 -13.907)" fill="#222753"/>
        <path id="Trazado_588391" data-name="Trazado 588391" d="M95.513,55.059l-.233-.015a28.853,28.853,0,0,1,1.594-7.952l.217.086a28.617,28.617,0,0,0-1.577,7.881" transform="translate(-45.903 -22.688)" fill="#f2f2f2"/>
        <path id="Trazado_588392" data-name="Trazado 588392" d="M19.75,137.259a33.713,33.713,0,0,0,3.148,7.134c.749,1.079,2.171,2.546,2.719,2.027a1.3,1.3,0,0,0,.277-.823s1.172.994,1.582.668c.529-.421.309-1.317.309-1.317s1.031.6,1.286.335c.492-.517-.319-1.785-.319-1.785s.875.436,1.192-.139c.186-.336-2.316-4.9-2.316-4.9s3.02,1.26,2.941.334S24,133.158,24,133.158Z" transform="translate(-9.515 -64.152)" fill="#f29b89"/>
        <path id="Trazado_588393" data-name="Trazado 588393" d="M28.759,154.255a.12.12,0,0,1-.072-.024c-.056-.045-1.392-1.088-1.518-1.2s-1.231-1.653-1.45-1.962a.116.116,0,1,1,.19-.135c.495.7,1.316,1.832,1.412,1.92.121.1,1.5,1.177,1.511,1.188a.117.117,0,0,1,.02.164.115.115,0,0,1-.092.045" transform="translate(-12.38 -72.695)" fill="#222753"/>
        <path id="Trazado_588394" data-name="Trazado 588394" d="M32.047,152.51a.117.117,0,0,1-.07-.023l-1.9-1.431a.113.113,0,0,1-.028-.03l-1.433-2.233a.117.117,0,0,1,.2-.125l1.422,2.215,1.884,1.418a.117.117,0,0,1,.023.163.116.116,0,0,1-.093.046" transform="translate(-13.777 -71.598)" fill="#222753"/>
        <path id="Trazado_588395" data-name="Trazado 588395" d="M34.438,150.079a.115.115,0,0,1-.083-.034l-1.409-1.421-1.371-1.863a.116.116,0,1,1,.188-.138l1.36,1.85,1.4,1.408a.117.117,0,0,1,0,.165.116.116,0,0,1-.082.033" transform="translate(-15.201 -70.616)" fill="#222753"/>
        <path id="Trazado_588396" data-name="Trazado 588396" d="M25.091,61.19c-7.433,4.484-10.926,8.706-11.986,13.5-1.258,5.693.912,11.657,3.989,18.019L9.148,98.672C1.917,90.163-.753,81.213.178,72.815c1.1-9.939,7.143-19.477,16.738-26.229Z" transform="translate(0 -22.444)" fill="#222753"/>
        <path id="Trazado_588397" data-name="Trazado 588397" d="M35.583,57.276A24.624,24.624,0,0,0,32.451,46.59l.2-.119a24.879,24.879,0,0,1,3.165,10.8Z" transform="translate(-15.634 -22.388)" fill="#f2f2f2"/>
      </g>
    </g>
  </g>
</svg>
