<svg xmlns="http://www.w3.org/2000/svg" xmlns:xlink="http://www.w3.org/1999/xlink" width="191.177" height="191.177" viewBox="0 0 191.177 191.177">
  <defs>
    <filter id="Elipse_180" x="0" y="0" width="191.177" height="191.177" filterUnits="userSpaceOnUse">
      <feOffset dx="5" dy="5" input="SourceAlpha"/>
      <feGaussianBlur stdDeviation="12.5" result="blur"/>
      <feFlood flood-opacity="0.161"/>
      <feComposite operator="in" in2="blur"/>
      <feComposite in="SourceGraphic"/>
    </filter>
    <clipPath id="clip-path">
      <circle id="Elipse_7381" data-name="Elipse 7381" cx="44.368" cy="44.368" r="44.368" fill="none" stroke="#707070" stroke-width="1"/>
    </clipPath>
  </defs>
  <g id="Grupo_1072846" data-name="Grupo 1072846" transform="translate(-289.411 -4204.809)">
    <g id="Grupo_1072692" data-name="Grupo 1072692" transform="translate(310.327 4228.326)">
      <g id="Grupo_1015374" data-name="Grupo 1015374" transform="translate(0 0)">
        <g id="Grupo_1015448" data-name="Grupo 1015448" transform="translate(0 0)">
          <g id="Grupo_1014855" data-name="Grupo 1014855" transform="translate(0 0)">
            <path id="Unión_12" data-name="Unión 12" d="M69.673,0c38.48,0,69.673,30.661,69.673,68.483s-31.194,68.483-69.673,68.483S0,106.3,0,68.483,31.194,0,69.673,0Z" fill="#eba325"/>
            <path id="Trazado_608395" data-name="Trazado 608395" d="M58.359,0c32.231,0,58.359,26.395,58.359,58.955S90.59,117.91,58.359,117.91,0,91.515,0,58.955,26.128,0,58.359,0Z" transform="translate(11.909 8.337)" fill="#fef5e5"/>
          </g>
        </g>
      </g>
    </g>
    <g id="Grupo_1072693" data-name="Grupo 1072693" transform="translate(321.911 4237.309)">
      <g id="Grupo_875625" data-name="Grupo 875625" transform="translate(0 0)">
        <g transform="matrix(1, 0, 0, 1, -32.5, -32.5)" filter="url(#Elipse_180)">
          <circle id="Elipse_180-2" data-name="Elipse 180" cx="58.089" cy="58.089" r="58.089" transform="translate(32.5 32.5)" fill="#fff"/>
        </g>
      </g>
      <g id="Enmascarar_grupo_700350" data-name="Enmascarar grupo 700350" transform="translate(13.721 13.721)" clip-path="url(#clip-path)">
        <g id="Grupo_876066" data-name="Grupo 876066" transform="translate(13.397 13.376)">
          <path id="Trazado_587764" data-name="Trazado 587764" d="M2082.363-23.088a5.536,5.536,0,0,1,2.88.044,4.5,4.5,0,0,1,1.857,7.4c-1.5,1.615-3.085,3.152-4.673,4.681a1.106,1.106,0,0,0-.291,1.576,31.907,31.907,0,0,1,3.278,12.556c.332,3.923,1.2,7.8,1.824,11.7.092.568.174,1.138.278,1.818h-1.537q-18.1,0-36.2-.016c-.948,0-1.441.025-1.44,1.266a4.772,4.772,0,0,1-4.712,4.717c-4.16.069-8.323.079-12.482,0-2.763-.055-4.723-2.306-4.727-5.249q-.016-15.852,0-31.7a10.669,10.669,0,0,1,.175-1.858,10.81,10.81,0,0,1,8.8-8.886c.828-.153,1.128-.456,1.014-1.273a4.48,4.48,0,0,1,1.661-4.067c2.6-2.461,5.1-5.023,7.6-7.579a4.045,4.045,0,0,1,3.095-1.308c10.028.027,20.056.012,30.083.017,2.382,0,3.506,1.129,3.51,3.517C2082.369-31.543,2082.363-27.344,2082.363-23.088Zm-18.153-14.171c-4.952,0-9.9.016-14.856-.017-.752,0-1,.16-.978.955.063,1.912.032,3.828.017,5.742a3.03,3.03,0,0,1-3.347,3.308c-1.872.013-3.745-.01-5.618.013-.423.005-1.112-.279-1.016.609.066.61-.35,1.341.8,1.574,5.789,1.172,9.179,5.4,9.182,11.327q.006,13.669-.018,27.339c0,.837.154,1.124,1.066,1.119q10.986-.061,21.972-.006c.756,0,.939-.181.994-.952.078-1.09-.459-1.075-1.249-1.072-6.491.02-12.983-.024-19.475.045-1.16.012-1.324-.346-1.318-1.382q.066-11.672,0-23.344c-.006-1,.172-1.334,1.258-1.314,4.077.074,8.156.023,12.234.036a2.2,2.2,0,0,0,1.686-.562,5.509,5.509,0,0,1,3.883-1.441c1.207,0,2.415-.033,3.62.011a1.855,1.855,0,0,0,1.533-.606q2.566-2.641,5.2-5.21a1.791,1.791,0,0,0,.589-1.414c-.023-4.369-.009-8.738-.014-13.108,0-1.46-.193-1.647-1.669-1.648Q2071.451-37.264,2064.211-37.259Zm-17.819,22.953a9,9,0,0,0-8.977-8.963,8.995,8.995,0,0,0-8.994,8.945,9,9,0,0,0,9.038,9.027A9,9,0,0,0,2046.391-14.307Zm0,6.568c-1.99,1.9-1.99,1.9-1.99,4.337,0,1.289.019,2.579-.005,3.868a2.013,2.013,0,0,1-2.25,2.229q-4.741.03-9.483,0a2.011,2.011,0,0,1-2.248-2.229,36.5,36.5,0,0,1,.029-4.612c.193-1.73-.9-2.531-2.026-3.59,0,8.538-.01,16.9.008,25.255a2.935,2.935,0,0,0,3.114,3.15q5.864.044,11.729,0a2.934,2.934,0,0,0,3.114-3.151C2046.4,9.159,2046.392.8,2046.392-7.739Zm33.818-1.025c-2.26,2.274-4.391,4.428-6.538,6.565a1.085,1.085,0,0,0-.29,1.027c.182,1.061-.549.829-1.148.889-.745.074-.89-.251-.877-.922.038-1.953,0-3.908.018-5.861a2.069,2.069,0,0,0-1.066-1.97c-.6-.346-.961-.353-.947.541.041,2.494.155,5-.021,7.48-.227,3.193,1.823,4.8,4,6.4.322.237.64.107.953.023,2.766-.747,5.526-1.516,8.3-2.245a.833.833,0,0,0,.734-1.04A27.123,27.123,0,0,0,2080.21-8.764Zm-6.839,4.026c4.219-4.21,8.243-8.174,12.2-12.2a2.509,2.509,0,0,0-1.243-4.282,2.708,2.708,0,0,0-2.563.949c-2.868,2.889-5.726,5.789-8.649,8.622-.833.807-1.329,1.4-.3,2.429a2.742,2.742,0,0,1,.556,2C2073.364-6.488,2073.371-5.753,2073.371-4.738Zm6.416,19.423c1.539,0,3.078-.027,4.616.013.648.017.764-.218.662-.8q-.725-4.113-1.395-8.236c-.084-.524-.2-.692-.778-.527-2.6.74-5.207,1.434-7.819,2.122a.815.815,0,0,0-.713.95c.036,1.871.047,3.743,0,5.613-.02.747.269.9.938.878C2076.791,14.657,2078.289,14.685,2079.786,14.685Zm-16.1-25.97h-8.259c-3.208,0-3.19,0-3.049,3.227.025.583.162.785.77.78,3.2-.027,6.4-.017,9.6-.009.463,0,.761.009.674-.651A8.315,8.315,0,0,1,2063.686-11.286ZM2042.4-4.466a11.059,11.059,0,0,1-9.375.233c-.559-.246-.622.033-.616.5.015,1.248.028,2.5-.006,3.743-.016.558.193.707.723.7q4.243-.03,8.486,0c.568,0,.82-.123.8-.753C2042.371-1.453,2042.4-2.865,2042.4-4.466Zm21.646-.826h-8.57c-3.205,0-3.184,0-3.1,3.168.017.645.174.854.836.84,2.032-.041,4.067-.024,6.1-.008a1.383,1.383,0,0,0,1.1-.429C2061.513-2.841,2062.651-3.928,2064.045-5.291Zm3.331,3.335c0-.87.013-1.74-.008-2.609-.006-.261.163-.632-.21-.754-.316-.1-.524.182-.725.382-1.7,1.7-3.385,3.41-5.1,5.088-.414.4-.483.659-.022,1.082.853.784,1.685,1.6,2.457,2.461.5.557.759.389,1.271-.023,1.781-1.435,2.891-3.1,2.343-5.5A.634.634,0,0,1,2067.376-1.956Zm-5.047,9.563c-.756.3-1.4.568-2.052.808-1.564.577-2.715.269-3.516-1.147-.368-.651-.818-.566-1.335-.57-3.123-.023-3.1-.022-3.051,3.1.011.691.178.924.9.909,2.118-.045,4.238-.016,6.358-.016C2062.479,10.69,2062.479,10.69,2062.329,7.607Zm6.046-4.356c-1.525,1.163-2.44,2.6-3.84,3.5-.214.137-.132.369-.152.564-.326,3.239.137,3.691,3.363,3.389.475-.044.642-.172.637-.651C2068.364,7.869,2068.374,5.684,2068.374,3.251Zm-28.267-32.525h5.1c.683,0,1.153-.308,1.166-1.011.033-1.758.011-3.517.011-5.274ZM2058.3.7h-2.927c-3.349,0-3.349,0-2.976,3.381.009.082.006.165.01.248a.344.344,0,0,0,.4.359c1.2,0,2.4,0,3.6,0,.3,0,.4-.223.5-.467C2057.332,3.112,2057.776,2.008,2058.3.7Zm13.678-13.983c-1.1,0-1.879-.025-2.655,0a4.177,4.177,0,0,0-3.921,5.1.966.966,0,0,0,.917.859.921.921,0,0,0,1.03-.86c.06-.406.007-.828.043-1.239.082-.928.612-1.732,1.475-1.755C2070.313-11.21,2070.855-12.309,2071.974-13.28ZM2059.688,2.653c-.38.948-.756,1.9-1.148,2.854-.133.322-.224.624.039.92.3.341.642.264,1.012.109.944-.393,1.9-.765,2.819-1.135Zm10.688,3.157c0,1.427.032,2.83-.013,4.23-.024.74.433.711.881.635.4-.068,1.111.383,1.119-.506C2072.378,8.465,2072.823,6.57,2070.376,5.81Z" transform="translate(-2026.414 39.275)" fill="#040404"/>
          <path id="Trazado_587765" data-name="Trazado 587765" d="M2100.164-31.261q7.24,0,14.481,0c1.476,0,1.667.188,1.669,1.648.005,4.369-.009,8.739.014,13.108a1.791,1.791,0,0,1-.589,1.414q-2.632,2.574-5.2,5.21a1.855,1.855,0,0,1-1.533.606c-1.205-.044-2.413-.012-3.62-.011a5.509,5.509,0,0,0-3.883,1.441,2.195,2.195,0,0,1-1.686.562c-4.078-.013-8.157.038-12.234-.036-1.087-.02-1.264.318-1.258,1.314q.064,11.672,0,23.344c-.006,1.036.158,1.395,1.319,1.382,6.491-.069,12.983-.024,19.474-.045.789,0,1.327-.018,1.249,1.072-.055.772-.238.955-.994.952q-10.986-.043-21.971.006c-.913,0-1.069-.282-1.067-1.119q.045-13.669.018-27.339c0-5.922-3.393-10.155-9.182-11.327-1.15-.233-.735-.963-.8-1.574-.1-.888.593-.6,1.016-.609,1.872-.023,3.745,0,5.618-.013a3.03,3.03,0,0,0,3.347-3.308c.016-1.914.046-3.83-.017-5.742-.026-.794.226-.96.978-.955C2090.26-31.245,2095.212-31.261,2100.164-31.261Zm.159,2c-4.324,0-8.649.022-12.972-.019-.822-.008-1.063.219-1.023,1.033.067,1.369.041,2.744.008,4.115-.014.59.066.885.786.883q13.222-.037,26.443,0c.6,0,.784-.18.768-.775-.039-1.413-.067-2.83.008-4.239.045-.851-.26-1.017-1.046-1.01C2108.971-29.246,2104.647-29.265,2100.323-29.265Zm.14,7.992c-4.366,0-8.732.019-13.1-.018-.791-.006-1.059.172-1.054,1.013.005.82.235,1.026,1.044,1.023q12.972-.044,25.945,0c.79,0,1.059-.172,1.053-1.012-.005-.82-.234-1.031-1.043-1.024C2109.028-21.252,2104.746-21.273,2100.463-21.273Zm-.1,4c-4.075,0-8.15-.034-12.224.036-.633.011-1.8-.745-1.833.932s1.106,1,1.77,1.006q12.286.06,24.573,0c.633,0,1.69.632,1.712-.943.023-1.664-1.108-1-1.774-1.005C2108.515-17.3,2104.439-17.277,2100.365-17.277Zm-5.925,4c-2.368,0-4.737.04-7.1-.021-.846-.022-1.033.256-1.017,1.045.014.712.117,1,.939,1q7.1-.066,14.208,0c.9.009.857-.413.885-1.047.031-.718-.107-1.021-.932-1C2099.094-13.241,2096.767-13.281,2094.44-13.281Z" transform="translate(-2062.367 33.277)" fill="#e2e5e9"/>
          <path id="Trazado_587766" data-name="Trazado 587766" d="M2052.414,33.738a8.986,8.986,0,1,1-8.977-8.963A9,9,0,0,1,2052.414,33.738Zm-11.981,1.916a2.478,2.478,0,0,0,1.1,2.422,1.56,1.56,0,0,1,.89,1.8c-.144.883.367.884,1.022.9.706.018,1.124-.091,1-.931a1.55,1.55,0,0,1,.809-1.712,2.735,2.735,0,0,0-.144-4.616,17.088,17.088,0,0,0-1.766-.924c-.5-.248-1.026-.5-.852-1.186a.884.884,0,0,1,1.078-.63.916.916,0,0,1,.852,1.147c-.062.632.14.831.81.871.974.058,1.335-.229,1.217-1.226a2.569,2.569,0,0,0-1.112-2.125,1.54,1.54,0,0,1-.894-1.8c.145-.881-.364-.887-1.021-.9-.7-.016-1.125.089-1,.93a1.549,1.549,0,0,1-.809,1.713,2.733,2.733,0,0,0,.143,4.615,17.952,17.952,0,0,0,1.767.922c.5.25,1.027.5.852,1.188a.885.885,0,0,1-1.078.631.913.913,0,0,1-.852-1.147c.137-1.209-.751-.757-1.311-.84C2040.313,34.637,2040.412,35.2,2040.433,35.654Z" transform="translate(-2032.437 -8.769)" fill="#f8d46e"/>
          <path id="Trazado_587767" data-name="Trazado 587767" d="M2052.4,86.924c0,8.539.01,16.9-.008,25.256a2.934,2.934,0,0,1-3.114,3.151q-5.864.044-11.728,0a2.935,2.935,0,0,1-3.114-3.15c-.018-8.359-.008-16.717-.008-25.255,1.125,1.06,2.219,1.86,2.026,3.59a36.55,36.55,0,0,0-.03,4.612,2.011,2.011,0,0,0,2.248,2.229q4.741.031,9.483,0a2.013,2.013,0,0,0,2.25-2.229c.024-1.289.006-2.578.006-3.868C2050.414,88.82,2050.413,88.82,2052.4,86.924Zm-8.987,26.421c1.62,0,3.241.025,4.86-.008a1.955,1.955,0,0,0,2.123-2.093q.046-4.86,0-9.72a1.968,1.968,0,0,0-2.187-2.156q-4.8-.035-9.6,0a1.97,1.97,0,0,0-2.186,2.156q-.039,4.8,0,9.6a2.007,2.007,0,0,0,2.251,2.222C2040.26,113.364,2041.838,113.346,2043.417,113.345Z" transform="translate(-2032.426 -55.388)" fill="#939ca7"/>
          <path id="Trazado_587768" data-name="Trazado 587768" d="M2209.016,81.349a27.127,27.127,0,0,1,3.113,10.891.834.834,0,0,1-.734,1.04c-2.771.728-5.531,1.5-8.3,2.245-.313.084-.631.214-.952-.023-2.175-1.607-4.226-3.212-4-6.4.177-2.482.062-4.986.021-7.48-.015-.894.342-.887.947-.541a2.069,2.069,0,0,1,1.066,1.97c-.015,1.954.021,3.908-.018,5.861-.013.672.132,1,.877.922.6-.059,1.33.172,1.148-.889a1.085,1.085,0,0,1,.289-1.027C2204.625,85.776,2206.755,83.623,2209.016,81.349Z" transform="translate(-2155.219 -50.838)" fill="#eccdb1"/>
          <path id="Trazado_587769" data-name="Trazado 587769" d="M2210.922,49.292c0-1.015-.006-1.75,0-2.485a2.741,2.741,0,0,0-.556-2c-1.028-1.024-.532-1.622.3-2.429,2.923-2.833,5.781-5.734,8.649-8.622a2.707,2.707,0,0,1,2.563-.949,2.509,2.509,0,0,1,1.243,4.282C2219.166,41.119,2215.141,45.083,2210.922,49.292Z" transform="translate(-2163.966 -14.756)" fill="#f97f6c"/>
          <path id="Trazado_587770" data-name="Trazado 587770" d="M2223.693,147.807c-1.5,0-3-.028-4.491.013-.67.019-.958-.131-.938-.878.05-1.87.039-3.743,0-5.613a.815.815,0,0,1,.713-.95c2.611-.688,5.222-1.381,7.818-2.122.582-.166.694,0,.778.527q.664,4.123,1.395,8.236c.1.583-.014.817-.662.8C2226.771,147.779,2225.231,147.806,2223.693,147.807Z" transform="translate(-2170.321 -93.847)" fill="#b1da7d"/>
          <path id="Trazado_587771" data-name="Trazado 587771" d="M2141.48,72.731a8.323,8.323,0,0,0-.264,3.347c.088.66-.211.652-.673.651-3.2-.008-6.4-.018-9.6.009-.607,0-.744-.2-.77-.78-.141-3.227-.158-3.227,3.05-3.227Z" transform="translate(-2104.209 -44.741)" fill="#fae6a4"/>
          <path id="Trazado_587772" data-name="Trazado 587772" d="M2060.37,100.022c0,1.6-.028,3.013.013,4.423.019.629-.233.757-.8.753q-4.243-.034-8.486,0c-.531,0-.739-.145-.723-.7.035-1.247.021-2.5.006-3.743-.006-.463.057-.741.616-.5A11.058,11.058,0,0,0,2060.37,100.022Z" transform="translate(-2044.385 -65.213)" fill="#67d2f0"/>
          <path id="Trazado_587773" data-name="Trazado 587773" d="M2141.9,96.718c-1.394,1.363-2.532,2.45-3.635,3.571a1.383,1.383,0,0,1-1.1.429c-2.033-.016-4.067-.033-6.1.008-.663.013-.819-.195-.836-.84-.084-3.169-.105-3.168,3.1-3.168Z" transform="translate(-2104.273 -62.734)" fill="#fae6a4"/>
          <path id="Trazado_587774" data-name="Trazado 587774" d="M2171.164,99.9a.582.582,0,0,0,0,.124c.548,2.4-.562,4.067-2.343,5.5-.512.413-.773.58-1.271.023-.772-.863-1.6-1.677-2.457-2.461-.46-.423-.392-.677.022-1.082,1.718-1.678,3.4-3.391,5.1-5.088.2-.2.409-.485.725-.382.374.122.2.494.21.754C2171.176,98.164,2171.163,99.034,2171.164,99.9Z" transform="translate(-2130.201 -62.584)" fill="#f77f6b"/>
          <path id="Trazado_587775" data-name="Trazado 587775" d="M2140.223,145.595c.151,3.083.151,3.083-2.7,3.083-2.119,0-4.24-.029-6.358.016-.717.016-.884-.218-.9-.909-.049-3.122-.072-3.123,3.051-3.1.517,0,.967-.081,1.335.57.8,1.416,1.952,1.724,3.516,1.147C2138.823,146.162,2139.466,145.894,2140.223,145.595Z" transform="translate(-2104.308 -98.713)" fill="#fae6a4"/>
          <path id="Trazado_587776" data-name="Trazado 587776" d="M2182.079,130.9c0,2.433-.01,4.618.008,6.8,0,.479-.163.607-.637.651-3.226.3-3.689-.15-3.363-3.389.02-.2-.062-.427.152-.564C2179.64,133.5,2180.554,132.065,2182.079,130.9Z" transform="translate(-2140.119 -88.376)" fill="#fae6a4"/>
          <path id="Trazado_587777" data-name="Trazado 587777" d="M2081.211-18.117l6.279-6.285c0,1.757.022,3.516-.011,5.274-.013.7-.483,1.011-1.166,1.011Z" transform="translate(-2067.518 28.119)" fill="#b1da7d"/>
          <path id="Trazado_587778" data-name="Trazado 587778" d="M2135.787,120.7c-.52,1.305-.964,2.409-1.4,3.517-.1.243-.2.465-.5.467-1.2.006-2.4,0-3.6,0a.344.344,0,0,1-.4-.359c0-.083,0-.166-.01-.248-.373-3.381-.373-3.381,2.976-3.381Z" transform="translate(-2103.905 -80.726)" fill="#fae6a4"/>
          <path id="Trazado_587779" data-name="Trazado 587779" d="M2188.679,64.719c-1.119.971-1.661,2.07-3.111,2.11-.863.023-1.393.828-1.475,1.756-.036.412.017.833-.042,1.239a.921.921,0,0,1-1.03.86.966.966,0,0,1-.917-.859,4.177,4.177,0,0,1,3.921-5.1C2186.8,64.694,2187.578,64.719,2188.679,64.719Z" transform="translate(-2143.12 -38.724)" fill="#eccdb1"/>
          <path id="Trazado_587780" data-name="Trazado 587780" d="M2155.73,128.51l2.721,2.747c-.922.37-1.875.742-2.819,1.135-.37.154-.708.232-1.012-.109-.263-.3-.171-.6-.039-.92C2154.974,130.414,2155.35,129.458,2155.73,128.51Z" transform="translate(-2122.456 -86.582)" fill="#a4abb6"/>
          <path id="Trazado_587781" data-name="Trazado 587781" d="M2202.3,141.144c2.447.76,2,2.655,1.987,4.359-.008.889-.717.437-1.119.506-.449.076-.906.106-.881-.635C2202.328,143.974,2202.3,142.571,2202.3,141.144Z" transform="translate(-2158.333 -96.059)" fill="#fae6a4"/>
          <path id="Trazado_587782" data-name="Trazado 587782" d="M2136.28-23.28c4.324,0,8.648.019,12.972-.017.786-.006,1.091.159,1.046,1.01-.075,1.41-.046,2.827-.008,4.239.016.594-.166.776-.768.775q-13.222-.026-26.443,0c-.72,0-.8-.293-.786-.883.033-1.371.059-2.746-.008-4.115-.04-.813.2-1.041,1.023-1.033C2127.632-23.258,2131.956-23.28,2136.28-23.28Zm.068,2c-3.619,0-7.239.009-10.858-.008-.709,0-1.246-.069-1.229.98.015.951.38,1.044,1.175,1.041q10.857-.039,21.715,0c.806,0,1.149-.109,1.167-1.049.021-1.061-.537-.975-1.236-.972C2143.5-21.273,2139.927-21.281,2136.349-21.281Z" transform="translate(-2098.324 27.292)" fill="#030202"/>
          <path id="Trazado_587783" data-name="Trazado 587783" d="M2136.386,8.7c4.282,0,8.565.021,12.847-.019.809-.007,1.038.2,1.044,1.024.005.84-.263,1.015-1.054,1.012q-12.972-.04-25.945,0c-.809,0-1.038-.2-1.043-1.023-.005-.84.262-1.019,1.054-1.013C2127.654,8.721,2132.02,8.7,2136.386,8.7Z" transform="translate(-2098.29 3.301)" fill="#030303"/>
          <path id="Trazado_587784" data-name="Trazado 587784" d="M2136.272,24.376c4.075,0,8.15-.027,12.224.027.666.009,1.8-.659,1.774,1.005-.022,1.574-1.079.94-1.712.943q-12.286.057-24.573,0c-.664,0-1.806.659-1.77-1.006s1.2-.921,1.833-.932C2128.123,24.342,2132.2,24.376,2136.272,24.376Z" transform="translate(-2098.275 -8.376)" fill="#030303"/>
          <path id="Trazado_587785" data-name="Trazado 587785" d="M2130.38,40.672c2.327,0,4.654.04,6.979-.022.824-.022.963.281.932,1-.027.633.016,1.056-.884,1.047q-7.1-.076-14.208,0c-.823.008-.926-.285-.94-1-.015-.789.172-1.067,1.018-1.045C2125.643,40.712,2128.012,40.672,2130.38,40.672Z" transform="translate(-2098.308 -20.677)" fill="#030303"/>
          <path id="Trazado_587786" data-name="Trazado 587786" d="M2058.34,41.564c-.021-.453-.119-1.017.7-.9.56.083,1.448-.369,1.311.84a.913.913,0,0,0,.852,1.147.885.885,0,0,0,1.078-.631c.175-.684-.355-.939-.852-1.188a17.95,17.95,0,0,1-1.767-.922,2.733,2.733,0,0,1-.143-4.615,1.549,1.549,0,0,0,.809-1.713c-.128-.841.293-.946,1-.93.657.015,1.166.021,1.021.9a1.541,1.541,0,0,0,.894,1.8,2.569,2.569,0,0,1,1.112,2.125c.117,1-.243,1.284-1.217,1.226-.67-.04-.872-.239-.81-.871a.916.916,0,0,0-.852-1.147.884.884,0,0,0-1.078.63c-.175.684.351.938.852,1.186a17.115,17.115,0,0,1,1.766.924,2.735,2.735,0,0,1,.144,4.616,1.55,1.55,0,0,0-.809,1.712c.129.839-.29.949-1,.931-.655-.016-1.167-.018-1.023-.9a1.559,1.559,0,0,0-.89-1.8A2.478,2.478,0,0,1,2058.34,41.564Z" transform="translate(-2050.344 -14.679)" fill="#080603"/>
          <path id="Trazado_587787" data-name="Trazado 587787" d="M2049.378,150.646c-1.579,0-3.158.018-4.736,0a2.007,2.007,0,0,1-2.25-2.222q-.032-4.8,0-9.6a1.97,1.97,0,0,1,2.186-2.156q4.8-.035,9.6,0a1.968,1.968,0,0,1,2.187,2.156q.039,4.86,0,9.72a1.955,1.955,0,0,1-2.123,2.093C2052.618,150.671,2051,150.645,2049.378,150.646Zm5-4.907c0-.789-.043-1.582.011-2.367.064-.937-.586-.685-1.078-.716-.523-.034-.975-.063-.946.728.054,1.494.037,2.991,0,4.487-.012.581.161.771.766.8.906.045,1.416-.128,1.26-1.189A12.164,12.164,0,0,1,2054.374,145.739Zm-8.033-6.1c.28-.828-.135-1.024-.949-1-.674.018-1.1.054-1.031.918.053.665-.026,1.214.951,1.128C2046,140.621,2046.594,140.656,2046.341,139.638Zm3.145.98c1.022.379.841-.38.907-1.027.083-.811-.26-.948-.989-.96-.8-.014-1.059.2-1.057,1.033S2048.6,140.816,2049.487,140.618Zm3.876.014c.862.2,1.047-.2,1.037-1-.009-.721-.136-1.043-.953-1.005-.718.033-1.15.068-1.1.986C2052.386,140.367,2052.465,140.851,2053.362,140.633Zm-7.958,4c.913.224.98-.286,1-1.025.024-.778-.22-.982-.982-.977s-1.092.154-1.073,1.016C2044.369,144.447,2044.558,144.825,2045.4,144.629Zm4.934-1.068c.364-.987-.337-.871-1.014-.925-.788-.062-.975.224-.973.979,0,.777.164,1.085,1.02,1.07C2050.182,144.669,2050.547,144.468,2050.338,143.56Zm-3.98,4.146c.172-.8-.094-1.1-.956-1.088-.807.01-1.074.218-1.046,1.043.024.7.115,1.07.946,1.009C2045.984,148.622,2046.6,148.675,2046.358,147.707Zm3.98-.131c.344-.943-.284-.911-1-.946-.756-.038-1.011.175-.99.964.019.746.114,1.119,1,1.086C2050.133,148.651,2050.56,148.512,2050.338,147.576Z" transform="translate(-2038.386 -92.688)" fill="#030202"/>
          <path id="Trazado_587788" data-name="Trazado 587788" d="M2142.294-15.253c3.578,0,7.155.008,10.733-.007.7,0,1.257-.089,1.237.972-.018.94-.361,1.053-1.167,1.049q-10.858-.042-21.716,0c-.794,0-1.159-.09-1.174-1.041-.017-1.05.52-.984,1.229-.98C2135.056-15.244,2138.675-15.253,2142.294-15.253Z" transform="translate(-2104.27 21.263)" fill="#f97f6c"/>
          <path id="Trazado_587789" data-name="Trazado 587789" d="M2084.343,163.724a12.094,12.094,0,0,0,.016,1.743c.156,1.061-.354,1.234-1.259,1.189-.6-.03-.778-.219-.766-.8.032-1.5.049-2.993,0-4.487-.028-.791.423-.762.947-.728.492.031,1.142-.221,1.078.716C2084.3,162.142,2084.343,162.935,2084.343,163.724Z" transform="translate(-2068.355 -110.673)" fill="#f97f6c"/>
          <path id="Trazado_587790" data-name="Trazado 587790" d="M2052.281,145.595c.253,1.018-.337.983-1.03,1.044-.977.086-.9-.463-.95-1.128-.07-.864.358-.9,1.031-.918C2052.145,144.571,2052.561,144.767,2052.281,145.595Z" transform="translate(-2044.326 -98.645)" fill="#f77f6b"/>
          <path id="Trazado_587791" data-name="Trazado 587791" d="M2067.415,146.561c-.886.2-1.136-.118-1.139-.954s.255-1.047,1.057-1.033c.729.012,1.072.15.989.96C2068.256,146.18,2068.437,146.939,2067.415,146.561Z" transform="translate(-2056.315 -98.63)" fill="#f77f6b"/>
          <path id="Trazado_587792" data-name="Trazado 587792" d="M2083.28,146.571c-.9.218-.976-.265-1.017-1.015-.05-.918.383-.953,1.1-.986.817-.038.944.284.953,1.005C2084.327,146.369,2084.142,146.774,2083.28,146.571Z" transform="translate(-2068.304 -98.626)" fill="#f77f6b"/>
          <path id="Trazado_587793" data-name="Trazado 587793" d="M2051.336,162.566c-.847.2-1.036-.182-1.053-.986-.019-.862.3-1.011,1.073-1.016s1.006.2.982.977C2052.316,162.28,2052.25,162.79,2051.336,162.566Z" transform="translate(-2044.318 -110.625)" fill="#f77f6b"/>
          <path id="Trazado_587794" data-name="Trazado 587794" d="M2068.278,161.5c.209.907-.156,1.109-.967,1.124-.856.015-1.018-.293-1.02-1.07,0-.755.185-1.041.973-.979C2067.94,160.63,2068.642,160.514,2068.278,161.5Z" transform="translate(-2056.326 -110.628)" fill="#f77f6b"/>
          <path id="Trazado_587795" data-name="Trazado 587795" d="M2052.3,177.628c.242.968-.374.915-1.056.964-.832.06-.922-.3-.946-1.009-.028-.826.239-1.034,1.046-1.043C2052.2,176.529,2052.47,176.828,2052.3,177.628Z" transform="translate(-2044.327 -122.609)" fill="#f77f6b"/>
          <path id="Trazado_587796" data-name="Trazado 587796" d="M2068.275,177.519c.222.935-.2,1.075-.984,1.1-.889.033-.983-.34-1-1.086-.021-.788.234-1,.99-.964C2067.991,176.608,2068.619,176.576,2068.275,177.519Z" transform="translate(-2056.323 -122.631)" fill="#f77f6b"/>
        </g>
      </g>
    </g>
  </g>
</svg>
