<svg xmlns="http://www.w3.org/2000/svg" xmlns:xlink="http://www.w3.org/1999/xlink" width="191.177" height="191.177" viewBox="0 0 191.177 191.177">
  <defs>
    <filter id="Elipse_180" x="0" y="0" width="191.177" height="191.177" filterUnits="userSpaceOnUse">
      <feOffset dx="5" dy="5" input="SourceAlpha"/>
      <feGaussianBlur stdDeviation="12.5" result="blur"/>
      <feFlood flood-opacity="0.161"/>
      <feComposite operator="in" in2="blur"/>
      <feComposite in="SourceGraphic"/>
    </filter>
    <clipPath id="clip-path">
      <circle id="Elipse_7381" data-name="Elipse 7381" cx="44.368" cy="44.368" r="44.368" transform="translate(614.882 3788.883)" fill="none" stroke="#707070" stroke-width="1"/>
    </clipPath>
  </defs>
  <g id="Grupo_1072848" data-name="Grupo 1072848" transform="translate(-1129.411 -4204.809)">
    <g id="Grupo_1072690" data-name="Grupo 1072690" transform="translate(1150.327 4228.326)">
      <g id="Grupo_1015374" data-name="Grupo 1015374" transform="translate(0 0)">
        <g id="Grupo_1015448" data-name="Grupo 1015448" transform="translate(0 0)">
          <g id="Grupo_1014855" data-name="Grupo 1014855" transform="translate(0 0)">
            <path id="Unión_12" data-name="Unión 12" d="M69.673,0c38.48,0,69.673,30.661,69.673,68.483s-31.194,68.483-69.673,68.483S0,106.3,0,68.483,31.194,0,69.673,0Z" fill="#eba325"/>
            <path id="Trazado_608395" data-name="Trazado 608395" d="M58.359,0c32.231,0,58.359,26.395,58.359,58.955S90.59,117.91,58.359,117.91,0,91.515,0,58.955,26.128,0,58.359,0Z" transform="translate(11.909 8.337)" fill="#fef5e5"/>
          </g>
        </g>
      </g>
    </g>
    <g id="Grupo_1072691" data-name="Grupo 1072691" transform="translate(561.911 463.309)">
      <g id="Grupo_875625" data-name="Grupo 875625" transform="translate(600 3774)">
        <g transform="matrix(1, 0, 0, 1, -32.5, -32.5)" filter="url(#Elipse_180)">
          <circle id="Elipse_180-2" data-name="Elipse 180" cx="58.089" cy="58.089" r="58.089" transform="translate(32.5 32.5)" fill="#fff"/>
        </g>
      </g>
      <g id="Enmascarar_grupo_700350" data-name="Enmascarar grupo 700350" transform="translate(-1.162 -1.162)" clip-path="url(#clip-path)">
        <g id="Grupo_876070" data-name="Grupo 876070" transform="translate(-2225.524 3835.491)">
          <path id="Trazado_587836" data-name="Trazado 587836" d="M2926.684,74.937h.872c-.068.741.211,1.017,1.006.989,1.836-.065,3.677.006,5.516-.031.932-.019,1.415.319,1.483,1.286.064.915.229,1.823.341,2.735q1.11,9.04,2.217,18.079a.654.654,0,0,0-.186.021l-.677-.016c.126-1.035-.554-.965-1.258-.965q-24.131.014-48.263.005c-.479,0-.958-.029-1.437-.045q.346-3.382.691-6.763a3.788,3.788,0,0,1,4.1-3.758q6.424-.01,12.849,0c.721,0,1.387-.027,1.567-.92,1.9-.115,1.917-.137,1.918-2.029,0-1.476-.011-2.952,0-4.428a1.1,1.1,0,0,0-1.2-1.286c-1.694-.087-1.7-.109-1.688-1.8,0-.358.027-.716.041-1.074h.872c-.048.7.161,1.037.975.99,1.211-.071,2.431,0,3.647.018-.451.606-1.009,1.172-.538,2.035.447.817,1.2.809,1.972.808,3.635-.005,7.271-.014,10.906.007a2.221,2.221,0,0,0,2.078-.92c2.124-.135,2.123-.135,2.149-2.35C2926.646,75.329,2926.67,75.133,2926.684,74.937Zm-4.879,19.226q4.98,0,9.96,0c1.42,0,1.673-.243,1.565-1.589-.286-3.547-.612-7.091-.89-10.639-.072-.916-.518-1.237-1.4-1.235q-9.179.023-18.358,0c-.93,0-1.387.319-1.461,1.3-.266,3.509-.594,7.012-.881,10.519-.113,1.38.137,1.644,1.5,1.647C2915.166,94.168,2918.486,94.163,2921.805,94.163Z" transform="translate(-24.574 -81.99)" fill="#fbbb54"/>
          <path id="Trazado_587837" data-name="Trazado 587837" d="M2913.545,94.2q-1.108-9.04-2.217-18.08c-.112-.912-.277-1.82-.341-2.735-.068-.968-.552-1.305-1.483-1.286-1.838.037-3.679-.034-5.516.031-.8.028-1.074-.248-1.006-.989-.073-.748.218-1,1.005-.978,1.92.064,3.843.007,5.765.026A2.9,2.9,0,0,1,2912.876,73c.862,6.828,1.83,13.645,2.534,20.489a61.212,61.212,0,0,1,.047,9,4.654,4.654,0,0,1-4.628,4.209c-1.48.038-2.962.011-4.444.011q-23.421,0-46.842,0c-3.657,0-5.4-1.88-5.554-5.541-.3-7.213,1.022-14.271,1.823-21.38.26-2.306.558-4.608.864-6.908a3.62,3.62,0,0,1,4.793-2.678c.46.212.112.655.281.948.073.754-.234,1-1.016.987-1.976-.033-1.987.008-2.266,1.985-.184,1.3-.338,2.613-.5,3.921q-.987,8.082-1.97,16.165c-.019,2.278-.048,4.556-.053,6.835-.007,2.795.944,3.739,3.74,3.739h47.275c1.24,0,2.48-.028,3.719,0a2.837,2.837,0,0,0,2.858-2.892l.017-7.439Z" transform="translate(0 -78.198)" fill="#050403"/>
          <path id="Trazado_587838" data-name="Trazado 587838" d="M2898.419,32.429c-.014.358-.039.716-.041,1.074-.007,1.7-.006,1.718,1.688,1.8a1.1,1.1,0,0,1,1.2,1.286c-.015,1.476,0,2.952,0,4.428,0,1.892-.021,1.914-1.917,2.029-2.557-.015-5.114-.037-7.671-.042-4-.007-7.994-.016-11.991.008-.971.006-1.516-.288-1.494-1.362.034-1.718.011-3.437.009-5.156,0-.788.389-1.141,1.175-1.189,1.712-.1,1.713-.123,1.706-1.8,0-.359-.027-.717-.041-1.076q.022-5.943.042-11.886c0-.561-.074-1.154.565-1.456.724-.342,1.158.17,1.511.633.6.783,1.077.7,1.632-.026.681-.89,1.445-.983,2.153-.043.592.786,1.094.868,1.715.025a1.178,1.178,0,0,1,2.148,0c.617.834,1.119.776,1.715-.019.705-.942,1.468-.853,2.153.037.552.717,1.031.825,1.632.032.351-.463.785-.978,1.509-.637.638.3.566.893.568,1.455Q2898.4,26.486,2898.419,32.429ZM2883.01,22.4c0,5.072.01,9.994-.013,14.916,0,.647.135.893.846.887q5.884-.052,11.768,0c.712.006.848-.241.845-.888-.023-4.922-.013-9.844-.013-14.927-1.044.909-1.665.206-2.249-.483-.417-.492-.7-.568-1.212-.05-1.307,1.324-1.364,1.319-2.648.02-.482-.487-.739-.48-1.216,0-1.281,1.3-1.385,1.315-2.56.056-.588-.631-.921-.5-1.382.061C2884.61,22.689,2883.969,23.221,2883.01,22.4Zm6.685,18.661v-.005c2.917,0,5.835.007,8.753-.01.336,0,.888.222.851-.478-.035-.664-.569-.438-.907-.439q-8.633-.022-17.266,0c-.362,0-1-.271-.961.493.039.731.665.418,1.018.421C2884.019,41.076,2886.857,41.063,2889.695,41.063Zm-9.291-3.772c-.166,0-.24.193-.239.454,0,.3.16.4.442.382s.391-.2.4-.465C2881.015,37.344,2880.809,37.282,2880.4,37.291Zm18.042.371c.007.263.105.442.4.465s.44-.085.444-.381c0-.265-.083-.45-.385-.457C2898.643,37.283,2898.44,37.343,2898.446,37.662Z" transform="translate(-18.411 -39.482)" fill="#030302"/>
          <path id="Trazado_587839" data-name="Trazado 587839" d="M2993.42-7.053c-.014.2-.039.392-.041.587-.026,2.215-.025,2.215-2.149,2.35-1.473-.016-2.945-.042-4.418-.046-2.925-.007-2.925,0-3.089-2.889.166-2.879.166-2.879-2.611-2.879-1.241,0-2.481.008-3.721,0a2.9,2.9,0,0,1-3.228-3.166q-.019-8.4,0-16.807a2.855,2.855,0,0,1,3.062-3.085q11.345-.019,22.689,0a2.854,2.854,0,0,1,3.065,3.081q.026,8.463,0,16.927a2.855,2.855,0,0,1-3.1,3.047c-1.841.02-3.683.042-5.522-.013-.77-.023-1.086.172-.99.979C2993.44-8.337,2993.406-7.692,2993.42-7.053Zm-4.853-24.019q-5.4,0-10.8,0c-1.511,0-1.684.165-1.685,1.63q-.006,7.981,0,15.963c0,1.46.175,1.624,1.691,1.625q10.8,0,21.6,0c1.509,0,1.685-.168,1.687-1.631q.007-7.981,0-15.963c0-1.459-.176-1.622-1.692-1.624Q2993.968-31.077,2988.567-31.072Zm.06,21.168c-.719,0-1.44.041-2.156-.01-.947-.067-.879.635-.727,1.1.29.891-.888,2.339.707,2.649a25.393,25.393,0,0,0,4.3.081c.508.009.667-.172.711-.688C2991.726-9.906,2991.74-9.905,2988.628-9.9Z" transform="translate(-91.309)" fill="#030302"/>
          <path id="Trazado_587840" data-name="Trazado 587840" d="M2869.112,74.949c.014.359.04.717.041,1.076.007,1.679.006,1.7-1.706,1.8-.785.048-1.175.4-1.174,1.189,0,1.719.025,3.438-.009,5.156-.022,1.074.522,1.368,1.494,1.362,4-.024,7.994-.015,11.991-.008,2.557,0,5.114.027,7.671.042-.178.893-.845.921-1.566.92q-6.425-.014-12.849,0a3.788,3.788,0,0,0-4.1,3.758q-.347,3.381-.691,6.763c-.736-.067-1.118.224-1.024,1h-1.829c.07-.746-.233-.989-1.008-.989s-1.077.243-1.008.989l-.854,0q.984-8.083,1.97-16.165c.16-1.308.314-2.617.5-3.921.279-1.976.289-2.018,2.266-1.985.782.013,1.088-.232,1.016-.987Z" transform="translate(-6.488 -81.999)" fill="#f89c1f"/>
          <path id="Trazado_587841" data-name="Trazado 587841" d="M2989.864,74.949c.165,2.887.165,2.882,3.089,2.889,1.473,0,2.945.03,4.418.046a2.22,2.22,0,0,1-2.078.92c-3.635-.021-7.271-.012-10.906-.007-.773,0-1.525.009-1.971-.808-.471-.863.087-1.43.538-2.035,1.675-.013,3.351-.073,5.023-.02.784.025,1.085-.234,1.015-.985Z" transform="translate(-97.451 -81.999)" fill="#f89c1f"/>
          <path id="Trazado_587842" data-name="Trazado 587842" d="M2976.624,71.846c.071.75-.23,1.01-1.014.985-1.673-.053-3.349.007-5.023.02-1.216-.013-2.436-.089-3.647-.018-.813.047-1.022-.293-.974-.99-.063-.725.2-.993.989-.978q4.34.083,8.684,0C2976.438,70.849,2976.684,71.127,2976.624,71.846Z" transform="translate(-85.084 -78.897)" fill="#030302"/>
          <path id="Trazado_587843" data-name="Trazado 587843" d="M2997.717,112.366c-3.319,0-6.639.005-9.959,0-1.365,0-1.615-.268-1.5-1.647.287-3.507.614-7.011.88-10.519.074-.978.531-1.3,1.461-1.3q9.179.028,18.359,0c.877,0,1.324.319,1.4,1.235.278,3.548.6,7.092.89,10.639.108,1.346-.145,1.587-1.565,1.589Q3002.7,112.373,2997.717,112.366Zm-7.649-1.924a4.869,4.869,0,0,1,.838.007c.927.164,1.136-.233,1.105-1.11-.024-.717-.27-.88-.908-.827a6.583,6.583,0,0,1-1.675-.007c-1.233-.219-1.089.64-1.151,1.359-.085,1.009.693.435,1.075.564A2.341,2.341,0,0,0,2990.068,110.442Zm15.355,0c.439,0,.879,0,1.319,0,.313,0,.544-.04.5-.456-.093-.793.086-1.772-1.287-1.478a4.837,4.837,0,0,1-1.315.008c-.692-.048-1.18-.058-1.161.941.017.9.334,1.1,1.111.991A6.178,6.178,0,0,1,3005.423,110.441ZM2990.2,106.6a5.341,5.341,0,0,1,.833.007c.808.129.96-.234.978-.983.02-.816-.264-1.036-1.012-.953a5.78,5.78,0,0,1-1.426,0c-1.141-.161-.877.667-.976,1.283-.135.844.459.623.89.645C2989.725,106.608,2989.963,106.6,2990.2,106.6Zm15.115,0c1.92-.014,1.529.144,1.564-1.026.023-.743-.268-.987-.982-.9a6.01,6.01,0,0,1-1.426,0c-.789-.1-.982.206-.989.976-.006.793.233,1.072,1,.961A5.861,5.861,0,0,1,3005.316,106.6Zm-14.9-3.844c.079,0,.159,0,.237,0,.643-.033,1.367.3,1.376-.945.01-1.225-.687-.959-1.349-.973-.356-.008-.715.027-1.068-.007-.474-.046-.583.193-.657.607C2988.723,102.757,2988.7,102.754,2990.417,102.754Zm14.534,0c1.8,0,1.911-.094,1.555-1.4-.3-1.094-1.189-.334-1.787-.5-1.122-.315-1.305.332-1.217,1.281C3003.622,103.41,3004.594,102.4,3004.952,102.754Zm-4.818,3.844a3.212,3.212,0,0,1,.357,0c.709.08,1.154.022,1.14-.946-.014-.9-.341-1.087-1.107-.982a3.109,3.109,0,0,1-.833,0c-.748-.1-.965.149-1.019.948C2998.583,106.976,2999.48,106.534,3000.134,106.6Zm-4.809,0a3.341,3.341,0,0,1,.357,0c.7.076,1.16.032,1.143-.943-.016-.9-.331-1.093-1.1-.986a3.114,3.114,0,0,1-.833,0c-.741-.1-.97.138-1.023.943C2993.777,106.97,2994.669,106.536,2995.325,106.6Zm4.745-3.844h.238c.693.008,1.359.215,1.334-1-.024-1.153-.659-.912-1.293-.919a5.7,5.7,0,0,1-.714-.006c-.7-.1-.9.124-.965.882C2998.56,103,2999.344,102.764,3000.07,102.754Zm-4.621-1.92c-.167,0-.286.006-.4,0-.648-.036-1.174-.122-1.186.9s.423,1.105,1.191,1.021a2.649,2.649,0,0,1,.714,0c.839.14,1.016-.2,1.058-1.026C2996.889,100.4,2995.983,100.948,2995.449,100.834Zm-.229,9.608a4.934,4.934,0,0,1,.567,0c.715.1,1.031-.084,1.035-.929,0-.878-.292-1.122-1.086-1a2.19,2.19,0,0,1-.713,0c-.984-.181-1.145.287-1.146,1.171C2993.875,111.012,2994.84,110.193,2995.221,110.442Zm4.864,0a3.655,3.655,0,0,1,.429,0c.746.1,1.113-.043,1.118-.969,0-.952-.409-1.039-1.132-.957a2.536,2.536,0,0,1-.714,0c-.9-.16-1.1.212-1.11,1.092C2998.655,110.981,2999.632,110.237,3000.084,110.442Z" transform="translate(-100.486 -100.193)" fill="#030302"/>
          <path id="Trazado_587844" data-name="Trazado 587844" d="M2938.06,171.132q-.008,3.72-.016,7.439l-15.275,0c-.014-1.159-.049-2.319-.034-3.477.012-.895-.361-1.329-1.281-1.328q-12.181.012-24.361,0c-.921,0-1.292.433-1.281,1.328.015,1.159-.021,2.318-.034,3.477-1.918,0-3.836.025-5.754,0a3.764,3.764,0,0,1-3.808-3.8c-.02-.959,0-1.918,0-2.877.479-.015.958-.042,1.438-.043q24.137,0,48.275.006c.716,0,1.38.052,1.257-.975l.676.016Z" transform="translate(-24.504 -154.877)" fill="#fb9d20"/>
          <path id="Trazado_587845" data-name="Trazado 587845" d="M2933.976,167.684c.123,1.027-.541.975-1.257.975q-24.137-.016-48.275-.006c-.479,0-.958.028-1.438.043-.755.08-1.1-.255-1.013-1.013-.094-.779.289-1.07,1.025-1,.479.016.958.045,1.437.045q24.131,0,48.263-.005C2933.421,166.719,2934.1,166.649,2933.976,167.684Z" transform="translate(-21.292 -151.673)" fill="#030100"/>
          <path id="Trazado_587846" data-name="Trazado 587846" d="M3101.3,171.114l-.2-.228a.652.652,0,0,1,.186-.021Z" transform="translate(-187.748 -154.859)" fill="#e48b15"/>
          <path id="Trazado_587847" data-name="Trazado 587847" d="M2867.019,170.876c-.083.758.258,1.093,1.013,1.013,0,.959-.021,1.918,0,2.877a3.764,3.764,0,0,0,3.808,3.8c1.918.026,3.836,0,5.755,0,.174.757.679.977,1.414.975q12.082-.019,24.164,0c.736,0,1.239-.22,1.414-.976l15.275,0a2.837,2.837,0,0,1-2.858,2.892c-1.239-.032-2.479,0-3.719,0h-47.275c-2.8,0-3.747-.944-3.74-3.739.005-2.278.035-4.557.054-6.835l.853,0c-.065.74.223,1,1.008,1s1.073-.261,1.008-1Z" transform="translate(-6.319 -154.866)" fill="#e48b15"/>
          <path id="Trazado_587848" data-name="Trazado 587848" d="M2898.219,30.377c.959.819,1.6.288,2.167-.4.461-.563.793-.692,1.382-.061,1.175,1.259,1.279,1.242,2.561-.056.477-.483.734-.49,1.216,0,1.284,1.3,1.341,1.3,2.648-.02.511-.518.794-.442,1.212.05.585.689,1.2,1.392,2.249.483,0,5.083-.01,10.005.013,14.927,0,.646-.133.894-.845.888q-5.884-.052-11.768,0c-.71.006-.848-.24-.845-.887C2898.23,40.371,2898.219,35.449,2898.219,30.377Zm3.787,4.5q.057-.246-.189-.189h-1.448q-.246-.059-.19.188v1.449q-.058.247.189.19h1.448q.246.058.19-.188Zm2.205,1.637h1.448q.246.058.19-.188V34.882q.059-.246-.189-.189h-1.448c-.165-.039-.227.024-.19.188v1.449Q2903.965,36.576,2904.211,36.519Zm.7,7.736c1.358,0,2.719-.05,4.073.019.82.042.792-.4.762-.955-.026-.489.174-1.022-.71-1.006-2.715.05-5.432.057-8.146,0-.956-.021-.711.557-.766,1.076-.07.655.124.916.835.885C2902.273,44.215,2903.592,44.255,2904.91,44.255Zm.028-5.767c-1.357,0-2.718.05-4.073-.018-.85-.043-.743.455-.74.977s-.12,1,.734.983q4.072-.078,8.147,0c.847.016.741-.456.739-.979s.122-1.025-.734-.982C2907.656,38.538,2906.3,38.488,2904.938,38.488Zm-.951-5.92c-.056.661-.144,1.262.84,1.135.586-.076,1.225.126,1.09-.871-.08-.585.123-1.235-.872-1.085C2904.479,31.832,2903.727,31.567,2903.987,32.568Zm-2.936,1.082c.667.166,1.106.062,1.025-.848-.056-.634.032-1.163-.906-1.064-.631.067-1.172-.03-1.061.908C2900.182,33.26,2900.038,33.914,2901.052,33.649Z" transform="translate(-33.62 -47.458)" fill="#eaf1f6"/>
          <path id="Trazado_587849" data-name="Trazado 587849" d="M2895.945,107.769c-2.837,0-5.676.013-8.512-.017-.354,0-.979.31-1.018-.421-.041-.763.6-.491.961-.493q8.632-.026,17.266,0c.338,0,.872-.225.906.439.037.7-.514.476-.851.478-2.917.017-5.835.01-8.753.01Z" transform="translate(-24.66 -106.188)" fill="#a0afcb"/>
          <path id="Trazado_587850" data-name="Trazado 587850" d="M2886.662,95.162c.405-.009.611.053.6.371-.008.26-.107.441-.4.465s-.441-.086-.442-.382C2886.423,95.354,2886.5,95.157,2886.662,95.162Z" transform="translate(-24.669 -97.353)" fill="#a51d28"/>
          <path id="Trazado_587851" data-name="Trazado 587851" d="M2962.474,95.526c-.006-.319.2-.379.457-.374.3.007.389.192.385.457,0,.3-.162.4-.444.381S2962.48,95.789,2962.474,95.526Z" transform="translate(-82.439 -97.347)" fill="#a51d28"/>
          <path id="Trazado_587852" data-name="Trazado 587852" d="M2994.652-24.987q5.4,0,10.8,0c1.517,0,1.69.165,1.692,1.624q.007,7.982,0,15.963c0,1.463-.178,1.63-1.686,1.631q-10.8,0-21.6,0c-1.516,0-1.689-.165-1.691-1.625q-.007-7.982,0-15.963c0-1.465.173-1.628,1.685-1.63Q2989.251-24.992,2994.652-24.987Zm10.571,6.683q0-.917,0-1.834c.753.071,1.081-.232.974-1.017a6.112,6.112,0,0,1,0-1.318c.094-1.128-.382-1.572-1.532-1.567q-10.016.047-20.033,0c-1.061,0-1.522.363-1.515,1.467q.047,7.2,0,14.4c0,1.005.36,1.459,1.4,1.456q10.137-.03,20.273,0c1.04,0,1.417-.443,1.407-1.452-.03-3.039-.039-6.078.009-9.117C3006.218-18.07,3005.975-18.375,3005.223-18.3Z" transform="translate(-97.393 -6.085)" fill="#f7a837"/>
          <path id="Trazado_587853" data-name="Trazado 587853" d="M3024.791,63.029c3.113,0,3.1,0,2.837,3.134-.043.516-.2.7-.711.688a25.391,25.391,0,0,1-4.3-.081c-1.6-.309-.417-1.758-.707-2.649-.153-.468-.22-1.169.727-1.1C3023.35,63.07,3024.072,63.03,3024.791,63.029Z" transform="translate(-127.472 -72.934)" fill="#ba6d07"/>
          <path id="Trazado_587854" data-name="Trazado 587854" d="M2868.027,167.758c.065.74-.223,1-1.008,1s-1.073-.261-1.008-1c-.069-.746.234-.989,1.008-.989S2868.1,167.012,2868.027,167.758Z" transform="translate(-9.156 -151.748)" fill="#050403"/>
          <path id="Trazado_587855" data-name="Trazado 587855" d="M2996.512,140.685a2.341,2.341,0,0,1-.715-.013c-.382-.129-1.161.445-1.075-.564.062-.719-.083-1.579,1.15-1.359a6.59,6.59,0,0,0,1.676.007c.638-.053.884.11.908.827.031.877-.179,1.274-1.105,1.11A4.873,4.873,0,0,0,2996.512,140.685Z" transform="translate(-106.93 -130.437)" fill="#eaf1f6"/>
          <path id="Trazado_587856" data-name="Trazado 587856" d="M3059.908,140.634a6.134,6.134,0,0,0-.839.006c-.777.108-1.094-.089-1.111-.991-.019-1,.469-.989,1.161-.941a4.839,4.839,0,0,0,1.316-.008c1.373-.294,1.194.685,1.287,1.478.049.416-.183.46-.495.456C3060.788,140.631,3060.347,140.634,3059.908,140.634Z" transform="translate(-154.971 -130.386)" fill="#eaf1f6"/>
          <path id="Trazado_587857" data-name="Trazado 587857" d="M2997.615,124.759c-.239,0-.477.01-.715,0-.43-.022-1.024.2-.889-.645.1-.616-.166-1.444.976-1.283a5.78,5.78,0,0,0,1.426,0c.748-.083,1.031.137,1.012.953-.018.749-.17,1.112-.977.983A5.372,5.372,0,0,0,2997.615,124.759Z" transform="translate(-107.9 -118.354)" fill="#eaf1f6"/>
          <path id="Trazado_587858" data-name="Trazado 587858" d="M3059.833,124.765a5.861,5.861,0,0,0-.833.006c-.767.111-1.006-.168-1-.961.006-.771.2-1.076.989-.976a6.013,6.013,0,0,0,1.427,0c.714-.082,1,.161.982.9C3061.363,124.909,3061.753,124.751,3059.833,124.765Z" transform="translate(-155.003 -118.36)" fill="#eaf1f6"/>
          <path id="Trazado_587859" data-name="Trazado 587859" d="M2998.675,108.822c-1.713,0-1.694,0-1.459-1.319.074-.415.183-.654.657-.607.353.034.711,0,1.067.007.662.014,1.358-.253,1.349.973-.009,1.241-.734.912-1.376.945C2998.834,108.825,2998.754,108.822,2998.675,108.822Z" transform="translate(-108.743 -106.261)" fill="#eaf1f6"/>
          <path id="Trazado_587860" data-name="Trazado 587860" d="M3059.471,108.6c-.357-.355-1.33.656-1.448-.621-.088-.949.095-1.6,1.217-1.281.6.168,1.489-.592,1.787.5C3061.382,108.5,3061.268,108.6,3059.471,108.6Z" transform="translate(-155.005 -106.036)" fill="#eaf1f6"/>
          <path id="Trazado_587861" data-name="Trazado 587861" d="M3039.426,124.754c-.654-.064-1.551.378-1.462-.979.053-.8.271-1.05,1.018-.948a3.1,3.1,0,0,0,.833,0c.767-.1,1.094.08,1.108.982.015.968-.43,1.026-1.139.946A3.223,3.223,0,0,0,3039.426,124.754Z" transform="translate(-139.778 -118.35)" fill="#eaf1f6"/>
          <path id="Trazado_587862" data-name="Trazado 587862" d="M3019.432,124.753c-.656-.063-1.548.372-1.459-.983.053-.806.282-1.043,1.023-.943a3.114,3.114,0,0,0,.833,0c.773-.108,1.088.09,1.1.986.017.974-.44,1.019-1.143.943A3.284,3.284,0,0,0,3019.432,124.753Z" transform="translate(-124.592 -118.348)" fill="#eaf1f6"/>
          <path id="Trazado_587863" data-name="Trazado 587863" d="M3039.343,108.781c-.726.01-1.511.243-1.4-1.043.065-.758.268-.98.965-.882a5.7,5.7,0,0,0,.714.006c.635.008,1.269-.234,1.294.919.025,1.216-.641,1.008-1.334,1Z" transform="translate(-139.758 -106.22)" fill="#eaf1f6"/>
          <path id="Trazado_587864" data-name="Trazado 587864" d="M3019.551,106.884c.534.114,1.44-.43,1.373.9-.042.824-.219,1.167-1.058,1.026a2.65,2.65,0,0,0-.714,0c-.768.084-1.2,0-1.191-1.021s.537-.94,1.186-.9C3019.265,106.89,3019.384,106.884,3019.551,106.884Z" transform="translate(-124.587 -106.244)" fill="#eaf1f6"/>
          <path id="Trazado_587865" data-name="Trazado 587865" d="M3019.381,140.706c-.38-.249-1.345.57-1.344-.756,0-.884.163-1.351,1.146-1.171a2.19,2.19,0,0,0,.713,0c.795-.122,1.09.122,1.086,1,0,.845-.319,1.025-1.034.929A4.934,4.934,0,0,0,3019.381,140.706Z" transform="translate(-124.646 -130.457)" fill="#eaf1f6"/>
          <path id="Trazado_587866" data-name="Trazado 587866" d="M3039.408,140.714c-.452-.205-1.429.54-1.409-.834.013-.88.207-1.252,1.11-1.092a2.531,2.531,0,0,0,.713,0c.724-.081,1.136.005,1.132.957,0,.926-.371,1.072-1.117.969A3.661,3.661,0,0,0,3039.408,140.714Z" transform="translate(-139.809 -130.465)" fill="#eaf1f6"/>
          <path id="Trazado_587867" data-name="Trazado 587867" d="M2953.014,187.68c-.175.756-.679.977-1.414.976q-12.083-.02-24.165,0c-.735,0-1.24-.219-1.414-.975.014-1.159.049-2.319.035-3.477-.011-.9.36-1.329,1.281-1.328q12.181.012,24.361,0c.92,0,1.293.433,1.281,1.328C2952.966,185.361,2953,186.521,2953.014,187.68Zm-3.9-1c.359.013.721,0,1.076.045.7.082.892-.243.875-.9-.016-.624-.02-1.042-.869-1.038q-10.675.045-21.35,0c-.848,0-.853.414-.869,1.038-.017.657.171.983.874.9.356-.042.718-.031,1.076-.045Z" transform="translate(-54.749 -163.982)" fill="#030100"/>
          <path id="Trazado_587868" data-name="Trazado 587868" d="M2910.921,84.809c-1.318,0-2.637-.041-3.953.016-.711.031-.905-.23-.835-.885.055-.519-.19-1.1.766-1.076,2.715.059,5.432.053,8.147,0,.884-.016.684.516.71,1.006.03.552.058,1-.762.955C2913.639,84.758,2912.279,84.808,2910.921,84.809Z" transform="translate(-39.63 -88.012)" fill="#030302"/>
          <path id="Trazado_587869" data-name="Trazado 587869" d="M2910.987,66.9c1.358,0,2.718.05,4.073-.018.857-.043.731.466.734.982s.109.995-.739.979q-4.072-.078-8.146,0c-.854.016-.731-.467-.734-.983s-.111-1.02.74-.977C2908.268,66.946,2909.629,66.9,2910.987,66.9Z" transform="translate(-39.668 -75.867)" fill="#030302"/>
          <path id="Trazado_587870" data-name="Trazado 587870" d="M2922.088,39.668c-.26-1,.491-.736,1.057-.821,1-.15.793.5.872,1.085.135,1-.5.8-1.089.871C2921.944,40.931,2922.032,40.329,2922.088,39.668Z" transform="translate(-51.72 -54.559)" fill="#050403"/>
          <path id="Trazado_587871" data-name="Trazado 587871" d="M2907.018,40.752c-1.013.264-.87-.39-.943-1-.111-.938.43-.842,1.061-.908.939-.1.85.43.906,1.064C2908.125,40.814,2907.686,40.918,2907.018,40.752Z" transform="translate(-39.586 -54.561)" fill="#050403"/>
          <path id="Trazado_587872" data-name="Trazado 587872" d="M2922.4,52.81V51.361l.19-.188h1.448l.188.189v1.449l-.189.188h-1.449Z" transform="translate(-51.999 -63.939)" fill="#030100"/>
          <path id="Trazado_587873" data-name="Trazado 587873" d="M2906.6,51.173h1.448l.189.189v1.449l-.19.188H2906.6l-.189-.19V51.361Z" transform="translate(-39.852 -63.939)" fill="#030100"/>
          <path id="Trazado_587874" data-name="Trazado 587874" d="M2906.567,51.137l-.19.188Q2906.32,51.079,2906.567,51.137Z" transform="translate(-39.818 -63.903)" fill="#050403"/>
          <path id="Trazado_587875" data-name="Trazado 587875" d="M2913.221,58.175l.19-.188Q2913.467,58.234,2913.221,58.175Z" transform="translate(-45.025 -69.115)" fill="#050403"/>
          <path id="Trazado_587876" data-name="Trazado 587876" d="M2913.415,51.329l-.189-.189Q2913.473,51.082,2913.415,51.329Z" transform="translate(-45.029 -63.905)" fill="#050403"/>
          <path id="Trazado_587877" data-name="Trazado 587877" d="M2922.558,51.137l-.189.188Q2922.312,51.079,2922.558,51.137Z" transform="translate(-51.966 -63.903)" fill="#050403"/>
          <path id="Trazado_587878" data-name="Trazado 587878" d="M2922.367,57.982l.188.19Q2922.308,58.228,2922.367,57.982Z" transform="translate(-51.964 -69.111)" fill="#050403"/>
          <path id="Trazado_587879" data-name="Trazado 587879" d="M2929.406,51.329l-.188-.189Q2929.463,51.082,2929.406,51.329Z" transform="translate(-57.176 -63.905)" fill="#050403"/>
          <path id="Trazado_587880" data-name="Trazado 587880" d="M2906.376,57.982l.189.19Q2906.318,58.228,2906.376,57.982Z" transform="translate(-39.817 -69.111)" fill="#050403"/>
          <path id="Trazado_587881" data-name="Trazado 587881" d="M2929.212,58.175l.19-.188C2929.439,58.151,2929.376,58.214,2929.212,58.175Z" transform="translate(-57.172 -69.115)" fill="#050403"/>
          <path id="Trazado_587882" data-name="Trazado 587882" d="M3020.437-11.077q0,.917,0,1.834c-.747-.075-1,.213-.981,1,.048,2.239-.007,4.48-.022,6.721-3.3,0-6.606.022-9.909,0a7.277,7.277,0,0,1-6.617-4.76l.959-.086q.247.059.19-.189V-8c.039-.165-.024-.228-.189-.19l-1.448,0a.262.262,0,0,0-.23-.026v-1l.117.013.111-.038h1.448q.247.059.19-.189v-1.448c.039-.165-.024-.228-.189-.19h-1.448a.273.273,0,0,0-.23-.024q0-.95,0-1.9c5.519-.014,11.038-.011,16.557-.062.855-.008.792.472.72.982C3019.354-11.285,3019.693-11,3020.437-11.077Zm-14.174,0c-.165-.039-.228.024-.19.189v1.448c-.039.165.024.228.189.19h1.448c.165.039.228-.024.19-.189v-1.448q.059-.247-.189-.19Zm-.226,3.641c-.057.661-.144,1.263.84,1.136.586-.076,1.226.126,1.09-.872-.079-.586.123-1.237-.873-1.086C3006.53-8.169,3005.777-8.435,3006.037-7.433Z" transform="translate(-112.607 -15.146)" fill="#ebf2f8"/>
          <path id="Trazado_587883" data-name="Trazado 587883" d="M3007.222-7.584c.014-2.24.069-4.482.022-6.721-.017-.789.234-1.077.981-1,.753-.071,1,.234.983,1.016-.049,3.038-.039,6.078-.009,9.117.01,1.008-.367,1.455-1.407,1.452q-10.136-.03-20.273,0c-1.042,0-1.407-.45-1.4-1.456q.036-7.2,0-14.4c-.007-1.1.454-1.47,1.515-1.467q10.016.037,20.033,0c1.15-.005,1.625.439,1.532,1.567a6.1,6.1,0,0,0,0,1.318c.107.785-.221,1.088-.974,1.017-.744.074-1.083-.208-.97-1,.073-.51.135-.989-.72-.982-5.519.051-11.037.048-16.556.062-1.928-.111-1.928-.111-1.928,1.766,0,3.518.034,7.036-.023,10.553-.015.908.231,1.118,1.121,1.111,5.476-.044,10.952-.022,16.428-.022,1.734,0,1.735,0,1.684-1.692A1.841,1.841,0,0,0,3007.222-7.584Z" transform="translate(-100.397 -9.082)" fill="#030302"/>
          <path id="Trazado_587884" data-name="Trazado 587884" d="M2936.092,192.727c-.359.013-.721,0-1.077.045-.7.083-.891-.243-.874-.9.016-.624.021-1.042.869-1.038q10.675.045,21.35,0c.849,0,.853.415.869,1.038.017.658-.171.983-.875.9-.355-.042-.718-.032-1.076-.045-.111-.758-.628-.924-1.294-.923q-8.3.008-16.6,0C2936.72,191.8,2936.2,191.969,2936.092,192.727Z" transform="translate(-60.916 -170.027)" fill="#a51d28"/>
          <path id="Trazado_587885" data-name="Trazado 587885" d="M2942.259,195.794c.111-.758.628-.924,1.295-.923q8.3.008,16.6,0c.666,0,1.183.165,1.294.923Z" transform="translate(-67.083 -173.095)" fill="#db3c3c"/>
          <path id="Trazado_587886" data-name="Trazado 587886" d="M3013.264-1.446a1.839,1.839,0,0,1,.037.237c.051,1.692.051,1.692-1.683,1.692-5.476,0-10.953-.022-16.429.022-.89.007-1.136-.2-1.122-1.111.059-3.517.024-7.035.024-10.553,0-1.876,0-1.876,1.928-1.766q0,.949,0,1.9a.343.343,0,0,0,.039.213v1.449a.342.342,0,0,0-.039.215q0,.5,0,1a.352.352,0,0,0,.04.217v1.449q-.053.242.189.19l.49.086a7.277,7.277,0,0,0,6.617,4.76C3006.658-1.424,3009.961-1.443,3013.264-1.446Z" transform="translate(-106.437 -15.219)" fill="#bfcde5"/>
          <path id="Trazado_587887" data-name="Trazado 587887" d="M3018.029,7.684c-.26-1,.492-.736,1.058-.822,1-.151.793.5.873,1.086.136,1-.5.8-1.09.872C3017.885,8.947,3017.972,8.345,3018.029,7.684Z" transform="translate(-124.599 -30.263)" fill="#050403"/>
          <path id="Trazado_587888" data-name="Trazado 587888" d="M3002.352,8.827V7.378l.191-.191,1.448,0,.189.19V8.828l-.191.189-.959.086-.49-.086Z" transform="translate(-112.731 -30.526)" fill="#030100"/>
          <path id="Trazado_587889" data-name="Trazado 587889" d="M3002.353-3.161V-4.611l.19-.189h1.448l.189.19v1.448l-.19.189h-1.449Z" transform="translate(-112.732 -21.42)" fill="#030100"/>
          <path id="Trazado_587890" data-name="Trazado 587890" d="M3019.981-2.97h-1.449l-.188-.19V-4.608l.19-.189h1.448l.189.19v1.448Z" transform="translate(-124.879 -21.423)" fill="#030100"/>
          <path id="Trazado_587891" data-name="Trazado 587891" d="M3002.41-4.923l-.19.189a.344.344,0,0,1-.039-.213A.272.272,0,0,1,3002.41-4.923Z" transform="translate(-112.598 -21.297)" fill="#050403"/>
          <path id="Trazado_587892" data-name="Trazado 587892" d="M3018.5-4.833l-.19.189C3018.272-4.809,3018.335-4.872,3018.5-4.833Z" transform="translate(-124.845 -21.387)" fill="#050403"/>
          <path id="Trazado_587893" data-name="Trazado 587893" d="M3025.35-4.641l-.189-.19Q3025.408-4.888,3025.35-4.641Z" transform="translate(-130.057 -21.389)" fill="#050403"/>
          <path id="Trazado_587894" data-name="Trazado 587894" d="M3009.165,2.208l.191-.189Q3009.411,2.267,3009.165,2.208Z" transform="translate(-117.906 -26.6)" fill="#050403"/>
          <path id="Trazado_587895" data-name="Trazado 587895" d="M3009.165,14.2l.191-.189Q3009.411,14.26,3009.165,14.2Z" transform="translate(-117.906 -35.71)" fill="#050403"/>
          <path id="Trazado_587896" data-name="Trazado 587896" d="M3025.156,2.208l.19-.189Q3025.4,2.267,3025.156,2.208Z" transform="translate(-130.053 -26.6)" fill="#050403"/>
          <path id="Trazado_587897" data-name="Trazado 587897" d="M3018.308,2.014l.189.19C3018.332,2.242,3018.27,2.179,3018.308,2.014Z" transform="translate(-124.843 -26.596)" fill="#050403"/>
          <path id="Trazado_587898" data-name="Trazado 587898" d="M3002.219,2.017l.189.19-.111.038-.116-.013A.345.345,0,0,1,3002.219,2.017Z" transform="translate(-112.597 -26.599)" fill="#050403"/>
          <path id="Trazado_587899" data-name="Trazado 587899" d="M3002.409,7.057l-.19.191a.354.354,0,0,1-.039-.217A.262.262,0,0,1,3002.409,7.057Z" transform="translate(-112.598 -30.396)" fill="#050403"/>
          <path id="Trazado_587900" data-name="Trazado 587900" d="M3009.359-4.641l-.189-.19Q3009.417-4.888,3009.359-4.641Z" transform="translate(-117.91 -21.389)" fill="#050403"/>
          <path id="Trazado_587901" data-name="Trazado 587901" d="M3009.359,7.352l-.189-.19Q3009.417,7.105,3009.359,7.352Z" transform="translate(-117.91 -30.499)" fill="#050403"/>
          <path id="Trazado_587902" data-name="Trazado 587902" d="M3002.322,14.01l.189.19Q3002.269,14.252,3002.322,14.01Z" transform="translate(-112.701 -35.709)" fill="#050403"/>
        </g>
      </g>
    </g>
  </g>
</svg>
